<svg width="38" height="24" viewBox="0 0 38 24" fill="none" xmlns="http://www.w3.org/2000/svg">
<g id="Frame 257">
<g id="layer1">
<path id="path3078" d="M0.955078 0H36.9551V12.9559L35.1732 14.8121L36.9551 16.464V24H0.955078V11.7865L2.06877 10.9327L0.955078 10.116V0Z" fill="#016FD0"/>
<path id="path3082" d="M7.94336 19.0861V13.4341H13.9277L14.5698 14.2711L15.2331 13.4341H36.955V18.6963C36.955 18.6963 36.3869 19.0804 35.7299 19.0861H23.7021L22.9782 18.1951V19.0861H20.606V17.5652C20.606 17.5652 20.282 17.7775 19.5814 17.7775H18.774V19.0861H15.1823L14.5412 18.2311L13.8902 19.0861H7.94336Z" fill="white"/>
<path id="path3080" d="M0.955078 9.174L2.30458 6.02783H4.63841L5.40427 7.79019V6.02783H8.30543L8.76134 7.30161L9.20334 6.02783H22.2265V6.6682C22.2265 6.6682 22.9112 6.02783 24.0363 6.02783L28.2618 6.0426L29.0145 7.78189V6.02783H31.4423L32.1105 7.02691V6.02783H34.5606V11.6798H32.1105L31.4702 10.6775V11.6798H27.9031L27.5444 10.7888H26.5855L26.2326 11.6798H23.8135C22.8454 11.6798 22.2265 11.0525 22.2265 11.0525V11.6798H18.5792L17.8553 10.7888V11.6798H4.29266L3.9342 10.7888H2.97831L2.62238 11.6798H0.955078V9.174Z" fill="white"/>
<path id="path3046" d="M2.78234 6.72461L0.962158 10.9566H2.14719L2.48304 10.1092H4.43548L4.76958 10.9566H5.98072L4.16227 6.72461H2.78234ZM3.45578 7.70953L4.0509 9.19039H2.85891L3.45578 7.70953Z" fill="#016FD0"/>
<path id="path3048" d="M6.10596 10.9559V6.72388L7.78996 6.73013L8.76943 9.45867L9.72545 6.72388H11.396V10.9559H10.338V7.83757L9.21647 10.9559H8.2886L7.16396 7.83757V10.9559H6.10596Z" fill="#016FD0"/>
<path id="path3050" d="M12.1199 10.9559V6.72388H15.5723V7.67052H13.189V8.39441H15.5166V9.28536H13.189V10.0371H15.5723V10.9559H12.1199Z" fill="#016FD0"/>
<path id="path3052" d="M16.1848 6.72461V10.9566H17.2428V9.45315H17.6883L18.9569 10.9566H20.2498L18.8577 9.39746C19.429 9.34925 20.0183 8.85889 20.0183 8.09758C20.0183 7.20702 19.3193 6.72461 18.5392 6.72461H16.1848ZM17.2428 7.67124H18.4522C18.7423 7.67124 18.9534 7.89818 18.9534 8.11672C18.9534 8.39788 18.6799 8.5622 18.4679 8.5622H17.2428V7.67124Z" fill="#016FD0"/>
<path id="path3054" d="M21.5305 10.9559H20.4502V6.72388H21.5305V10.9559Z" fill="#016FD0"/>
<path id="path3056" d="M24.0921 10.9559H23.8589C22.7307 10.9559 22.0457 10.067 22.0457 8.85729C22.0457 7.61765 22.723 6.72388 24.1477 6.72388H25.3171V7.7262H24.105C23.5266 7.7262 23.1176 8.17756 23.1176 8.86773C23.1176 9.68731 23.5853 10.0315 24.2591 10.0315H24.5375L24.0921 10.9559Z" fill="#016FD0"/>
<path id="path3058" d="M26.3942 6.72461L24.574 10.9566H25.759L26.0949 10.1092H28.0473L28.3814 10.9566H29.5925L27.7741 6.72461H26.3942ZM27.0676 7.70953L27.6627 9.19039H26.4707L27.0676 7.70953Z" fill="#016FD0"/>
<path id="path3060" d="M29.7161 10.9559V6.72388H31.0612L32.7787 9.38281V6.72388H33.8367V10.9559H32.5351L30.7741 8.22736V10.9559H29.7161Z" fill="#016FD0"/>
<path id="path3062" d="M8.66748 18.3621V14.1301H12.1199V15.0768H9.73662V15.8007H12.0642V16.6916H9.73662V17.4434H12.1199V18.3621H8.66748Z" fill="#016FD0"/>
<path id="path3064" d="M25.5842 18.3621V14.1301H29.0367V15.0768H26.6534V15.8007H28.9698V16.6916H26.6534V17.4434H29.0367V18.3621H25.5842Z" fill="#016FD0"/>
<path id="path3066" d="M12.2539 18.3621L13.9349 16.2722L12.2139 14.1301H13.5468L14.5718 15.4544L15.6002 14.1301H16.8809L15.1825 16.2461L16.8666 18.3621H15.5339L14.5387 17.0588L13.5677 18.3621H12.2539Z" fill="#016FD0"/>
<path id="path3068" d="M16.9922 14.1306V18.3626H18.078V17.0262H19.1917C20.1341 17.0262 20.8483 16.5263 20.8483 15.554C20.8483 14.7487 20.2881 14.1306 19.3292 14.1306H16.9922ZM18.078 15.0877H19.2509C19.5553 15.0877 19.7729 15.2743 19.7729 15.5749C19.7729 15.8574 19.5564 16.0622 19.2474 16.0622H18.078V15.0877Z" fill="#016FD0"/>
<path id="path3072" d="M21.3079 14.1301V18.3621H22.3659V16.8587H22.8113L24.0799 18.3621H25.3728L23.9807 16.803C24.552 16.7548 25.1414 16.2644 25.1414 15.5031C25.1414 14.6125 24.4424 14.1301 23.6623 14.1301H21.3079ZM22.3659 15.0768H23.5753C23.8654 15.0768 24.0764 15.3037 24.0764 15.5222C24.0764 15.8034 23.803 15.9677 23.5909 15.9677H22.3659V15.0768Z" fill="#016FD0"/>
<path id="path3074" d="M29.5267 18.3621V17.4434H31.6441C31.9574 17.4434 32.093 17.274 32.093 17.0884C32.093 16.9105 31.9578 16.7306 31.6441 16.7306H30.6872C29.8555 16.7306 29.3923 16.2239 29.3923 15.4631C29.3923 14.7845 29.8165 14.1301 31.0524 14.1301H33.1128L32.6673 15.0823H30.8854C30.5448 15.0823 30.4399 15.2611 30.4399 15.4318C30.4399 15.6072 30.5695 15.8007 30.8297 15.8007H31.832C32.7592 15.8007 33.1615 16.3266 33.1615 17.0153C33.1615 17.7557 32.7132 18.3621 31.7815 18.3621H29.5267Z" fill="#016FD0"/>
<path id="path3076" d="M33.41 18.3621V17.4434H35.5274C35.8407 17.4434 35.9763 17.274 35.9763 17.0884C35.9763 16.9105 35.8411 16.7306 35.5274 16.7306H34.5705C33.7388 16.7306 33.2756 16.2239 33.2756 15.4631C33.2756 14.7845 33.6998 14.1301 34.9357 14.1301H36.9961L36.5506 15.0823H34.7687C34.4281 15.0823 34.3232 15.2611 34.3232 15.4318C34.3232 15.6072 34.4528 15.8007 34.713 15.8007H35.7153C36.6425 15.8007 37.0448 16.3266 37.0448 17.0153C37.0448 17.7557 36.5965 18.3621 35.6648 18.3621H33.41Z" fill="#016FD0"/>
</g>
</g>
</svg>
