<?xml version="1.0" encoding="UTF-8" standalone="no"?>
<!-- Created with Inkscape (http://www.inkscape.org/) -->

<svg
   width="800"
   height="300"
   viewBox="0 0 800 300.00001"
   version="1.1"
   id="svg1"
   xml:space="preserve"
   inkscape:version="1.3 (0e150ed6c4, 2023-07-21)"
   sodipodi:docname="aunty-annes-logo-black.svg"
   xmlns:inkscape="http://www.inkscape.org/namespaces/inkscape"
   xmlns:sodipodi="http://sodipodi.sourceforge.net/DTD/sodipodi-0.dtd"
   xmlns="http://www.w3.org/2000/svg"
   xmlns:svg="http://www.w3.org/2000/svg"><sodipodi:namedview
     id="namedview1"
     pagecolor="#ffffff"
     bordercolor="#000000"
     borderopacity="0.25"
     inkscape:showpageshadow="2"
     inkscape:pageopacity="0.0"
     inkscape:pagecheckerboard="0"
     inkscape:deskcolor="#d1d1d1"
     inkscape:document-units="mm"
     inkscape:zoom="0.51719742"
     inkscape:cx="474.67368"
     inkscape:cy="93.774637"
     inkscape:window-width="1920"
     inkscape:window-height="1017"
     inkscape:window-x="-8"
     inkscape:window-y="-8"
     inkscape:window-maximized="1"
     inkscape:current-layer="layer1" /><defs
     id="defs1" /><g
     inkscape:label="Layer 1"
     inkscape:groupmode="layer"
     id="layer1"><path
       style="fill:#000000;stroke-width:1.31265"
       d="m 85.292253,219.89665 c -3.028863,-1.68439 -34.321065,-1.80476 -47.110562,-0.18122 -12.842555,1.63027 -23.971746,-8.03164 -24.895629,-21.61337 -0.244954,-3.60105 -1.335517,-9.16925 -2.423481,-12.37376 -3.1101813,-9.16083 -5.1294976,-27.93584 -4.4342127,-41.22817 0.5362703,-10.25264 1.2931578,-13.4984 4.8166927,-20.65572 2.362075,-4.79808 6.295775,-10.23532 9.043625,-12.50034 4.404166,-3.63029 4.863187,-4.61679 4.863187,-10.45168 0,-15.27047 13.05758,-22.324831 41.400886,-22.366837 27.724614,-0.04109 41.801971,7.748881 40.408501,22.360817 -0.40515,4.24837 0.0358,5.27822 3.01283,7.03682 5.86198,3.46274 11.44066,10.88593 13.57025,18.05703 4.03308,13.58087 1.84597,43.89297 -4.32883,59.99489 -1.61241,4.20467 -2.40889,8.52997 -1.97251,10.71186 1.57521,7.87602 -5.34845,19.67685 -13.5568,23.10652 -5.259604,2.1976 -14.53419,2.24962 -18.393947,0.10317 z M 105.42862,214.894 c 5.71573,-3.53252 8.7692,-9.48943 8.68215,-16.93773 -0.0379,-3.24881 1.30016,-9.80957 2.97363,-14.57945 5.67886,-16.1864 7.64136,-43.40404 4.00163,-55.49793 -2.36094,-7.84486 -7.66284,-14.82005 -13.31276,-17.5143 -4.19178,-1.99892 -4.37204,-2.3719 -3.65939,-7.57125 1.06888,-7.798391 -2.12182,-13.331893 -9.592997,-16.636753 -12.315066,-5.447537 -45.09286,-5.634827 -56.289587,-0.321636 -7.667849,3.638632 -10.190882,7.922401 -9.378916,15.924109 0.671854,6.62084 0.552941,6.93349 -3.61756,9.51099 -8.004466,4.94704 -13.898162,16.16125 -15.6735614,29.82284 -1.2205551,9.39199 1.3482754,34.57975 4.4725414,43.85398 1.422218,4.22178 2.588062,9.90971 2.590753,12.63983 0.0066,6.11808 3.834673,12.64933 9.499811,16.20576 3.523719,2.21209 5.666949,2.55839 12.154017,1.96387 14.474218,-1.32655 44.921257,-1.07245 47.447913,0.39597 4.206756,2.44487 14.805756,1.76795 19.702326,-1.2583 z m -18.285491,-7.75034 c -3.103802,-2.44145 -4.031452,-2.51881 -13.169496,-1.09814 -7.441141,1.15685 -12.055017,1.16094 -18.982833,0.0168 -7.783362,-1.2854 -9.768537,-1.20408 -13.271896,0.54363 -8.784836,4.38245 -18.176235,-2.16375 -16.664744,-11.61604 0.561053,-3.50865 0.06603,-6.36639 -1.706118,-9.84869 -5.192098,-10.20271 -7.168543,-39.87546 -3.482738,-52.28691 1.910379,-6.43292 7.413628,-13.05313 13.404343,-16.12492 5.351624,-2.74408 17.642262,-1.78602 25.162398,1.96143 l 6.886284,3.43159 8.07359,-3.62322 c 6.069933,-2.72403 10.224879,-3.64291 16.742019,-3.70258 11.244612,-0.10291 16.578202,2.81616 20.856262,11.41485 2.72877,5.48466 3.12118,8.04157 2.98788,19.46833 -0.18533,15.88798 -1.98505,26.61585 -6.27023,37.37595 -2.43812,6.1221 -3.00857,9.35696 -2.36252,13.39709 0.7592,4.74776 0.41778,5.76009 -3.14385,9.32172 -4.74106,4.74106 -10.146766,5.23253 -15.058351,1.36908 z M 66.486943,185.46989 c -1.253149,-1.50994 -2.077191,-1.62858 -3.442348,-0.49559 -2.526223,2.09657 -2.27107,2.48077 1.647534,2.48077 2.923509,0 3.194034,-0.29922 1.794814,-1.98518 z M 49.438104,163.17767 c -1.539779,-4.66558 -1.233708,-13.87527 0.728889,-21.93304 0.737998,-3.02993 0.381495,-3.6705 -2.436333,-4.37773 -8.110855,-2.03569 -12.088476,5.6567 -11.145244,21.55403 0.352276,5.93738 1.534869,11.80704 2.910606,14.44648 l 2.317222,4.44578 4.620202,-4.62021 c 4.477452,-4.47743 4.570283,-4.77143 3.004658,-9.51531 z m 44.722482,0.75434 c 2.73076,-12.97841 -1.085325,-27.67032 -7.187104,-27.67032 -4.502903,0 -6.387949,2.83594 -4.749511,7.14536 2.064576,5.43024 1.545108,13.93647 -1.223496,20.03498 l -2.506703,5.52159 4.716722,4.14135 4.716734,4.14134 2.368153,-3.0997 c 1.302491,-1.70483 3.041832,-6.30139 3.865205,-10.2146 z M 46.733951,107.45133 c -7.020883,-2.13042 -9.111896,-3.97937 -9.111896,-8.057038 0,-6.353566 6.116375,-8.249845 26.90934,-8.342787 18.689941,-0.08354 28.74159,1.896108 30.993653,6.104126 2.121637,3.964309 -1.54906,8.295569 -8.517489,10.050249 -6.590307,1.65945 -35.042235,1.83285 -40.273608,0.24545 z m 40.349308,-5.77413 c 1.705344,-1.705355 -0.813607,-2.33506 -12.32344,-3.080751 -12.734156,-0.825014 -29.261859,0.442994 -29.261859,2.244971 0,0.61876 1.919751,1.40029 4.266114,1.73673 6.021103,0.86336 36.285499,0.13272 37.319185,-0.90095 z M 51.705708,93.463796 c -0.436181,-0.436183 -1.568342,-0.482817 -2.515918,-0.103634 -1.047141,0.419032 -0.736095,0.730073 0.793064,0.793059 1.383757,0.057 2.159035,-0.253246 1.722854,-0.689429 z m 10.501206,-1.312651 c -0.436181,-0.436183 -1.568342,-0.482816 -2.515919,-0.103633 -1.04714,0.419032 -0.736095,0.730072 0.793065,0.793058 1.383757,0.057 2.159034,-0.253245 1.722854,-0.689429 z M 729.57114,207.13181 c -3.14853,-0.66692 -7.71353,-2.38604 -10.14443,-3.82026 l -4.41969,-2.60768 -6.26371,2.89231 -6.26371,2.89232 -122.73284,-0.16165 c -67.50306,-0.0889 -124.20957,-0.17477 -126.01447,-0.19079 -1.80489,-0.016 -73.37245,0.2161 -159.03903,0.51587 -141.13333,0.49386 -155.95356,0.34891 -157.84625,-1.54377 -1.51178,-1.51179 -2.08881,-4.62505 -2.08881,-11.2699 0,-10.65037 1.47523,-14.25911 5.82897,-14.25911 2.70529,0 3.62276,-1.41346 7.03054,-10.83129 2.15556,-5.95721 6.38676,-18.65799 9.40266,-28.22396 3.70154,-11.74072 6.27928,-17.81857 7.93248,-18.70334 3.17116,-1.69715 26.99692,-1.70547 30.16395,-0.0105 1.33615,0.71508 3.4367,4.333 4.6679,8.0398 l 2.23856,6.73965 6.73148,-0.83729 c 14.23001,-1.76998 30.65717,-2.44495 31.37158,-1.28902 0.4457,0.72117 6.07602,0.71379 14.15397,-0.0185 9.22535,-0.83633 14.11239,-0.77982 15.65092,0.18102 1.61562,1.00896 6.14826,0.81254 16.31676,-0.7071 10.23046,-1.5289 15.05837,-1.73475 17.65946,-0.75295 1.96885,0.74317 4.73516,0.89928 6.14735,0.34693 3.64628,-1.42619 19.51611,-1.41745 23.27804,0.0131 2.6799,1.01894 4.2396,0.32806 10.25849,-4.54421 7.09265,-5.74157 7.10604,-5.74588 18.01495,-5.7959 9.77019,-0.0448 11.40024,-0.41873 15.51829,-3.55972 6.31582,-4.81732 16.26099,-5.63486 24.45481,-2.01032 6.95364,3.07589 10.09941,7.23185 11.09545,14.65851 0.39104,2.91534 0.9854,5.30062 1.32066,5.30062 0.33525,0 3.89909,-0.95629 7.91974,-2.12509 16.51302,-4.8005 37.78925,0.28688 45.29039,10.82941 l 3.40449,4.78485 1.85202,-4.44744 c 1.01862,-2.4461 3.17622,-8.43494 4.79485,-13.30854 3.89647,-11.73249 5.61394,-12.79765 20.63395,-12.79765 6.63886,0 13.0341,0.36968 14.21155,0.82151 1.17744,0.45183 3.88478,4.27638 6.0164,8.49899 3.52302,6.97924 4.20363,7.62278 7.48316,7.07594 13.04355,-2.17485 24.77457,-3.39786 30.7747,-3.2084 3.82913,0.1209 10.01513,-0.2154 13.7466,-0.74737 5.04452,-0.71913 8.41134,-0.39113 13.12651,1.27882 5.85744,2.07445 7.54407,2.09637 22.07984,0.28701 8.65588,-1.07747 16.30653,-1.60769 17.00132,-1.17828 0.69478,0.42941 5.83985,0.64503 11.43345,0.47916 10.97743,-0.32551 19.16102,2.4755 22.40406,7.66826 1.54105,2.46758 1.7029,2.44636 5.92924,-0.77722 7.52254,-5.73774 14.95149,-7.4896 28.70912,-6.76997 11.92057,0.62352 12.32907,0.55189 12.32907,-2.16176 0,-6.7703 8.00927,-12.58253 17.32751,-12.57443 7.08648,0.007 12.76763,3.3979 16.1208,9.62435 2.5808,4.79214 2.62241,4.8099 11.27173,4.8099 4.77477,0 11.39774,0.81749 14.7177,1.81667 3.38611,1.01906 8.65496,1.52151 12.00078,1.14438 11.31164,-1.27497 19.13438,5.47483 19.13438,16.50981 0,6.41258 -5.78787,13.99088 -11.67275,15.28339 -3.63591,0.79861 -3.6682,0.89081 -2.34124,6.6896 2.70563,11.82362 -4.6544,25.10364 -16.69666,30.12674 -6.07862,2.53553 -25.31447,3.64318 -33.42704,1.92483 z m 29.4782,-4.54529 c 7.04105,-2.09099 13.89401,-8.11083 16.20191,-14.23242 1.94299,-5.15377 1.65762,-14.05641 -0.57586,-17.96351 -2.74567,-4.80317 -2.4813,-5.2506 3.10271,-5.2506 9.70194,0 15.86943,-10.45082 11.05095,-18.72584 -3.38927,-5.82045 -8.68463,-8.22214 -14.70274,-6.66845 -3.45372,0.89163 -5.92071,0.70292 -9.2958,-0.7111 -2.82837,-1.18501 -9.135,-1.95039 -16.40813,-1.99131 l -11.81386,-0.0664 -2.6253,-5.28002 c -3.60861,-7.25775 -10.75914,-10.80248 -17.6352,-8.74234 -6.44262,1.93024 -9.33295,5.32029 -10.22844,11.9969 -0.65002,4.84571 -1.04172,5.35288 -3.49861,4.5292 -1.52162,-0.51015 -7.95518,-1.20727 -14.29686,-1.54916 -10.47994,-0.56501 -12.17195,-0.30762 -18.57611,2.82565 -3.87534,1.896 -8.04602,4.97343 -9.26823,6.83874 l -2.22206,3.39147 -2.43864,-4.00986 c -4.63878,-7.62799 -14.67583,-11.54677 -24.13243,-9.42204 -3.04377,0.68389 -6.08479,0.67452 -7.3876,-0.0227 -1.37172,-0.73406 -8.61033,-0.43669 -19.01912,0.78133 -15.04101,1.76006 -17.24915,1.75555 -21.03917,-0.0429 -4.83646,-2.29505 -12.33012,-2.59041 -18.78127,-0.74026 -2.72651,0.78196 -5.29379,0.80421 -6.68809,0.058 -1.44654,-0.77414 -8.17742,-0.44161 -18.65408,0.92155 -9.01515,1.17297 -17.34051,1.76835 -18.50102,1.32304 -1.16039,-0.44529 -3.63014,-4.02338 -5.48833,-7.9513 -3.79999,-8.03237 -5.13102,-8.70195 -17.35193,-8.72894 -13.56848,-0.0299 -13.58961,-0.009 -20.78858,20.47854 l -6.35874,18.09701 -1.80608,-5.41813 c -2.24411,-6.73228 -11.39197,-15.4123 -18.25004,-17.31656 -11.87122,-3.29629 -34.28001,-0.6365 -38.61189,4.58298 -2.73714,3.29818 -3.43205,2.04139 -2.83729,-5.13157 1.06626,-12.85794 -5.10083,-19.24814 -18.57611,-19.24814 -5.8136,0 -7.9544,0.64824 -11.22264,3.39831 -2.22127,1.86907 -4.03876,4.23184 -4.03876,5.2506 0,2.37836 -1.00799,2.34446 -3.46908,-0.1167 -1.33942,-1.33933 -4.65111,-1.96897 -10.35642,-1.96897 -7.92919,0 -8.76653,0.30804 -15.32992,5.6394 -9.57513,7.77795 -9.38164,7.70512 -14.63671,5.50941 -5.5113,-2.30277 -11.06053,-2.35097 -19.21507,-0.16686 -4.73763,1.26893 -6.45403,1.24272 -8.67076,-0.13237 -2.30637,-1.4307 -5.28522,-1.31342 -17.99676,0.70846 -13.05093,2.07588 -15.49593,2.15992 -17.06913,0.58672 -1.53958,-1.53958 -3.99053,-1.58579 -15.17112,-0.28597 -10.08065,1.17193 -13.78037,1.18055 -15.16028,0.0353 -1.38371,-1.14839 -6.03494,-1.05352 -19.22316,0.39206 -9.56877,1.04885 -18.12788,1.62682 -19.02023,1.28439 -0.89236,-0.34242 -2.27032,-3.19552 -3.06217,-6.3402 -2.22997,-8.85599 -3.90705,-9.85567 -16.53419,-9.85567 -6.02602,0 -11.8654,0.34881 -12.97641,0.77515 -1.25328,0.48093 -5.34428,10.8193 -10.77814,27.2375 -4.81698,14.55429 -9.04881,27.22272 -9.40409,28.15207 -0.35527,0.92935 -2.66915,2.53507 -5.14194,3.56827 l -4.496,1.87855 0.38908,8.90191 0.38908,8.90192 153.93748,0.33359 c 135.88395,0.29446 154.50272,0.0974 158.75662,-1.67999 4.32466,-1.80695 4.93452,-1.8075 5.94303,-0.005 0.99591,1.77975 14.81445,2.00732 121.49423,2.00084 77.72021,-0.005 122.07743,-0.48143 125.18789,-1.34535 2.64958,-0.73593 6.16841,-2.43196 7.81959,-3.769 2.92616,-2.36955 3.0888,-2.36684 6.43527,0.10724 8.47841,6.26841 26.986,8.29526 40.12275,4.39405 z m -537.18757,-7.17304 c -6.04068,-2.59118 -7.03187,-6.06048 -7.03187,-24.61245 0,-16.03908 -0.2029,-17.49111 -2.6253,-18.78753 -1.44392,-0.77277 -2.6253,-2.48129 -2.6253,-3.79671 0,-2.04804 1.74469,-2.57796 12.14201,-3.68791 6.67812,-0.71291 12.58504,-1.05773 13.12651,-0.76627 0.54147,0.29145 0.98449,9.01179 0.98449,19.37852 0,20.64489 0.41309,23.00129 4.03221,23.00129 4.01165,0 5.15635,-4.32079 5.15635,-19.46303 0,-11.57578 -0.38452,-14.53258 -1.96898,-15.14059 -1.08294,-0.41556 -1.96898,-1.87115 -1.96898,-3.23464 0,-2.16023 1.5616,-2.64221 12.14202,-3.74754 8.51193,-0.88923 12.43034,-0.84716 13.10641,0.14074 0.53042,0.77505 0.97344,11.23441 0.98449,23.243 0.019,20.72115 0.1539,21.8688 2.6454,22.52034 3.56385,0.93196 3.32677,4.64419 -0.35561,5.56842 -1.63952,0.41149 -7.10342,0.57041 -12.14202,0.35317 -8.36038,-0.36047 -9.19777,-0.65315 -9.58057,-3.34846 -0.51734,-3.64267 -0.82593,-3.64747 -5.82087,-0.0907 -4.42229,3.14894 -15.4691,4.49991 -20.20039,2.47041 z m 127.78257,-0.86501 c -5.28723,-2.86673 -6.17471,-6.53962 -6.17471,-25.55597 0,-16.10391 -0.1352,-16.979 -2.6253,-16.979 -2.04183,0 -2.6253,-0.87511 -2.6253,-3.93795 0,-3.22999 0.54094,-3.93796 3.00833,-3.93796 1.83154,0 5.2762,-2.31079 8.80552,-5.90693 4.54453,-4.63044 6.73101,-5.90692 10.11818,-5.90692 4.24616,0 4.32098,0.10238 4.32098,5.90692 0,5.87568 0.0249,5.90693 4.59428,5.90693 4.22975,0 4.59428,0.31253 4.59428,3.93796 0,3.62541 -0.36453,3.93795 -4.59428,3.93795 h -4.59428 v 15.18177 c 0,16.66055 1.0576,20.2598 5.95313,20.2598 2.38719,0 3.23543,0.70585 3.23543,2.69227 0,5.62594 -16.26125,8.60592 -24.01626,4.40113 z m 76.10723,0.19336 c -2.75513,-0.9826 -6.23496,-2.87643 -7.73309,-4.20849 -10.40013,-9.24759 -9.91065,-33.69709 0.8439,-42.15661 9.72294,-7.64808 28.98451,-6.79924 37.43339,1.64965 4.16845,4.16849 4.59204,5.28159 4.6225,12.14843 l 0.0341,7.55946 -14.11099,0.37258 -14.111,0.37257 v 3.83177 c 0,7.82276 4.86088,13.14388 12.00695,13.14388 1.48212,0 4.7749,-2.08017 7.31737,-4.62258 3.63867,-3.63867 5.00777,-4.30295 6.43199,-3.12091 2.74187,2.27555 2.2088,4.57194 -2.23649,9.6349 -6.21081,7.07368 -19.29964,9.38921 -30.49813,5.39535 z m 14.85421,-35.40141 c 0,-5.74885 -1.12953,-8.63957 -3.37587,-8.63957 -2.41699,0 -4.50003,4.21336 -4.50003,9.10224 0,3.5963 0.41887,4.02425 3.93795,4.02425 3.60756,0 3.93795,-0.37655 3.93795,-4.48692 z m 121.1658,35.1444 c -0.4908,-1.27875 0.0617,-2.80929 1.35387,-3.75449 1.82367,-1.33359 2.18215,-4.17213 2.18215,-17.28009 0,-17.3083 -1.54328,-22.15207 -6.15817,-19.32725 -2.05745,1.25939 -2.42328,3.7 -2.74331,18.30192 -0.30742,14.02921 -0.0328,17.037 1.64082,17.97366 1.10551,0.61869 2.01006,1.98158 2.01006,3.02865 0,1.61035 -4.85523,1.90375 -31.50362,1.90375 -30.62847,0 -31.50362,-0.073 -31.50362,-2.6253 0,-1.7236 0.87515,-2.6253 2.54786,-2.6253 3.65639,0 3.92049,-1.19589 1.82629,-8.26784 l -1.86541,-6.29886 -7.35019,0.39193 -7.35005,0.39192 -1.71144,5.81523 c -1.98748,6.75281 -1.55706,7.96762 2.82299,7.96762 2.32904,0 3.20405,0.71699 3.20405,2.6253 0,2.43083 -0.87501,2.6253 -11.81386,2.6253 -10.40905,0 -11.81385,-0.27517 -11.81385,-2.31404 0,-1.27272 1.32906,-2.89713 2.95346,-3.60979 2.41935,-1.06139 4.72686,-6.58796 12.75805,-30.55565 l 9.80458,-29.25989 8.45006,0.38157 8.45019,0.38159 8.69998,28.22199 c 4.78488,15.52208 9.15732,28.96036 9.71651,29.8628 1.44811,2.33694 6.9938,2.03279 7.94088,-0.43552 0.43829,-1.14199 0.79678,-9.3909 0.79678,-18.33093 0,-14.91115 -0.21699,-16.37071 -2.62531,-17.6596 -1.44391,-0.77277 -2.6253,-2.5126 -2.6253,-3.86631 0,-2.14045 1.45284,-2.5823 11.14467,-3.38963 6.12968,-0.51058 11.59359,-1.00663 12.14202,-1.10233 0.54856,-0.0957 1.19057,1.18913 1.42672,2.85515 0.23614,1.66602 0.82684,2.81725 1.31265,2.5583 13.94862,-7.43499 20.76692,-7.63994 27.3034,-0.82068 3.73462,3.89621 3.77531,4.11289 4.23133,22.50703 0.37043,14.94623 0.86057,18.86566 2.51031,20.07197 1.18887,0.86929 1.70211,2.40594 1.22168,3.65782 -0.69636,1.81476 -3.03799,2.1588 -14.69368,2.1588 -11.65555,0 -13.99719,-0.34404 -14.69355,-2.1588 z m -64.72904,-28.36034 c -0.0131,-1.7659 -2.28007,-10.88618 -3.51554,-14.11098 -0.6281,-1.63981 -5.58546,11.32181 -5.64794,14.7673 -0.0131,0.54147 2.04957,0.98449 4.57643,0.98449 2.80421,0 4.59152,-0.6393 4.58705,-1.64081 z m 130.87653,29.68581 c -1.68478,-1.68478 -0.94196,-5.72992 1.05209,-5.72992 2.97539,0 2.88967,-31.70812 -0.0932,-34.6915 -5.36034,-5.3604 -7.68649,-0.54677 -8.24554,17.06316 -0.43567,13.72593 -0.27041,14.96238 2.29412,17.15815 5.78971,4.95733 3.77715,5.82857 -12.55301,5.43428 -11.23669,-0.27131 -15.46933,-0.82998 -15.89003,-2.09735 -0.31596,-0.95143 0.668,-2.05223 2.19002,-2.45024 2.64683,-0.69218 2.76353,-1.51405 2.76353,-19.4626 0,-15.44678 -0.34602,-18.87268 -1.96898,-19.49547 -1.08294,-0.41556 -1.96898,-1.87916 -1.96898,-3.25246 0,-2.14248 1.35085,-2.62346 9.51672,-3.38866 5.2342,-0.49047 10.53074,-1.19104 11.77015,-1.55683 1.60432,-0.47348 2.49902,0.31325 3.10573,2.73093 l 0.85243,3.39601 4.2799,-2.52521 c 9.224,-5.44229 19.02569,-4.60991 24.27328,2.06134 2.36565,3.00744 2.64577,5.30384 2.64577,21.68659 0,17.37518 0.13941,18.35943 2.69422,19.02753 1.8385,0.48077 2.56807,1.58823 2.29714,3.4869 -0.37188,2.60624 -1.27367,2.80576 -14.24751,3.15227 -7.61771,0.20347 -14.263,-0.0427 -14.76732,-0.54692 z m 47.98776,-0.63307 c -10.48349,-3.0276 -17.44329,-16.42643 -15.44702,-29.73825 1.6651,-11.10345 7.79059,-18.56139 17.44841,-21.24362 16.44306,-4.56669 31.80684,2.86821 33.83187,16.37202 1.35715,9.05022 0.0998,9.82322 -15.98441,9.82322 -15.29343,0 -15.70587,0.34778 -11.72131,9.88412 3.50057,8.37799 12.26173,9.25181 19.12269,1.90723 3.1039,-3.32283 3.86208,-3.58859 5.92793,-2.07803 2.26091,1.65322 2.22993,1.95671 -0.68034,6.66559 -5.28119,8.54512 -19.38615,12.19432 -32.49782,8.40772 z m 14.81155,-32.74769 c 1.39154,-2.2515 -0.67391,-10.48499 -2.8386,-11.31564 -2.83074,-1.0863 -4.17148,0.75658 -5.19049,7.1347 -0.88591,5.54494 -0.86687,5.57875 3.13698,5.57875 2.21549,0 4.41706,-0.62901 4.89211,-1.39781 z m 41.95376,32.81478 c -5.53032,-1.64891 -7.22115,-4.60708 -7.22115,-12.63441 0,-5.92827 0.36597,-6.9687 2.45085,-6.9687 1.4027,0 3.92798,2.23204 5.90457,5.21873 6.32225,9.55373 15.47838,12.44214 16.32517,5.15004 0.44473,-3.83014 -2.29753,-6.16141 -10.80902,-9.18899 -2.839,-1.00985 -7.12153,-3.67793 -9.51672,-5.92905 -3.58446,-3.36895 -4.35485,-5.06387 -4.35485,-9.5819 0,-12.18014 6.99656,-17.45359 23.07286,-17.39053 5.31649,0.0209 11.30809,0.82174 13.31474,1.77977 3.2093,1.53223 3.69616,2.57161 4.04559,8.63699 0.32094,5.57139 -0.0407,7.06329 -1.88523,7.771 -1.4875,0.57082 -2.76878,0.0473 -3.67884,-1.50317 -3.87599,-6.60315 -7.67454,-9.90324 -11.39919,-9.90324 -4.22739,0 -6.39956,3.11884 -3.94701,5.66699 0.82185,0.85391 5.4475,3.62 10.27911,6.14685 10.85404,5.67645 14.2164,9.9531 14.04484,17.86415 -0.15253,7.03676 -4.98834,12.93065 -12.26856,14.95312 -5.65648,1.57137 -18.95337,1.52352 -24.35716,-0.0877 z m -584.78743,-2.53864 c 0,-1.71246 0.87511,-2.6253 2.51675,-2.6253 2.89661,0 3.0663,-0.404 14.88711,-35.44157 l 8.19283,-24.28404 h 8.35456 8.35455 l 8.78753,28.27013 c 4.83315,15.54855 9.23049,28.98682 9.77187,29.8628 0.54138,0.87597 2.13085,1.59268 3.53216,1.59268 1.67274,0 2.54783,0.9017 2.54783,2.6253 0,2.49565 -0.87509,2.6253 -17.72079,2.6253 -16.84568,0 -17.72078,-0.12969 -17.72078,-2.6253 0,-1.7236 0.8751,-2.6253 2.54784,-2.6253 3.65131,0 3.92036,-1.19656 1.8448,-8.20408 l -1.84678,-6.23509 h -7.12901 -7.12899 l -2.01984,6.80151 c -1.1109,3.74082 -2.01983,6.98963 -2.01983,7.21958 0,0.22994 1.77208,0.41808 3.93795,0.41808 3.06286,0 3.93795,0.58339 3.93795,2.6253 0,2.43083 -0.87509,2.6253 -11.81385,2.6253 -10.93875,0 -11.81386,-0.19447 -11.81386,-2.6253 z m 31.49631,-26.58119 c -0.008,-1.7659 -2.28,-10.88618 -3.51544,-14.11098 -0.62821,-1.63981 -5.58556,11.32181 -5.64797,14.7673 -0.009,0.54147 2.04959,0.98449 4.57644,0.98449 2.80423,0 4.59143,-0.6393 4.58697,-1.64081 z m 95.83081,26.58119 c 0,-1.75021 0.87511,-2.6253 2.6253,-2.6253 2.50461,0 2.6253,-0.87511 2.6253,-19.03345 0,-16.04351 -0.3093,-19.03342 -1.96897,-19.03342 -1.22514,0 -1.96898,-1.23974 -1.96898,-3.28163 0,-2.678 0.66399,-3.30201 3.60979,-3.3924 1.98539,-0.0609 7.06285,-0.54129 11.28323,-1.06749 7.14338,-0.89064 7.74963,-0.75636 8.77623,1.94381 l 1.10278,2.90056 6.31926,-3.23323 c 10.00921,-5.12118 20.94189,-2.19285 23.94182,6.41286 0.77604,2.22597 1.41083,11.63808 1.41083,20.9158 0,15.99348 0.13626,16.86859 2.62531,16.86859 1.75028,0 2.6253,0.87509 2.6253,2.6253 0,2.4731 -0.87502,2.6253 -15.09549,2.6253 -13.93595,0 -15.09544,-0.19087 -15.09544,-2.48487 0,-1.36667 0.88604,-2.82487 1.96898,-3.24043 1.58458,-0.60805 1.96897,-3.5659 1.96897,-15.15047 0,-15.83822 -1.34262,-21.56858 -4.89328,-20.88478 -4.08178,0.78608 -5.56835,6.35248 -5.58856,20.92619 -0.0179,12.87162 0.20107,14.09725 2.82999,15.84278 5.49573,3.64903 1.70758,4.99158 -14.08434,4.99158 -14.14292,0 -15.01803,-0.15298 -15.01803,-2.6253 z m 99.76142,0 c 0,-1.75021 0.87514,-2.6253 2.6253,-2.6253 2.50467,0 2.6253,-0.87511 2.6253,-19.03345 0,-16.04351 -0.30926,-19.03342 -1.96898,-19.03342 -1.19333,0 -1.96897,-1.2189 -1.96897,-3.09421 0,-2.93607 0.62049,-3.15902 12.14202,-4.36267 8.51201,-0.88923 12.43041,-0.84716 13.10642,0.14074 0.53044,0.77505 0.97346,11.23441 0.98449,23.243 0.0197,20.72115 0.15397,21.8688 2.64538,22.52034 1.44392,0.37759 2.62531,1.62787 2.62531,2.7784 0,1.80248 -2.26984,2.09187 -16.40814,2.09187 -15.53299,0 -16.40813,-0.14002 -16.40813,-2.6253 z m 339.02565,-34.2923 c -1.09304,-1.09294 -0.93356,-2.61379 0.61432,-5.85977 1.94246,-4.07329 1.91923,-4.76366 -0.32882,-9.74882 -1.81946,-4.03477 -2.11245,-6.23769 -1.18178,-8.88418 1.71367,-4.87264 7.17036,-6.64928 11.56957,-3.76686 6.96257,4.56211 6.03872,15.12234 -2.09525,23.94657 -5.76398,6.25319 -6.34548,6.5456 -8.57804,4.31306 z m 58.70752,-1.14927 c -3.26995,-3.27002 -3.35251,-6.81085 -0.22473,-9.64145 3.14918,-2.85001 7.16458,-2.75719 9.86615,0.22809 3.02513,3.3427 2.7097,7.57556 -0.74493,9.99525 -3.85565,2.7006 -5.73694,2.57756 -8.89649,-0.58189 z m 9.18855,-4.59428 c 0,-1.08293 -0.23208,-1.96897 -0.51587,-1.96897 -0.28366,0 -0.85585,0.88604 -1.27143,1.96897 -0.41559,1.08294 -0.18338,1.96898 0.51587,1.96898 0.69938,0 1.27143,-0.88604 1.27143,-1.96898 z M 384.08856,140.40419 c -6.78326,-5.49264 -2.00075,-15.95636 7.29282,-15.95636 6.03951,0 10.28252,3.79163 10.28252,9.18856 0,5.39691 -4.24301,9.18855 -10.28252,9.18855 -2.36684,0 -5.64873,-1.08934 -7.29282,-2.42075 z"
       id="path1" /></g></svg>
