<?xml version="1.0" encoding="UTF-8" standalone="no"?>
<!-- Created with Inkscape (http://www.inkscape.org/) -->

<svg
   width="256"
   height="256"
   viewBox="0 0 67.733332 67.733333"
   version="1.1"
   id="svg1"
   xml:space="preserve"
   xmlns="http://www.w3.org/2000/svg"
   xmlns:svg="http://www.w3.org/2000/svg"><defs
     id="defs1" /><g
     id="layer1"><g
       id="g21"
       transform="matrix(0.33979539,0,0,0.33979539,-39.191569,-16.403068)"><path
         style="fill:#1e94a7"
         d="m 210.423,239.06316 c -2.37961,-1.00348 -4.5525,-2.02898 -4.82865,-2.27889 -0.49085,-0.44421 -0.50209,-2.1593 -0.50209,-76.59776 0,-44.74101 -0.098,-76.203961 -0.23772,-76.29029 -0.13075,-0.08081 -4.14911,1.772288 -8.92969,4.117987 -4.78058,2.345699 -11.07321,5.426016 -13.98363,6.845149 -6.26336,3.054043 -12.9335,6.320254 -33.66491,16.484894 -8.47476,4.15519 -15.65705,7.63373 -15.96065,7.73009 -0.80077,0.25415 -2.06544,-0.36053 -2.50983,-1.21989 -0.58384,-1.12902 -0.56671,-19.757937 0.0192,-20.890979 0.32136,-0.62145 1.22444,-1.179187 4.43177,-2.73704 3.81062,-1.850882 11.02829,-5.402261 33.66149,-16.562783 5.38427,-2.655005 12.05177,-5.930728 14.81667,-7.279383 2.76489,-1.348655 10.98021,-5.391073 18.25625,-8.983151 12.00638,-5.927379 13.32699,-6.519448 14.2875,-6.405509 0.68623,0.0814 10.64002,4.842885 28.31042,13.542537 14.98864,7.379347 31.71692,15.615341 37.17395,18.30221 19.22277,9.464676 19.16166,9.432929 19.50912,10.136142 0.51531,1.042913 0.47043,19.872016 -0.0498,20.877956 -0.44103,0.85285 -1.70738,1.47458 -2.49457,1.22473 -0.2952,-0.0937 -5.03671,-2.37969 -10.53669,-5.07999 -9.93261,-4.87657 -21.37364,-10.48111 -47.92478,-23.476577 -7.61625,-3.727779 -13.95633,-6.710661 -14.08906,-6.628626 -0.14449,0.0893 -0.24134,30.703553 -0.24134,76.287413 v 76.13826 l -0.59531,0.54523 c -0.85419,0.78232 -8.04516,4.04703 -8.8851,4.03385 -0.38832,-0.006 -2.653,-0.83211 -5.0326,-1.83558 z m 9.61822,-0.33327 c 1.89177,-0.88445 3.70747,-1.89352 4.0349,-2.24238 l 0.59531,-0.63428 V 159.6836 c 0,-44.82573 0.0979,-76.230158 0.23801,-76.316727 0.27548,-0.170254 3.15198,1.180985 16.29845,7.656208 5.23875,2.580319 12.14437,5.972482 15.34583,7.53814 3.20146,1.565659 12.19068,5.972069 19.97604,9.792019 23.56524,11.56249 21.93818,10.87049 23.01875,9.78992 0.51075,-0.51075 0.52917,-0.88195 0.52917,-10.66506 0,-7.698958 -0.0795,-10.241082 -0.33073,-10.573433 -0.31303,-0.414129 -6.35495,-3.485732 -18.85156,-9.583786 -3.05594,-1.491226 -17.10532,-8.397083 -31.22084,-15.346349 -34.07372,-16.774964 -34.12984,-16.802204 -34.61747,-16.802204 -0.4705,0 -4.05899,1.717832 -19.62211,9.393224 -12.81549,6.320323 -24.71652,12.174127 -32.54375,16.007417 -21.5417,10.549782 -32.32349,15.948821 -32.60989,16.329567 -0.25117,0.333903 -0.33073,2.875686 -0.33073,10.565264 0,13.51231 -0.81933,12.87159 9.76035,7.63265 3.96724,-1.96453 7.246,-3.57188 7.28612,-3.57188 0.0401,0 4.58523,-2.21543 10.10022,-4.92318 45.07519,-22.131 47.73294,-23.416884 48.02566,-23.235974 0.1346,0.08319 0.2339,32.475094 0.2339,76.299624 0,72.14579 0.0244,76.18361 0.46302,76.69704 0.35568,0.41633 6.05835,2.99799 9.06198,4.10245 0.66406,0.24418 1.57454,-0.0626 5.15937,-1.73864 z m -33.42626,-9.38909 c -6.29908,-3.04656 -7.56748,-3.75431 -7.9375,-4.42901 -0.39911,-0.72772 -0.45281,-3.11021 -0.5727,-25.40926 l -0.13229,-24.60625 -11.61117,-0.069 c -8.35244,-0.0496 -11.71255,0.0152 -11.9724,0.23083 -0.29851,0.24774 -0.36122,3.30746 -0.36122,17.62406 v 17.32432 l -0.89958,0.89958 c -1.56369,1.56369 -1.41586,1.60832 -12.672,-3.82575 -4.04647,-1.95349 -4.47819,-2.22826 -4.83217,-3.07546 -0.3369,-0.80631 -0.37942,-6.00777 -0.31904,-39.0244 l 0.0697,-38.09409 0.66146,-0.63822 c 0.53867,-0.51974 17.34984,-8.75947 42.59791,-20.87869 2.11006,-1.01284 6.38522,-3.07747 9.50037,-4.58808 6.14601,-2.980338 6.90371,-3.176417 8.14582,-2.108011 l 0.74235,0.638543 0.0775,65.441138 c 0.0549,46.3401 -0.006,65.7303 -0.20859,66.43179 -0.29075,1.00666 -1.30234,1.79053 -2.30319,1.78471 -0.26188,-0.002 -3.84985,-1.63446 -7.97325,-3.62875 z m -8.47801,-86.39296 c 0.0177,-7.1669 0.0382,-13.32838 0.0455,-13.69218 0.0313,-1.55167 -0.0965,-2.38125 -0.36673,-2.38125 -0.15895,0 -3.87966,1.73698 -8.26822,3.85995 -4.38857,2.12298 -9.6064,4.63846 -11.59519,5.58996 -2.63821,1.2622 -3.65673,1.88186 -3.7667,2.2916 -0.20302,0.75647 -0.20057,16.41455 0.003,16.94414 0.14314,0.37303 1.45149,0.41851 12.03854,0.41851 h 11.87794 z m 56.14368,89.63762 c -0.62678,-0.27262 -0.91366,-0.62482 -1.123,-1.37871 -0.19497,-0.70212 -0.28162,-20.90909 -0.28264,-65.91011 -0.002,-69.721379 -0.068,-66.253654 1.28165,-66.975933 1.36396,-0.72997 0.44772,-1.114021 20.14812,8.445313 4.87495,2.36549 10.53042,5.10246 12.56771,6.08215 20.66768,9.93863 26.5544,12.8463 27.11979,13.39546 l 0.66146,0.64247 0.0809,13.55405 c 0.0725,12.1435 0.0359,13.63665 -0.35173,14.3478 -0.26085,0.4786 -2.99796,2.72086 -6.8939,5.64753 -3.5537,2.66959 -6.46128,4.95198 -6.46128,5.07199 0,0.12001 2.96643,2.43477 6.59207,5.14391 5.13197,3.8347 6.65566,5.10813 6.87917,5.74927 0.54349,1.55905 0.38195,26.91042 -0.17732,27.82807 -0.37847,0.62098 -3.5121,2.23196 -17.39496,8.9426 -34.086,16.47635 -41.04377,19.80079 -41.42011,19.79064 -0.21123,-0.006 -0.76289,-0.17512 -1.2259,-0.3765 z m 29.78277,-34.1176 c 5.87657,-2.85067 10.74875,-5.18304 10.82708,-5.18304 0.0783,0 0.36014,-0.19704 0.62626,-0.43788 0.77483,-0.70121 0.74372,-17.39609 -0.0332,-17.81188 -0.34285,-0.18348 -4.3764,-0.25348 -11.97239,-0.20774 l -11.45536,0.069 -0.0688,14.2875 c -0.0378,7.85813 -0.0123,14.435 0.0567,14.61527 0.16756,0.43778 -0.30541,0.64756 12.01964,-5.33119 z m 11.47417,-42.58728 c 0.42912,-0.10848 0.46273,-0.74357 0.45897,-8.67463 -0.002,-4.70667 -0.0965,-8.70303 -0.2094,-8.8808 -0.11295,-0.17776 -4.42714,-2.36327 -9.5871,-4.85668 -12.23074,-5.91018 -13.68336,-6.59406 -14.00622,-6.59406 -0.37013,0 -0.37585,29.02488 -0.006,29.14826 0.39266,0.1309 22.80927,-0.006 23.3495,-0.14209 z"
         id="path15" /><path
         style="fill:#0c5b62"
         d="m 214.88185,240.46853 c -3.00363,-1.10446 -8.7063,-3.68612 -9.06198,-4.10245 -0.43865,-0.51343 -0.46302,-4.55125 -0.46302,-76.69704 0,-43.82453 -0.0993,-76.216436 -0.2339,-76.299624 -0.29272,-0.18091 -2.95047,1.104974 -48.02566,23.235974 -5.51499,2.70775 -10.06009,4.92318 -10.10022,4.92318 -0.0401,0 -3.31888,1.60735 -7.28612,3.57188 -7.45965,3.69393 -8.20647,3.94059 -9.1813,3.0324 -0.5762,-0.53681 -0.57905,-0.58939 -0.57905,-10.66505 0,-7.689578 0.0796,-10.231361 0.33073,-10.565264 0.2864,-0.380746 11.06819,-5.779785 32.60989,-16.329567 7.82723,-3.83329 19.72826,-9.687094 32.54375,-16.007417 15.56312,-7.675392 19.15161,-9.393224 19.62211,-9.393224 0.48763,0 0.54375,0.02724 34.61747,16.802204 14.11552,6.949266 28.1649,13.855123 31.22084,15.346349 12.49661,6.098054 18.53853,9.169657 18.85156,9.583786 0.25121,0.332351 0.33073,2.874475 0.33073,10.573433 0,9.78311 -0.0184,10.15431 -0.52917,10.66506 -1.08057,1.08057 0.54649,1.77257 -23.01875,-9.78992 -7.78536,-3.81995 -16.77458,-8.22636 -19.97604,-9.792019 -3.20146,-1.565658 -10.10708,-4.957821 -15.34583,-7.53814 -13.14647,-6.475223 -16.02297,-7.826462 -16.29845,-7.656208 -0.14007,0.08657 -0.23801,31.490997 -0.23801,76.316727 v 76.16963 l -0.59531,0.63428 c -0.60026,0.63955 -6.90838,3.73217 -8.13594,3.98872 -0.3638,0.076 -0.84005,0.0726 -1.05833,-0.008 z"
         id="path14" /></g></g></svg>
