<?xml version="1.0" encoding="UTF-8" standalone="no"?>
<!-- Created with Inkscape (http://www.inkscape.org/) -->

<svg
   width="800"
   height="300"
   viewBox="0 0 800 300.00001"
   version="1.1"
   id="svg1"
   xml:space="preserve"
   inkscape:version="1.3 (0e150ed6c4, 2023-07-21)"
   sodipodi:docname="barbie-logo-white.svg"
   xmlns:inkscape="http://www.inkscape.org/namespaces/inkscape"
   xmlns:sodipodi="http://sodipodi.sourceforge.net/DTD/sodipodi-0.dtd"
   xmlns="http://www.w3.org/2000/svg"
   xmlns:svg="http://www.w3.org/2000/svg"><sodipodi:namedview
     id="namedview1"
     pagecolor="#ffffff"
     bordercolor="#000000"
     borderopacity="0.25"
     inkscape:showpageshadow="2"
     inkscape:pageopacity="0.0"
     inkscape:pagecheckerboard="0"
     inkscape:deskcolor="#d1d1d1"
     inkscape:document-units="mm"
     inkscape:zoom="0.3657138"
     inkscape:cx="567.38357"
     inkscape:cy="447.07091"
     inkscape:window-width="1920"
     inkscape:window-height="1017"
     inkscape:window-x="-8"
     inkscape:window-y="-8"
     inkscape:window-maximized="1"
     inkscape:current-layer="layer1" /><defs
     id="defs1" /><g
     inkscape:label="Layer 1"
     inkscape:groupmode="layer"
     id="layer1"><path
       style="fill:#ffffff;stroke-width:0.883826"
       d="m 203.60126,274.72858 c -7.00524,-0.47112 -13.26724,-3.15358 -18.06167,-7.73708 -3.75672,-3.59145 -7.15672,-9.01722 -8.82243,-14.07898 -0.18692,-0.568 -0.41814,-1.08112 -0.51382,-1.14025 -0.19597,-0.12111 -1.29175,3.28885 -2.66225,8.28464 -0.5057,1.84337 -1.05235,3.82598 -1.21478,4.40582 -0.57542,2.05416 -2.4175,3.18247 -5.91738,3.62452 -1.5897,0.20079 -2.20026,0.18537 -4.21215,-0.10629 -7.79067,-1.12941 -12.34665,-4.62274 -14.02791,-10.75599 -0.6096,-2.22385 -0.60112,-7.46997 0.0174,-10.77146 1.28517,-6.85972 2.56062,-11.46591 7.92188,-28.60933 7.77617,-24.86541 32.31962,-101.42988 46.82117,-146.060827 1.23214,-3.792135 2.2211,-6.913949 2.19769,-6.93737 -0.12291,-0.122896 -20.82495,8.601107 -26.16042,11.024207 -3.70785,1.68392 -5.18348,2.2211 -6.82955,2.48619 -3.02322,0.48688 -4.43536,-0.68817 -4.43536,-3.69067 0,-0.85921 0.17506,-2.27031 0.3968,-3.198449 0.98856,-4.137781 3.81847,-11.254381 5.59695,-14.075085 5.35751,-8.497137 15.40815,-15.02906 33.46754,-21.750591 18.34496,-6.827828 32.39321,-10.007135 46.03472,-10.418282 18.29523,-0.55141 34.7094,4.868899 44.95499,14.845092 5.35871,5.217816 9.40944,10.610161 12.12027,16.134558 5.92556,12.075659 5.98375,24.378777 0.17173,36.308927 -2.32757,4.77774 -9.31606,15.78454 -13.90027,21.8928 -9.46206,12.60781 -18.69682,21.15324 -36.80481,34.05754 -3.98,2.83627 -4.38835,3.24731 -3.23599,3.25729 0.83818,0.007 4.96734,1.52431 7.04449,2.58813 8.62137,4.41549 14.84535,12.36032 18.43346,23.53003 l 0.82095,2.55561 0.84827,-1.47128 c 10.56523,-18.32465 25.7178,-32.13465 41.06515,-37.42665 5.72234,-1.97314 9.96862,-2.67475 16.21388,-2.67899 6.10857,-0.004 9.17965,0.51718 12.62525,2.1432 4.15317,1.95993 6.11814,5.03681 6.05513,9.48149 -0.0518,3.65059 -1.28028,6.96744 -3.43299,9.2687 -1.66275,1.77748 -2.88632,2.34182 -5.10371,2.35397 -1.56072,0.009 -1.79403,-0.0452 -3.15442,-0.72564 -0.80797,-0.40418 -2.2675,-1.39986 -3.24339,-2.21261 -5.23229,-4.35756 -8.4303,-5.50317 -12.49379,-4.4756 -4.24368,1.07314 -8.07896,3.74205 -14.33967,9.97877 -9.55971,9.52308 -18.18972,20.81515 -22.73976,29.75419 -3.48453,6.84574 -4.9113,12.15498 -4.68687,17.44054 0.18084,4.25912 1.3039,7.11138 3.7882,9.621 1.13519,1.14677 1.59293,1.4679 2.45892,1.72507 1.38722,0.41197 2.07226,0.39852 3.57832,-0.0703 1.775,-0.55243 4.20078,-2.28533 7.03746,-5.02729 5.29327,-5.11654 7.3517,-8.27178 18.07616,-27.70783 9.17524,-16.62835 14.65095,-24.95206 17.34952,-26.37322 0.33707,-0.17752 1.27595,-0.34881 2.18294,-0.39828 2.97623,-0.1623 6.52875,1.09253 8.47867,2.99485 1.52045,1.48335 1.86219,3.36073 1.09897,6.03734 -0.3669,1.28671 -5.26525,13.41707 -8.77586,21.73272 -3.72441,8.82206 -5.88837,15.21879 -6.42211,18.984 -0.22372,1.57821 0.0229,3.85501 0.49578,4.57669 0.47402,0.72345 1.13127,0.93919 1.8961,0.62239 1.01079,-0.41868 4.3345,-3.18931 5.6372,-4.69914 2.54084,-2.94483 6.80493,-9.01478 9.63706,-13.71838 3.1825,-5.28549 8.65782,-15.61171 15.47231,-29.1801 l 4.95167,-9.8593 0.0336,-3.94126 c 0.0383,-4.48509 0.33987,-6.33683 1.69535,-10.40843 1.89828,-5.70203 5.57306,-10.77468 9.20969,-12.71299 2.53618,-1.35177 5.67557,-1.63581 9.38433,-0.84905 2.23636,0.4744 3.65399,1.11933 4.72839,2.15109 1.2808,1.22997 1.61019,2.05299 1.59244,3.97901 -0.0166,1.80038 -0.006,1.7671 -2.03009,6.72911 -1.37577,3.37356 -1.86871,5.38541 -1.75392,7.15825 0.1827,2.82171 1.10699,4.00333 5.35955,6.85172 6.38899,4.27937 7.55398,5.67524 8.29816,9.94269 0.37531,2.15214 0.3768,4.09852 0.004,6.23191 -0.42858,2.45766 -1.55755,5.28472 -6.51689,16.31891 -5.68428,12.64715 -6.99152,16.789 -6.99152,22.15191 0,3.88464 1.54215,5.66256 4.68552,5.40189 0.90403,-0.075 1.34607,-0.28989 3.35311,-1.63028 1.76695,-1.18006 2.96229,-2.19967 5.0719,-4.32629 1.51807,-1.5303 3.08936,-3.2678 3.49177,-3.86111 0.69995,-1.03201 0.7537,-1.23249 1.24044,-4.62746 1.35011,-9.41693 4.53675,-22.4049 8.24737,-33.61422 12.90209,-38.9756 34.40353,-74.87135 63.82915,-106.560028 7.52446,-8.103145 11.81852,-11.793798 16.171,-13.898612 2.29392,-1.109307 3.4281,-1.303678 5.37226,-0.920655 4.18144,0.823788 8.6744,4.210608 11.92689,8.990542 2.58068,3.79262 3.75544,6.580083 3.91927,9.299553 0.12155,2.017703 -0.0728,2.696278 -2.62876,9.17669 -4.27362,10.83557 -10.62382,23.8489 -17.97574,36.83735 -17.31746,30.59423 -40.10364,62.16891 -67.61135,93.68864 -2.03734,2.33448 -3.76778,4.473 -3.84543,4.75227 -0.34863,1.25387 -0.57968,5.45141 -0.45774,8.31626 0.13016,3.05832 0.73291,9.59173 1.07311,11.63191 0.66112,3.96464 3.34777,6.85051 5.71681,6.14073 2.92989,-0.87782 9.63528,-7.89438 14.57539,-15.25178 2.22551,-3.31449 9.79117,-18.81241 11.74174,-24.05244 1.09341,-2.93733 1.1776,-3.5377 0.91494,-6.52454 -0.1258,-1.43046 -0.27964,-3.50196 -0.34189,-4.60334 -0.13267,-2.34755 -0.0247,-2.60624 1.85273,-4.43657 3.50545,-3.41759 9.76859,-6.45213 13.50115,-6.5414 2.72909,-0.0652 3.36792,1.2235 4.9908,10.06842 1.02691,5.59682 1.95962,7.84734 3.54239,8.54747 2.05951,0.91103 5.50784,0.85938 7.50607,-0.11239 1.79376,-0.87235 2.5019,-1.65307 3.4322,-3.78392 1.47697,-3.38303 4.65565,-9.70243 6.71872,-13.3572 7.64714,-13.54711 15.80432,-23.34646 23.69933,-28.47043 2.93939,-1.9077 4.78505,-1.26117 6.96273,2.43902 1.35873,2.30867 2.51725,3.87754 4.21723,5.71098 0.74654,0.80513 1.46513,1.7905 1.59687,2.1897 0.72656,2.2015 -0.86198,5.70165 -4.38237,9.65599 -0.68383,0.76813 -2.98662,3.25223 -5.11729,5.52022 -9.30794,9.9078 -12.20048,13.90477 -16.82366,23.24726 -3.52709,7.12752 -5.14527,10.86899 -6.6082,15.27919 -1.89523,5.71334 -2.21922,8.91171 -1.14129,11.26622 0.59066,1.29018 1.27285,1.82799 2.83473,2.23482 2.01273,0.52424 4.21723,0.31027 7.27735,-0.70635 4.78884,-1.59093 12.03624,-6.28027 17.24045,-11.15523 l 1.45119,-1.35938 -0.043,-3.9352 c -0.0479,-4.3875 0.26276,-7.60744 1.09286,-11.32835 3.01016,-13.49293 11.18769,-27.31211 23.72695,-40.09611 8.20847,-8.36868 13.64672,-12.39047 18.33217,-13.55731 2.18909,-0.54517 5.7212,-0.44173 7.69498,0.22535 3.68274,1.24465 6.78163,3.4131 10.77148,7.53736 2.06549,2.13508 3.03208,3.50473 3.65494,5.17906 0.61685,1.65816 0.62568,5.97354 0.0168,8.19029 -3.03872,11.06256 -13.68412,26.37904 -27.86607,40.09341 -4.98697,4.82254 -13.0977,11.74966 -17.10924,14.61244 l -1.05806,0.75508 0.11927,1.01484 c 0.21285,1.811 1.08898,4.89411 1.8041,6.3486 2.79995,5.69491 8.31954,6.57669 17.04916,2.7237 4.06913,-1.79599 13.89417,-7.54737 21.09514,-12.34867 10.73943,-7.16061 18.03016,-13.05987 26.03169,-21.06346 4.48054,-4.48171 6.78338,-7.07429 11.56033,-13.01487 1.61044,-2.00273 3.22827,-3.84363 3.59517,-4.09088 0.76379,-0.51472 1.75825,-0.57893 2.55833,-0.16518 2.08406,1.0777 5.14283,6.22729 7.01939,11.81746 0.99147,2.95354 0.87757,4.35529 -0.59456,7.31753 -3.92493,7.89777 -16.82482,19.33235 -38.0332,33.71298 -11.03179,7.48025 -19.89296,11.46566 -29.2236,13.14361 -2.19047,0.39393 -3.16514,0.45421 -7.26168,0.44917 -4.37686,-0.005 -4.9186,-0.0457 -7.22554,-0.53701 -7.3988,-1.57584 -13.64598,-4.96321 -18.96729,-10.28452 -1.47215,-1.47216 -4.12416,-4.66336 -4.63705,-5.57983 -0.13519,-0.24157 -0.44957,-0.0979 -1.7213,0.78653 -3.55733,2.47401 -8.79246,5.29688 -12.74585,6.87278 -2.57379,1.02596 -6.24064,2.03158 -8.56106,2.34784 -2.76882,0.37738 -6.63742,0.16837 -8.79632,-0.47525 -3.25517,-0.97043 -6.23239,-2.65702 -9.09055,-5.14975 -3.97463,-3.46647 -8.25534,-9.96729 -9.08521,-13.79712 -0.50412,-2.32647 -0.62412,-7.5855 -0.2254,-9.87746 0.17167,-0.98684 0.36122,-1.92217 0.42121,-2.07849 0.0845,-0.22029 -0.34673,-0.38686 -1.91714,-0.74045 -4.20651,-0.94714 -7.77945,-2.44889 -9.41187,-3.95594 -0.47503,-0.43853 -0.85676,-0.66279 -0.90376,-0.53093 -0.0447,0.12557 -0.3129,1.33728 -0.59589,2.69268 -1.33872,6.41185 -4.62956,13.60257 -11.18809,24.44671 -6.90213,11.41226 -14.84695,19.47357 -22.28894,22.61572 -7.28971,3.07785 -13.79337,1.75092 -20.76394,-4.23642 -4.13771,-3.55406 -7.63911,-9.38273 -9.11656,-15.17598 -0.30157,-1.18252 -0.99869,-5.58264 -0.99869,-6.30362 0,-0.0676 -0.19961,0.0632 -0.44358,0.29064 -1.45311,1.35448 -5.43804,3.40202 -8.23106,4.22928 -1.67543,0.49625 -4.85801,0.6731 -6.61798,0.36774 -3.0256,-0.52493 -7.25028,-2.63386 -10.47301,-5.22805 -5.46914,-4.40247 -7.95286,-9.87956 -7.96353,-17.56108 -0.009,-6.49276 1.46406,-11.8909 6.72353,-24.63865 2.68245,-6.50166 3.58679,-9.41539 3.6102,-11.63189 0.0134,-1.25959 -0.0696,-1.74173 -0.41205,-2.39416 -0.58986,-1.12403 -2.94261,-3.08633 -4.46118,-3.72083 l -0.6904,-0.28847 -4.11525,8.22907 c -6.33786,12.67354 -10.25688,19.87676 -16.32966,30.01425 -5.67819,9.47876 -9.09646,14.25404 -13.37406,18.68342 -3.90757,4.04622 -6.38951,5.6524 -10.34149,6.6925 -2.40714,0.63352 -5.91691,0.71552 -7.90947,0.18479 -2.15809,-0.57482 -4.02517,-1.62806 -5.73144,-3.23321 -2.87641,-2.7059 -4.84444,-6.3882 -6.19053,-11.58279 -0.25289,-0.97589 -0.50664,-1.77435 -0.56388,-1.77435 -0.0573,0 -1.1084,1.34354 -2.33589,2.98565 -5.59176,7.48053 -12.01452,14.48772 -15.39611,16.79706 -4.90568,3.35016 -10.35486,4.10509 -15.1393,2.09739 -5.14001,-2.15692 -10.28391,-7.86096 -14.10609,-15.64218 -0.63836,-1.29956 -1.20499,-2.36965 -1.25922,-2.37796 -0.0542,-0.008 -0.49101,0.7167 -0.97064,1.61117 -2.61693,4.88021 -6.99899,11.71674 -10.62485,16.576 -7.96611,10.67595 -16.10516,18.60599 -25.30657,24.65666 -12.46673,8.19789 -25.37303,12.28325 -36.45106,11.53821 z m 7.30759,-18.13367 c 6.65877,-1.07061 17.0773,-7.59751 27.98944,-17.53456 1.86696,-1.70013 2.38608,-2.2991 2.9047,-3.35156 0.97588,-1.98041 1.50548,-4.1521 1.51768,-6.22351 0.01,-1.63252 -0.0455,-1.90145 -0.63554,-3.09996 -0.97059,-1.97155 -2.37927,-3.00278 -5.02454,-3.67824 -4.16105,-1.06251 -10.41118,-0.46045 -16.59847,1.5989 -4.20775,1.40049 -7.79429,3.6097 -11.92259,7.344 -4.49103,4.0624 -7.88557,8.99801 -8.77048,12.75215 -0.42825,1.81679 -0.39015,4.39081 0.0879,5.93856 0.67602,2.18869 2.60852,4.68056 4.31376,5.56238 1.60458,0.82975 3.76551,1.07331 6.13814,0.69184 z m -22.67234,-36.87165 c 7.64258,-6.32374 16.8314,-11.44311 24.56671,-13.68684 14.63042,-4.24377 28.89819,-0.68605 39.37647,9.81866 1.17502,1.17798 2.16286,2.11249 2.19518,2.07667 0.26845,-0.2974 2.69303,-5.16471 3.71524,-7.45828 5.98312,-13.42453 6.98114,-24.04602 3.01024,-32.037 -2.30995,-4.64852 -5.74518,-7.89227 -11.16507,-10.54272 -3.53502,-1.72871 -8.24138,-3.06089 -12.52143,-3.54433 l -1.78615,-0.20175 -2.55117,1.10845 c -10.85733,4.71737 -21.72511,7.34179 -31.87735,7.69797 -1.92469,0.0675 -3.49943,0.15979 -3.49943,0.20505 0,0.061 -12.67809,43.95895 -14.49163,50.17738 l -0.27281,0.93544 2.10844,-1.82575 c 1.15964,-1.00416 2.59637,-2.22948 3.19276,-2.72295 z m 373.78033,-18.15894 c 10.19185,-7.34418 18.97133,-16.89616 25.3346,-27.56375 1.78117,-2.98599 4.02416,-7.40876 4.94347,-9.7476 1.26427,-3.21647 -0.1693,-5.08968 -2.62379,-3.42846 -3.92265,2.65487 -8.70649,6.6931 -12.36731,10.43974 -8.30627,8.50096 -14.0124,18.1889 -16.56719,28.12798 -0.66754,2.59697 -0.79495,3.39237 -0.54343,3.39237 0.0716,0 0.89227,-0.54912 1.82365,-1.22028 z M 444.26899,180.11225 c 21.16611,-25.10009 41.22803,-58.20179 54.74359,-90.32559 3.26114,-7.75109 4.00663,-10.10966 3.43773,-10.87626 -0.43944,-0.59216 -1.15122,-0.23467 -3.24171,1.62812 -3.10107,2.7633 -8.00154,8.14991 -12.12774,13.33083 -14.64296,18.38596 -29.39716,46.10873 -40.89336,76.83763 -1.51902,4.06028 -4.21787,11.68855 -4.21787,11.92177 0,0.17468 0.3887,-0.25072 2.29936,-2.5165 z M 207.07433,149.92126 c 3.30068,-1.14612 9.9468,-2.63816 17.86133,-4.00983 3.74868,-0.64969 3.94566,-0.70748 6.11167,-1.79292 7.60949,-3.81331 18.72824,-11.78287 31.61362,-22.65963 4.59995,-3.88289 5.3005,-4.57116 9.33254,-9.16879 15.07121,-17.18535 23.24126,-30.59893 24.98341,-41.017774 0.44923,-2.68661 0.3108,-6.939527 -0.2948,-9.056263 -0.98791,-3.453063 -3.31573,-7.021253 -6.16527,-9.450396 -4.34922,-3.707569 -8.86582,-5.793442 -14.40572,-6.652892 -2.70089,-0.419004 -9.7958,-0.475127 -13.05586,-0.103275 -8.31357,0.948283 -17.07828,3.031133 -27.50254,6.535724 -7.01221,2.357472 -20.10939,7.613213 -20.10939,8.069656 0,0.07274 0.67479,0.706663 1.49951,1.408765 2.25316,1.91815 7.51244,7.816786 8.26215,9.266552 0.87842,1.698683 1.08438,4.756593 0.5799,8.610053 -0.82728,6.31915 -2.69699,13.14686 -8.44561,30.84131 -3.08786,9.50455 -6.22637,19.47011 -9.67767,30.72913 -1.47913,4.82528 -2.72972,8.894 -2.7791,9.04161 -0.0644,0.19262 0.008,0.22487 0.25746,0.11424 0.19098,-0.0848 1.06145,-0.40216 1.93437,-0.70527 z m 340.37099,-6.59845 c -4.84224,-1.29763 -8.97245,-5.37664 -10.75871,-10.62534 -0.4427,-1.30081 -0.55332,-2.03036 -0.63122,-4.16312 -0.18944,-5.1857 1.11742,-9.08935 4.97546,-14.86193 5.88147,-8.80017 13.31776,-15.38682 19.96005,-17.67951 1.27072,-0.43861 1.8945,-0.53263 3.60654,-0.54364 2.93751,-0.0189 3.73583,0.37991 6.60533,3.29956 4.32331,4.3989 6.09125,7.48962 6.33742,11.07915 0.22145,3.22913 -0.96859,6.32809 -3.96003,10.31219 -3.77712,5.0305 -8.25195,9.55016 -12.2357,12.35828 -4.24271,2.99065 -9.22345,7.37111 -10.52969,9.26063 -0.70137,1.01457 -1.18544,1.51076 -1.62249,1.66313 -0.34259,0.11942 -0.63183,0.21129 -0.64276,0.20416 -0.011,-0.007 -0.50781,-0.14374 -1.1042,-0.30356 z"
       id="path1" /></g></svg>
