<?xml version="1.0" encoding="UTF-8" standalone="no"?>
<!-- Created with Inkscape (http://www.inkscape.org/) -->

<svg
   width="800"
   height="300"
   viewBox="0 0 800 300.00001"
   version="1.1"
   id="svg1"
   xml:space="preserve"
   inkscape:version="1.3 (0e150ed6c4, 2023-07-21)"
   sodipodi:docname="bayininja-logo-black.svg"
   xmlns:inkscape="http://www.inkscape.org/namespaces/inkscape"
   xmlns:sodipodi="http://sodipodi.sourceforge.net/DTD/sodipodi-0.dtd"
   xmlns="http://www.w3.org/2000/svg"
   xmlns:svg="http://www.w3.org/2000/svg"><sodipodi:namedview
     id="namedview1"
     pagecolor="#ffffff"
     bordercolor="#000000"
     borderopacity="0.25"
     inkscape:showpageshadow="2"
     inkscape:pageopacity="0.0"
     inkscape:pagecheckerboard="0"
     inkscape:deskcolor="#d1d1d1"
     inkscape:document-units="mm"
     inkscape:zoom="0.51719742"
     inkscape:cx="358.66382"
     inkscape:cy="360.59732"
     inkscape:window-width="1920"
     inkscape:window-height="1017"
     inkscape:window-x="-8"
     inkscape:window-y="-8"
     inkscape:window-maximized="1"
     inkscape:current-layer="layer1" /><defs
     id="defs1" /><g
     inkscape:label="Layer 1"
     inkscape:groupmode="layer"
     id="layer1"><path
       style="fill:#000000;stroke-width:0.649531"
       d="m 623.84653,225.50797 c -0.13255,-0.44656 -0.57361,-5.48855 -0.97981,-11.20441 -0.40622,-5.71587 -0.80004,-11.25046 -0.87505,-12.29907 -0.13094,-1.83057 0.0319,-1.9493 4.08549,-2.97815 5.18623,-1.31629 7.87334,-2.66893 11.80573,-5.94257 7.12997,-5.93567 8.80947,-15.70477 9.43007,-54.85196 l 0.3822,-24.1093 5.59168,-2.84625 5.59162,-2.84623 -16.40066,-0.17353 c -13.58831,-0.14376 -16.40064,-0.33038 -16.40064,-1.08824 0,-0.50309 1.16914,-5.74536 2.59811,-11.649482 1.42897,-5.90413 2.59812,-11.18712 2.59812,-11.740001 0,-0.886684 2.49342,-1.005216 21.14548,-1.005216 h 21.14548 l -0.23357,51.475319 c -0.25736,56.72614 -0.28858,57.1963 -4.38706,65.96771 -3.69773,7.91396 -15.61908,17.95232 -25.80223,21.72687 -3.87698,1.43703 -16.27139,4.37642 -18.45401,4.37642 -0.32983,0 -0.70825,-0.36537 -0.84095,-0.81191 z M 242.71956,209.90175 c -3.35605,-7.71539 -8.30938,-19.93709 -8.28092,-20.43216 0.0156,-0.27375 1.86954,-1.95918 4.11964,-3.74539 14.16529,-11.24484 17.86853,-14.39109 17.90018,-15.20785 0.0305,-0.78089 -6.55873,-13.7175 -23.02101,-45.19851 -1.86812,-3.57242 -5.64722,-10.80453 -8.39797,-16.07139 -2.75071,-5.26684 -4.81213,-9.882232 -4.58089,-10.256412 0.85407,-1.38186 17.90522,-15.655693 18.45928,-15.452601 0.58256,0.213502 1.90903,2.755464 22.42193,42.968023 l 11.53989,22.62215 1.75498,-1.68139 c 2.71249,-2.59871 7.51208,-11.19235 9.36519,-16.76835 3.07202,-9.2434 3.82054,-14.76065 4.06742,-29.97999 l 0.23078,-14.227467 5.04536,0.101739 c 2.77498,0.05588 8.23209,0.287652 12.12694,0.514912 l 7.0815,0.413218 -0.41777,11.439176 c -0.72637,19.888112 -3.02298,35.933072 -6.70439,46.838632 -4.43416,13.13559 -18.58568,33.55085 -32.23388,46.50126 -8.44955,8.01756 -26.28476,21.74273 -28.1747,21.682 -0.29885,-0.0104 -1.33453,-1.83642 -2.30156,-4.05958 z m -48.23223,-3.6794 c -0.17357,-0.28085 -1.62338,-4.13095 -3.22181,-8.55582 -1.59842,-4.42481 -3.89629,-10.67574 -5.10635,-13.89092 -1.21006,-3.21518 -5.4808,-14.61445 -9.49051,-25.3317 -4.00971,-10.71727 -8.40216,-22.40882 -9.76099,-25.98124 -1.35883,-3.57242 -2.66601,-7.05569 -2.90484,-7.7406 -0.63363,-1.81706 -1.1146,-1.00264 -5.14672,8.7149 -2.00112,4.82275 -6.30873,15.05287 -9.57246,22.73359 -3.26372,7.68069 -7.33015,17.32622 -9.03651,21.4345 -6.23318,15.00725 -11.82819,28.25921 -12.00797,28.44128 -0.10144,0.10257 -0.87975,-0.0938 -1.72969,-0.43668 -0.84996,-0.34289 -6.07586,-1.99368 -11.61311,-3.66837 -5.53726,-1.67462 -10.14681,-3.11606 -10.24345,-3.2031 -0.0966,-0.087 1.11252,-3.19694 2.687,-6.9109 1.57447,-3.71394 4.82306,-11.42924 7.21909,-17.14512 2.39602,-5.71586 5.04868,-12.00007 5.89478,-13.96492 1.93295,-4.48871 11.29112,-26.87315 14.6635,-35.07464 1.39551,-3.39381 2.82403,-6.67809 3.17451,-7.29841 0.35047,-0.62034 0.63721,-1.278 0.63721,-1.46145 0,-0.18347 -5.53625,-0.33358 -12.30276,-0.33358 -6.76651,0 -12.42866,-0.21923 -12.58255,-0.48715 -0.2611,-0.45459 0.16053,-7.4623 1.21146,-20.135462 l 0.44438,-5.35862 h 16.70461 16.70459 l 3.43572,-8.443908 c 1.88964,-4.64415 3.50234,-8.443904 3.58379,-8.443904 0.29292,0 20.6751,7.842279 21.15822,8.140857 0.27198,0.168104 -0.0312,2.041957 -0.67375,4.164139 -0.64254,2.122167 -1.00529,4.021466 -0.8061,4.220656 0.19918,0.19918 8.05909,0.36216 17.46645,0.36216 9.40739,0 17.10772,0.2192 17.11188,0.48715 0.006,0.26792 -0.76943,6.1137 -1.71919,12.990612 l -1.7267,12.50347 h -9.28454 c -5.10648,0 -9.41993,0.21921 -9.58547,0.48715 -0.16554,0.26792 0.66477,2.9716 1.84514,6.00815 2.16495,5.56949 3.54202,9.25477 14.92649,39.94615 3.44538,9.28829 6.82657,18.34924 7.51378,20.13546 3.66049,9.51464 5.82214,15.47513 5.66689,15.62621 -0.72597,0.70663 -23.28798,7.86816 -23.53402,7.47006 z m 573.30113,-6.6573 c -1.45579,-4.04004 -8.02508,-21.6677 -14.59833,-39.17254 -6.57331,-17.50487 -12.31016,-32.9231 -12.74866,-34.26278 -0.43843,-1.33965 -1.03613,-2.43572 -1.32817,-2.43572 -0.29209,0 -1.58783,2.64049 -2.8795,5.86774 -1.29171,3.22724 -2.88859,7.10007 -3.54864,8.60629 -0.65999,1.50618 -1.56842,3.6154 -2.01868,4.68713 -0.45026,1.07173 -2.8587,6.77136 -5.35219,12.66585 -4.72651,11.17343 -17.10404,40.57975 -19.68443,46.76621 -0.81958,1.96484 -1.73605,3.56845 -2.03673,3.56364 -0.3006,-0.006 -3.03102,-0.78604 -6.0676,-1.73598 -3.03655,-0.95001 -8.07853,-2.48999 -11.2044,-3.42213 -3.12586,-0.9322 -5.6834,-1.96775 -5.6834,-2.30115 0,-0.55944 8.37349,-21.00352 11.04106,-26.95709 0.6403,-1.42896 2.49608,-5.8133 4.12399,-9.74297 1.62793,-3.92965 6.35566,-15.18278 10.50603,-25.00693 4.15038,-9.82415 7.70591,-18.3736 7.9011,-18.99877 0.32949,-1.05529 -0.53417,-1.13668 -12.06192,-1.13668 h -12.41682 l 0.0533,-3.41004 c 0.0292,-1.87552 0.39465,-7.64822 0.81192,-12.82823 l 0.75858,-9.418202 16.77544,-0.32476 16.77536,-0.32477 2.25914,-5.521013 c 3.74344,-9.148434 4.79847,-11.178033 5.62819,-10.82689 3.20089,1.354753 9.52607,3.807289 14.58391,5.654777 3.30448,1.207042 6.00815,2.389371 6.00815,2.627408 0,0.238023 -0.43844,1.675434 -0.97428,3.194235 -1.97133,5.587323 -3.19342,5.196253 16.23826,5.196253 h 17.21258 v 1.99848 c 0,1.67282 -1.67827,14.075492 -2.95959,21.871772 l -0.34691,2.11098 h -9.38879 c -5.36791,0 -9.38877,0.2592 -9.38877,0.60522 0,0.33286 0.91596,3.03654 2.0355,6.00816 1.11953,2.97161 2.98634,8.03354 4.14855,11.2487 1.1622,3.2152 4.80816,13.00686 8.10212,21.75931 5.55394,14.75739 7.01131,18.66267 12.24074,32.8013 1.05705,2.85792 2.24361,6.01907 2.6367,7.02473 1.0073,2.57676 0.95968,2.69666 -1.39617,3.5176 -1.16104,0.40459 -5.91508,2.05369 -10.56448,3.66465 -4.64947,1.61104 -8.92423,3.1097 -9.49941,3.33047 -0.84359,0.32366 -1.55775,-1.0193 -3.69276,-6.94426 z M 50.592812,205.1375 C 45.62898,204.06 38.17236,201.70188 37.352425,200.95031 c -0.324617,-0.29756 0.773532,-4.00625 2.524525,-8.52591 4.456586,-11.50328 5.366736,-13.52027 6.100933,-13.52027 0.359897,0 2.34928,0.47423 4.420856,1.05384 11.254653,3.14898 17.625362,3.30126 19.483302,0.46569 1.963078,-2.99605 2.774257,-8.70359 2.78467,-19.5935 l 0.01038,-10.60434 -16.725419,0.21185 -16.725418,0.21187 -0.399682,13.31537 c -0.442317,14.7355 -1.04592,17.9099 -4.903575,25.7882 -2.639889,5.39129 -7.124631,9.97868 -11.759957,12.02912 -2.092757,0.92571 -4.951731,1.45086 -9.072146,1.66636 l -6.0164162,0.31469 v -11.45527 c 0,-10.91275 0.05981,-11.45529 1.262845,-11.45529 1.9567362,0 4.3778772,-2.6511 5.0552132,-5.53539 0.337438,-1.43689 0.476813,-7.35572 0.309734,-13.15301 L 13.398495,151.62384 H 9.9171918 6.4358882 l 0.2754596,-2.11098 c 0.1515022,-1.16104 0.2951864,-6.27609 0.319297,-11.36679 l 0.04385,-9.25582 h 4.5628042 4.562806 l -0.178472,-10.55487 -0.178472,-10.55488 -4.46672,-0.13654 c -2.4566942,-0.0751 -4.5387658,-0.22122 -4.626816,-0.32476 -0.088055,-0.10351 0.09662,-2.23429 0.4103868,-4.73498 0.313762,-2.50069 0.863454,-7.177322 1.221527,-10.392502 0.358073,-3.21517 0.818273,-6.64957 1.022668,-7.631975 l 0.371628,-1.786211 H 39.560181 c 23.90228,0 30.69347,0.191238 34.387763,0.968355 7.082647,1.489887 11.210844,4.000752 13.336703,8.111711 1.26119,2.43886 2.907822,9.417012 2.920198,12.375292 0.02429,5.81155 -3.005355,12.40531 -9.246216,20.12336 -1.696893,2.09855 -3.085269,3.9781 -3.085269,4.17677 0,0.19865 1.242231,0.36684 2.760503,0.37373 4.168502,0.0189 8.508213,1.3766 11.771429,3.68271 5.299159,3.74491 5.250279,3.49738 5.491079,27.80702 0.22633,22.84719 -0.0625,26.0439 -2.852165,31.57213 -1.85636,3.67863 -7.020653,8.42128 -11.525,10.58397 -1.854864,0.89063 -5.625403,2.07304 -8.378971,2.62754 -6.175493,1.24373 -18.730873,1.22391 -24.547175,-0.0383 z M 46.58733,126.33186 c 9.108118,-2.36553 15.047507,-8.76935 15.047507,-16.22417 v -2.58601 l -11.204407,0.12946 -11.204408,0.12946 -0.179301,9.90536 -0.179299,9.90533 1.478359,-0.0118 c 0.813102,-0.006 3.621796,-0.56782 6.241549,-1.24821 z m 105.32692,74.16916 c -1.90993,-2.05413 -4.92383,-5.24756 -6.69755,-7.09648 l -3.22493,-3.36169 12.59591,-12.74158 12.59591,-12.74159 2.87763,3.11267 c 1.58271,1.71194 4.37795,4.72023 6.21167,6.68506 1.83371,1.96482 3.57223,3.9705 3.86334,4.45708 0.37685,0.62979 -3.00152,4.41921 -11.72625,13.15301 -6.74057,6.74758 -12.42829,12.26833 -12.63936,12.26833 -0.21107,0 -1.94644,-1.68066 -3.85637,-3.73481 z M 365.61529,143.51843 V 82.773561 h 12.99062 12.9906 l 0.0461,9.255797 0.0461,9.255822 1.28848,-2.906362 c 0.7087,-1.59852 1.57582,-3.08396 1.92697,-3.30098 0.899,-0.55561 14.27855,4.1034 19.88537,6.924472 5.6002,2.81772 11.40278,7.91452 16.56129,14.54686 4.95494,6.37071 4.64407,5.93142 5.51543,7.79437 0.59782,1.27829 0.76879,-2.97183 0.80339,-19.97308 l 0.0442,-21.596899 h 12.66586 12.66584 v 52.633599 52.63358 l -1.66448,3.28466 c -2.31636,4.57111 -6.25121,8.62676 -9.87956,10.18292 -3.72915,1.59933 -12.17155,2.89301 -17.03531,2.61033 l -3.57242,-0.20759 -0.17641,-12.50346 c -0.1553,-11.00803 -0.0545,-12.50347 0.84419,-12.50347 2.07941,0 4.98047,-2.09448 5.87871,-4.24424 1.99762,-4.78104 0.34503,-16.17218 -3.29715,-22.72661 -1.3835,-2.48962 -4.49559,-6.15381 -8.55751,-10.0755 -10.27954,-9.92465 -19.60043,-16.3306 -29.62081,-20.35745 l -4.04288,-1.62469 -0.32476,42.01771 -0.32477,42.01771 -12.82823,0.1761 -12.82823,0.17615 z m 148.53964,60.29799 c -0.24566,-0.24565 -0.44661,-27.58078 -0.44661,-60.74474 V 82.773561 h 12.99061 12.99062 v 9.223337 c 0,9.209362 0.39036,10.341902 1.91748,5.56254 0.42647,-1.33469 0.97332,-2.54783 1.21513,-2.69588 0.74931,-0.45863 15.11603,4.63005 20.25049,7.172712 3.79723,1.88043 6.23446,3.78408 11.05235,8.6326 3.39952,3.4211 7.4185,8.11422 8.93106,10.42916 l 2.75018,4.20897 V 104.02654 82.746092 l 12.82823,0.17611 12.82824,0.176125 v 52.287223 52.28725 l -1.91794,3.72698 c -2.37995,4.62475 -5.53615,7.93039 -9.47978,9.92882 -3.40835,1.72709 -12.01047,3.0952 -17.50757,2.7844 l -3.57125,-0.20194 -0.17681,-12.19562 -0.17674,-12.19561 2.90049,-1.2433 c 4.25636,-1.82449 5.19208,-4.02715 4.73144,-11.13754 -0.73865,-11.40097 -3.32132,-16.62508 -12.53081,-25.34696 -2.40036,-2.27321 -4.89617,-4.6366 -5.54623,-5.25197 -2.0314,-1.92282 -10.68438,-8.16912 -14.31254,-10.33173 -1.90754,-1.13697 -5.80647,-3.03315 -8.6644,-4.21373 l -5.19626,-2.1465 -0.32476,42.03149 -0.32477,42.03147 -12.38161,0.17596 c -6.80989,0.0968 -12.58259,-0.0246 -12.82824,-0.2706 z m 212.14814,-4.70104 c -2.57026,-2.79798 -5.46625,-6.02968 -6.43556,-7.18158 l -1.7623,-2.09439 12.27496,-12.28773 c 6.75124,-6.75823 12.47631,-12.28771 12.72249,-12.28771 0.42188,0 3.5204,3.18545 10.4757,10.76958 l 3.02636,3.29999 -12.40538,12.45114 c -6.82294,6.84811 -12.58935,12.44368 -12.81422,12.43459 -0.22479,-0.009 -2.51174,-2.30591 -5.08205,-5.10389 z M 323.39577,144.81613 V 86.045959 l 1.46145,-0.298359 c 2.11787,-0.432386 23.6858,-3.62357 24.49024,-3.62357 0.46753,0 0.67908,18.91532 0.67908,60.73114 v 60.73112 h -13.31538 -13.31539 z m 152.63976,0.0393 V 86.124414 l 1.78621,-0.366109 c 0.98241,-0.201338 5.00138,-0.831288 8.93105,-1.399856 3.92966,-0.568583 8.57309,-1.303929 10.31876,-1.634105 1.74562,-0.330192 3.71857,-0.600344 4.38433,-0.600344 1.17223,0 1.21041,1.915743 1.21041,60.73115 v 60.73113 H 489.3509 476.03553 Z"
       id="path1"
       sodipodi:nodetypes="sssssscccssssscsssssssscssssscssscsscssssssssssssssssssssssssssscccsssssscscsssssssssssssssscsssssssscsscccsssssscsscsssssssssssscsssssscccsssscsssscccsscccccssssscssssssssssssccssccccccsssscccssssssccccccsssssscccccssscssssssccccccsscccsssssscccccccssscccsssssscccsssscssscsssccsssccccccssssscccc" /></g></svg>
