<?xml version="1.0" encoding="UTF-8" standalone="no"?>
<svg
   height="20"
   width="100"
   viewBox="-61.48365 -22.04525 44.404858 3.3067875"
   version="1.1"
   id="svg1"
   sodipodi:docname="blibli-logo-white.svg"
   inkscape:version="1.3 (0e150ed6c4, 2023-07-21)"
   xml:space="preserve"
   xmlns:inkscape="http://www.inkscape.org/namespaces/inkscape"
   xmlns:sodipodi="http://sodipodi.sourceforge.net/DTD/sodipodi-0.dtd"
   xmlns="http://www.w3.org/2000/svg"
   xmlns:svg="http://www.w3.org/2000/svg"><defs
     id="defs1" /><sodipodi:namedview
     id="namedview1"
     pagecolor="#ffffff"
     bordercolor="#000000"
     borderopacity="0.25"
     inkscape:showpageshadow="2"
     inkscape:pageopacity="0.0"
     inkscape:pagecheckerboard="0"
     inkscape:deskcolor="#d1d1d1"
     inkscape:zoom="10.286047"
     inkscape:cx="52.546911"
     inkscape:cy="7.1456022"
     inkscape:window-width="1920"
     inkscape:window-height="1017"
     inkscape:window-x="-8"
     inkscape:window-y="-8"
     inkscape:window-maximized="1"
     inkscape:current-layer="svg1" /><path
     style="fill:#ffffff;stroke-width:0.0283702"
     d="m -43.723584,-16.12589 c -0.882644,-0.129981 -1.636812,-0.696224 -2.001982,-1.503123 -0.04881,-0.10785 -0.122242,-0.317372 -0.163188,-0.465607 l -0.07444,-0.269516 -0.0092,-2.09147 -0.0092,-2.091471 0.181661,-0.181658 c 0.272121,-0.272121 0.729538,-0.470093 1.090618,-0.472021 l 0.0922,-4.76e-4 v 2.294267 c 0,2.488175 0.0039,2.56428 0.157199,2.973167 0.08892,0.237367 0.271577,0.501381 0.431004,0.622979 0.312394,0.238271 0.736238,0.276908 1.095689,0.09988 0.494761,-0.243667 0.784313,-0.778844 0.784313,-1.449645 0,-0.470531 -0.11836,-0.791098 -0.405377,-1.097918 -0.136783,-0.14622 -0.224282,-0.208964 -0.429337,-0.307863 -0.482449,-0.232688 -0.921646,-0.271251 -1.299434,-0.114093 -0.04601,0.01914 -0.04624,0.01129 -0.0039,-0.131348 0.100635,-0.338993 0.316307,-0.658849 0.579669,-0.859692 l 0.142385,-0.108584 0.289539,0.01587 c 0.708304,0.03883 1.43755,0.398616 1.885713,0.930345 0.199072,0.236192 0.397192,0.597252 0.485053,0.883962 0.170794,0.557373 0.12004,1.360132 -0.120373,1.90374 -0.288325,0.651961 -0.936995,1.159175 -1.733894,1.355787 -0.219855,0.05424 -0.779926,0.09169 -0.964587,0.0645 z m 5.830066,-2.233591 v -2.250774 l 0.191926,-0.185287 c 0.289168,-0.279168 0.67568,-0.448165 1.024995,-0.448165 h 0.144847 v 2.266557 2.266557 l -0.170099,0.157482 c -0.27457,0.254205 -0.734393,0.442286 -1.08528,0.443911 l -0.106389,4.75e-4 z m 4.265219,2.2088 c -0.542887,-0.09851 -1.007483,-0.353882 -1.401328,-0.770254 -0.281726,-0.297839 -0.489722,-0.66838 -0.626986,-1.116943 -0.0651,-0.21275 -0.06511,-0.213058 -0.07395,-2.374866 l -0.0088,-2.16209 0.172172,-0.167949 c 0.268542,-0.261954 0.722046,-0.456091 1.069837,-0.457973 l 0.091,-4.76e-4 0.0098,2.404372 c 0.0096,2.361647 0.01092,2.408138 0.07091,2.616322 0.185587,0.64406 0.546312,1.02278 1.025729,1.076887 0.592164,0.06683 1.163273,-0.40321 1.322117,-1.088151 0.05961,-0.257015 0.05933,-0.692869 -4.32e-4,-0.92523 -0.150884,-0.585077 -0.598356,-0.979189 -1.268305,-1.117069 -0.339425,-0.06986 -0.561296,-0.05552 -0.821826,0.05311 -0.04385,0.01828 -0.04437,0.0091 -0.0069,-0.117164 0.07614,-0.256414 0.21453,-0.494878 0.40339,-0.695079 0.257484,-0.272947 0.297264,-0.290049 0.628634,-0.270243 0.365632,0.02186 0.663298,0.105011 1.039571,0.290418 0.524332,0.25836 0.911251,0.635134 1.158039,1.127667 0.283444,0.565693 0.344473,1.25451 0.171748,1.938397 -0.05939,0.235144 -0.26883,0.647082 -0.430594,0.846915 -0.467312,0.57729 -1.304846,0.95677 -2.093643,0.948617 -0.12483,-0.0013 -0.318349,-0.01893 -0.43005,-0.0392 z m 5.976412,-2.221464 v -2.263438 l 0.134759,-0.137605 c 0.288203,-0.294294 0.60312,-0.441475 0.992957,-0.464069 l 0.234052,-0.01356 v 2.254489 2.254489 l -0.182429,0.175178 c -0.270783,0.26002 -0.735534,0.455588 -1.087138,0.457468 l -0.0922,4.74e-4 z m -24.582172,2.178964 c -0.05687,-0.06284 -0.05872,-0.03863 0.0522,-0.681522 0.140287,-0.813078 0.173502,-1.266134 0.172642,-2.354722 -4.31e-4,-0.787064 -0.01179,-1.097033 -0.05113,-1.418509 -0.09215,-0.753078 -0.09167,-0.725386 -0.01343,-0.776659 0.0567,-0.03716 0.491536,-0.07034 2.455556,-0.18746 1.312663,-0.07827 2.462236,-0.142318 2.55461,-0.142318 0.132401,0 0.17891,0.01211 0.219743,0.05724 0.05019,0.05546 0.04988,0.0693 -0.01019,0.44683 -0.120903,0.759699 -0.131601,0.928117 -0.131095,2.063436 4.31e-4,1.166042 0.02803,1.569385 0.158714,2.326355 0.09277,0.537381 0.09652,0.603009 0.03818,0.667485 -0.04971,0.05494 -0.09919,0.05596 -2.722822,0.05596 -2.626053,0 -2.673067,-9.5e-4 -2.722961,-0.05611 z m 3.140461,-2.349489 c 0.201068,-0.07147 0.468076,-0.256029 0.590115,-0.407894 0.26471,-0.329393 0.400472,-0.870872 0.254855,-1.016487 -0.121335,-0.121336 -0.31207,-0.02912 -0.31207,0.150888 0,0.114441 -0.07368,0.371078 -0.135242,0.471058 -0.08549,0.138848 -0.276591,0.319294 -0.417978,0.394677 -0.127763,0.06812 -0.171438,0.07563 -0.439737,0.07563 -0.268299,0 -0.311975,-0.0075 -0.439737,-0.07563 -0.29663,-0.158153 -0.500113,-0.461173 -0.548816,-0.817274 -0.02626,-0.19187 -0.07494,-0.256089 -0.194232,-0.256089 -0.03602,0 -0.09264,0.02714 -0.125797,0.0603 -0.05286,0.05285 -0.05854,0.0835 -0.04612,0.248239 0.04321,0.572534 0.442959,1.047473 1.01745,1.208797 0.203941,0.05727 0.582723,0.04007 0.79731,-0.03621 z m -1.50266,-1.901197 c 0.109884,-0.09437 0.01896,-0.317548 -0.129407,-0.317548 -0.153869,0 -0.251318,0.221282 -0.140109,0.318158 0.09559,0.08328 0.172051,0.0831 0.269516,-6.04e-4 z m 2.352489,0.0044 c 0.06465,-0.05851 0.06726,-0.201117 0.0049,-0.269979 -0.102424,-0.113177 -0.32186,-0.02282 -0.32186,0.132524 0,0.15284 0.202761,0.240778 0.316932,0.137455 z m 8.22249,0.373931 v -3.928545 l 0.163129,-0.165555 c 0.278426,-0.28257 0.669335,-0.460034 1.013338,-0.460034 h 0.185301 v 3.927651 3.927651 l -0.155653,0.168122 c -0.254181,0.274549 -0.676314,0.457764 -1.057173,0.458836 l -0.148942,4.17e-4 z m 10.213261,8.64e-4 v -3.927691 l 0.178987,-0.178988 c 0.278336,-0.278333 0.662779,-0.447235 1.019652,-0.447972 l 0.163129,-3.4e-4 v 3.931378 3.931373 l -0.157972,0.16562 c -0.258789,0.271311 -0.679627,0.454313 -1.044761,0.454313 h -0.159035 z m -22.213843,-1.563624 c 0,-0.0087 -0.03192,-0.157262 -0.07092,-0.330069 -0.0887,-0.392916 -0.08967,-0.463877 -0.0071,-0.514999 0.11966,-0.07408 0.396769,-0.112996 0.558131,-0.07839 0.08076,0.01732 0.183742,0.03149 0.22886,0.03149 0.04512,0 0.08872,0.01081 0.09689,0.02402 0.02565,0.04151 0.189554,0.805711 0.17576,0.819505 -0.01313,0.01312 -0.674134,0.06077 -0.875237,0.06309 -0.05851,6.91e-4 -0.106388,-0.0059 -0.106388,-0.01465 z m 1.945182,-0.130652 c -0.0068,-0.02083 -0.05246,-0.222995 -0.101396,-0.449246 -0.04893,-0.226253 -0.09483,-0.432296 -0.101997,-0.457873 -0.009,-0.03217 0.04448,-0.08755 0.173584,-0.179674 0.150876,-0.107662 0.229819,-0.142101 0.412149,-0.179804 0.219424,-0.04537 0.226994,-0.04511 0.279782,0.0094 0.03753,0.03879 0.09067,0.222285 0.172353,0.59512 0.06495,0.296468 0.124054,0.560148 0.13133,0.585955 0.01144,0.04056 -0.02445,0.0493 -0.264421,0.06445 -0.152711,0.0096 -0.370196,0.02472 -0.4833,0.03351 -0.157354,0.01222 -0.20857,0.0071 -0.218084,-0.0219 z m 1.137425,-0.04488 c -0.0091,-0.0148 -0.06683,-0.252657 -0.128186,-0.528579 -0.109295,-0.491497 -0.110708,-0.50497 -0.06946,-0.663932 0.02315,-0.08925 0.06304,-0.185613 0.08864,-0.214162 0.06437,-0.07182 0.180139,-0.04374 0.322663,0.07825 0.06282,0.05378 0.195805,0.133312 0.295516,0.176751 0.128613,0.05603 0.17773,0.09159 0.169019,0.12235 -0.0067,0.02386 -0.07263,0.263595 -0.14638,0.532756 l -0.134102,0.489386 h -0.105326 c -0.05793,0 -0.143669,0.0077 -0.190539,0.01704 -0.04687,0.0093 -0.0927,0.005 -0.101841,-0.0098 z m 11.483271,-0.07579 c -0.426923,-0.185897 -0.548,-0.758644 -0.23041,-1.08996 0.326101,-0.3402 0.858873,-0.270845 1.083017,0.140984 0.190725,0.350424 0.03575,0.791942 -0.331734,0.945224 -0.128422,0.05356 -0.401956,0.05553 -0.520873,0.0038 z m 10.255459,0.0013 c -0.266084,-0.09511 -0.451363,-0.355478 -0.451363,-0.634282 0,-0.194686 0.05873,-0.332642 0.205379,-0.482432 0.326783,-0.333788 0.863123,-0.23965 1.088364,0.191026 0.07467,0.142767 0.07045,0.432827 -0.0084,0.581589 -0.162575,0.30654 -0.522981,0.45525 -0.833937,0.344099 z m -20.633917,-0.237711 c 0.03744,-0.136532 0.09155,-0.331222 0.120235,-0.432646 l 0.05215,-0.184405 0.309577,-0.01943 c 0.375288,-0.02354 0.483875,-0.0082 0.539194,0.07623 0.03801,0.05801 0.0336,0.09754 -0.04663,0.417865 l -0.0886,0.353796 -0.342444,0.01842 c -0.188342,0.01015 -0.402997,0.01841 -0.477008,0.01841 h -0.134568 z m -3.351052,-0.547188 c -0.450797,-0.0304 -0.637773,-0.119544 -0.637773,-0.30406 0,-0.07333 0.0241,-0.121829 0.09645,-0.194195 0.166735,-0.166732 0.371819,-0.123696 0.658314,0.138146 0.127283,0.11633 0.161043,0.134543 0.195839,0.105665 0.02311,-0.0192 0.06585,-0.02867 0.09492,-0.02107 0.04293,0.01123 0.06168,-0.0141 0.09964,-0.134525 0.05618,-0.178212 0.185487,-0.378325 0.277404,-0.429296 0.03675,-0.02038 0.122095,-0.03752 0.18961,-0.03808 0.09862,-8.2e-4 0.139065,0.01531 0.205686,0.08193 0.05185,0.05185 0.08293,0.112459 0.08293,0.161736 0,0.116582 -0.272031,0.366869 -0.54572,0.502104 -0.120705,0.05964 -0.226782,0.120283 -0.235731,0.134758 -0.01749,0.02833 -0.01508,0.02834 -0.481577,-0.0031 z m -0.04202,-0.258398 c -0.149805,-0.131149 -0.27726,-0.17913 -0.35926,-0.135246 -0.174738,0.09352 0.02475,0.211047 0.373443,0.219993 l 0.08511,0.0022 z m 0.985862,-0.244287 c 0.133321,-0.105957 0.151407,-0.163529 0.06045,-0.192397 -0.115398,-0.03663 -0.255909,0.104039 -0.322301,0.322645 -0.02008,0.0662 -0.02008,0.06621 0.06058,0.01591 0.04438,-0.02768 0.134953,-0.09345 0.201268,-0.146158 z m 2.241241,0.302882 c -0.0273,-0.01591 -0.04964,-0.04572 -0.04964,-0.06626 0,-0.02054 -0.07979,-0.06594 -0.177316,-0.100879 -0.363354,-0.13019 -0.552793,-0.309747 -0.476735,-0.451866 0.03792,-0.07087 0.172168,-0.144719 0.263056,-0.144719 0.109178,0 0.257869,0.124629 0.362582,0.303905 0.07322,0.125344 0.111938,0.166071 0.148755,0.156443 0.02738,-0.0072 0.08031,0.007 0.117622,0.03144 0.0631,0.04135 0.07153,0.04036 0.120623,-0.01418 0.09779,-0.108643 0.329314,-0.221724 0.454533,-0.222007 0.09716,-2.24e-4 0.131044,0.01518 0.191498,0.08702 0.08208,0.09755 0.09588,0.226664 0.03114,0.291397 -0.07978,0.07978 -0.241877,0.111451 -0.496261,0.09695 -0.181216,-0.01034 -0.259808,-0.0039 -0.298825,0.02469 -0.06227,0.04554 -0.12235,0.04808 -0.19104,0.008 z m 0.841693,-0.21354 c 0.06742,-0.02587 0.05401,-0.09332 -0.02578,-0.129669 -0.05689,-0.02592 -0.09285,-0.02218 -0.184571,0.01918 -0.200145,0.09025 -0.201876,0.127715 -0.0059,0.127715 0.09425,0 0.191567,-0.0077 0.216248,-0.01722 z m -1.033192,-0.151806 c 0,-0.01494 -0.05015,-0.07989 -0.111436,-0.144324 -0.11868,-0.124754 -0.208592,-0.140727 -0.223134,-0.03964 -0.0064,0.04453 0.02587,0.07541 0.140481,0.134469 0.160956,0.08294 0.194089,0.09139 0.194089,0.04949 z m -1.149552,0.0644 c -0.0431,-0.03261 -0.103408,-0.03872 -0.259082,-0.02627 l -0.202904,0.01622 0.01516,-0.112926 c 0.01205,-0.08995 3.11e-4,-0.135303 -0.05762,-0.222889 l -0.07277,-0.109962 0.132861,-0.07198 c 0.106502,-0.05769 0.158798,-0.069 0.263605,-0.05698 0.0893,0.01024 0.161981,1.69e-4 0.229292,-0.03177 0.0954,-0.04527 0.105581,-0.04418 0.318254,0.03405 0.185962,0.0684 0.213058,0.08633 0.176435,0.116722 -0.0238,0.01975 -0.05768,0.07957 -0.0753,0.132939 -0.02625,0.07959 -0.04623,0.09703 -0.111109,0.09703 -0.09633,0 -0.223699,0.09535 -0.267945,0.200582 -0.03027,0.07195 -0.03688,0.07456 -0.08887,0.03524 z m -0.74788,-0.702301 c -0.01745,-0.06933 -0.03175,-0.217505 -0.03175,-0.329292 0,-0.161333 0.0081,-0.200145 0.03922,-0.188198 0.02155,0.0083 0.126424,0.04199 0.232998,0.0749 0.159643,0.04931 0.207789,0.05405 0.273322,0.0269 0.04374,-0.01812 0.126389,-0.02535 0.183647,-0.01605 0.08639,0.01402 0.138809,-0.0022 0.308001,-0.09566 0.112146,-0.06191 0.210747,-0.112553 0.219121,-0.112553 0.02742,0 0.0808,0.384534 0.07174,0.516914 l -0.0088,0.129361 -0.23384,-0.07239 c -0.218771,-0.06773 -0.237195,-0.06936 -0.285936,-0.02526 -0.0573,0.05185 -0.246503,0.06422 -0.27508,0.01799 -0.01097,-0.01776 -0.09899,0.01553 -0.225033,0.08511 -0.113856,0.06285 -0.213503,0.114273 -0.221432,0.114273 -0.0079,0 -0.02872,-0.05672 -0.04615,-0.126042 z m 0.287427,-0.586012 c -0.06365,-0.01877 -0.0922,-0.04452 -0.0922,-0.08312 0,-0.0631 0.05831,-0.07227 0.149452,-0.02349 0.04568,0.02446 0.06332,0.02432 0.07159,-5.18e-4 0.03805,-0.11415 0.197623,-0.152764 0.308978,-0.07477 0.05277,0.03696 0.07024,0.03715 0.139034,0.0014 0.08513,-0.04417 0.125309,-0.03515 0.125309,0.02815 0,0.06269 -0.169995,0.135366 -0.326257,0.139487 -0.07802,0.002 -0.173765,0.0119 -0.212777,0.02187 -0.039,0.0099 -0.112417,0.0059 -0.163128,-0.009 z"
     id="path4" /></svg>
