<?xml version="1.0" encoding="UTF-8" standalone="no"?>
<svg
   height="20"
   width="100"
   viewBox="-61.48365 -22.04525 44.404858 3.3067875"
   version="1.1"
   id="svg1"
   sodipodi:docname="bukalapak-logo-white.svg"
   inkscape:version="1.3 (0e150ed6c4, 2023-07-21)"
   xml:space="preserve"
   xmlns:inkscape="http://www.inkscape.org/namespaces/inkscape"
   xmlns:sodipodi="http://sodipodi.sourceforge.net/DTD/sodipodi-0.dtd"
   xmlns="http://www.w3.org/2000/svg"
   xmlns:svg="http://www.w3.org/2000/svg"><defs
     id="defs1" /><sodipodi:namedview
     id="namedview1"
     pagecolor="#ffffff"
     bordercolor="#000000"
     borderopacity="0.25"
     inkscape:showpageshadow="2"
     inkscape:pageopacity="0.0"
     inkscape:pagecheckerboard="0"
     inkscape:deskcolor="#d1d1d1"
     inkscape:zoom="10.286047"
     inkscape:cx="52.546911"
     inkscape:cy="7.1456022"
     inkscape:window-width="1920"
     inkscape:window-height="1017"
     inkscape:window-x="-8"
     inkscape:window-y="-8"
     inkscape:window-maximized="1"
     inkscape:current-layer="svg1" /><path
     style="fill:#ffffff;stroke-width:0.0390522"
     d="m -29.164487,-19.234736 v -2.442752 l 0.146439,-0.06133 c 0.429612,-0.179917 1.696573,-0.246504 2.196685,-0.115449 0.825207,0.216248 1.299855,0.910043 1.299219,1.899061 -6.1e-4,0.913372 -0.37383,1.621152 -1.015101,1.924908 -0.236848,0.112188 -0.301448,0.125329 -0.616059,0.125329 -0.355873,0 -0.380634,-0.0071 -0.849383,-0.245458 -0.01607,-0.0082 -0.02929,0.294111 -0.02929,0.671778 v 0.686666 h -0.566253 -0.566252 z m 2.054772,0.220173 c 0.295933,-0.134389 0.483794,-0.504286 0.483392,-0.951773 -3.84e-4,-0.332158 -0.05832,-0.513687 -0.221985,-0.694887 -0.230998,-0.255682 -0.739821,-0.342826 -1.084573,-0.185747 l -0.0991,0.04515 v 0.807019 c 0,0.786471 0.0025,0.809122 0.08789,0.889586 0.04837,0.04541 0.131812,0.100081 0.185501,0.121488 0.158582,0.06324 0.474807,0.04821 0.648878,-0.03084 z m -31.672287,2.122088 c -0.379747,-0.139135 -0.609507,-0.476694 -0.607992,-0.893243 8.37e-4,-0.294122 0.09165,-0.502411 0.300352,-0.690558 0.392742,-0.354083 0.99132,-0.322067 1.337796,0.07155 0.645178,0.732964 -0.114274,1.84782 -1.030156,1.512245 z m 2.188032,-0.837703 c -0.06184,-0.01874 -0.152306,-0.07149 -0.200965,-0.117203 -0.11429,-0.107363 -0.347305,-0.718664 -0.34384,-0.902016 0.0033,-0.184293 0.115946,-0.370566 0.265072,-0.43903 0.06535,-0.03002 0.182263,-0.08384 0.25975,-0.119598 0.168481,-0.07776 0.367605,-0.265354 0.456448,-0.430022 0.04251,-0.07879 0.06443,-0.212707 0.06427,-0.392896 -2.68e-4,-0.340257 -0.133344,-0.625565 -0.372659,-0.798924 -0.245517,-0.177857 -0.390324,-0.210365 -0.812807,-0.182475 -0.390993,0.02581 -0.434297,0.01612 -0.500831,-0.112061 -0.05925,-0.114142 -0.288762,-0.994807 -0.292377,-1.121862 -0.0067,-0.247262 0.284009,-0.35394 0.96558,-0.353925 0.471711,10e-6 0.785594,0.07336 1.21062,0.282926 0.910485,0.448918 1.435358,1.380503 1.374146,2.43894 -0.02502,0.432945 -0.07715,0.635114 -0.253282,0.98325 -0.247842,0.489774 -0.660885,0.879687 -1.198971,1.131815 -0.317916,0.148965 -0.464171,0.180349 -0.620175,0.133081 z m 13.331651,-2.596026 v -2.479811 h 0.566261 0.566252 v 1.308247 c 0,0.719536 0.01423,1.308247 0.03171,1.308247 0.01741,0 0.284343,-0.351469 0.59313,-0.781043 l 0.561424,-0.781043 h 0.597958 c 0.328878,0 0.597967,0.0092 0.597967,0.02035 0,0.0112 -0.316326,0.441372 -0.702943,0.955952 -0.386617,0.514581 -0.702934,0.951754 -0.702934,0.971498 0,0.02681 0.894829,1.200661 1.454922,1.908598 0.03054,0.03864 -0.09458,0.0486 -0.600762,0.04779 l -0.63938,-0.001 -0.56216,-0.76049 c -0.309188,-0.418268 -0.577189,-0.760488 -0.595549,-0.760488 -0.01833,0 -0.03339,0.342682 -0.03339,0.761517 v 0.761516 h -0.566252 -0.566261 z m 4.540738,2.426205 c -0.546563,-0.139117 -0.882738,-0.601078 -0.884587,-1.215588 -8.37e-4,-0.40273 0.103755,-0.654798 0.373781,-0.897581 0.36445,-0.327673 0.796288,-0.469372 1.564292,-0.513297 0.484865,-0.02773 0.51022,-0.04085 0.416658,-0.215674 -0.11701,-0.21864 -0.640393,-0.285309 -1.343654,-0.171159 -0.193041,0.03133 -0.362099,0.04444 -0.375697,0.02914 -0.02084,-0.02348 -0.06527,-0.164056 -0.214847,-0.679912 -0.02385,-0.08231 0.104315,-0.119336 0.726733,-0.209853 0.523375,-0.07611 1.212971,-0.05905 1.474646,0.0365 0.418415,0.152775 0.670985,0.430791 0.775267,0.853375 0.0554,0.224383 0.05925,0.367206 0.02854,1.053076 -0.0195,0.436418 -0.02494,0.837422 -0.01205,0.891118 0.0205,0.08508 0.196137,0.241585 0.316033,0.281551 0.02669,0.0089 0.01941,0.123673 -0.02142,0.338887 -0.03397,0.178993 -0.06175,0.331462 -0.06175,0.338819 0,0.0244 -0.291214,0.09471 -0.393195,0.09493 -0.183175,3.95e-4 -0.490823,-0.114686 -0.667764,-0.24979 l -0.174656,-0.133358 -0.167067,0.112208 c -0.384249,0.258065 -0.940819,0.363129 -1.359335,0.256603 z m 1.187624,-0.925298 c 0.249374,-0.09448 0.285674,-0.169449 0.285674,-0.589988 V -19.799 l -0.263607,2.35e-4 c -0.328209,2.72e-4 -0.519568,0.05186 -0.67384,0.181669 -0.317347,0.26703 -0.293004,0.593335 0.05874,0.787895 0.100324,0.05549 0.4508,0.05781 0.593005,0.0039 z m 2.277327,-1.500907 v -2.479811 h 0.566261 0.566252 v 2.479811 2.479812 h -0.566252 -0.566261 z m 2.645183,2.439872 c -0.360292,-0.09113 -0.66184,-0.346398 -0.823693,-0.697271 -0.06535,-0.141737 -0.08334,-0.256016 -0.08343,-0.531984 -1.59e-4,-0.306526 0.01389,-0.380081 0.109679,-0.575222 0.248194,-0.505419 0.848931,-0.780355 1.825716,-0.835557 0.337606,-0.01908 0.466121,-0.04005 0.466121,-0.07606 0,-0.09605 -0.201785,-0.288161 -0.344217,-0.32772 -0.204647,-0.05684 -0.632995,-0.04959 -1.042138,0.01763 -0.193309,0.03176 -0.36225,0.05806 -0.375429,0.05843 -0.04209,0.0012 -0.238304,-0.748618 -0.204129,-0.779973 0.06418,-0.05886 0.742976,-0.162103 1.211649,-0.184279 0.739871,-0.035 1.149851,0.07835 1.465056,0.405066 0.297431,0.308301 0.351698,0.620688 0.296762,1.70831 -0.03523,0.696639 -0.03314,0.74412 0.03682,0.839621 0.04075,0.05567 0.130164,0.126432 0.198622,0.157239 0.08092,0.03639 0.118558,0.07743 0.107562,0.117156 -0.0093,0.03363 -0.03866,0.188501 -0.06519,0.344158 -0.04736,0.277866 -0.05079,0.283723 -0.188447,0.321963 -0.07715,0.02142 -0.185351,0.03904 -0.240521,0.03916 -0.184857,4.05e-4 -0.50007,-0.117741 -0.679429,-0.254643 l -0.177719,-0.135661 -0.159979,0.115887 c -0.332986,0.241216 -0.956425,0.369179 -1.333695,0.273748 z m 1.31316,-1.027187 0.142139,-0.108412 V -19.410466 -19.799 h -0.304753 c -0.249015,0 -0.341589,0.01836 -0.506196,0.100385 -0.421704,0.210145 -0.485041,0.665122 -0.118566,0.85177 0.206447,0.105147 0.606528,0.07127 0.787376,-0.06668 z m 7.06779,1.028921 c -0.426449,-0.09084 -0.745159,-0.392653 -0.878612,-0.832028 -0.202162,-0.665564 0.0569,-1.249116 0.688358,-1.550475 0.329849,-0.157425 0.658124,-0.22826 1.20195,-0.259364 0.397052,-0.02271 0.458858,-0.03525 0.458858,-0.09316 0,-0.0998 -0.18561,-0.266464 -0.346518,-0.311162 -0.203994,-0.05666 -0.632393,-0.04853 -1.05505,0.02001 -0.201685,0.03271 -0.370877,0.0546 -0.375982,0.04866 -0.04159,-0.04841 -0.211567,-0.75082 -0.187099,-0.773191 0.06192,-0.05658 0.742272,-0.159178 1.209398,-0.182364 0.724616,-0.03597 1.106639,0.06349 1.432211,0.372866 0.335414,0.318723 0.399211,0.646739 0.337715,1.736106 -0.04694,0.831747 -0.03841,0.870436 0.219542,0.993446 0.105713,0.05041 0.132499,0.08345 0.117495,0.144903 -0.01071,0.04378 -0.04109,0.198239 -0.06753,0.343236 -0.04653,0.255279 -0.05247,0.264862 -0.187744,0.302436 -0.07682,0.02135 -0.184823,0.0389 -0.239993,0.03902 -0.184857,4.05e-4 -0.50007,-0.117741 -0.679429,-0.254643 l -0.177719,-0.135661 -0.159979,0.115887 c -0.330786,0.239618 -0.908201,0.361052 -1.309905,0.275482 z m 1.145835,-0.940699 c 0.250035,-0.09474 0.285674,-0.168934 0.285674,-0.594765 v -0.388491 l -0.341748,0.01634 c -0.26857,0.01284 -0.377688,0.03654 -0.509609,0.110683 -0.392726,0.220725 -0.426298,0.606687 -0.07155,0.822983 0.137679,0.08395 0.459184,0.100725 0.637263,0.03325 z m 2.277326,-1.500907 v -2.479811 h 0.566261 0.566252 v 1.308247 c 0,0.754694 0.01498,1.308247 0.03531,1.308247 0.01941,0 0.28744,-0.351195 0.595549,-0.780432 l 0.560202,-0.780432 0.59554,-6.07e-4 c 0.327548,-3.52e-4 0.595549,0.01201 0.595549,0.02743 0,0.01542 -0.317573,0.447625 -0.705713,0.960454 -0.388132,0.51283 -0.697822,0.95273 -0.688182,0.977557 0.0096,0.02483 0.332267,0.449327 0.71696,0.943337 0.3847,0.49401 0.712993,0.920166 0.729544,0.947014 0.0236,0.03827 -0.105235,0.04882 -0.596678,0.04882 h -0.626778 l -0.571432,-0.761517 c -0.314284,-0.418834 -0.586837,-0.761517 -0.605665,-0.761517 -0.01883,0 -0.03423,0.342683 -0.03423,0.761517 v 0.761517 h -0.566253 -0.56626 z m -30.519247,2.420205 c -0.04293,-0.0079 -0.196731,-0.02545 -0.341706,-0.03905 l -0.263608,-0.02472 v -2.418124 -2.418126 h 0.54673 0.546729 v 0.629013 c 0,0.583914 0.005,0.626963 0.06837,0.60043 0.445009,-0.186119 1.036457,-0.238167 1.367259,-0.12032 0.384994,0.137154 0.662116,0.412329 0.869123,0.863011 0.147193,0.320465 0.207383,0.634751 0.205668,1.073934 -0.0033,0.965832 -0.373496,1.521549 -1.182612,1.777538 -0.166648,0.05273 -0.385454,0.07051 -0.976308,0.07935 -0.418834,0.0063 -0.796664,0.0049 -0.839617,-0.0029 z m 1.407777,-1.069724 c 0.332694,-0.147165 0.509367,-0.383748 0.551198,-0.73808 0.06653,-0.563847 -0.426323,-1.133293 -0.944944,-1.091748 -0.108115,0.0087 -0.266278,0.04976 -0.351464,0.09134 l -0.154891,0.07559 -0.01054,0.848071 -0.01054,0.848071 0.127679,0.03918 c 0.191559,0.05879 0.576226,0.02367 0.793467,-0.07243 z m 3.091129,1.033953 c -0.352359,-0.12569 -0.590913,-0.360815 -0.74285,-0.732173 -0.08092,-0.197689 -0.08539,-0.274077 -0.09696,-1.642498 l -0.01213,-1.435166 h 0.548939 0.54893 v 1.243894 c 0,1.225676 0.0017,1.245784 0.08787,1.372997 0.137034,0.201352 0.276143,0.28387 0.511442,0.303383 0.267432,0.02217 0.463904,-0.04178 0.590503,-0.192227 l 0.09891,-0.117546 v -1.30525 -1.305251 h 0.54673 0.54673 v 1.444929 c 0,1.392861 0.0025,1.447745 0.07807,1.523035 0.04293,0.04296 0.103428,0.07811 0.134381,0.07811 0.111889,0 0.111579,0.101881 -0.0017,0.67365 l -0.02134,0.107393 h -0.349623 c -0.372467,0 -0.541382,-0.04755 -0.759301,-0.213774 -0.116323,-0.08872 -0.128741,-0.09053 -0.213551,-0.03113 -0.04954,0.03469 -0.232136,0.112534 -0.405805,0.172991 -0.358098,0.124662 -0.826671,0.148175 -1.088882,0.05464 z m -12.785608,-1.308781 c -0.06862,-0.04185 -0.150255,-0.116473 -0.181376,-0.165826 -0.03113,-0.04935 -0.387931,-0.845391 -0.792924,-1.768974 -0.819509,-1.868877 -0.831793,-1.91166 -0.626384,-2.180965 0.116691,-0.15299 0.223592,-0.199508 1.052197,-0.457871 l 0.537341,-0.167543 0.181108,0.07542 c 0.09961,0.04148 0.21345,0.11935 0.25298,0.173047 0.07347,0.09978 0.892947,3.658619 0.892947,3.877795 0,0.263048 -0.179318,0.442888 -0.585784,0.587487 -0.346919,0.123416 -0.559583,0.131407 -0.730105,0.02743 z"
     id="path4" /></svg>
