<?xml version="1.0" encoding="UTF-8" standalone="no"?>
<!-- Created with Inkscape (http://www.inkscape.org/) -->

<svg
   width="512"
   height="512"
   viewBox="0 0 512 512"
   version="1.1"
   id="svg1"
   xml:space="preserve"
   inkscape:version="1.3 (0e150ed6c4, 2023-07-21)"
   sodipodi:docname="evertops-logo.svg"
   xmlns:inkscape="http://www.inkscape.org/namespaces/inkscape"
   xmlns:sodipodi="http://sodipodi.sourceforge.net/DTD/sodipodi-0.dtd"
   xmlns="http://www.w3.org/2000/svg"
   xmlns:svg="http://www.w3.org/2000/svg"><sodipodi:namedview
     id="namedview1"
     pagecolor="#ffffff"
     bordercolor="#000000"
     borderopacity="0.25"
     inkscape:showpageshadow="2"
     inkscape:pageopacity="0.0"
     inkscape:pagecheckerboard="0"
     inkscape:deskcolor="#d1d1d1"
     inkscape:document-units="px"
     inkscape:zoom="0.56692839"
     inkscape:cx="52.034791"
     inkscape:cy="332.49349"
     inkscape:window-width="1920"
     inkscape:window-height="1017"
     inkscape:window-x="-8"
     inkscape:window-y="-8"
     inkscape:window-maximized="1"
     inkscape:current-layer="layer1" /><defs
     id="defs1" /><g
     inkscape:label="Layer 1"
     inkscape:groupmode="layer"
     id="layer1"><path
       style="fill:#000000;stroke-width:0.663063"
       d="m 345.04301,283.85912 c -8.22675,-2.90363 -14.5391,-9.10294 -17.8691,-17.54908 -2.09216,-5.30655 -2.09216,-15.40645 0,-20.713 4.64707,-11.78676 15.11913,-19.10191 27.39394,-19.13578 17.51795,-0.0483 30.83516,14.0431 29.5635,31.28221 -0.50336,6.82367 -2.03829,11.15086 -5.64703,15.91981 -7.85681,10.3828 -21.29946,14.4813 -33.44131,10.19584 z m 19.08072,-7.703 c 7.33357,-3.51556 11.53471,-10.87369 11.53471,-20.20258 0,-9.42378 -4.13601,-16.5349 -11.85679,-20.38555 -3.63569,-1.81326 -4.95298,-2.11983 -8.95134,-2.08313 -5.82132,0.0534 -9.71033,1.66068 -14.21618,5.87538 -4.65822,4.35721 -6.38559,8.8459 -6.38559,16.5933 0,4.74603 0.31864,6.74182 1.55666,9.75003 1.64082,3.98694 6.04296,8.73437 9.99335,10.77719 5.38376,2.78405 12.0881,2.66528 18.32518,-0.32464 z m 104.67541,8.40591 c -4.73428,-1.54772 -9.56338,-4.50911 -9.56338,-5.86464 0,-1.52489 2.46907,-6.49882 3.22603,-6.49882 0.30074,0 1.11521,0.62901 1.80993,1.39779 4.07124,4.50529 13.83426,6.30683 19.12822,3.52967 3.75996,-1.97242 5.23504,-4.25427 5.2933,-8.18831 0.0428,-2.89004 -0.23198,-3.58407 -2.23927,-5.65588 -1.54272,-1.59229 -4.0267,-3.01189 -7.62522,-4.3578 -11.55072,-4.32021 -15.59488,-6.96458 -17.6836,-11.56288 -3.12199,-6.87306 0.0135,-15.48328 6.94033,-19.05843 4.22874,-2.18259 12.40181,-2.44022 18.17006,-0.57276 2.46162,0.79695 4.9991,1.83791 5.63884,2.31324 1.10217,0.81895 1.08897,1.03414 -0.25175,4.10443 -0.77821,1.78209 -1.49043,3.3295 -1.58272,3.4387 -0.0923,0.10919 -1.25473,-0.53906 -2.58318,-1.44058 -6.56233,-4.45332 -16.06576,-3.39773 -18.66171,2.07282 -2.23676,4.71361 0.32495,8.07906 8.45618,11.10933 15.63435,5.82645 19.71055,9.60683 19.74455,18.31162 0.0289,7.41305 -3.54624,12.99363 -10.19169,15.90839 -4.18149,1.83403 -13.85253,2.37814 -18.02492,1.01411 z M 14.984076,255.95354 v -28.8432 h 16.908086 c 9.299448,0 16.909563,0.22378 16.911366,0.49729 0.0018,0.27352 -0.504706,1.91459 -1.125578,3.64684 l -1.128856,3.14955 H 34.744959 22.940823 v 8.60549 8.60549 l 12.584415,0.18008 12.584415,0.18009 -1.613386,3.48107 -1.613383,3.48108 H 33.911853 22.940823 v 9.28288 9.28287 h 13.332184 c 10.399555,0 13.259658,0.18231 13.002467,0.82882 -0.181344,0.45585 -0.842422,2.09694 -1.46906,3.64685 l -1.139342,2.818 H 30.825573 14.984076 Z m 79.506906,27.05455 c -8.639355,-22.38255 -21.157433,-55.30644 -21.157433,-55.64632 0,-0.13829 1.928961,-0.25143 4.286579,-0.25143 5.017431,0 4.436986,-0.69534 8.318566,9.96515 8.1592,22.40868 12.736188,34.81361 12.912067,34.99532 0.108476,0.11209 1.002178,-1.97656 1.986009,-4.64143 0.98382,-2.66486 2.78123,-7.53062 3.99421,-10.81278 1.213,-3.28215 4.12048,-11.18917 6.46108,-17.57114 l 4.25564,-11.60359 4.08928,-0.19741 c 2.97151,-0.14345 4.08929,0.0333 4.08929,0.6464 0,0.71182 -10.22088,27.47955 -19.1969,50.27527 l -2.48033,6.29909 -3.420412,0.20053 c -3.212421,0.18832 -3.464027,0.0876 -4.137646,-1.65766 z m 56.420848,-27.05455 v -28.8432 h 16.90809 c 18.81225,0 17.81038,-0.29269 15.8415,4.62801 l -1.06659,2.66567 H 170.7317 158.86858 v 8.61981 8.61981 h 12.66913 c 9.8691,0 12.59624,0.18317 12.3394,0.82882 -0.18134,0.45586 -0.84243,2.09694 -1.46906,3.64685 l -1.13934,2.81801 h -11.20007 -11.20006 v 9.28288 9.28287 h 13.30593 13.30593 l -0.45565,1.49188 c -0.2506,0.82054 -0.85224,2.46162 -1.33697,3.64685 l -0.88134,2.15494 h -15.94731 -15.94734 z m 61.30504,28.01417 c -0.17497,-0.45595 -0.2402,-13.3608 -0.14495,-28.67744 l 0.17317,-27.8484 10.94052,0.0122 c 12.27833,0.0137 15.72496,0.76256 20.09789,4.36709 9.17063,7.55921 6.58243,22.66903 -4.59296,26.81361 -1.78106,0.66053 -3.33134,1.26595 -3.44509,1.34539 -0.11376,0.0794 3.69055,5.42618 8.45403,11.88166 4.76349,6.45547 8.66087,12.00672 8.66087,12.3361 0,0.32939 -2.03647,0.59888 -4.5255,0.59888 h -4.52549 l -2.48642,-3.48108 c -1.36752,-1.91459 -5.24126,-7.35999 -8.60829,-12.10089 l -6.12188,-8.6198 h -2.94547 -2.94547 l -0.18072,12.10088 -0.18073,12.10089 h -3.65269 c -2.31096,0 -3.76955,-0.30452 -3.97082,-0.82904 z m 22.42787,-31.90708 c 7.36234,-3.13706 7.65447,-12.55757 0.50126,-16.16472 -2.43462,-1.22771 -4.04905,-1.49189 -9.1171,-1.49189 h -6.1586 v 9.28287 9.28287 h 6.32039 c 3.87462,0 7.14604,-0.35181 8.45405,-0.90913 z m 54.18403,7.53976 v -25.19637 h -8.67506 c -4.77128,0 -8.57561,-0.23374 -8.45404,-0.51941 0.12155,-0.28567 0.81778,-1.92564 1.54714,-3.64436 l 1.32613,-3.12494 19.39456,-0.003 c 15.08269,-0.002 19.39134,0.18179 19.38002,0.82634 -0.008,0.45586 -0.59018,2.09694 -1.29372,3.64685 l -1.27914,2.81802 h -6.99457 -6.99457 v 25.19636 25.19636 h -3.97838 -3.97837 z m 115.37282,-3.68896 v -28.95151 l 11.43783,0.31612 c 12.86633,0.3556 15.83964,1.06687 20.25357,4.84502 3.71577,3.18057 5.44009,7.02472 5.44009,12.128 0,6.22289 -2.23211,10.60801 -7.07466,13.89861 -3.47395,2.36062 -8.31579,3.42512 -15.61957,3.43403 l -6.44919,0.008 -0.18142,11.43783 -0.18142,11.43782 -3.81262,0.19885 -3.81261,0.19886 z m 23.72257,-3.04779 c 3.37972,-1.61569 4.78911,-4.02361 4.78911,-8.18215 0,-3.933 -1.34053,-6.45311 -4.45722,-8.37933 -2.09193,-1.29288 -3.61039,-1.5863 -9.29895,-1.79687 l -6.79876,-0.25168 v 10.44352 10.44351 l 6.46486,-0.4606 c 4.36034,-0.31065 7.3881,-0.90195 9.30096,-1.8164 z"
       id="path1" /></g></svg>
