<?xml version="1.0" encoding="UTF-8" standalone="no"?>
<svg
   width="600"
   height="600"
   viewBox="0 0 600 600"
   fill="none"
   version="1.1"
   id="svg27"
   sodipodi:docname="fingerprint.svg"
   inkscape:version="1.3 (0e150ed6c4, 2023-07-21)"
   xmlns:inkscape="http://www.inkscape.org/namespaces/inkscape"
   xmlns:sodipodi="http://sodipodi.sourceforge.net/DTD/sodipodi-0.dtd"
   xmlns="http://www.w3.org/2000/svg"
   xmlns:svg="http://www.w3.org/2000/svg">
  <sodipodi:namedview
     id="namedview27"
     pagecolor="#ffffff"
     bordercolor="#000000"
     borderopacity="0.25"
     inkscape:showpageshadow="2"
     inkscape:pageopacity="0.0"
     inkscape:pagecheckerboard="0"
     inkscape:deskcolor="#d1d1d1"
     inkscape:zoom="1.0184819"
     inkscape:cx="202.75275"
     inkscape:cy="445.27057"
     inkscape:window-width="1920"
     inkscape:window-height="1017"
     inkscape:window-x="-8"
     inkscape:window-y="-8"
     inkscape:window-maximized="1"
     inkscape:current-layer="svg27" />
  <g
     opacity="0.1"
     clip-path="url(#clip0_137_17675)"
     id="g27"
     transform="translate(141.08163,15.737748)">
    <path
       d="m 324.277,48.5427 c 20.931,19.4483 38.368,36.935 53.027,59.9113 1.2,1.89 2.089,3.912 2.6,5.907 0.028,0.105 0.023,0.216 -0.013,0.318 -0.036,0.103 -0.102,0.192 -0.189,0.258 -0.087,0.065 -0.192,0.103 -0.302,0.11 -0.109,0.006 -0.218,-0.02 -0.313,-0.075 -4.84,-2.839 -8.707,-7.829 -11.946,-12.313 C 357.954,89.9452 348.079,77.7966 337.518,66.2128 313.969,40.3856 283.941,22.871 251.307,11.091 231.331,3.88399 210.566,1.66133 189.417,1.5113 c -1.593,-0.01111 -1.604,-0.08705 -0.033,-0.22782 0.389,-0.03334 1.089,-0.06483 2.1,-0.09446 13.899,-0.392671 27.731,0.36303 41.497,2.26711 34.068,4.71203 66.302,21.87097 91.296,45.08657 z"
       fill="#ffffff"
       id="path1" />
    <path
       d="m 236.698,363.032 c 2.195,-16.992 3.251,-34.718 0.295,-51.471 -2.417,-13.725 -8.402,-27.067 -16.242,-38.552 -0.767,-1.123 -4.607,-6.757 -1.228,-6.779 11.274,-0.061 20.576,39.402 22.304,47.909 3.829,18.837 0.723,38.58 -2.523,57.094 -2.65,15.126 -8.446,28.195 -18.592,39.864 -6.44,7.407 -13.208,14.647 -18.654,22.727 -3.141,4.656 -6.39,9.235 -9.746,13.736 -15.286,20.487 -38.619,39.779 -64.446,43.508 -12.213,1.761 -23.566,3.856 -36.0181,2.439 C 73.1553,491.374 56.2354,487.49 39.5488,479.243 17.839,468.519 -3.36516,451.927 -17.1679,431.812 c -0.5815,-0.845 -1.0113,-1.697 -1.2891,-2.556 -0.0206,-0.065 -0.0208,-0.135 -4e-4,-0.2 0.0203,-0.065 0.06,-0.122 0.114,-0.164 0.0539,-0.042 0.1193,-0.066 0.1874,-0.07 0.0682,-0.003 0.1357,0.014 0.1936,0.051 3.2265,2.048 6.2364,4.352 9.02949,6.912 20.75961,19.015 43.05841,39.047 71.91401,42.981 8.4628,1.155 17.4423,0.45 26.9386,-0.395 10.1573,-0.9 19.1813,-2.332 27.0723,-4.295 22.815,-5.679 41.719,-18.254 57.494,-35.585 10.291,-11.308 21.043,-21.96 29.728,-35.023 3.538,-5.324 7.837,-12.042 12.897,-20.154 9.352,-14.987 11.864,-31.051 11.891,-48.677 0.015,-9.316 -1.253,-18.266 -3.806,-26.849 -4.656,-15.676 -11.769,-31.195 -27.722,-38.169 -7.19,-3.141 -14.638,-5.427 -22.343,-6.857 -12.391,-2.3 -24.883,0.395 -35.846,6.479 -0.774,0.43 -1.282,0.971 -1.523,1.623 -0.037,0.101 -0.05,0.209 -0.038,0.316 0.013,0.108 0.051,0.21 0.111,0.3 0.06,0.09 0.141,0.165 0.235,0.218 0.095,0.053 0.201,0.083 0.309,0.088 4.401,0.195 8.985,-2.061 13.375,-2.722 23.777,-3.59 53.027,3.417 63.429,27.427 1.156,2.66 2.254,6.19 3.295,10.591 2.756,11.621 4.182,22.968 4.279,34.04 0.15,17.842 -6.774,38.274 -19.648,50.966 -4.494,4.434 -8.302,8.614 -11.425,12.541 -3.517,4.417 -7.179,10.763 -10.619,15.57 -2.5,3.493 -5.582,7.031 -9.246,10.613 -22.921,22.404 -57.011,42.18 -90.112,38.685 -3.7637,-0.396 -10.728,-1.261 -20.8929,-2.595 -8.4517,-1.111 -16.1143,-3.023 -23.1268,-6.457 -30.79489,-15.08 -54.544,-42.958 -73.381,-72.214 -12.5858,-19.537 -20.4929,-39.463 -26.1662,-61.573 -4.0415,-15.74 -7.4867,-32.545 -10.3354,-50.415 -3.9118,-24.566 -3.5395,-47.226 0.0389,-72.659 4.0119,-28.468 14.1843,-54.394 30.5171,-77.776 10.5298,-15.07 21.971,-30.3617 35.30135,-43.8143 C 5.69402,69.858 17.9186,57.9186 30.3359,46.1756 33.8032,42.8972 36.5575,40.4189 38.5986,38.7408 57.2245,23.4156 79.9733,14.2193 103.233,8.94609 127.105,3.53392 150.265,1.7947 174.414,1.80581 c 0.033,0 0.052,0.02037 0.056,0.06112 0,0.00741 0,0.01482 0,0.02223 0.003,0.01852 -0.004,0.02778 -0.023,0.02778 -8.994,0.45935 -14.625,0.82794 -16.892,1.10577 -11.839,1.45584 -23.58,3.49328 -35.223,6.11231 C 117.342,10.2575 106.627,13.0358 90.1865,17.47 70.0159,22.9155 51.1177,34.0177 34.5145,47.0702 30.0747,50.5598 26.9519,53.4492 23.0678,58.039 15.3774,67.1352 9.10951,73.0419 -0.55349,81.8214 -18.0125,97.6968 -31.8152,115.5 -44.1676,134.948 c -8.1016,12.759 -13.6415,27.634 -17.2311,42.253 -8.6517,35.279 -10.5576,72.381 -4.8287,108.282 4.7231,29.578 12.4857,58.351 25.6939,85.117 14.5361,29.461 36.35708,54.288 63.4124,72.959 20.0446,13.839 42.3416,20.519 66.8908,20.037 36.6013,-0.717 68.5583,-27.016 92.8573,-52.121 5.664,-5.853 10.255,-11.577 13.775,-17.17 4.545,-7.224 9.242,-14.349 14.091,-21.377 4.062,-5.879 6.263,-16.275 7.024,-24.171 1.522,-15.82 0.339,-31.184 -5.19,-46.559 -5.312,-14.77 -15.705,-23.673 -31.178,-26.711 -9.569,-1.882 -17.063,-3.067 -22.482,-3.556 -6.518,-0.589 -13.709,2.111 -19.999,3.912 -4.656,1.333 -7.236,2.106 -7.74,2.317 -5.579,2.361 -12.208,8.135 -6.657,14.614 7.374,8.607 17.848,4.528 27.189,3.339 14.469,-1.845 32.928,2.829 36.701,19.271 2.962,12.908 -0.567,27.655 -8.418,37.64 -11.036,14.036 -23.382,24.311 -36.263,34.029 -14.275,10.769 -32,16.292 -49.9707,13.942 C 66.104,397.405 38.0318,384.364 20.8729,362.054 11.7378,350.179 5.45879,336.871 1.29687,322.435 -2.44831,309.436 -6.19534,296.437 -9.94422,283.439 c -2.22268,-7.696 -3.15058,-16.876 -3.09508,-25.661 0.1075,-15.851 0.615,-30.856 1.5225,-45.014 0.4075,-6.342 1.3948,-12.805 2.96174,-19.387 1.30582,-5.49 3.5896,-11.364 5.55109,-17.004 1.57253,-4.501 2.294894,-12.852 4.66202,-20.02 3.2562,-9.863 8.71285,-19.399 14.86955,-28.084 8.3794,-11.813 17.9535,-20.031 29.7669,-27.955 21.5783,-14.4621 44.9125,-25.2772 70.0025,-32.4453 7.716,-2.2041 15.488,-4.1878 23.316,-5.9512 28.672,-6.4679 59.961,-7.807 88.5,0.1612 1.186,0.3297 2.553,0.7983 4.101,1.4058 1.115,0.4371 1.067,0.8094 -0.144,1.1169 -0.6,0.1482 -1.58,0.1667 -2.94,0.0556 -25.005,-2.0504 -50.082,-5.2622 -74.948,-1.2836 -10.465,1.6744 -20.798,3.9248 -31,6.7513 -14.186,3.9286 -28.1113,8.1738 -40.4748,14.8529 -9.6982,5.2381 -19.4279,10.4169 -29.189,15.5364 -8.0405,4.212 -15.0141,9.552 -21.2986,16.309 -14.8751,16.003 -26.49408,36.312 -31.07276,57.605 -1.515111,7.046 -2.91169,14.937 -4.18971,23.672 -1.36694,9.318 -3.7674,19.77 -4.57311,28 -0.47417,4.789 -0.69273,12.152 -0.65568,22.087 0.04445,11.347 1.7281,21.727 4.34528,32.734 2.4264,10.21 4.70277,20.454 6.82911,30.734 6.32346,30.606 23.23787,56.772 50.59877,72.12 11.3356,6.351 23.4657,9.646 36.6905,11.108 22.493,2.489 44.286,-2.607 60.934,-18.098 2.508,-2.334 6.442,-6.359 11.802,-12.075 4.496,-4.801 10.202,-10.385 14.17,-16.131 6.097,-8.824 8.511,-18.626 7.24,-29.406 -1.194,-10.157 -7.524,-14.741 -16.77,-17.77 -6.731,-2.208 -13.586,-2.578 -20.565,-1.111 -4.84,1.017 -9.163,2.295 -13.575,1.85 -5.386,-0.541 -9.855,-2.837 -13.408,-6.89 -5.018,-5.718 -1.661,-12.23 3.04,-16.542 6.106,-5.59 12.902,-11.947 20.003,-15.625 9.021,-4.672 18.669,-6.763 28.945,-6.274 11.625,0.556 20.521,5.84 31.362,11.775 4.597,2.519 7.735,4.475 9.413,5.867 7.095,5.879 11.268,14.731 13.597,23.311 2.734,10.04 6.679,19.942 7.079,30.406 0.778,20.292 -1.978,41.519 -12.002,59.189 -1.345,2.374 -3.438,5.425 -6.279,9.152 -8.228,10.783 -16.38,21.619 -24.455,32.506 -4.601,6.201 -10.806,13.193 -18.615,20.976 -14.607,14.551 -31.965,24.216 -52.077,28.995 -10.632,2.526 -21.404,4.099 -32.3173,4.717 -3.1117,0.173 -10.4687,0.117 -13.0247,1.617 -0.1123,0.067 -0.2026,0.166 -0.2599,0.283 -0.0572,0.118 -0.0789,0.25 -0.0624,0.38 0.0166,0.129 0.0705,0.251 0.1554,0.351 0.0849,0.099 0.197,0.172 0.3225,0.209 4.1286,1.195 7.5959,1.511 12.4635,1.828 29.9169,1.967 59.0279,-4.434 82.0159,-24.638 10.098,-8.872 18.958,-18.856 26.578,-29.95 5.878,-8.563 12.107,-16.354 18.881,-24.211 11.374,-13.191 19.671,-29.166 21.915,-46.542 z"
       fill="#ffffff"
       id="path2" />
    <path
       d="m 389.423,102.52 c 0.008,0.13 -0.021,0.26 -0.083,0.374 -0.063,0.115 -0.155,0.21 -0.269,0.275 -0.113,0.064 -0.242,0.096 -0.372,0.092 -0.131,-0.005 -0.257,-0.046 -0.365,-0.119 -2.971,-1.959 -5.588,-4.3932 -7.852,-7.3012 C 364.461,75.259 347.348,56.6665 329.144,40.0633 312.586,24.9659 292.104,12.1078 270.661,3.81731 270.59,3.79138 270.548,3.74693 270.533,3.68395 c -0.026,-0.12595 0.024,-0.17596 0.15,-0.15003 21.021,4.48977 40.208,15.85308 55.828,30.41708 1.726,1.6114 3.476,3.1969 5.251,4.7565 5.112,4.4953 10.913,8.1738 15.914,12.8302 10.728,9.9761 20.943,20.6911 30.645,32.1452 3.595,4.2397 10.819,13.4026 11.102,18.8371 z"
       fill="#ffffff"
       id="path3" />
    <path
       d="m -31.2096,416.487 c -6.9124,-6.529 -12.3024,-14.531 -16.8699,-22.816 -9.5352,-17.286 -16.1865,-35.862 -23.1768,-54.422 -8.0349,-21.337 -11.0355,-43.797 -13.8749,-66.374 -2.9672,-23.593 -2.8061,-48.026 -0.2389,-71.658 3.0506,-28.117 16.5532,-54.505 30.3726,-78.188 10.0538,-17.225 22.7026,-33.2468 37.9463,-48.0645 C -5.63047,63.8624 7.5295,51.3729 22.4287,37.4961 27.1259,33.1249 31.5305,29.3371 35.6424,26.1328 50.5453,14.5268 67.3282,7.10498 85.9911,3.86731 86.5468,3.771 87.0673,3.71729 87.5525,3.70617 88.9195,3.67654 88.9306,3.78026 87.5859,4.01734 87.208,4.08032 86.7635,4.1859 86.2523,4.33407 65.865,10.2463 46.9446,20.0149 31.4972,34.2621 c -0.3816,0.3557 -3.0525,2.921 -8.0127,7.696 -14.67327,14.1435 -27.71285,27.0553 -39.1188,38.7353 -37.5851,38.5076 -65.0738,89.1616 -66.4185,143.9116 -0.6816,27.813 2.0689,55.477 8.2516,82.994 2.2893,10.198 4.4527,19.054 6.4902,26.566 6.2178,22.982 15.5641,45.709 28.6611,65.652 3.4155,5.197 6.9551,10.309 10.6187,15.336 1.341,1.838 2.5283,3.805 3.5619,5.901 0.0373,0.078 0.0488,0.167 0.033,0.252 -0.0159,0.086 -0.0584,0.163 -0.1212,0.223 -0.0629,0.059 -0.1428,0.096 -0.2279,0.105 -0.0852,0.01 -0.1711,-0.008 -0.2452,-0.052 -2.2949,-1.356 -3.7785,-2.828 -6.179,-5.095 z"
       fill="#ffffff"
       id="path4" />
    <path
       d="M 32.5139,15.4029 C 37.0314,10.3797 47.439,6.52894 53.8236,4.75082 c 0.0168,-0.00323 0.0341,-4.3e-4 0.049,0.00791 0.0149,0.00834 0.0263,0.02168 0.0323,0.03765 0.006,0.01598 0.0061,0.03355 4e-4,0.04962 -0.0057,0.01607 -0.0169,0.02959 -0.0317,0.03818 -6.379,3.15061 -12.3913,6.89022 -18.6703,10.20752 -0.7279,0.3834 -1.7337,0.6279 -2.4894,0.7113 -0.0483,0.005 -0.097,-0.0048 -0.1396,-0.0282 -0.0427,-0.0233 -0.0771,-0.0591 -0.0989,-0.1026 -0.0217,-0.0435 -0.0297,-0.0926 -0.0228,-0.1407 0.0069,-0.0481 0.0283,-0.093 0.0613,-0.1286 z"
       fill="#ffffff"
       id="path5" />
    <path
       d="m -53.7694,458.15 c -4.8121,-2.4 -9.0574,-7.651 -11.9024,-11.913 -9.8019,-14.72 -17.2256,-31.278 -24.1213,-47.504 -10.6859,-25.155 -16.4589,-53.36 -20.6709,-80.527 -6.868,-44.297 -4.323,-90.245 4.801,-133.609 7.3904,-35.162 23.6269,-70.369 45.6423,-99.2582 C -42.7451,62.6677 -20.7297,40.6578 1.39133,21.1763 8.24268,15.1362 15.972,9.10168 24.3958,5.43985 24.4117,5.4341 24.429,5.43407 24.4449,5.43976 24.4607,5.44545 24.4741,5.4565 24.4827,5.471 24.4912,5.48551 24.4945,5.50255 24.4918,5.51919 24.4891,5.53582 24.4807,5.551 24.468,5.5621 19.3782,9.39062 14.8551,13.1803 9.93189,17.8312 -2.3594,29.4519 -14.5951,41.1357 -26.7753,52.8824 c -9.3092,8.9722 -17.2978,17.8906 -23.9658,26.7553 -18.8481,25.0493 -34.8846,50.2763 -43.9197,79.8823 -7.0402,23.06 -11.7802,46.426 -13.6862,70.48 -0.811,10.286 -2.678,22.816 -3.323,30.273 -1.911,21.988 0.045,44.186 4.335,66.457 4.352,22.623 11.5666,44.322 21.6427,65.096 7.4014,15.253 19.6093,42.787 31.0338,63.502 0.4445,0.805 0.7501,1.772 1.1113,2.611 0.1149,0.271 0.0408,0.341 -0.2222,0.211 z"
       fill="#ffffff"
       id="path6" />
    <path
       d="M -120.504,210.402 C -115.176,152.835 -93.1936,97.2411 -52.7635,55.2385 -42.0132,44.0696 -30.9777,33.2008 -19.657,22.6321 -13.3817,16.7717 -6.62482,11.5151 0.613625,6.86236 0.644569,6.83731 0.684204,6.82558 0.723808,6.82974 0.763405,6.83391 0.799728,6.85364 0.824776,6.88459 0.849831,6.91554 0.861565,6.95517 0.857399,6.99477 0.853226,7.03437 0.833496,7.07069 0.802551,7.09574 -14.8505,22.6377 -28.9533,37.6017 -45.7732,54.166 c -10.1353,9.9853 -19.6761,21.3042 -27.7499,33.3232 -18.7592,27.9388 -30.2839,58.1998 -39.2469,89.8288 -3.552,12.532 -6.132,25.057 -7.74,37.574 -0.122,0.937 -0.187,0.933 -0.195,-0.011 -0.014,-1.415 0.052,-2.908 0.201,-4.479 z"
       fill="#ffffff"
       id="path7" />
    <path
       d="m 386.5,154.263 c -2.89,-2.997 -5.486,-6.236 -7.791,-9.718 -18.375,-27.722 -33.423,-48.4097 -53.31,-71.7031 -15.292,-17.9146 -33.968,-30.3392 -56.016,-39.2854 -13.44,-5.453 -26.485,-9.5445 -39.136,-12.2747 -15.095,-3.2562 -25.99,-5.4158 -32.684,-6.479 -14.347,-2.2782 -29.895,0.7001 -43.62,2.3894 -31.076,3.8303 -60.669,12.4876 -88.7781,25.9717 -10.8577,5.2121 -20.7541,12.5747 -31.923,17.0589 -1.0816,0.4371 -2.1263,0.6816 -3.1339,0.7335 -0.1255,0.007 -0.2506,-0.0192 -0.3626,-0.0762 -0.1121,-0.057 -0.2072,-0.1427 -0.2759,-0.2485 -0.0687,-0.1058 -0.1085,-0.228 -0.1154,-0.3544 -0.0069,-0.1263 0.0193,-0.2524 0.076,-0.3656 2.2616,-4.4231 8.924,-8.0071 13.5082,-10.9521 30.1726,-19.3983 63.8787,-29.8225 99.0587,-35.6737 17.436,-2.9042 34.947,-3.71551 52.532,-2.4338 15.353,1.1169 30.934,4.6954 47.343,8.4128 26.677,6.04 52.438,17.9813 72.764,36.4182 16.909,15.3363 30.711,35.168 45.592,52.983 9.296,11.124 18.476,23.015 25.055,35.984 1.541,3.042 2.762,6.3 3.662,9.775 0.185,0.714 -0.087,1.018 -0.817,0.911 -0.456,-0.063 -0.998,-0.421 -1.628,-1.073 z"
       fill="#ffffff"
       id="path8" />
    <path
       d="m 40.1656,513.395 c -29.7169,-12.914 -55.6553,-33.74 -78.0097,-56.884 -5.0158,-5.193 -9.4555,-10.817 -13.3192,-16.87 -4.362,-6.84 -7.8627,-15.369 -11.4912,-23.06 -1.6559,-3.508 -5.7215,-10.902 -12.1968,-22.182 -16.6588,-29.017 -25.1657,-61.612 -27.9167,-94.957 -0.574,-6.95 -0.415,-13.718 0.478,-20.304 0.7,-5.19 1.111,-8.535 3.4951,-12.319 1.7393,-2.756 2.1227,-4.835 1.8171,-7.935 -1.0225,-10.341 -3.1892,-19.443 -2.5728,-30.617 0.9558,-17.326 3.4952,-34.407 7.6182,-51.244 5.2732,-21.548 14.7306,-42.752 26.1773,-61.728 20.2262,-33.5347 48.5095,-62.0291 79.5322,-86.4561 3.7896,-2.9895 7.7738,-5.69 11.9524,-8.1016 0.3074,-0.1778 0.3834,-0.1074 0.2278,0.2111 -0.4557,0.9336 -1.0391,1.7615 -1.7504,2.4839 -11.5356,11.6911 -23.787947,22.6822 -35.9014,33.7621 -22.71,20.7707 -41.4359,44.8926 -56.8111,72.3196 -12.2469,21.838 -19.991,45.19 -23.2323,70.058 -2.2412,17.196 -3.2155,34.466 -2.9228,51.81 0.2056,12.13 2.256,24.311 3.7007,36.346 3.008,24.998 9.0351,48.48 18.0813,70.447 9.613,23.355 20.454,45.554 35.7348,65.413 11.4059,14.829 23.888,28.669 37.446161,41.519 22.204339,21.043 49.142939,32.312 78.670939,37.23 33.5068,5.579 66.0518,-0.795 92.3068,-22.049 7.146,-5.786 14.271,-13.062 21.376,-21.826 4.407,-5.44 10.647,-14.27 16.17,-21.221 14.787,-18.598 25.083,-33.412 36.98,-50.654 13.321,-19.312 20.717,-40.532 22.187,-63.663 1.062,-16.792 -3.678,-33.656 -9.529,-49.398 -8.513,-22.905 -26.039,-41.22 -46.882,-53.244 -12.613,-7.279 -27.283,-9.791 -42.258,-11.169 -17.47,-1.604 -34.555,0.626 -51.254,6.69 -25.9665,9.424 -43.8644,32.679 -47.9152,59.601 -1.8504,12.302 2.0448,23.932 12.558,30.822 7.3514,4.818 9.2018,-9.785 10.3743,-14.703 0.8668,-3.622 2.3504,-6.74 4.6564,-10.04 4.1395,-5.907 8.6125,-12.986 12.8245,-17.676 11.147,-12.386 30.734,-21.804 47.404,-19.776 2.7,0.328 6.518,1.372 7.785,3.967 0.038,0.08 0.058,0.168 0.059,0.256 0.001,0.088 -0.017,0.175 -0.054,0.256 -1.505,3.211 -9.313,5.44 -13.174,6.479 -13.047,3.517 -28.189,10.329 -35.88,22.076 -2.945,4.512 -6.429,11.691 -4.873,17.176 1.117,3.934 5.023,7.612 8.607,9.679 6.135,3.542 12.731,4.603 19.788,3.184 4.745,-0.95 9.974,-2.106 14.436,-2.228 10.902,-0.3 25.971,3.995 24.705,17.759 -0.352,3.823 -1.332,8.828 -2.94,15.014 -1.245,4.779 -3.884,9.174 -7.918,13.186 -4.138,4.112 -9.793,9.45 -16.965,16.014 -3.619,3.312 -6.442,5.707 -8.468,7.185 -15.731,11.491 -38.113,16.998 -57.4889,13.508 C 65.6483,383.947 49.5841,374.179 34.9979,360.465 24.657,350.741 17.35,338.41 13.2881,324.952 10.9432,317.184 9.92081,307.871 7.71482,299.414 3.76961,284.283 -0.7146,268.625 -1.44252,252.922 -2.07597,239.263 -1.04244,226.016 1.51361,212.591 2.94352,205.079 4.76424,194.625 6.97578,181.23 9.05397,168.627 14.2439,156.503 20.7396,145.212 28.7893,131.227 39.4395,119.494 52.6903,110.01 66.154,100.381 81.8348,92.8736 96.4988,86.2279 122.632,74.3922 152.921,66.9463 181.688,67.3909 c 6.375,0.1 18.427,0.5797 36.157,1.4391 12.28,0.5927 23.658,2.8321 34.134,6.718 39.852,14.7918 66.947,45.259 88.129,81.044 8.218,13.891 16.519,27.744 24.688,41.663 6.034,10.276 12.871,19.976 20.509,29.1 5.612,6.696 13.586,14.37 18.576,19.832 24.233,26.539 33.996,61.123 34.662,97.036 0.004,0.044 -0.013,0.072 -0.05,0.083 -0.011,0.004 -0.02,0.006 -0.027,0.006 -0.023,0.003 -0.034,-0.004 -0.034,-0.023 -3.834,-35.073 -11.813,-66.968 -36.257,-93.179 -6.909,-7.409 -12.708,-13.577 -17.398,-18.504 -8.846,-9.29 -16.386,-19.559 -23.021,-30.539 -10.58,-17.525 -20.298,-35.551 -31.15,-52.899 C 314.119,122.818 294.532,103.087 267.01,87.8949 245.706,76.1314 222.979,70.6082 198.641,70.6415 163.84,70.6859 130.261,76.8094 98.3881,91.001 79.1343,99.5694 60.8585,107.071 45.7056,121.674 24.3125,142.294 12.099,169.477 8.20381,198.778 6.38123,212.469 3.50289,226.244 2.69717,240.03 c -0.27783,4.734 0.19078,10.043 1.40583,15.925 2.45604,11.899 4.60646,23.851 6.4513,35.857 2.0411,13.27 5.4066,26.17 10.0964,38.702 4.2453,11.358 10.2353,20.171 19.5538,28.217 16.3754,14.147 37.0739,24.327 59.2949,23.988 14.4476,-0.222 29.3886,-5.679 41.2856,-13.658 7.63,-5.112 15.142,-12.086 21.855,-18.687 7.846,-7.718 14.73,-17.82 12.846,-28.85 -1.794,-10.502 -14.347,-13.986 -23.382,-12.525 -7.324,1.184 -15.964,4.151 -23.538,2.94 -11.791,-1.884 -25.588,-13.77 -20.882,-27.217 0.671,-1.915 1.519,-3.745 2.545,-5.49 10.013,-17.014 26.055,-24.305 44.587,-28.45 0.839,-0.189 1.795,-0.694 2.589,-1.044 0.182,-0.078 0.278,-0.217 0.289,-0.417 0.128,-2.634 -6.012,-1.65 -7.229,-1.434 -20.765,3.684 -52.7437,20.688 -49.321,46.693 1.378,10.513 10.819,16.475 19.537,20.509 6.327,2.927 12.831,3.736 19.51,2.428 6.051,-1.183 12.119,-4.606 18.248,-4.234 5.723,0.345 10.435,4.14 11.846,9.652 1.445,5.651 -0.983,12.43 -4.806,16.798 -5.923,6.757 -13.953,14.297 -21.026,19.859 -12.208,9.608 -25.722,13.975 -40.975,15.765 -22.76,2.661 -45.0644,-9.686 -61.2342,-24.922 -7.5848,-7.151 -13.1359,-14.547 -15.9809,-24.588 -0.7502,-2.634 -0.6168,-6.501 -0.3278,-9.824 1.178,-13.658 -0.7669,-26.244 -0.589,-39.53 0.1444,-10.728 0.7445,-21.125 1.8003,-31.19 1.3706,-13.047 4.9824,-25.462 10.8354,-37.246 10.6299,-21.387 24.3159,-40.563 43.7252,-54.883 12.9692,-9.561 26.777,-17.194 41.425,-22.899 12.502,-4.867 26.405,-7.668 39.874,-9.451 7.802,-1.034 15.703,0.205 23.483,1.739 20.785,4.089 40.902,10.324 60.35,18.703 16.837,7.257 32.051,16.965 44.676,30.267 10.591,11.158 20.065,23.538 28.161,36.63 9.64,15.603 19.431,31.534 27.311,48.104 3.206,6.745 6.362,13.274 10.163,19.937 2.906,5.095 6.156,10.457 8.401,15.447 5.335,11.851 8.482,24.579 9.441,38.186 1.052,14.962 1.684,25.347 1.895,31.156 0.418,11.591 -0.509,23.071 -2.784,34.44 -0.522,2.634 -1.567,6.929 -3.667,8.768 -0.079,0.069 -0.174,0.114 -0.276,0.133 -0.103,0.018 -0.208,0.008 -0.305,-0.029 -0.097,-0.037 -0.183,-0.1 -0.247,-0.182 -0.064,-0.082 -0.104,-0.18 -0.117,-0.283 -0.928,-7.435 0.906,-15.147 2.123,-24.51 2.478,-19.104 1.856,-39.414 -2.54,-58.373 -4.875,-21.019 -12.387,-40.662 -22.537,-58.928 -12.075,-21.727 -27.122,-47.07 -43.609,-69.897 -13.614,-18.848 -31.156,-33.851 -51.988,-43.714 -22.89,-10.832 -46.066,-17.991 -69.53,-21.477 -17.604,-2.617 -36.702,-1.244 -53.461,5.074 -7.834,2.956 -15.908,6.206 -23.037,10.368 -13.5642,7.918 -27.578,18.465 -37.9023,30.262 -6.8458,7.823 -13.6286,17.524 -20.3484,29.1 -7.9404,13.68 -13.4304,29.472 -14.9863,45.437 -0.9298,9.546 -1.9003,19.085 -2.9116,28.616 -0.8076,7.635 -0.2019,15.379 1.817,23.233 1.7448,6.768 3.6118,13.208 6.5957,19.159 9.8019,19.509 27.5999,32.567 48.5095,38.285 9.1518,2.501 19.9764,4.762 29.2114,3.101 4.395,-0.789 13.064,-3.94 14.319,-8.863 0.689,-2.69 -5.262,-3.379 -6.945,-3.634 -11.186,-1.712 -21.677,-3.19 -32.2512,-7.479 -5.5511,-2.251 -12.358,-6.124 -18.4814,-9.252 -9.5741,-4.896 -16.7644,-11.008 -21.0319,-21.082 -1.7059,-4.018 -2.256,-8.396 -2.6283,-13.408 -0.5723,-7.768 -1.817,-16.842 -1.3836,-23.788 0.4408,-6.998 2.2116,-13.677 5.3122,-20.038 3.4192,-7.016 7.2829,-14.575 11.5911,-22.676 5.6622,-10.641 13.1637,-19.987 22.3044,-27.806 11.53,-9.863 24.3877,-19.042 39.0797,-23.482 19.043,-5.757 39.552,-6.562 58.806,-4.045 18.159,2.378 36.09,7.179 50.882,18.237 11.791,8.813 22.805,18.898 30.517,31.195 8.541,13.625 16.231,28.861 20.326,44.469 4.201,16.042 8.019,31.846 10.653,48.577 2.278,14.452 3.128,28.644 0.855,42.914 -0.867,5.473 -2.828,11.985 -4.428,17.975 -1.851,6.913 -3.14,15.376 -4.546,20.96 -1.018,4.045 -2.698,8.72 -5.04,14.025 -7.742,17.537 -18.37,33.706 -31.884,48.509 -13.736,15.048 -26.944,28.323 -40.107,41.142 -12.936,12.598 -27.132,23.184 -42.587,31.756 -20.059,11.13 -42.786,12.263 -64.879,16.092 -7.2716,1.263 -14.8546,1.691 -22.7487,1.284 -16.2402,-0.838 -31.3376,-3.334 -45.2922,-7.491 -21.4097,-6.373 -40.419,-21.065 -56.6444,-36.151 -2.506,-2.329 -9.0573,-8.446 -9.963,-11.53 -0.2742,-0.919 -0.0093,-1.115 0.7945,-0.589 4.6621,3.056 8.3461,6.001 13.0748,10.174 7.2792,6.427 14.52323,12.186 21.73205,17.275 27.22755,19.232 59.81725,25.255 93.10155,24.561 10.1904,-0.217 19.4314,-1.078 29.1664,-3.479 13.822,-3.411 26.896,-7.973 39.225,-13.686 26.749,-12.397 45.342,-33.528 64.79,-56.222 3.727,-4.349 10.608,-11.959 20.643,-22.832 12.736,-13.803 22.171,-29.684 28.389,-47.359 5.282,-15.029 9.091,-30.238 11.424,-45.626 0.941,-6.194 1.302,-12.721 1.084,-19.581 -0.637,-20.078 -3.304,-39.343 -8.002,-57.795 -3.778,-14.836 -11.007,-29.672 -16.931,-44.181 -4.956,-12.119 -12.041,-20.665 -21.382,-29.439 -14.025,-13.175 -29.311,-21.582 -48.537,-26.094 -41.803,-9.807 -90.234,-3.173 -117.6118,33.079 -5.8678,7.772 -11.6208,16.725 -17.2589,26.861 -5.44,9.79 -10.152,19.253 -11.5634,30.183 -0.4964,3.868 -0.7112,9.246 -0.6446,16.137 0.1408,14.477 5.6919,26.375 16.6533,35.696 2.5486,2.17 5.2436,3.873 8.0849,5.106 7.7682,3.367 16.1476,7.479 23.5602,9.969 9.5633,3.206 19.4153,4.456 29.3333,6.018 1.295,0.2 4.329,1.339 5.362,2.889 3.073,4.584 -4.356,10.858 -7.623,12.919 -11.103,7.007 -29.2228,5.14 -41.3863,1.312 -15.7808,-4.962 -29.2445,-12.642 -40.2078,-25.189 -2.9728,-3.406 -5.99,-8.057 -8.9517,-12.052 -0.7002,-0.945 -2.1449,-2.901 -3.4452,-2.795 -2.3004,0.194 -0.9113,5.29 -0.3334,6.701 2.595,6.385 7.4515,12.08 12.3802,16.804 21.7987,20.87 61.3172,36.89 89.2622,16.853 7.297,-5.231 13.508,-9.387 18.631,-12.469 1.45,-0.867 2.562,-2.04 3.534,-3.306 0.081,-0.106 0.126,-0.234 0.13,-0.366 0.003,-0.133 -0.035,-0.263 -0.109,-0.373 -0.074,-0.11 -0.181,-0.194 -0.305,-0.24 -0.125,-0.046 -0.26,-0.051 -0.388,-0.016 -2.128,0.606 -13.064,4.912 -13.981,1.934 -0.06,-0.2 -0.057,-0.412 0.007,-0.61 0.065,-0.198 0.188,-0.371 0.354,-0.496 2.868,-2.151 8.18,-2.995 11.642,-4.034 3.663,-1.104 6.169,-2.14 7.518,-3.106 3.928,-2.818 6.607,-8.063 6.207,-12.981 -0.323,-4.006 -2.923,-7.468 -6.946,-8.135 -6.529,-1.078 -14.642,3.851 -21.488,4.673 -6.601,0.789 -12.769,-1.089 -18.837,-3.661 -7.907,-3.345 -14.025,-6.596 -18.9869,-13.497 -0.989,-1.378 -2.6394,-3.001 -4.3564,-1.817 -0.9446,0.655 -1.7725,1.905 -1.9392,3.122 -0.5483,4.005 0.9928,7 4.6231,8.985 6.9014,3.772 14.2214,6.961 21.9594,9.569 8.824,2.973 16.026,3.362 24.55,0.367 2.917,-1.023 16.881,-7.435 16.775,0.316 -0.002,0.176 -0.045,0.349 -0.124,0.506 -0.079,0.157 -0.194,0.294 -0.334,0.4 -0.14,0.105 -0.302,0.177 -0.474,0.21 -0.172,0.033 -0.349,0.026 -0.518,-0.021 -5.157,-1.406 -10.019,0.956 -14.731,2.712 -12.791,4.784 -22.743,0.567 -34.834,-3.768 -15.8368,-5.684 -41.9252,-18.375 -44.6757,-37.346 -0.9502,-6.562 0.3334,-12.286 2.2615,-19.442 3.5729,-13.298 7.1959,-25.483 16.381,-35.891 8.9869,-10.187 20.2152,-17.466 33.6842,-21.837 10.869,-3.523 21.543,-6.235 32.651,-7.03 14.666,-1.048 29.478,0.593 44.436,4.924 24.231,7.012 43.046,20.985 56.445,41.919 5.073,7.935 9.785,17.626 13.291,26.361 5.474,13.63 5.957,27.949 7.013,42.191 1.017,13.714 -2.801,26.872 -7.013,39.713 -5.216,15.918 -12.473,30.371 -21.771,43.359 -11.291,15.77 -25.566,34.062 -40.574,50.349 -6.602,7.162 -13.931,16.37 -18.937,22.11 -20.921,23.971 -52.583,37.007 -84.3279,34.734 -2.5153,-0.178 -6.19,-0.641 -11.0243,-1.389 -7.32,-1.13 -14.6362,-2.271 -21.9488,-3.423 -47.3425,-7.446 -80.7602,-39.352 -106.6541,-77.521 -14.7529,-21.754 -27.8221,-44.858 -37.7741,-69.213 -6.4012,-15.675 -10.4409,-32.351 -12.3635,-49.171 -1.0057,-8.779 -1.8003,-17.375 -4.323,-25.894 -0.4446,-1.489 -1.1151,-2.826 -2.0115,-4.012 -0.1095,-0.146 -0.2547,-0.261 -0.4216,-0.334 -0.1669,-0.074 -0.35,-0.103 -0.5314,-0.085 -0.1815,0.018 -0.3554,0.082 -0.5048,0.187 -0.1494,0.104 -0.2693,0.246 -0.3482,0.41 -0.2611,0.545 -0.5001,1.406 -0.4945,2.062 0.2834,34.706 6.4068,69.285 23.2768,100.419 6.4531,11.906 12.8488,23.844 19.1871,35.813 17.5756,33.19 42.7472,63.934 77.0595,81.455 13.1247,6.701 28.5277,12.369 41.8414,17.07 4.7065,1.661 9.1518,2.467 14.4973,2.339 11.48,-0.267 23.2156,0.294 34.6406,-0.456 27.238,-1.795 52.304,-10.952 71.425,-30.722 3.1,-3.205 9.605,-10.108 19.515,-20.71 5.812,-6.218 10.885,-12.941 16.103,-19.615 4.023,-5.14 8.462,-9.885 12.802,-14.747 3.486,-3.908 7.165,-8.659 11.036,-14.253 1.617,-2.334 4.751,-6.64 7.862,-8.413 0.11,-0.062 0.233,-0.096 0.359,-0.099 0.126,-0.002 0.251,0.028 0.363,0.086 0.112,0.059 0.208,0.144 0.279,0.25 0.071,0.105 0.115,0.226 0.127,0.352 0.339,3.373 -2.7,8.569 -4.512,11.347 -9.018,13.836 -20.143,25.066 -31.373,37.024 -5.94,6.312 -11.174,13.236 -16.608,19.987 -4.453,5.542 -9.804,10.667 -16.053,15.375 -5.707,4.301 -13.842,8.613 -19.754,12.725 -9.524,6.612 -18.382,11.48 -29.517,12.841 -7.761,0.949 -12.606,1.591 -14.536,1.928 -6.809,1.186 -12.89,1.98 -18.243,2.384 -12.3578,0.934 -24.8435,-1.733 -37.3182,-3.578 -8.0238,-1.186 -15.7642,-3.399 -23.2212,-6.64 z"
       fill="#ffffff"
       id="path9" />
    <path
       d="M 40.1155,442.092 C 17.8,432.84 -1.80383,414.614 -15.4732,395.188 c -18.7814,-26.683 -33.3231,-57.7 -39.8244,-89.79 -3.9674,-19.592 -7.2514,-38.685 -6.8791,-57.766 0.3667,-18.954 1.6614,-38.452 5.2121,-57.106 3.634,-19.087 10.9966,-36.713 22.1377,-52.571 4.3823,-6.239 9.4963,-13.688 15.3418,-22.349 13.05815,-19.3484 29.5114,-36.3962 50.5099,-47.1149 6.0456,-3.084 14.7195,-6.0457 20.7929,-8.9629 3.3526,-1.6077 10.2002,-5.277 20.543,-11.0077 6.3901,-3.5377 14.312,-6.8625 23.7657,-9.9742 13.4586,-4.4231 27.4886,-8.5072 41.4696,-10.8632 25.438,-4.2842 51.504,-4.9788 77.154,-2.0226 29.339,3.3784 55.825,13.8064 79.46,31.2839 15.197,11.2355 32.278,26.6996 40.852,44.0196 0.611,1.237 0.896,2.428 0.856,3.573 -0.003,0.113 -0.038,0.223 -0.101,0.317 -0.064,0.094 -0.153,0.168 -0.257,0.212 -0.105,0.045 -0.22,0.06 -0.333,0.042 -0.113,-0.018 -0.218,-0.068 -0.304,-0.143 -5.49,-4.857 -9.452,-10.7912 -13.803,-16.4645 -17.159,-22.371 -41.063,-38.9131 -67.257,-48.1872 -21.254,-7.5237 -43.298,-13.047 -66.03,-12.6691 -2.434,0.037 -6.132,0.2537 -11.096,0.6501 -8.109,0.6446 -16.222,1.2447 -24.338,1.8004 -4.105,0.2778 -7.783,0.7038 -11.036,1.278 -25.26,4.4398 -50.1987,12.2246 -72.8864,24.2825 -6.4754,3.4414 -13.0841,6.6106 -19.8261,9.5074 -22.8489,9.8131 -44.78655,23.7769 -59.3338,44.3814 -2.9006,4.111 -6.4661,9.848 -10.6966,17.208 -3.4006,5.924 -9.8964,13.848 -13.6915,19.999 -19.3927,31.434 -22.9378,70.408 -21.7154,106.437 1.667,49.338 17.8591,97.869 45.4922,138.277 5.70856,8.346 12.82476,16.185 21.3486,23.516 15.7087,13.508 34.5234,24.755 54.8885,29.411 7.4626,1.706 19.7595,4.707 29.4114,4.768 15.9471,0.1 29.3391,-7.39 44.6091,-12.864 0.844,-0.304 1.905,-0.509 3.183,-0.617 0.297,-0.026 0.339,0.067 0.128,0.278 -7.301,7.285 -20.154,13.242 -29.039,15.748 -4.056,1.141 -8.59,1.535 -13.6023,1.183 -5.2455,-0.372 -10.9911,2.24 -16.381,2.467 -4.7269,0.197 -9.4204,-0.692 -14.0806,-2.667 -9.1462,-3.873 -19.8816,-6.79 -29.0556,-10.596 z"
       fill="#ffffff"
       id="path10" />
    <path
       d="M 99.5049,67.0408 C 61.1308,81.7214 17.45,102.726 -1.32588,143.9 c -6.05673,13.281 -11.20222,28.117 -13.91942,42.775 -3.2599,17.626 -5.0732,34.194 -5.4399,49.704 -0.1667,7.083 0.2074,16.763 1.1224,29.039 0.9335,12.52 3.5007,24.333 7.5015,36.202 3.54883,10.528 7.08101,21.06 10.59651,31.595 5.38438,16.12 13.06369,30.762 25.33269,42.758 17.309,16.92 39.4355,27.1 63.0735,30.806 18.7206,2.934 35.6516,0.745 52.5876,-8.535 13.092,-7.168 20.66,-15.608 32.068,-27.661 5.064,-5.353 8.772,-9.607 11.124,-12.763 17.059,-22.877 20.793,-56.045 -13.464,-65.913 -6.186,-1.786 -12.454,-2.065 -18.803,-0.839 -4.823,0.933 -10.525,2.517 -15.425,2.006 -3.623,-0.378 -6.652,-2.467 -5.335,-6.435 1.312,-3.945 6.596,-5.879 10.358,-6.529 15.203,-2.634 31.406,-3.078 45.992,2.684 19.587,7.735 24.021,26.889 26.511,45.476 2.05,15.358 -0.245,32.878 -10.458,45.053 -1.128,1.35 -2.25,2.95 -3.089,4.478 -8.869,16.209 -20.943,28.806 -34.424,40.781 -6.118,5.434 -13.558,10.302 -21.698,11.102 -8.241,0.806 -13.881,3.128 -22.466,6.679 C 95.8875,446.526 64.3536,434.968 40.8324,425.333 30.5637,421.127 21.2841,416.07 13.1992,408.746 5.4347,401.712 -1.1351,393.851 -6.51022,385.164 -13.0745,374.555 -19.3757,362.904 -25.4139,350.213 c -12.0802,-25.394 -19.9224,-52.009 -23.5268,-79.844 -0.4668,-3.586 -0.7483,-7.275 -0.8446,-11.068 -0.5613,-22.277 0.8446,-45.193 4.6175,-67.175 2.5339,-14.747 7.5071,-27.644 16.7533,-39.502 5.4066,-6.923 9.1129,-15.425 12.2302,-20.948 14.81952,-26.267 38.1408,-45.3315 64.3625,-59.4231 19.3149,-10.3798 39.1632,-19.5205 60.1508,-25.994 5.823,-1.7966 11.739,-3.1987 17.748,-4.2063 13.075,-2.2005 26.01,-4.5509 39.291,-5.8123 6.105,-0.5816 15.262,-0.7927 27.472,-0.6334 16.729,0.2185 33.084,2.7783 49.065,7.6792 30.484,9.3519 60.256,28.6223 78.426,55.3219 1.075,1.578 1.841,3.186 2.301,4.823 0.03,0.113 0.024,0.232 -0.017,0.341 -0.04,0.11 -0.114,0.203 -0.211,0.269 -0.096,0.065 -0.211,0.099 -0.327,0.096 -0.117,-0.003 -0.23,-0.041 -0.323,-0.111 -5.318,-4.0677 -9.835,-9.4132 -14.531,-14.1697 C 287.719,70.108 264.776,55.1829 237.782,47.8648 206.92,39.4965 175.047,38.2685 143.38,42.1415 c -6.262,0.7668 -11.513,2.1337 -18.153,4.3008 -19.61,6.3846 -31.2843,10.1353 -47.5375,17.2923 -7.0939,3.1228 -17.1088,7.9311 -30.0447,14.425 -26.1773,13.147 -50.15424,36.4794 -62.9345,62.9064 -3.4229,7.074 -5.0177,13.514 -6.7513,22.271 -1.8856,9.517 -3.9341,19 -6.1457,28.45 -2.2615,9.68 -3.2562,18.91 -3.8896,28.756 -0.6224,9.665 -0.9521,19.02 -0.9891,28.067 -0.1445,37.046 13.7971,73.936 29.32794,107.243 5.81224,12.474 12.77472,23.715 22.59326,33.262 23.099,22.465 53.5049,31.684 85.3552,30.9 21.077,-0.517 41.492,-9.013 56.784,-22.954 6.631,-6.046 13.204,-12.158 19.72,-18.337 5.874,-5.568 9.002,-11.43 12.53,-19.421 2.484,-5.64 5.79,-12.591 5.896,-18.825 0.001,-0.089 -0.023,-0.176 -0.071,-0.251 -0.047,-0.075 -0.116,-0.135 -0.197,-0.171 -0.081,-0.037 -0.17,-0.049 -0.258,-0.035 -0.088,0.013 -0.169,0.052 -0.235,0.112 -0.561,0.5 -1.295,1.145 -1.695,1.834 -4.512,7.701 -8.981,15.43 -13.408,23.188 -1.067,1.87 -3.386,4.652 -6.957,8.346 -10.235,10.591 -22.399,19.387 -34.162,28.35 -6.946,5.295 -15.192,8.04 -24.266,9.279 -7.991,1.086 -15.792,1.638 -23.4047,1.656 -19.9595,0.05 -40.1468,-7.64 -56.7833,-18.404 C 20.195,383.058 7.59253,366.31 -0.603519,347.334 -7.94384,330.337 -15.2175,311.616 -19.3183,293.424 c -3.6488,-16.177 -5.8474,-31.501 -6.5957,-45.97 -1.1391,-22.01 2.6338,-41.119 7.1403,-67.486 5.6955,-33.351 23.98799,-64.862 51.4656,-84.5717 5.89,-4.2267 12.9766,-8.5313 21.2597,-12.9136 24.188,-12.797 49.2264,-23.4435 75.9034,-29.867 31.262,-7.5237 64.718,-8.8628 96.197,-1.6225 5.579,1.2854 10.978,3.4451 16.197,6.479 0.108,0.0651 0.192,0.1636 0.238,0.2805 0.047,0.1169 0.054,0.2458 0.021,0.3671 -0.034,0.1214 -0.106,0.2285 -0.205,0.3052 -0.1,0.0767 -0.222,0.1187 -0.348,0.1197 -0.541,-0.0037 -1.213,-0.1001 -2.017,-0.289 -13.392,-3.145 -25.922,-5.8956 -40.469,-6.8458 -33.801,-2.2115 -68.375,3.5507 -99.9641,15.6309 z M -7.37707,374.351 c 10.41315,18.842 25.67167,33.651 44.88097,43.469 25.5495,13.053 53.8772,19.421 82.2661,13.186 2.686,-0.592 5.938,-1.45 9.757,-2.572 9.652,-2.845 17.365,-5.063 24.811,-10.097 14.197,-9.596 25.566,-23.01 36.835,-36.324 1.945,-2.3 5.167,-5.395 7.351,-8.418 1.33,-1.837 2.495,-4.077 3.495,-6.718 3.818,-10.08 6.374,-20.12 6.063,-30.995 -0.193,-6.805 -1.482,-14.688 -3.868,-23.649 -3.178,-11.947 -9.896,-20.098 -20.848,-25.249 -9.341,-4.396 -20.082,-6.718 -30.406,-5.185 -5.746,0.856 -13.881,1.99 -18.943,4.879 -0.131,0.076 -0.246,0.179 -0.334,0.302 -0.089,0.123 -0.15,0.264 -0.18,0.413 -0.03,0.148 -0.028,0.302 0.006,0.45 0.034,0.148 0.099,0.287 0.191,0.408 1.945,2.545 11.825,-0.15 16.77,-1.006 19.843,-3.445 43.131,5.579 48.254,27.072 1.217,5.101 0.778,11.535 0.917,17.087 0.083,3.567 2.351,8.729 2.395,13.097 0.145,15.253 -9.485,25.632 -18.231,36.734 -13.242,16.809 -29.789,32.118 -50.366,38.891 -6.968,2.29 -17.147,4.168 -23.677,5.185 -9.657,1.5 -19.7256,0.633 -29.5608,-1.628 C 58.6747,418.726 36.4704,410.908 19.1503,396.516 11.071,389.809 4.4697,380.991 -0.76466,371.923 -20.2963,338.055 -33.3877,301.014 -37.2718,261.645 c -0.3556,-3.604 -0.5668,-7.301 -0.6334,-11.091 -0.289,-16.147 0.5741,-32.234 2.5893,-48.259 0.9558,-7.624 2.3838,-15.436 4.5009,-22.177 0.9224,-2.945 7.6904,-21.009 3.9897,-22.476 -0.2016,-0.079 -0.4229,-0.092 -0.6318,-0.038 -0.2089,0.055 -0.3944,0.176 -0.5295,0.343 -1.5726,1.956 -2.7006,3.796 -3.6563,6.252 -11.0299,28.472 -14.5584,61.095 -13.5916,91.356 0.1186,3.746 0.3853,7.437 0.8002,11.075 2.6616,23.354 8.6128,46.325 17.8535,67.952 6.3123,14.769 12.7136,28.026 19.20373,39.769 z"
       fill="#ffffff"
       id="path11" />
    <path
       d="m 405.209,231.69 c -15.225,-14.698 -28.216,-31.123 -39.041,-49.282 -14.102,-23.649 -27.75,-47.876 -46.331,-68.441 -3.667,-4.053 -7.809,-8.02 -12.425,-11.903 -16.931,-14.2358 -35.279,-25.7825 -54.488,-36.6513 -1.322,-0.7502 -4.873,-2.4005 -5.201,-3.9841 -0.021,-0.102 -0.017,-0.2076 0.013,-0.3074 0.029,-0.0999 0.083,-0.1909 0.156,-0.2651 0.073,-0.0742 0.163,-0.1292 0.263,-0.1602 0.099,-0.031 0.205,-0.037 0.307,-0.0175 8.763,1.6615 17.237,6.0679 24.799,10.5299 10.832,6.4012 20.891,13.849 30.178,22.3432 2.234,2.0449 6.257,5.8734 12.069,11.4855 5.374,5.184 11.697,9.391 16.142,15.553 0.919,1.271 2.449,3.806 4.59,7.607 4.873,8.646 10.002,16.948 16.131,24.922 6.346,8.257 12.219,15.731 18.204,25.182 8.924,14.098 17.536,28.317 28.161,41.242 2.406,2.923 7.446,9.196 10.857,10.585 0.155,0.063 0.321,0.091 0.488,0.081 0.166,-0.011 0.328,-0.058 0.474,-0.14 0.145,-0.082 0.27,-0.196 0.365,-0.333 0.096,-0.137 0.159,-0.293 0.185,-0.458 0.567,-3.562 -1.989,-8.224 -3.584,-11.319 -6.231,-12.099 -13.462,-23.566 -21.693,-34.401 -7.991,-10.519 -14.303,-23.327 -21.877,-34.696 -1.482,-2.23 -3.695,-5.197 -6.64,-8.901 -5.897,-7.413 -11.167,-14.918 -15.809,-22.516 -0.789,-1.289 -1.394,-2.823 -1.817,-4.601 -0.051,-0.211 0.032,-0.311 0.25,-0.3 0.626,0.041 1.097,0.198 1.412,0.472 6.138,5.294 11.513,11.588 16.125,18.882 3.929,6.201 7.735,12.802 11.075,17.687 4.895,7.151 10.452,13.469 15.164,21.109 5.495,8.908 9.813,18.676 15.436,26.9 4.056,5.935 7.185,10.856 9.385,14.764 5.59,9.92 9.754,20.411 12.491,31.473 0.297,1.196 0.395,2.4 0.295,3.612 -0.015,0.203 -0.115,0.257 -0.3,0.161 -1.008,-0.53 -1.749,-1.056 -2.223,-1.578 -6.216,-6.813 -10.744,-11.591 -13.586,-14.336 z"
       fill="#ffffff"
       id="path12" />
    <path
       d="m 14.0327,257.128 c 0.9335,-2.356 1.5466,-4.873 1.8392,-7.552 1.7504,-16.253 4.9566,-30.567 12.2024,-44.897 5.916,-11.699 12.7784,-22.799 20.5874,-33.301 26.7774,-36.002 73.5813,-56.15 116.9723,-61.434 6.713,-0.812 15.348,-0.762 21.61,-1.273 1.049,-0.085 3.623,-0.467 7.724,-1.145 9.435,-1.561 16.275,0.178 25.95,3.279 5.74,1.845 39.024,12.213 39.291,18.237 0.003,0.081 -0.026,0.16 -0.079,0.222 -0.054,0.061 -0.129,0.099 -0.21,0.106 -1.238,0.103 -2.301,-0.011 -3.19,-0.345 -20.837,-7.818 -41.225,-19.176 -64.285,-18.459 -1.05,0.028 -2.311,0.428 -3.3,0.711 -0.106,0.031 -0.199,0.093 -0.268,0.178 -0.069,0.085 -0.111,0.189 -0.119,0.298 -0.009,0.109 0.016,0.219 0.072,0.313 0.055,0.095 0.138,0.171 0.237,0.217 0.841,0.381 1.689,0.698 2.545,0.95 13.552,3.934 26.566,6.668 40.513,12.052 10.224,3.946 20.527,7.591 30.467,12.042 10.191,4.564 19.445,10.633 27.761,18.209 4.297,3.919 8.528,7.905 12.692,11.958 9.268,9.013 16.781,19.092 23.043,30.517 2.819,5.142 5.118,9.355 6.896,12.641 5.94,10.969 12.463,20.865 19.959,32.451 14.018,21.671 24.485,44.948 31.401,69.83 5.312,19.115 6.54,39.302 4.806,59.051 -1,11.391 -3.706,22.637 -5.128,34.001 -1.623,12.936 -2.868,25.877 -5.796,38.613 -0.761,3.312 -3.756,14.319 -7.068,15.553 -0.634,0.237 -0.913,0.018 -0.839,-0.656 0.344,-3.078 0.887,-5.971 1.628,-8.679 3.551,-13.025 7.257,-25.327 8.752,-39.097 1.433,-13.158 2.852,-26.318 4.256,-39.48 1.36,-12.75 1.243,-25.871 -0.35,-39.363 -2.689,-22.793 -12.075,-44.992 -23.016,-65.09 -9.179,-16.87 -18.603,-33.601 -28.272,-50.194 -7.016,-12.039 -14.653,-23.671 -22.91,-34.895 -14.336,-19.482 -34.184,-36.018 -56.916,-44.726 -13.714,-5.256 -27.617,-9.879 -41.364,-15.025 -9.574,-3.584 -19.137,-5.518 -29.567,-7.14 -14.453,-2.245 -29.867,-0.539 -43.831,3.562 -15.707,4.604 -30.73,10.843 -45.0697,18.714 -32.7008,17.959 -55.8331,50.01 -68.0188,84.856 -3.045,8.702 -4.9065,17.396 -5.5844,26.083 -0.941,12.069 -1.3003,24.154 -1.078,36.257 0.0278,1.65 0.1333,5.973 -0.9835,7.24 -0.0715,0.081 -0.163,0.141 -0.2653,0.175 -0.1022,0.034 -0.2117,0.04 -0.3172,0.018 -0.1055,-0.022 -0.2033,-0.071 -0.2835,-0.143 -0.0802,-0.072 -0.1399,-0.164 -0.1731,-0.267 -2.0226,-6.217 -1.8726,-12.997 -2.8617,-19.426 -0.9057,-5.879 -3.1673,-13.963 -3.8063,-21.32 -1.12985,-12.936 -0.52417,-25.402 1.817,-37.397 2.8858,-14.788 4.6898,-24.19 5.4122,-28.205 1.4836,-8.23 4.9454,-14.425 9.9575,-23.221 2.5375,-4.453 4.8231,-9.037 6.8569,-13.753 12.9303,-29.945 43.8363,-43.486 71.7749,-54.794 31.273,-12.6581 63.748,-18.4129 97.425,-17.2645 11.63,0.3945 22.488,2.2282 33.656,5.9289 8.758,2.895 17.22,5.8456 25.1,9.8075 23.51,11.8241 41.647,29.6391 56.466,51.2771 10.243,14.954 19.762,30.815 28.556,47.581 4.993,9.513 10.656,18.911 16.987,28.194 10.029,14.692 23.21,27.811 33.578,39.73 8.828,10.147 15.416,21.523 19.765,34.129 8.135,23.605 11.03,49.366 9.435,74.226 -0.427,6.662 -1.283,14.392 -4.595,20.287 -0.031,0.058 -0.08,0.103 -0.139,0.131 -0.06,0.027 -0.126,0.035 -0.19,0.022 -0.064,-0.013 -0.122,-0.046 -0.166,-0.095 -0.044,-0.048 -0.071,-0.109 -0.077,-0.174 -0.906,-9.136 0.817,-18.965 1.617,-28.095 3.106,-35.512 -6.879,-75.459 -32.318,-101.258 -3.263,-3.312 -6.499,-6.652 -9.707,-10.019 -13.197,-13.853 -24.094,-29.634 -33.44,-46.292 -13.758,-24.533 -26.233,-49.177 -44.625,-70.753 -21.438,-25.15 -50.849,-42.9863 -83.689,-48.4152 -26.811,-4.4342 -53.155,-2.0448 -79.382,4.8898 -15.047,3.9786 -29.539,9.6464 -45.9091,16.2084 -16.8366,6.752 -32.7508,16.387 -44.6309,30.245 -12.0857,14.103 -19.6149,27.867 -26.4107,45.265 -1.3225,3.384 -2.7617,8.418 -2.1671,12.441 0.0155,0.107 0.0599,0.209 0.1284,0.293 0.0685,0.084 0.1586,0.148 0.2607,0.185 0.1021,0.037 0.2124,0.046 0.319,0.025 0.1066,-0.02 0.2057,-0.069 0.2865,-0.142 3.3062,-2.973 5.9345,-10.58 7.7404,-14.747 4.8954,-11.314 13.4304,-20.249 22.999,-27.645 7.5718,-5.849 15.2548,-11.548 23.0489,-17.097 23.1434,-16.47 51.9209,-26.739 79.6929,-31.723 23.766,-4.2677 50.277,-7.2738 73.504,1.306 17.692,6.534 34.801,14.414 48.859,27.305 6.39,5.868 12.342,12.16 17.854,18.876 1.483,1.811 4.723,5.895 4.717,8.274 -10e-4,0.118 -0.035,0.233 -0.098,0.333 -0.063,0.1 -0.153,0.18 -0.259,0.232 -0.107,0.051 -0.225,0.072 -0.343,0.059 -0.117,-0.012 -0.229,-0.057 -0.322,-0.13 -3.256,-2.552 -6.29,-5.286 -9.102,-8.201 -6.186,-6.409 -12.417,-12.775 -18.692,-19.099 -12.303,-12.402 -28.262,-20.192 -45.348,-24.182 -15.964,-3.723 -32.145,-5.279 -48.521,-3.378 -9.939,1.152 -19.198,2.544 -27.777,4.178 -26.972,5.134 -53.0608,16.765 -75.9041,31.895 -1.9337,1.286 -3.8082,2.658 -5.6233,4.118 -12.9192,10.407 -24.7049,21.932 -33.6177,35.534 -11.8857,18.148 -21.1041,37.763 -22.7156,59.701 -0.5112,6.929 -0.6779,12.608 0.5946,18.876 0.0238,0.123 0.087,0.235 0.1799,0.319 0.0929,0.084 0.2106,0.135 0.3354,0.147 0.1247,0.011 0.2498,-0.019 0.3563,-0.085 0.1065,-0.066 0.1887,-0.164 0.2342,-0.281 z"
       fill="#ffffff"
       id="path13" />
    <path
       d="m 51.5734,141.122 c 1.7947,-4.29 6.3012,-8.018 9.8963,-10.83 13.6731,-10.687 28.6538,-19.037 44.9423,-25.049 42.686,-15.7534 87.934,-24.9885 132.648,-10.7913 12.702,4.0341 24.822,11.0693 35.479,18.9593 23.616,17.481 41.386,43.269 55.089,68.991 6.282,11.802 12.915,23.403 19.898,34.801 8.513,13.898 18.631,26.617 25.744,41.381 0.87,1.811 2.31,5.223 4.317,10.235 2.631,6.583 5.918,14.008 9.863,22.277 4.424,9.264 7.559,19.381 9.408,30.35 0.972,5.762 1.145,12.141 1.5,18.259 0.545,9.441 2.417,18.793 1.895,28.117 -0.07,1.259 -0.395,4.106 -0.972,8.54 -0.827,6.305 -1.16,13.403 -1.001,21.293 0.117,5.751 -2.245,15.926 -7.579,19.665 -0.097,0.068 -0.211,0.109 -0.329,0.119 -0.118,0.01 -0.237,-0.011 -0.344,-0.062 -0.107,-0.051 -0.199,-0.129 -0.266,-0.227 -0.068,-0.098 -0.108,-0.212 -0.117,-0.33 -0.196,-2.552 -0.061,-5.142 0.406,-7.768 2.161,-12.219 5.034,-23.082 5.896,-36.496 1.294,-20.248 0.6,-39.052 -4.846,-58.461 -6.14,-21.866 -14.492,-41.742 -25.516,-61.029 -4.649,-8.131 -12.052,-19.885 -22.21,-35.262 -2.185,-3.309 -4.154,-6.444 -5.907,-9.408 -12.685,-21.432 -23.576,-41.78 -39.479,-63.034 -9.873,-13.196 -21.971,-24.437 -36.296,-33.724 -34.129,-22.1206 -78.505,-23.282 -117.112,-14.0135 -10.121,2.4305 -17.352,4.2545 -21.693,5.4735 -17.126,4.816 -33.0623,12.193 -47.8097,22.132 -4.8602,3.275 -10.3668,7.298 -16.5199,12.069 -1.2169,0.945 -6.8791,4.979 -8.5738,4.612 -0.452,-0.1 -0.5891,-0.363 -0.4112,-0.789 z"
       fill="#ffffff"
       id="path14" />
    <path
       d="m 71.9049,200.117 c 0.1501,0.003 0.2998,-0.025 0.439,-0.084 1.8448,-0.778 3.2951,-1.733 4.9343,-3.161 5.2511,-4.562 10.9188,-9.824 15.9587,-13.531 29.7831,-21.91 69.7411,-27.638 104.8371,-17.359 9.152,2.679 19.593,6.563 28.161,10.175 20.665,8.701 36.318,24.404 48.31,43.269 16.592,26.116 25.299,54.522 30.494,84.811 3.579,20.871 3.973,42.392 1.901,63.729 -1.651,16.915 -5.829,32.579 -12.969,47.76 -4.309,9.153 -8.548,18.335 -12.72,27.544 -5.967,13.175 -17.175,26.888 -27.961,35.818 -11.369,9.407 -21.159,17.392 -29.922,28.294 -2.612,3.251 -5.251,6.729 -8.085,9.53 -6.461,6.386 -13.877,11.76 -22.249,16.12 -0.948,0.492 -1.791,0.841 -2.528,1.044 -0.326,0.089 -0.382,0.004 -0.167,-0.255 1.252,-1.508 2.18,-2.49 2.784,-2.945 9.228,-6.976 17.542,-14.54 24.944,-22.694 6.04,-6.651 13.425,-15.48 20.443,-22.843 6.471,-6.79 12.976,-13.549 19.515,-20.276 12.363,-12.725 22.093,-26.739 28.572,-43.264 3.86,-9.835 7.34,-20.01 10.441,-30.523 5.645,-19.159 7.185,-39.163 6.157,-59.039 -1.99,-38.541 -11.714,-76.565 -31.962,-109.594 -8.574,-13.975 -20.065,-25.482 -33.223,-35.173 -16.404,-12.086 -36.691,-17.115 -56.473,-19.993 -28.811,-4.195 -61.367,1.667 -85.2995,19.082 -8.5461,6.217 -16.4199,13.263 -24.8993,19.576 -4.5416,3.382 -7.7886,7.501 -9.7408,12.358 -3.3377,8.309 -7.1495,16.394 -11.4356,24.254 -5.4955,10.075 -10.9632,22.666 -11.2744,34.474 -0.0741,2.863 0.2927,6.54 1.1002,11.03 1.3169,7.307 2.8006,15.275 5.4233,22.248 6.1956,16.476 19.2593,25.405 34.8346,31.929 13.7082,5.74 27.0105,7.629 41.8305,9.396 0.135,0.017 0.261,0.075 0.361,0.167 0.1,0.092 0.169,0.213 0.196,0.346 0.028,0.134 0.013,0.272 -0.042,0.396 -0.055,0.124 -0.148,0.228 -0.265,0.297 -4.562,2.667 -12.819,2.106 -17.842,1.339 -16.7222,-2.563 -31.5751,-8.327 -44.5592,-17.292 -10.8576,-7.491 -18.787,-21.643 -21.6875,-34.685 -3.0154,-13.525 -3.547,-27.148 -1.5948,-40.869 0.8113,-5.701 1.6337,-11.395 2.4672,-17.081 3.8118,-26.072 17.1978,-53.644 35.6014,-72.57 3.7174,-3.828 7.7126,-6.634 13.0414,-9.979 5.0491,-3.175 10.4335,-7.018 16.1535,-11.53 15.814,-12.481 37.84,-19.032 57.672,-19.476 2.945,-0.067 6.642,0.103 11.091,0.511 9.774,0.889 18.976,1.756 28.372,4.101 24.538,6.129 47.354,17.131 68.297,31.217 8.329,5.595 14.881,12.647 21.193,20.598 11.13,14.02 21.004,28.867 30.689,43.903 11.347,17.62 18.96,34.246 28.556,55.389 4.027,8.876 7.887,18.294 11.58,28.255 3.306,8.919 3.984,16.359 3.684,26.4 -0.278,9.306 -0.43,18.613 -0.456,27.922 -0.039,13.236 -1.333,26.116 -4.289,38.941 -4.19,18.204 -11.025,35.774 -17.398,53.399 -8.858,24.477 -26.366,46.526 -45.02,64.218 -7.535,7.141 -16.314,13.142 -23.749,20.527 -2.967,2.95 -5.89,6.184 -8.969,8.69 -4.426,3.605 -9.185,6.835 -14.275,9.691 -0.009,0.005 -0.02,0.006 -0.03,0.003 -0.011,-0.003 -0.02,-0.009 -0.026,-0.018 -0.006,-0.008 -0.008,-0.019 -0.007,-0.029 0.001,-0.011 0.006,-0.021 0.013,-0.028 11.091,-9.369 21.949,-19.059 31.773,-29.773 9.398,-10.242 18.767,-20.509 28.106,-30.8 16.999,-18.73 29.139,-40.484 36.418,-65.263 6.008,-20.452 9.993,-41.293 11.952,-62.523 0.937,-10.143 1.36,-21.193 1.267,-33.151 -0.178,-21.949 -7.679,-42.792 -17.153,-62.273 -14.036,-28.878 -31.979,-57.128 -50.638,-82.45 -9.457,-12.836 -20.932,-26.144 -34.857,-34.318 -26.038,-15.269 -56.027,-25.977 -85.878,-28.866 -16.947,-1.634 -35.362,2.511 -51.137,9.029 -2.595,1.073 -12.414,5.674 -11.841,8.435 0.016,0.08 0.061,0.15 0.126,0.197 0.065,0.048 0.145,0.069 0.224,0.059 1.563,-0.167 3.069,-0.498 4.517,-0.995 5.579,-1.911 11.175,-3.769 16.787,-5.573 25.894,-8.313 51.96,-6.952 77.659,1.256 24.861,7.946 47.565,18.442 64.874,37.096 6.879,7.416 13.775,16.31 20.687,26.683 8.932,13.406 17.941,26.762 27.028,40.069 2.541,3.719 5.034,8.277 7.479,13.675 3.073,6.784 5.123,14.902 8.574,21.965 2.912,5.957 7.085,12.175 9.43,17.437 7.007,15.742 9.529,35.868 8.024,52.743 -0.801,8.974 -3.14,19.526 -5.118,29.15 -1.784,8.686 -2.378,15.715 -3.184,24.894 -1.039,11.869 -5.873,23.633 -10.747,34.857 -2.889,6.653 -5.525,13.406 -7.907,20.26 -0.296,0.852 -1.007,2.444 -2.133,4.778 -5.629,11.652 -14.72,22.321 -24.683,30.517 -0.548,0.449 -1.41,0.978 -2.584,1.59 -0.189,0.096 -0.239,0.046 -0.15,-0.151 1.034,-2.293 1.912,-3.961 2.634,-5.006 5.523,-8.002 14.175,-18.731 20.659,-29.345 15.131,-24.76 18.926,-55.855 22.855,-83.816 1.234,-8.752 2.889,-17.281 4.395,-25.911 2.764,-15.866 1.599,-31.352 -3.495,-46.459 -0.611,-1.806 -3.1,-7.935 -5.162,-8.085 -0.041,-0.003 -0.083,0.003 -0.122,0.016 -0.039,0.013 -0.076,0.034 -0.107,0.062 -0.031,0.027 -0.056,0.06 -0.074,0.098 -0.018,0.037 -0.028,0.077 -0.03,0.119 -0.239,3.562 0.555,7.04 1.478,12.147 0.711,3.941 1.135,8.77 1.272,14.486 0.395,16.775 -1.472,33.551 -3.951,50.126 -1.756,11.78 -3.584,23.549 -5.484,35.307 -0.778,4.823 -1.454,8.465 -2.028,10.925 -5.034,21.643 -16.542,40.324 -29.656,57.683 -5.746,7.602 -11.869,13.964 -19.243,21.532 -15.814,16.242 -30.611,28.378 -46.475,42.075 -8.002,6.905 -16.633,12.454 -25.894,16.648 -1.108,0.5 -1.152,0.42 -0.134,-0.239 14.774,-9.554 28.493,-20.862 41.158,-33.924 10.669,-11.002 21.277,-20.648 30.717,-30.128 12.31,-12.369 22.618,-26.231 30.923,-41.586 3.818,-7.062 7.885,-14.714 10.636,-21.793 3.508,-9.042 5.962,-18.933 7.362,-29.672 2.138,-16.415 4.292,-32.831 6.463,-49.249 0.892,-6.764 1.337,-14.529 1.333,-23.293 -0.011,-12.13 -1.667,-23.644 -3.812,-36.396 -2.971,-17.663 -8.994,-33.751 -18.07,-48.265 -3.845,-6.146 -9.446,-11.28 -13.547,-17.442 -3.493,-5.25 -7.633,-11.914 -12.419,-19.993 -13.386,-22.582 -33.157,-41.219 -57.061,-52.022 -20.138,-9.101 -42.903,-15.569 -64.796,-16.836 -13.297,-0.773 -29.139,1.995 -41.081,5.907 -10.568,3.467 -17.564,6.518 -26.36,6.079 -0.185,-0.011 -0.367,0.033 -0.523,0.127 -12.0741,7.218 -23.4097,18.748 -32.0447,29.195 -2.4597,2.971 -4.7028,6.555 -6.7291,10.752 -4.675,9.672 -9.3092,19.365 -13.9027,29.078 -2.2171,4.69 -5.3899,11.736 -4.9121,16.97 0.008,0.087 0.039,0.17 0.0901,0.241 0.051,0.071 0.1201,0.127 0.2001,0.162 0.08,0.035 0.1679,0.049 0.2547,0.038 0.0867,-0.01 0.1692,-0.044 0.2386,-0.097 2.695,-2.022 4.9566,-6.806 6.4013,-9.851 6.3734,-13.392 11.3855,-22.41 16.7588,-33.774 3.2729,-6.912 5.9956,-11.185 10.9299,-16.125 11.1022,-11.113 24.1361,-19.082 39.1021,-23.905 22.149,-7.135 47.198,-11.908 70.353,-7.079 2.289,0.478 5.86,1.447 10.713,2.906 7.929,2.378 16.648,4.518 23.866,7.279 27.368,10.462 48.455,28.589 63.262,54.383 9.985,17.393 18.22,31.329 22.799,49.254 6.39,25 11.735,43.214 12.575,66.108 0.872,23.949 -2.39,48.02 -8.202,71.225 -4.79,19.109 -12.769,35.812 -22.065,53.21 -4.824,9.031 -10.347,16.794 -16.57,23.288 -8.554,8.928 -15.733,15.868 -21.538,20.821 -8.402,7.164 -16.829,14.295 -25.283,21.393 -4.156,3.493 -8.535,6.682 -13.136,9.568 -0.052,0.036 -0.115,0.051 -0.177,0.044 -0.062,-0.007 -0.12,-0.037 -0.163,-0.083 -0.043,-0.047 -0.069,-0.107 -0.073,-0.171 -0.004,-0.064 0.015,-0.127 0.052,-0.179 2.712,-3.815 5.818,-7.384 9.319,-10.707 9.983,-9.48 20.178,-18.73 30.584,-27.75 11.228,-9.735 20.841,-21.154 28.838,-34.257 10.908,-17.87 20.088,-37.252 25.594,-57.494 6.639,-24.416 9.023,-48.923 7.152,-73.52 -0.867,-11.391 -2.945,-24.322 -5.324,-36.446 -3.056,-15.589 -7.586,-30.753 -13.591,-45.493 -6.779,-16.642 -16.192,-31.183 -27.583,-44.97 -8.78,-10.62 -19.321,-19.329 -31.623,-26.127 -10.724,-5.923 -21.049,-11.48 -32.579,-14.314 -10.585,-2.606 -22.654,-4.728 -32.973,-5.145 -22.074,-0.882 -43.271,3.471 -63.59,13.058 -12.6024,5.946 -24.0324,14.942 -33.4009,25.227 -0.9002,0.984 -5.5844,6.235 -1.8282,6.396 z"
       fill="#ffffff"
       id="path15" />
    <path
       d="m 245.305,219.732 c -8.685,-10.063 -19.97,-17.504 -32.35,-22.199 -28.239,-10.713 -60.223,-14.397 -89.14,-4.218 -3.862,1.362 -20.043,7.691 -19.815,11.497 0.011,0.196 0.115,0.298 0.311,0.306 0.897,0.026 1.684,-0.078 2.362,-0.311 4.64,-1.595 10.541,-3.912 15.142,-5.335 24.267,-7.494 48.657,-8.001 73.169,-1.522 16.27,4.3 31.362,10.724 43.681,22.398 1.482,1.404 3.96,4.151 7.435,8.241 3.649,4.301 7.5,8.415 11.552,12.341 4.134,4.012 6.668,7.518 9.097,12.269 9.757,19.104 15.143,39.51 16.158,61.218 0.417,8.913 -0.672,15.747 -3.223,24.966 -1.522,5.493 -2.902,11.024 -4.139,16.592 -2.173,9.757 -4.99,18.831 -8.063,28.061 -2.023,6.062 -4.929,12.225 -9.791,16.542 -0.255,0.227 -0.589,0.346 -0.931,0.33 -0.341,-0.016 -0.663,-0.164 -0.897,-0.413 -0.163,-0.174 -0.185,-0.61 -0.067,-1.306 1.545,-9.052 6.252,-18.148 9.73,-26.639 6.294,-15.366 10.228,-31.802 11.802,-49.309 0.963,-10.717 0.367,-20.873 -1.789,-30.467 -4.712,-20.971 -13.714,-39.749 -27.005,-56.334 -10.502,-13.097 -23.883,-22.887 -39.675,-28.583 -5.904,-2.13 -12.383,-4.052 -19.437,-5.768 -29.367,-7.145 -60.684,-3.561 -87.861,9.319 -12.8084,6.062 -24.4995,17.07 -29.8061,30.472 -2.5265,6.387 -5.0214,12.788 -7.4848,19.204 -1.73,4.505 -2.8691,8.022 -3.4174,10.552 -2.4504,11.314 -1.8392,28.095 7.2181,37.058 1.2669,1.252 3.6007,2.906 7.0014,4.962 12.5191,7.573 24.7937,14.363 38.5968,19.364 6.797,2.464 13.184,3.601 19.159,3.412 6.334,-0.2 14.103,-3.023 20.826,-4.906 1.326,-0.371 2.404,-0.276 3.234,0.283 0.118,0.079 0.215,0.185 0.281,0.31 0.067,0.124 0.103,0.264 0.103,0.406 0.001,0.142 -0.033,0.282 -0.099,0.408 -0.066,0.126 -0.162,0.234 -0.279,0.315 -4.812,3.312 -11.636,5.096 -17.27,6.474 -7.074,1.722 -12.658,0.767 -20.41,-1.145 -12.228,-3.019 -23.936,-7.414 -35.1234,-13.186 -18.4536,-9.518 -29.1501,-21.043 -28.3722,-43.308 0.3297,-9.495 2.3597,-18.602 6.0901,-27.322 8.5128,-19.899 20.165,-37.002 36.3571,-51.31 27.8444,-24.6 68.8244,-24.199 102.3924,-14.981 9.902,2.717 19.037,5.851 27.394,11.263 6.535,4.234 12.647,9.004 18.337,14.309 4.912,4.578 11.152,12.113 12.186,18.948 0.024,0.161 -0.001,0.326 -0.073,0.473 -0.072,0.146 -0.187,0.267 -0.33,0.346 -0.143,0.08 -0.306,0.113 -0.469,0.097 -0.162,-0.016 -0.316,-0.082 -0.44,-0.188 -4.584,-3.901 -7.907,-9.408 -11.858,-13.986 z"
       fill="#ffffff"
       id="path16" />
    <path
       d="m 79.729,293.646 c -10.0409,-9.057 -4.7676,-21.015 -0.8391,-31.656 5.6733,-15.37 17.7979,-30.067 32.7341,-36.941 15.442,-7.112 32.395,-11.935 49.265,-11.446 24.583,0.711 49.738,8.49 67.658,26.583 6.107,6.168 11.741,14.236 17.037,21.515 7.457,10.246 10.891,21.51 13.258,33.957 1.863,9.776 3.11,17.522 3.739,23.238 1.756,15.875 -3.623,30.305 -9.829,44.547 -2.106,4.829 -4.69,9.83 -8.563,13.486 -0.193,0.182 -0.298,0.141 -0.317,-0.122 -0.137,-1.864 -0.046,-3.586 0.272,-5.168 3.151,-15.525 5.879,-29.156 5.357,-44.409 -0.445,-12.963 -3.867,-25.582 -8.463,-38.407 -1.715,-4.775 -3.032,-8.237 -3.951,-10.385 -8.412,-19.665 -22.621,-32.64 -40.985,-42.931 -13.953,-7.818 -31.401,-10.163 -46.998,-7.368 -16.554,2.967 -30.406,8.624 -43.164,19.504 -11.0081,9.39 -15.1255,18.07 -17.376,32.345 -0.6946,4.379 -0.7334,9.98 -2.7172,13.869 -1.3169,2.584 -4.4786,1.273 -6.1178,-0.211 z m 1.4225,-5.518 c 0.0819,0.087 0.1827,0.153 0.2944,0.194 0.1118,0.041 0.2315,0.056 0.3499,0.043 0.1183,-0.013 0.2321,-0.053 0.3324,-0.117 0.1003,-0.064 0.1844,-0.151 0.2457,-0.253 0.8558,-1.434 1.517,-2.889 1.7948,-4.623 2.1171,-13.297 3.7008,-26.472 14.564,-35.396 7.2963,-5.996 14.9803,-13.108 23.3993,-16.736 13.058,-5.629 28.655,-9.319 42.958,-8.28 6.968,0.506 15.692,2.634 22.749,4.523 12.197,3.273 23.093,10.725 31.762,19.921 9.885,10.496 19.209,21.204 24.582,34.818 6.487,16.451 9.343,33.69 8.569,51.715 -0.323,7.457 -1.456,14.553 -1.078,21.582 0.006,0.091 0.041,0.178 0.1,0.249 0.058,0.07 0.138,0.119 0.226,0.141 0.088,0.022 0.181,0.015 0.264,-0.021 0.084,-0.035 0.153,-0.096 0.199,-0.174 1.085,-1.852 1.883,-3.76 2.395,-5.724 5.095,-19.559 3.784,-40.935 -1.628,-60.228 -4.296,-15.32 -12.12,-29.128 -22.961,-40.808 -12.896,-13.886 -27.183,-23.36 -45.481,-28.144 -14.602,-3.812 -30.072,-4.773 -44.881,-1.551 -20.248,4.412 -43.497,16.981 -53.1489,36.046 -3.6118,7.141 -12.708,25.378 -5.6066,32.823 z"
       fill="#ffffff"
       id="path17" />
    <path
       d="m 210.555,259.156 c 0.099,-0.025 0.193,-0.071 0.274,-0.134 0.082,-0.063 0.149,-0.142 0.199,-0.233 0.049,-0.091 0.08,-0.191 0.089,-0.294 0.01,-0.103 -0.002,-0.207 -0.035,-0.306 -1.928,-5.723 -16.486,-11.808 -21.62,-13.83 -9.758,-3.845 -20.843,-5.085 -31.362,-5.357 -18.87,-0.494 -39.669,6.629 -51.66,22.038 -2.934,3.767 -6.8237,10.385 -10.869,12.736 -0.2222,0.129 -0.3667,0.072 -0.4334,-0.173 -0.2037,-0.741 -0.2056,-1.394 -0.0056,-1.961 5.145,-14.397 18.187,-25.511 31.979,-31.373 17.362,-7.372 35.005,-8.7 52.927,-3.984 11.796,3.101 23.243,8.274 31.928,17.087 1.8,1.828 3.44,4.328 2.906,6.873 -1.328,6.379 -12.097,1.406 -16.459,-0.7 -6.219,-3.004 -12.395,-6.101 -18.526,-9.291 -2.317,-1.211 -4.55,-2.261 -6.517,-3.923 -0.077,-0.065 -0.129,-0.153 -0.15,-0.251 -0.021,-0.098 -0.009,-0.2 0.034,-0.291 0.043,-0.09 0.115,-0.164 0.204,-0.21 0.089,-0.045 0.191,-0.06 0.289,-0.042 8.93,1.65 16.859,4.44 24.722,8.785 3.145,1.733 8.407,5.751 12.086,4.834 z"
       fill="#ffffff"
       id="path18" />
    <path
       d="m 308.435,250.338 c 2.341,2.43 4.391,5.382 6.151,8.857 5.895,11.669 9.835,24.116 12.086,36.968 3.589,20.46 4.61,40.968 3.061,61.523 -1.645,21.81 -4.673,45.293 -10.724,66.102 -1.4,4.829 -3.545,9.902 -6.007,15.114 -3.397,7.172 -6.718,14.379 -9.963,21.621 -8.096,18.07 -23.499,34.829 -38.58,46.681 -5.66,4.446 -10.185,8.052 -13.574,10.819 -7.935,6.474 -14.514,14.509 -22.177,21.382 -12.464,11.186 -26.966,21.304 -42.758,26.733 -1.69,0.582 -1.734,0.473 -0.134,-0.328 11.428,-5.723 22.147,-13.158 32.157,-22.304 7.312,-6.685 14.491,-13.63 21.837,-20.176 23.955,-21.36 51.032,-43.636 64.396,-73.648 18.398,-41.319 24.249,-86.506 20.793,-131.52 -0.804,-10.491 -2.569,-20.695 -5.296,-30.612 -3.422,-12.463 -8.946,-24.243 -11.957,-36.835 -0.234,-0.974 -0.004,-1.1 0.689,-0.377 z"
       fill="#ffffff"
       id="path19" />
    <path
       d="m 285.947,336.427 c 0.013,-0.028 0.033,-0.051 0.057,-0.069 0.025,-0.018 0.054,-0.03 0.084,-0.034 0.031,-0.005 0.062,-0.002 0.092,0.009 0.029,0.01 0.056,0.027 0.078,0.049 2.256,2.429 0.767,17.22 0.322,20.654 -0.744,5.807 -2.367,13.714 -6.329,18.298 -0.045,0.051 -0.103,0.087 -0.168,0.106 -0.065,0.018 -0.134,0.017 -0.198,-0.002 -0.065,-0.019 -0.123,-0.056 -0.167,-0.107 -0.044,-0.051 -0.073,-0.113 -0.083,-0.18 -0.439,-3.023 -0.117,-5.751 0.122,-8.785 0.663,-8.354 2.069,-16.583 4.217,-24.688 0.463,-1.745 1.121,-3.495 1.973,-5.251 z"
       fill="#ffffff"
       id="path20" />
    <path
       d="m 46.1502,530.604 c -21.9765,-7.169 -41.80256,-16.565 -58.0557,-33.051 -1.3559,-1.373 -2.4338,-2.868 -3.2951,-4.457 -0.0319,-0.06 -0.044,-0.13 -0.0346,-0.197 0.0095,-0.068 0.0399,-0.132 0.0871,-0.181 0.0473,-0.05 0.1089,-0.084 0.1762,-0.096 0.0673,-0.013 0.1369,-0.005 0.1991,0.024 1.6707,0.797 3.2451,1.717 4.7232,2.762 5.65293,3.986 11.34108,7.924 17.06442,11.813 29.03898,19.726 68.60228,28 103.17018,25.466 4.312,-0.315 9.254,-1.122 14.825,-2.422 21.01,-4.89 40.586,-11.903 57.606,-25.578 24.243,-19.487 43.875,-46.025 64.096,-70.38 13.108,-15.781 21.382,-32.584 29.105,-51.427 0.408,-0.989 0.999,-1.915 1.773,-2.778 0.028,-0.032 0.063,-0.055 0.102,-0.069 0.04,-0.014 0.082,-0.018 0.124,-0.01 0.041,0.007 0.08,0.025 0.112,0.051 0.033,0.027 0.058,0.061 0.073,0.1 1.034,2.678 -0.767,9.346 -1.489,11.88 -5.14,18.132 -14.853,34.574 -27.378,48.576 -8.913,9.969 -19.213,22.075 -30.9,36.319 -6.651,8.101 -14.542,15.586 -23.027,22.443 -4.149,3.352 -8.231,6.781 -12.247,10.285 -15.353,13.403 -32.856,21.204 -53.243,23.555 -2.331,0.27 -4.664,0.526 -7.002,0.767 -8.063,0.833 -16.042,2.678 -24.0545,3.222 -17.7701,1.212 -35.2736,-0.994 -52.5103,-6.617 z"
       fill="#ffffff"
       id="path21" />
    <path
       d="m 270.939,562.799 c 11.569,-10.141 22.576,-21.393 34.001,-31.923 21.887,-20.165 36.368,-43.659 48.559,-70.758 4.809,-10.684 8.404,-21.275 10.786,-31.773 1.028,-4.551 1.944,-7.713 3.773,-11.341 0.065,-0.13 0.165,-0.238 0.289,-0.312 0.125,-0.074 0.267,-0.111 0.412,-0.107 0.145,0.004 0.285,0.049 0.405,0.13 0.12,0.081 0.214,0.195 0.272,0.327 l 0.394,0.906 c 0.071,0.163 0.102,0.332 0.095,0.506 -0.189,4.549 -0.951,9.394 -2.284,14.536 -8.88,34.184 -27.378,68.419 -52.805,93.54 -6.607,6.53 -14.519,12.814 -21.599,19.41 -6.964,6.494 -14.334,12.199 -22.109,17.114 -1.149,0.726 -1.212,0.641 -0.189,-0.255 z"
       fill="#ffffff"
       id="path22" />
    <path
       d="m 367.374,470.236 c 0.121,-0.012 0.243,0.003 0.358,0.044 0.114,0.041 0.218,0.107 0.304,0.193 0.085,0.086 0.151,0.191 0.191,0.305 0.04,0.115 0.055,0.237 0.041,0.358 -1.366,12.097 -10.596,24.966 -18.598,34.468 -13.397,15.903 -22.098,26.105 -35.173,37.685 -8.191,7.257 -15.798,13.77 -24.933,19.421 -0.017,0.012 -0.038,0.018 -0.059,0.014 -0.021,-0.003 -0.039,-0.014 -0.052,-0.031 -0.012,-0.017 -0.018,-0.038 -0.015,-0.059 0.004,-0.021 0.015,-0.039 0.032,-0.052 10.554,-9.783 20.945,-19.769 31.172,-29.956 16.531,-16.464 29.128,-34.94 40.336,-55.183 1.134,-2.045 3.94,-6.957 6.396,-7.207 z"
       fill="#ffffff"
       id="path23" />
    <path
       d="m -50.8522,518.551 c -3.2229,-2.95 -7.5015,-7.207 -8.4461,-11.202 -0.0223,-0.094 -0.0163,-0.193 0.0172,-0.284 0.0335,-0.091 0.0931,-0.171 0.1713,-0.228 0.0782,-0.058 0.1715,-0.091 0.2684,-0.096 0.0969,-0.004 0.1931,0.02 0.2766,0.069 6.0567,3.584 10.891,8.835 15.6141,13.975 16.3977,17.853 33.67327,32.701 55.8998,42.908 0.0815,0.037 0.0797,0.071 -0.0055,0.1 -0.0519,0.019 -0.0982,0.023 -0.1389,0.011 -13.473035,-4.182 -25.6384,-10.67 -36.496,-19.464 -5.7178,-4.629 -10.491,-10.753 -16.1532,-15.798 -2.7598,-2.46 -6.429,-5.79 -11.0077,-9.991 z"
       fill="#ffffff"
       id="path24" />
    <path
       d="m 289.025,516.067 c -9.63,11.98 -21.199,22.477 -33.029,32.223 -7.829,6.446 -14.386,11.703 -22.471,16.387 -0.537,0.307 -0.563,0.268 -0.077,-0.117 4.678,-3.756 9.303,-7.844 13.874,-12.263 11.606,-11.221 23.122,-22.533 34.546,-33.935 2.89,-2.889 7.324,-7.451 10.869,-8.763 0.241,-0.089 0.309,-0.014 0.206,0.223 -0.89,2.015 -2.195,4.097 -3.918,6.245 z"
       fill="#ffffff"
       id="path25" />
    <path
       d="M 47.2557,560.748 C 25.8849,557.47 5.60312,548.274 -11.278,534.821 c -1.804,-1.437 -3.3451,-3.13 -4.6231,-5.079 -0.1408,-0.211 -0.0833,-0.318 0.1723,-0.322 0.6816,0 1.2113,0.104 1.5892,0.311 7.25138,4.04 14.469466,9.669 20.76514,13.303 13.47666,7.783 28.22406,13.087 44.24196,15.914 34.3289,6.057 72.9145,3.584 104.8485,-9.763 9.352,-3.906 18.67,-8.541 28.239,-11.83 0.055,-0.018 0.114,-0.017 0.169,0.002 0.054,0.018 0.102,0.054 0.134,0.101 0.033,0.047 0.049,0.103 0.046,0.159 -0.002,0.057 -0.024,0.111 -0.06,0.155 -0.584,0.716 -1.312,1.533 -2.09,2.106 -12.641,9.285 -28.683,14.958 -43.825,18.248 -13.995,3.045 -28.159,4.734 -42.4916,5.067 -14.814,0.345 -31.6117,0.161 -48.5817,-2.445 z"
       fill="#ffffff"
       id="path26" />
    <path
       d="m 205.931,538.694 c -14.964,15.147 -34.979,25.005 -55.827,28.478 -2.701,0.452 -2.729,0.324 -0.084,-0.384 14.67,-3.923 28.634,-10.604 41.892,-20.042 1.922,-1.371 5.434,-3.875 10.535,-7.513 1.449,-1.03 2.819,-1.826 4.112,-2.389 0.042,-0.019 0.088,-0.025 0.133,-0.019 0.045,0.007 0.087,0.026 0.121,0.056 0.035,0.03 0.06,0.069 0.073,0.112 0.013,0.044 0.013,0.09 0.001,0.134 -0.148,0.552 -0.467,1.074 -0.956,1.567 z"
       fill="#ffffff"
       id="path27" />
  </g>
  <defs
     id="defs27">
    <clipPath
       id="clip0_137_17675">
      <rect
         width="569"
         height="569"
         fill="#ffffff"
         transform="translate(-125,0.5)"
         id="rect27"
         x="0"
         y="0" />
    </clipPath>
  </defs>
</svg>
