<?xml version="1.0" encoding="UTF-8" standalone="no"?>
<!-- Created with Inkscape (http://www.inkscape.org/) -->

<svg
   width="800"
   height="300"
   viewBox="0 0 800 300.00001"
   version="1.1"
   id="svg1"
   xml:space="preserve"
   inkscape:version="1.3 (0e150ed6c4, 2023-07-21)"
   sodipodi:docname="hyundai-logo-white.svg"
   xmlns:inkscape="http://www.inkscape.org/namespaces/inkscape"
   xmlns:sodipodi="http://sodipodi.sourceforge.net/DTD/sodipodi-0.dtd"
   xmlns="http://www.w3.org/2000/svg"
   xmlns:svg="http://www.w3.org/2000/svg"><sodipodi:namedview
     id="namedview1"
     pagecolor="#ffffff"
     bordercolor="#000000"
     borderopacity="0.25"
     inkscape:showpageshadow="2"
     inkscape:pageopacity="0.0"
     inkscape:pagecheckerboard="0"
     inkscape:deskcolor="#d1d1d1"
     inkscape:document-units="mm"
     inkscape:zoom="0.51719742"
     inkscape:cx="474.67368"
     inkscape:cy="93.774637"
     inkscape:window-width="1920"
     inkscape:window-height="1017"
     inkscape:window-x="-8"
     inkscape:window-y="-8"
     inkscape:window-maximized="1"
     inkscape:current-layer="layer1" /><defs
     id="defs1" /><g
     inkscape:label="Layer 1"
     inkscape:groupmode="layer"
     id="layer1"><path
       style="fill:#ffffff;stroke-width:0.213011"
       d="m 101.09749,200.89327 c -0.41005,-0.0966 -2.42301,-0.2358 -4.47324,-0.30917 -3.843578,-0.1375 -6.251626,-0.32756 -11.396089,-0.89948 -1.640178,-0.18234 -3.436245,-0.36976 -3.991223,-0.41648 -0.555001,-0.0466 -1.32184,-0.1409 -1.704109,-0.20934 -0.382248,-0.0684 -1.365976,-0.2075 -2.186069,-0.30906 -5.467993,-0.67713 -16.103505,-3.08937 -23.056014,-5.22931 -3.18771,-0.98115 -6.627753,-2.12025 -7.404562,-2.45189 -0.234312,-0.10002 -1.307973,-0.51585 -2.385894,-0.92406 -5.640872,-2.13618 -12.273482,-5.50723 -17.245948,-8.76529 -1.035255,-0.67832 -1.930199,-1.29386 -1.988776,-1.36787 -0.05858,-0.074 -0.585781,-0.46512 -1.171561,-0.86914 -0.58578,-0.40402 -1.112983,-0.78533 -1.171561,-0.84735 -0.05857,-0.062 -0.9692,-0.84265 -2.023605,-1.73474 C 15.047171,171.6093 10.828361,166.16446 8.3672736,160.38667 4.88776,152.218 6.083327,142.31189 11.552023,133.99908 c 0.733715,-1.11532 1.699103,-2.4774 2.145254,-3.02683 1.837305,-2.26249 2.987651,-3.53685 3.793386,-4.20236 0.468624,-0.38706 1.475101,-1.26256 2.236616,-1.94556 1.701958,-1.52646 2.172947,-1.92312 2.769143,-2.33211 0.256167,-0.17573 0.639588,-0.4633 0.852044,-0.63903 0.212458,-0.17574 0.595876,-0.46329 0.852066,-0.63904 0.256166,-0.17573 0.768352,-0.54349 1.138161,-0.81722 3.693249,-2.7337 10.519292,-6.59332 15.909792,-8.99574 3.614287,-1.61081 10.031946,-3.98455 12.667063,-4.68523 0.351468,-0.0934 1.981002,-0.5619 3.621187,-1.041 4.64807,-1.35771 17.049786,-4.01701 19.384003,-4.15649 0.234312,-0.0141 0.617733,-0.0889 0.852044,-0.16642 0.234313,-0.0775 0.905297,-0.19727 1.491077,-0.26612 0.585781,-0.0688 1.783968,-0.2136 2.662638,-0.32173 13.203061,-1.624548 22.918983,-2.082564 32.377673,-1.526308 4.75058,0.279387 10.58238,0.783218 13.84572,1.196188 1.23014,0.15569 2.3804,0.2826 2.55612,0.28207 0.60077,-0.002 2.23585,0.25544 2.95924,0.46564 0.39744,0.11549 0.7968,0.16412 0.8875,0.10808 0.0907,-0.056 0.6282,-0.0115 1.19448,0.0991 0.56628,0.11058 2.17986,0.40739 3.58574,0.65959 4.64569,0.83343 12.0961,2.61942 16.47175,3.94854 4.44575,1.35043 9.73169,3.15811 11.4327,3.90977 0.23431,0.10354 0.90529,0.40175 1.49107,0.66271 0.58578,0.26096 1.40054,0.59507 1.81059,0.74247 0.41005,0.14741 1.60824,0.67384 2.66264,1.1699 1.0544,0.49604 2.34845,1.10478 2.87565,1.35272 0.52721,0.24798 1.00647,0.50203 1.06506,0.56457 0.0586,0.0625 0.34614,0.22799 0.63903,0.36764 0.29289,0.13967 1.10766,0.58908 1.81059,0.99872 0.70294,0.40961 1.56564,0.9057 1.9171,1.10238 1.08364,0.60637 4.83137,3.10704 5.2007,3.47016 0.19215,0.18889 0.74196,0.60039 1.22179,0.91441 0.47984,0.31404 1.11407,0.79332 1.4094,1.06506 0.29531,0.27176 0.94681,0.82961 1.44774,1.23966 1.22974,1.00662 5.45157,5.22344 6.37668,6.36911 0.41004,0.50782 0.84572,1.03185 0.96815,1.16453 1.40718,1.52493 4.2981,6.57123 5.26349,9.18773 1.34089,3.63428 1.64976,5.44626 1.64976,9.67794 0,4.28277 -0.47338,6.62279 -2.16757,10.7145 -0.89159,2.1533 -3.08535,6.06299 -3.79673,6.76645 -0.0593,0.0586 -0.38309,0.51246 -0.71967,1.00865 -1.12556,1.65928 -5.02953,5.6432 -8.04174,8.20641 -2.7347,2.32709 -7.96108,5.8735 -11.36813,7.71395 -2.63098,1.42123 -7.79439,3.94608 -8.06988,3.94608 -0.0651,0 -0.62451,0.22905 -1.24304,0.50899 -1.0152,0.45948 -1.97486,0.85698 -4.21329,1.74517 -3.86739,1.53456 -15.58415,5.0698 -19.38399,5.84864 -0.52721,0.10806 -1.62954,0.34618 -2.44963,0.52915 -4.30654,0.96079 -9.93518,1.95895 -12.14162,2.15318 -0.58579,0.0515 -1.78398,0.19075 -2.66264,0.30932 -0.87868,0.11857 -2.07687,0.25791 -2.66264,0.30965 -0.58579,0.0517 -1.97569,0.18676 -3.08867,0.30006 -1.11297,0.11333 -3.749,0.30781 -5.8578,0.43222 -2.10881,0.1244 -4.50518,0.27317 -5.32528,0.33063 -3.00209,0.21025 -10.03229,0.28451 -10.75705,0.11363 z m 7.46296,-8.96104 c 3.03891,-0.90369 5.67674,-2.54995 8.25679,-5.15301 2.58176,-2.60475 3.66983,-4.23884 6.28351,-9.43666 2.72283,-5.41487 3.55807,-8.32273 3.55807,-12.38742 0,-3.27835 -0.22337,-3.93531 -1.90476,-5.60239 -1.67043,-1.6562 -3.0248,-2.25067 -5.89487,-2.58745 -5.20538,-0.61085 -11.80224,0.64959 -22.931318,4.38133 -6.510684,2.18315 -8.498028,2.86562 -8.995622,3.0892 -0.234312,0.10527 -0.809442,0.31359 -1.278066,0.46291 -0.468625,0.14934 -0.947893,0.3347 -1.065049,0.41192 -0.117156,0.0772 -0.740213,0.31065 -1.384572,0.51874 -1.58346,0.51136 -6.325937,2.4426 -9.265979,3.77328 -2.449498,1.10866 -8.780059,4.37378 -10.028559,5.17245 -0.639545,0.4091 -1.249438,0.74382 -1.355326,0.74382 -0.105908,0 -0.46349,0.22157 -0.794658,0.49234 -0.331169,0.27078 -1.050656,0.75011 -1.598861,1.0652 -0.548205,0.3151 -1.125933,0.69263 -1.283817,0.83899 -0.432966,0.40134 -1.625083,1.22466 -1.773253,1.22466 -0.07167,0 -0.252099,0.11983 -0.400908,0.26626 -0.148809,0.14645 -0.588485,0.50591 -0.97706,0.7988 -0.388576,0.29289 -0.828272,0.65234 -0.977082,0.79879 -0.14881,0.14644 -0.349296,0.27121 -0.445534,0.27725 -0.303072,0.0189 -1.559539,1.72175 -1.559539,2.11342 0,0.85692 0.822649,1.45154 2.930648,2.11829 1.801819,0.56992 5.395591,1.53866 6.746294,1.81851 0.242577,0.0503 0.75261,0.18611 1.133368,0.3019 0.380757,0.11578 0.692286,0.17162 0.692286,0.12412 0,-0.0476 0.251736,0.009 0.55943,0.12633 0.307695,0.11699 2.440468,0.58979 4.739495,1.05069 10.467958,2.09852 19.371568,3.19982 29.315362,3.62609 5.59109,0.23966 7.77801,0.1431 9.69958,-0.42836 z m 32.68962,-3.20412 c 0.93725,-0.1234 2.42299,-0.36201 3.30166,-0.53023 2.45228,-0.4695 2.82633,-0.53885 3.51469,-0.65165 0.35147,-0.0576 0.87867,-0.19313 1.17156,-0.30118 0.29289,-0.10805 1.28923,-0.3902 2.21409,-0.62704 2.0555,-0.52634 12.31541,-3.94489 13.09383,-4.3628 0.30877,-0.16578 1.32824,-0.60333 2.26549,-0.97234 2.27867,-0.89717 9.90501,-4.68913 9.90501,-4.92497 0,-0.1028 0.10985,-0.18691 0.24408,-0.18691 0.2594,0 4.28642,-2.43648 4.71888,-2.85506 0.1407,-0.1362 0.5913,-0.48094 1.00135,-0.76612 0.41005,-0.28518 0.8788,-0.64809 1.04169,-0.80646 0.16289,-0.15837 0.51848,-0.43362 0.79023,-0.61167 1.46534,-0.96014 5.6254,-5.10207 6.51502,-6.48665 0.19644,-0.30574 0.48572,-0.68917 0.64284,-0.85204 1.00981,-1.04684 2.93118,-4.60311 3.84272,-7.1125 1.01079,-2.78263 1.12044,-3.47028 1.10393,-6.92285 -0.0141,-2.95558 -0.0763,-3.49993 -0.59277,-5.19288 -0.63002,-2.06505 -1.88836,-4.80392 -2.89891,-6.30973 -0.35381,-0.52719 -0.76377,-1.15025 -0.91103,-1.38456 -0.14725,-0.23431 -0.31815,-0.47396 -0.37975,-0.53254 -0.0616,-0.0586 -0.44503,-0.53563 -0.85205,-1.06012 -0.9271,-1.19468 -5.16962,-5.45253 -6.20983,-6.23228 -0.42743,-0.32041 -0.90527,-0.70699 -1.06185,-0.85905 -0.15658,-0.15207 -0.62019,-0.50838 -1.03024,-0.79176 -0.41005,-0.2834 -0.79347,-0.57901 -0.85204,-0.65695 -0.20733,-0.27588 -2.4829,-1.6531 -3.28531,-1.98838 -1.12336,-0.46936 -1.92221,-0.42564 -2.54283,0.13921 -0.28963,0.2636 -1.26284,2.10881 -2.16266,4.10046 -1.59134,3.52218 -7.54383,15.65582 -7.78513,15.86932 -0.0662,0.0586 -0.81465,1.43207 -1.6632,3.05224 -2.04965,3.91346 -3.03055,5.74207 -3.21893,6.00073 -0.0853,0.11715 -0.49308,0.83606 -0.90613,1.59758 -0.41305,0.76152 -0.95172,1.72007 -1.19705,2.13011 -0.24531,0.41005 -0.65187,1.12896 -0.90345,1.59758 -0.54646,1.01792 -1.68548,2.90534 -2.85518,4.73126 -0.46863,0.73152 -1.13961,1.80963 -1.49108,2.39582 -0.35147,0.58617 -0.71093,1.06761 -0.79879,1.06982 -0.0878,0.002 -0.15976,0.1097 -0.15976,0.23885 0,0.22225 -2.34876,3.85867 -3.08154,4.77094 -0.1882,0.23431 -1.27329,1.73037 -2.41128,3.32458 -1.13799,1.59425 -2.35664,3.27058 -2.7081,3.72523 -1.57379,2.03581 -4.3212,5.42337 -5.4253,6.6894 -1.38476,1.58785 -1.58559,1.99494 -1.24961,2.53293 0.2581,0.41326 0.22489,0.41314 3.26673,0.0126 z M 35.138371,175.41949 c 0.556171,-0.26968 0.890301,-0.78976 1.949306,-3.03396 2.835795,-6.00959 10.459694,-21.08387 12.736994,-25.18403 6.799078,-12.24144 13.096131,-21.73656 20.448334,-30.83334 1.15993,-1.43517 2.19559,-2.60939 2.301478,-2.60939 0.105887,0 0.19254,-0.11364 0.19254,-0.25255 0,-0.13888 0.184596,-0.4504 0.410216,-0.69228 0.225643,-0.24186 0.472395,-0.69031 0.548355,-0.99655 0.244388,-0.9852 -0.801624,-1.0749 -4.686263,-0.40184 -1.288717,0.22327 -2.670562,0.46259 -3.070746,0.5318 -0.400185,0.0692 -0.796385,0.16835 -0.880439,0.22029 -0.08405,0.0519 -0.523474,0.14923 -0.976463,0.21616 -0.453011,0.067 -1.015361,0.18217 -1.249672,0.25606 -0.234313,0.0738 -0.521877,0.15369 -0.639033,0.17736 -2.21361,0.44728 -10.721101,3.0685 -11.819023,3.64153 -0.294594,0.15376 -0.661634,0.28012 -0.815662,0.28086 -0.335109,0.002 -1.851131,0.6214 -4.250571,1.73785 -0.968796,0.45077 -1.847189,0.81959 -1.95199,0.81959 -0.10478,0 -0.749948,0.27838 -1.433693,0.61861 -2.806079,1.39631 -3.643426,1.82317 -4.807402,2.45074 -0.671603,0.36208 -1.845827,0.99156 -2.609386,1.39884 -0.763559,0.40728 -1.388278,0.81466 -1.388278,0.9053 0,0.0906 -0.09818,0.1648 -0.218144,0.1648 -0.28552,0 -2.237425,1.30655 -4.727951,3.16475 -4.599184,3.4315 -9.142752,8.58942 -10.816081,12.27856 -0.26569,0.58578 -0.757958,1.66653 -1.093918,2.4017 -0.33594,0.73516 -0.61081,1.46598 -0.61081,1.62405 0,0.15808 -0.143037,0.69278 -0.317855,1.18827 -1.338136,3.7927 -0.550846,10.02129 1.820797,14.40493 2.013018,3.72079 5.460112,7.8053 9.00928,10.67524 0.837603,0.67728 1.633922,1.33562 1.769652,1.46295 0.13571,0.12737 0.758768,0.55106 1.384572,0.94158 0.625805,0.39051 1.765394,1.11428 2.532425,1.60836 1.235101,0.7956 1.769248,1.04733 2.407387,1.13453 0.09946,0.0136 0.482874,-0.12175 0.852044,-0.30077 z m 67.556699,-32.8805 c 2.70229,-0.57997 4.39198,-1.01464 9.26598,-2.38375 2.08273,-0.58502 8.23231,-2.53606 9.05297,-2.87215 0.35146,-0.14395 1.64551,-0.62156 2.87564,-1.06136 2.24831,-0.80383 6.76792,-2.51465 7.56191,-2.86243 0.2343,-0.10263 1.24078,-0.53722 2.23661,-0.96575 3.01735,-1.29845 3.2421,-1.40038 4.97717,-2.25741 0.92152,-0.45516 1.8002,-0.82756 1.95259,-0.82756 0.15241,0 0.30907,-0.0866 0.34811,-0.1924 0.0391,-0.10582 0.74199,-0.52149 1.56209,-0.92372 1.27615,-0.62594 2.44139,-1.24697 4.47323,-2.38409 0.2343,-0.13112 0.8315,-0.49956 1.32708,-0.81875 0.49559,-0.31916 0.93891,-0.5803 0.98516,-0.5803 0.13043,0 6.1027,-4.01615 7.06024,-4.74778 1.89874,-1.45077 2.44963,-2.10969 2.44963,-2.93001 0,-0.70664 -0.0892,-0.82258 -1.0118,-1.31535 -1.25598,-0.67081 -3.74665,-1.45722 -7.29563,-2.3036 -0.41005,-0.0978 -1.17689,-0.28794 -1.70409,-0.42257 -0.5272,-0.1346 -1.24612,-0.28296 -1.59759,-0.32966 -0.35146,-0.0466 -1.21416,-0.22824 -1.91708,-0.40345 -1.23497,-0.30779 -7.70959,-1.54074 -10.54406,-2.00787 -8.72631,-1.43812 -16.96778,-2.141 -25.45482,-2.17091 -5.25176,-0.0185 -6.06601,0.0934 -8.49489,1.16756 -5.234852,2.31511 -10.426364,8.68597 -13.816084,16.95473 -1.850937,4.51507 -2.460606,7.61115 -2.073528,10.52998 0.401607,3.02835 1.549647,4.69235 4.03223,5.84444 2.759474,1.28058 8.49921,1.39086 13.748932,0.26416 z m 144.95401,7.43166 v -39.8379 l 8.57369,0.0556 8.57369,0.0557 0.0546,15.60305 0.0546,15.60306 h 19.06172 19.06172 l 0.0546,-15.60306 0.0546,-15.60305 8.57369,-0.0557 c 5.67431,-0.0368 8.57388,0.0172 8.57425,0.15976 2.1e-4,0.1185 0,17.94861 0,39.62248 0,21.67387 -2.2e-4,39.50397 0,39.62246 0,0.14256 -2.89994,0.19661 -8.57425,0.15975 l -8.57369,-0.0556 -0.0546,-16.13559 -0.0545,-16.13558 h -19.06181 -19.0618 l -0.0545,16.13558 -0.0546,16.13559 -8.57368,0.0556 -8.5737,0.0556 z m 114.97704,25.38867 c -0.0499,-12.50309 -0.10062,-14.49329 -0.37711,-14.77647 -0.17574,-0.17999 -0.55915,-0.72736 -0.85205,-1.21639 -0.29288,-0.48903 -0.7481,-1.14966 -1.01154,-1.46803 -0.26345,-0.31841 -0.47913,-0.64971 -0.47927,-0.73624 -1.6e-4,-0.0865 -0.13908,-0.32616 -0.30873,-0.53252 -0.16966,-0.20637 -2.65729,-3.92183 -5.52808,-8.25661 -2.87077,-4.33477 -5.29758,-7.97726 -5.39291,-8.09441 -0.0953,-0.11716 -0.50531,-0.74023 -0.91105,-1.38458 -0.40577,-0.64435 -0.85956,-1.29824 -1.00848,-1.45305 -0.14889,-0.1548 -0.27071,-0.35558 -0.27071,-0.44613 0,-0.0906 -0.23953,-0.44317 -0.53227,-0.78358 -0.29274,-0.3404 -0.53238,-0.73074 -0.53253,-0.86743 -1.4e-4,-0.13669 -0.0761,-0.28047 -0.16873,-0.31951 -0.23071,-0.0973 -1.53562,-2.06724 -1.53562,-2.31831 0,-0.11127 -0.0797,-0.20231 -0.17701,-0.20231 -0.0974,0 -0.31303,-0.26227 -0.47927,-0.58281 -0.16625,-0.32054 -0.41623,-0.72792 -0.55551,-0.90529 -0.13926,-0.17738 -2.21962,-3.294 -4.62298,-6.92585 -2.40334,-3.63183 -4.56465,-6.84297 -4.80291,-7.13586 -0.23825,-0.2929 -0.43446,-0.65234 -0.43603,-0.7988 -0.002,-0.14644 -0.0922,-0.26626 -0.20151,-0.26626 -0.10928,0 -0.25933,-0.19115 -0.33348,-0.42477 -0.0741,-0.23362 -0.25037,-0.54515 -0.39159,-0.69228 -0.14122,-0.14715 -0.58825,-0.79472 -0.99337,-1.43908 -0.40515,-0.64437 -0.85844,-1.29824 -1.00735,-1.45306 -0.1489,-0.1548 -0.27072,-0.36363 -0.27072,-0.46404 0,-0.10042 -0.1568,-0.33937 -0.34842,-0.53102 -0.2189,-0.21887 -0.27355,-0.42329 -0.14705,-0.54979 0.12251,-0.12253 4.23856,-0.17973 10.5085,-0.14609 l 10.30709,0.0553 1.76158,2.66264 c 0.96889,1.46445 1.83972,2.7585 1.93517,2.87565 0.0955,0.11716 0.86384,1.26742 1.70749,2.55613 0.84363,1.28871 1.63392,2.4869 1.75616,2.66263 0.12226,0.17574 2.22574,3.33895 4.6744,7.02937 2.44867,3.69041 4.55492,6.82562 4.68056,6.96713 0.12564,0.14147 0.22844,0.32415 0.22844,0.40591 0,0.0817 0.23963,0.46281 0.53252,0.84682 0.2929,0.384 0.53254,0.76776 0.53254,0.85279 0,0.0851 0.38341,0.66244 0.85204,1.28313 0.46862,0.62071 0.85205,1.18467 0.85205,1.25328 0,0.0686 0.38341,0.64374 0.85204,1.27811 0.46862,0.63435 0.85204,1.25895 0.85204,1.38805 0,0.55616 0.49942,-0.14712 4.99432,-7.03284 0.80303,-1.23014 1.54147,-2.26857 1.64103,-2.30763 0.0995,-0.0391 0.181,-0.16716 0.181,-0.2847 0,-0.11751 0.27534,-0.61276 0.61189,-1.10056 0.33654,-0.48778 1.93265,-2.89981 3.54692,-5.36008 1.61426,-2.46029 3.72183,-5.67142 4.68347,-7.13588 0.96166,-1.46444 2.58523,-3.95667 3.60798,-5.53828 1.02273,-1.58161 2.01306,-2.99547 2.20073,-3.14191 0.2621,-0.20455 2.70196,-0.26626 10.52502,-0.26626 8.77954,0 10.18382,0.0428 10.18382,0.31054 0,0.34513 -3.14639,5.29292 -3.43729,5.40525 -0.10114,0.0391 -0.1839,0.15519 -0.1839,0.25808 0,0.25046 -3.00322,4.76378 -3.23001,4.85418 -0.098,0.0391 -0.17817,0.16717 -0.17817,0.28469 0,0.11753 -0.27318,0.61279 -0.60708,1.10056 -0.33391,0.48777 -2.37877,3.57082 -4.54416,6.85118 -2.16541,3.28038 -6.99649,10.56535 -10.73576,16.18884 -3.73927,5.62349 -6.84747,10.32039 -6.90711,10.43754 -0.0596,0.11716 -0.84976,1.33918 -1.75585,2.71562 l -1.64739,2.5026 -0.0547,14.32526 -0.0547,14.32527 -8.56935,0.0556 -8.56935,0.0557 z m 59.31922,14.30331 c -0.21166,-0.0854 -0.26626,-8.22265 -0.26626,-39.68696 0,-35.89482 0.0313,-39.59154 0.33694,-39.70879 0.18533,-0.0711 4.11537,-0.12929 8.73345,-0.12929 h 8.39651 v 32.05816 32.05815 l 16.3486,-0.002 c 10.28483,0 16.63414,-0.0805 17.11846,-0.21506 1.01246,-0.28123 1.79289,-1.02894 2.13702,-2.0475 0.22233,-0.65805 0.30123,-6.98663 0.39,-31.2855 l 0.1113,-30.46059 h 8.62694 8.62694 l 0.0281,31.41913 c 0.0155,17.28052 -0.0492,32.47354 -0.1436,33.76224 -0.37623,5.13419 -1.65325,9.02233 -3.60569,10.97841 -1.05969,1.06167 -3.52634,2.35556 -5.22529,2.74096 -0.58578,0.13288 -2.02361,0.33302 -3.19516,0.44475 -2.16383,0.20636 -57.91511,0.27611 -58.41828,0.073 z m 87.59678,-0.12279 c -0.0545,-0.14775 -0.0758,-18.04976 -0.0476,-39.7822 l 0.0514,-39.51355 h 29.71503 c 33.21624,0 31.23093,-0.087 34.47675,1.51074 2.46984,1.21573 4.09141,3.14012 5.36824,6.37068 0.37883,0.95843 0.85282,3.5474 1.05298,5.75128 0.13026,1.43421 0.21287,14.62515 0.21297,34.00572 1.7e-4,28.67576 -0.0316,31.67478 -0.33676,31.7919 -0.18531,0.0711 -4.11347,0.1293 -8.72922,0.1293 h -8.39229 l -0.0611,-30.51384 c -0.0657,-32.72904 -0.0189,-31.40449 -1.15241,-32.75148 -1.23184,-1.46396 -0.12774,-1.37693 -18.33795,-1.44543 l -16.45442,-0.0619 -0.054,32.33304 -0.054,32.33307 -8.57946,0.0556 c -6.75111,0.0439 -8.60053,-0.002 -8.67843,-0.21301 z m 87.75645,-0.003 c -0.0556,-0.14644 -0.0766,-18.04736 -0.0466,-39.77981 l 0.0546,-39.51354 27.26541,-0.0605 c 27.59421,-0.0613 29.87028,-0.0112 32.91021,0.72271 1.94383,0.46933 5.01566,2.00637 6.32655,3.1656 1.38055,1.22083 3.10295,3.7657 3.56212,5.26308 0.1912,0.62352 0.43611,1.42124 0.54426,1.77271 0.60411,1.96346 0.66253,4.82433 0.59601,29.18251 l -0.0681,24.92229 -0.47896,1.65606 c -1.2172,4.20827 -2.28647,6.19145 -4.4638,8.27899 -2.53206,2.42765 -5.37457,3.76998 -9.20651,4.34762 -2.81115,0.42379 -56.83504,0.46389 -56.99532,0.0423 z m 48.36896,-15.51593 c 2.45737,-0.45427 4.28735,-1.82247 4.94105,-3.69429 0.34979,-1.0016 0.37687,-2.4707 0.37687,-20.46308 0,-18.44801 -0.0193,-19.43975 -0.40203,-20.53878 -0.43675,-1.25461 -1.73494,-2.82621 -2.78211,-3.36798 -1.70219,-0.88069 -2.16376,-0.90384 -18.06372,-0.90649 l -15.28353,-0.003 v 24.60302 24.60276 h 14.97814 c 9.90839,0 15.40368,-0.0786 16.23533,-0.23238 z m 39.98474,-17.39427 c 0.0571,-30.14255 0.0955,-33.32412 0.42069,-34.79133 1.26891,-5.72573 4.10161,-8.9832 9.21878,-10.60102 3.17946,-1.00521 2.68145,-0.9908 34.18827,-0.9908 h 29.71504 v 39.72655 39.72657 l -8.5737,0.0556 c -6.786,0.044 -8.57446,0 -8.57733,-0.21301 -0.002,-0.14779 0,-5.27711 0.003,-11.39852 l 0.007,-11.12982 h -19.49409 -19.49409 v 11.26679 c 0,10.07736 -0.0356,11.28045 -0.33695,11.39609 -0.18531,0.0711 -4.11769,0.12929 -8.73859,0.12929 h -8.40167 z m 56.26078,-5.8578 c 0.0705,-0.2636 0.1056,-6.13472 0.0781,-13.04693 l -0.05,-12.56765 h -17.0409 c -15.93666,0 -17.12307,0.0254 -18.30941,0.39143 -1.49909,0.46257 -2.70014,1.54401 -3.11915,2.80856 -0.21376,0.64503 -0.29772,3.47799 -0.35189,11.87055 l -0.0712,11.0233 h 19.36816 19.36815 z m 34.31479,38.768 c -0.0556,-0.14644 -0.0767,-18.04736 -0.0466,-39.77981 l 0.0546,-39.51354 8.20092,-0.0593 c 4.51051,-0.0326 8.41661,-0.007 8.68021,0.0573 l 0.47927,0.11661 v 39.59321 c 0,35.90731 -0.0314,39.60524 -0.33694,39.72249 -0.18532,0.0711 -4.07045,0.12931 -8.63363,0.12931 -6.44137,0 -8.31934,-0.0595 -8.39792,-0.26628 z"
       id="path1" /></g></svg>
