<svg width="32" height="24" viewBox="0 0 32 24" fill="none" xmlns="http://www.w3.org/2000/svg">
<g id="JCB_logo 1" clip-path="url(#clip0_114_10343)">
<g id="g6321">
<g id="g6323">
<path id="path6325" d="M31.4464 19.1001C31.4464 21.7438 29.2937 23.8964 26.6501 23.8964H0.553711V4.90006C0.553711 2.25643 2.70638 0.10376 5.35001 0.10376H31.4464V19.1001Z" fill="white"/>
<g id="g6327">
<path id="path6338" d="M22.949 14.2283H24.9317C24.9883 14.2283 25.1205 14.2094 25.1772 14.2094C25.5548 14.1339 25.8759 13.794 25.8759 13.3219C25.8759 12.8687 25.5548 12.5288 25.1772 12.4344C25.1205 12.4155 25.0072 12.4155 24.9317 12.4155H22.949V14.2283Z" fill="url(#paint0_linear_114_10343)"/>
<path id="path6349" d="M24.7051 1.70874C22.8168 1.70874 21.2684 3.23827 21.2684 5.14546V8.71436H26.1213C26.2346 8.71436 26.3668 8.71436 26.4612 8.73324C27.5565 8.78989 28.3684 9.35638 28.3684 10.3383C28.3684 11.1125 27.8208 11.7734 26.8011 11.9056V11.9434C27.9152 12.0189 28.765 12.642 28.765 13.6051C28.765 14.6436 27.8208 15.3234 26.5745 15.3234H21.2495V22.3102H26.2913C28.1796 22.3102 29.728 20.7806 29.728 18.8734V1.70874H24.7051Z" fill="url(#paint1_linear_114_10343)"/>
<path id="path6360" d="M25.6304 10.565C25.6304 10.1118 25.3094 9.80966 24.9317 9.75301C24.8939 9.75301 24.7995 9.73413 24.7429 9.73413H22.949V11.3958H24.7429C24.7995 11.3958 24.9128 11.3958 24.9317 11.377C25.3094 11.3203 25.6304 11.0182 25.6304 10.565Z" fill="url(#paint2_linear_114_10343)"/>
</g>
<path id="path6371" d="M5.70878 1.70874C3.82047 1.70874 2.27206 3.23827 2.27206 5.14546V13.624C3.23509 14.096 4.2359 14.3982 5.2367 14.3982C6.42633 14.3982 7.06836 13.6806 7.06836 12.6987V8.69548H10.0141V12.6798C10.0141 14.2282 9.05108 15.4934 5.78431 15.4934C3.80159 15.4934 2.25317 15.0591 2.25317 15.0591V22.2913H7.29495C9.18326 22.2913 10.7317 20.7618 10.7317 18.8546V1.70874H5.70878Z" fill="url(#paint3_linear_114_10343)"/>
<path id="path6384" d="M15.207 1.70874C13.3187 1.70874 11.7703 3.23827 11.7703 5.14546V9.63963C12.6389 8.90319 14.1495 8.43111 16.5854 8.54441C17.8884 8.60106 19.2857 8.95984 19.2857 8.95984V10.4138C18.5871 10.0551 17.7562 9.73404 16.6799 9.65851C14.8293 9.52633 13.7152 10.4327 13.7152 12.0189C13.7152 13.624 14.8293 14.5303 16.6799 14.3793C17.7562 14.3037 18.5871 13.9639 19.2857 13.624V15.078C19.2857 15.078 17.9073 15.4367 16.5854 15.4934C14.1495 15.6067 12.6389 15.1346 11.7703 14.3982V22.3291H16.812C18.7003 22.3291 20.2488 20.7995 20.2488 18.8923V1.70874H15.207Z" fill="url(#paint4_linear_114_10343)"/>
</g>
</g>
</g>
<defs>
<linearGradient id="paint0_linear_114_10343" x1="21.2652" y1="13.3242" x2="29.7508" y2="13.3242" gradientUnits="userSpaceOnUse">
<stop stop-color="#007940"/>
<stop offset="0.2285" stop-color="#00873F"/>
<stop offset="0.7433" stop-color="#40A737"/>
<stop offset="1" stop-color="#5CB531"/>
</linearGradient>
<linearGradient id="paint1_linear_114_10343" x1="21.265" y1="12.0012" x2="29.7512" y2="12.0012" gradientUnits="userSpaceOnUse">
<stop stop-color="#007940"/>
<stop offset="0.2285" stop-color="#00873F"/>
<stop offset="0.7433" stop-color="#40A737"/>
<stop offset="1" stop-color="#5CB531"/>
</linearGradient>
<linearGradient id="paint2_linear_114_10343" x1="21.265" y1="10.5626" x2="29.7509" y2="10.5626" gradientUnits="userSpaceOnUse">
<stop stop-color="#007940"/>
<stop offset="0.2285" stop-color="#00873F"/>
<stop offset="0.7433" stop-color="#40A737"/>
<stop offset="1" stop-color="#5CB531"/>
</linearGradient>
<linearGradient id="paint3_linear_114_10343" x1="2.26806" y1="12.0012" x2="10.885" y2="12.0012" gradientUnits="userSpaceOnUse">
<stop stop-color="#1F286F"/>
<stop offset="0.4751" stop-color="#004E94"/>
<stop offset="0.8261" stop-color="#0066B1"/>
<stop offset="1" stop-color="#006FBC"/>
</linearGradient>
<linearGradient id="paint4_linear_114_10343" x1="11.7214" y1="12.0012" x2="20.0905" y2="12.0012" gradientUnits="userSpaceOnUse">
<stop stop-color="#6C2C2F"/>
<stop offset="0.1735" stop-color="#882730"/>
<stop offset="0.5731" stop-color="#BE1833"/>
<stop offset="0.8585" stop-color="#DC0436"/>
<stop offset="1" stop-color="#E60039"/>
</linearGradient>
<clipPath id="clip0_114_10343">
<rect width="31.1" height="24" fill="white" transform="translate(0.449951)"/>
</clipPath>
</defs>
</svg>
