<?xml version="1.0" encoding="UTF-8" standalone="no"?>
<!-- Created with Inkscape (http://www.inkscape.org/) -->

<svg
   width="512"
   height="512"
   viewBox="0 0 512 512"
   version="1.1"
   id="svg1"
   xml:space="preserve"
   inkscape:version="1.3 (0e150ed6c4, 2023-07-21)"
   sodipodi:docname="jib-logo.svg"
   xmlns:inkscape="http://www.inkscape.org/namespaces/inkscape"
   xmlns:sodipodi="http://sodipodi.sourceforge.net/DTD/sodipodi-0.dtd"
   xmlns="http://www.w3.org/2000/svg"
   xmlns:svg="http://www.w3.org/2000/svg"><sodipodi:namedview
     id="namedview1"
     pagecolor="#ffffff"
     bordercolor="#000000"
     borderopacity="0.25"
     inkscape:showpageshadow="2"
     inkscape:pageopacity="0.0"
     inkscape:pagecheckerboard="0"
     inkscape:deskcolor="#d1d1d1"
     inkscape:document-units="px"
     inkscape:zoom="0.56692839"
     inkscape:cx="53.798682"
     inkscape:cy="191.3822"
     inkscape:window-width="1920"
     inkscape:window-height="1017"
     inkscape:window-x="-8"
     inkscape:window-y="-8"
     inkscape:window-maximized="1"
     inkscape:current-layer="layer1" /><defs
     id="defs1" /><g
     inkscape:label="Layer 1"
     inkscape:groupmode="layer"
     id="layer1"><path
       style="fill:#050505;stroke:none;stroke-width:1.17948"
       d="m 187.42451,150.07244 c -4.31081,1.23916 -6.41616,4.67359 -4.00624,8.75692 2.79597,4.73743 7.63417,7.68128 9.70616,12.97342 6.33086,16.16972 1.31519,40.98672 -0.66801,57.79468 -0.47533,4.02853 -2.78679,21.55411 4.38211,20.68101 7.27736,-0.88631 9.06094,-19.78047 10.46519,-25.39894 4.01323,-16.05705 12.50445,-40.16759 8.78151,-56.6152 -2.5373,-11.20956 -16.86127,-21.58368 -28.66072,-18.19189 m -63.71485,46.49949 -2.35806,27.12812 -29.487989,34.20501 c 11.170169,-1.44249 20.065919,-5.18061 28.307599,-13.02164 4.3668,-4.15451 10.48379,-14.08849 16.55918,-15.36969 9.5553,-2.01501 17.73138,10.09874 25.90222,12.88331 4.0199,1.36994 13.60098,0.54226 12.93064,-5.72723 -0.62547,-5.84973 -10.8455,-9.27557 -15.28961,-11.49905 -13.72247,-6.86564 -21.47206,-10.32752 -18.69699,-27.39659 2.53351,-15.58331 36.34724,3.14613 31.67131,-22.43293 -18.958,0 -37.82057,5.10845 -56.6152,7.57744 -5.41632,0.71152 -16.13999,-0.65482 -20.500798,3.06612 -4.177325,3.56438 2.068096,10.19757 5.185708,11.96502 6.14567,3.48407 15.78855,-0.85238 22.39199,-1.37789 M 248.7349,175.97465 c -18.38213,4.2196 -12.5701,32.62247 5.89741,28.22388 17.35121,-4.1327 11.57926,-32.23562 -5.89741,-28.22388 m 55.4357,0.12379 c -18.42185,1.5613 -16.08343,29.88099 2.35898,28.58791 18.37125,-1.2881 15.65363,-30.11454 -2.35898,-28.58791 m 62.51263,58.21696 c 0,-19.61229 6.3764,-49.89837 -20.05123,-54.8842 -4.12703,-0.77861 -10.20141,-1.41545 -13.97814,0.83911 -3.04161,1.81573 -3.71036,5.02697 -1.80016,7.97699 2.86367,4.4225 8.29628,4.04617 11.74568,7.51918 5.33477,5.37131 4.78975,15.09226 5.71266,22.03615 3.05135,22.95818 0.6804,47.60838 0.67893,70.76899 -4.4e-4,6.78414 -3.81381,19.58866 0.21115,25.43717 3.4503,5.01349 16.78986,4.24037 22.19903,4.00351 34.80301,-1.52397 67.08592,-44.88063 36.51302,-74.13726 -11.33024,-10.84244 -26.77939,-9.55964 -41.23094,-9.55964 m -123.8412,-13.52493 c -4.06701,0.99632 -8.84507,4.0727 -5.39868,8.55945 3.94405,5.13465 12.41376,4.15713 15.49801,9.8536 3.74474,6.91635 2.86995,19.25856 2.87043,26.95793 0.001,20.52659 0.14975,40.98725 -2.86315,61.33313 -1.0408,7.02837 -2.1904,20.57839 -11.2952,21.69393 -7.61261,0.93273 -20.13577,-7.36594 -26.38913,0.0301 -6.42195,7.5954 27.92331,14.06365 33.47059,13.30105 15.21766,-2.09205 18.87745,-18.77953 21.62932,-31.48656 6.49003,-29.96837 6.05226,-62.74523 -3.00695,-91.99971 -1.35778,-4.3846 2.60706,-9.84542 0.19383,-13.54858 -3.4895,-5.35472 -19.19207,-6.04582 -24.70907,-4.69427 m 73.12341,105.52462 c 7.50564,-20.04167 4.00913,-54.35893 1.51621,-75.48693 -0.80594,-6.83058 1.00197,-14.56395 -1.01203,-21.17974 -2.52838,-8.30543 -20.48937,-11.54531 -27.25186,-6.91672 -7.04371,4.82107 11.44718,18.58275 12.97065,24.55801 6.15454,24.1387 -9.86294,61.97212 13.77703,79.02538 m 48.35881,-20.05121 2.35898,-57.79469 c 9.54114,0.0263 25.18031,-0.69007 32.39666,6.5263 23.19408,23.19414 -12.87078,51.2539 -34.75564,51.26839 M 180.32486,287.39219 h -27.12812 c -0.78538,-6.21443 -0.33903,-14.66211 -4.36755,-19.79912 -4.19237,-5.346 -18.59169,-9.86928 -22.97625,-2.3426 -3.75693,6.44927 9.94381,13.07718 10.70272,19.7873 1.38959,12.28645 -4.38144,28.806 0.89826,40.07602 5.14829,10.98954 42.70392,14.48454 51.81262,7.26621 4.17012,-3.30466 4.59747,-10.62269 5.15296,-15.50073 1.5113,-13.27149 6.55653,-38.77805 -0.95287,-50.66682 -2.99282,-4.73817 -19.84581,-13.61043 -19.86919,-2.38718 -0.0161,7.71888 6.72149,14.62158 6.72742,23.56692 m -1.17948,15.33328 c 0.21399,4.98399 2.7132,11.87064 -0.71169,16.18422 -4.79598,6.0404 -20.82241,5.19385 -25.02581,-1.316 -3.01628,-4.67132 -0.13745,-11.21013 0.96834,-16.04772 z"
       id="path1" /></g></svg>
