<?xml version="1.0" encoding="UTF-8" standalone="no"?>
<!-- Created with Inkscape (http://www.inkscape.org/) -->

<svg
   width="256"
   height="256"
   viewBox="0 0 67.733332 67.733333"
   version="1.1"
   id="svg1"
   xml:space="preserve"
   inkscape:version="1.3 (0e150ed6c4, 2023-07-21)"
   sodipodi:docname="jj-logo.svg"
   xmlns:inkscape="http://www.inkscape.org/namespaces/inkscape"
   xmlns:sodipodi="http://sodipodi.sourceforge.net/DTD/sodipodi-0.dtd"
   xmlns="http://www.w3.org/2000/svg"
   xmlns:svg="http://www.w3.org/2000/svg"><sodipodi:namedview
     id="namedview1"
     pagecolor="#ffffff"
     bordercolor="#000000"
     borderopacity="0.25"
     inkscape:showpageshadow="2"
     inkscape:pageopacity="0.0"
     inkscape:pagecheckerboard="0"
     inkscape:deskcolor="#d1d1d1"
     inkscape:document-units="mm"
     inkscape:zoom="0.73139029"
     inkscape:cx="397.18876"
     inkscape:cy="451.87912"
     inkscape:window-width="1920"
     inkscape:window-height="1017"
     inkscape:window-x="-8"
     inkscape:window-y="-8"
     inkscape:window-maximized="1"
     inkscape:current-layer="layer1" /><defs
     id="defs1" /><g
     inkscape:label="Layer 1"
     inkscape:groupmode="layer"
     id="layer1"><rect
       style="fill:#ffffff;stroke-width:0.264583"
       id="rect1"
       width="67.73333"
       height="67.73333"
       x="1.7801921e-06"
       y="1.7801921e-06" /><path
       style="fill:#e32637;stroke-width:0.426666;fill-opacity:1"
       d="M 2.25e-7,33.866664 V 1.2499999e-7 H 33.866667 67.733333 V 33.866664 67.733333 H 33.866667 2.25e-7 Z M 18.803512,53.7417 c 0.673706,-0.29549 1.887509,-1.487539 2.590515,-2.544097 1.875794,-2.819138 2.658202,-6.202261 2.663569,-11.517201 0.0013,-1.313181 -0.0576,-3.025958 -0.130961,-3.806173 -0.170061,-1.808726 -0.0396,-2.295927 0.854208,-3.189722 0.828502,-0.828497 2.392857,-1.895436 3.423688,-2.335052 0.779495,-0.332429 0.975386,-0.369054 1.995226,-0.373039 1.054631,-0.0043 1.181679,0.02057 1.884642,0.366468 1.177699,0.579473 2.036104,1.536448 2.277021,2.538483 0.110674,0.460297 -0.123306,0.484027 -0.9577,0.09712 -1.303709,-0.604523 -1.873898,-0.739038 -3.149495,-0.742998 -1.001143,-0.003 -1.272827,0.03648 -1.748373,0.254818 -1.697685,0.779418 -1.852092,2.054118 -0.439173,3.625621 0.806392,0.896904 1.285368,1.024273 3.856892,1.025612 1.995947,8.71e-4 2.144756,0.01617 2.698624,0.274032 0.459674,0.21402 0.639591,0.378244 0.833609,0.760896 0.539315,1.063667 0.929199,0.861538 1.337425,-0.693363 0.119104,-0.453654 0.284049,-0.889656 0.366549,-0.968896 0.261385,-0.251056 3.108241,-0.983108 4.417851,-1.136031 l 0.655406,-0.07653 0.868593,0.910345 c 0.702714,0.736485 1.307791,1.215458 2.26027,1.789196 0.02033,0.01225 -0.368533,0.750703 -0.86418,1.64099 -1.392998,2.502122 -2.166615,4.467349 -2.859146,7.263146 -0.345344,1.394157 -0.375634,4.310232 -0.05436,5.232569 0.277105,0.795525 0.982446,1.531868 1.634361,1.706199 1.971773,0.527268 4.266992,-1.791344 5.704514,-5.762679 1.073352,-2.965264 1.241662,-5.338457 0.902799,-12.729889 l -0.07425,-1.619571 2.036142,-2.049314 c 1.119878,-1.127125 2.094147,-2.163618 2.165044,-2.303317 0.163901,-0.322969 -0.01889,-0.705553 -0.337091,-0.705553 -0.255022,0 -0.714752,0.394231 -2.680986,2.299024 -0.787384,0.762783 -1.430389,1.302145 -1.484206,1.244967 -0.234859,-0.249523 -0.567997,-6.614054 -0.56662,-10.825325 10e-4,-3.0178 0.114975,-4.43944 0.457866,-5.710215 0.127171,-0.4713 0.215189,-1.081105 0.195605,-1.355125 -0.03215,-0.44978 -0.06593,-0.501702 -0.347464,-0.534071 -0.591175,-0.06798 -2.318996,0.885724 -3.865037,2.133375 -2.749547,2.218868 -4.550712,5.103322 -5.3165,8.514035 -0.244122,1.087287 -0.333018,3.76177 -0.163926,4.931904 0.193712,1.340531 0.52006,2.505817 0.969353,3.461281 0.214564,0.456299 0.36139,0.876126 0.326272,0.93295 -0.325028,0.525896 -3.541538,1.254762 -3.851738,0.872806 -0.06782,-0.08351 -0.211866,-0.55328 -0.320106,-1.043942 -0.456849,-2.070968 -1.791053,-3.845427 -3.507593,-4.665003 l -0.892211,-0.425996 -1.467554,0.009 c -1.279735,0.0079 -1.579443,0.04744 -2.34182,0.309103 -1.106838,0.379896 -2.769651,1.216973 -4.149291,2.088802 l -1.072443,0.6777 -0.07682,-0.69565 c -0.375766,-3.402825 -0.476728,-5.239257 -0.481989,-8.767208 -0.0058,-3.885635 0.07324,-4.86656 0.561792,-6.973161 0.319509,-1.377707 0.165611,-1.615087 -0.821696,-1.267395 -2.210095,0.778312 -4.947276,3.01738 -6.462732,5.286645 -1.009733,1.511984 -1.914002,3.695261 -2.252092,5.437467 -0.324911,1.674304 -0.321485,4.145664 0.008,5.756877 0.462152,2.260096 1.65544,4.555583 3.164872,6.08817 0.577092,0.585941 1.754573,1.520917 2.031765,1.613312 0.0827,0.02756 -0.03781,0.334941 -0.324595,0.828074 -3.165197,5.442227 -4.400866,10.948305 -3.07034,13.681233 0.659059,1.353718 1.665007,1.745413 2.990033,1.164257 z M 17.84262,51.290208 c -0.919198,-1.168568 -0.706167,-4.456087 0.507242,-7.82799 0.618663,-1.719173 2.719732,-5.84733 2.88687,-5.672094 0.21769,0.228241 0.491776,3.82065 0.493048,6.462319 0.0017,3.104375 -0.135458,4.100647 -0.744487,5.41578 -0.649984,1.403551 -1.282778,1.921997 -2.345936,1.921997 -0.472538,0 -0.597872,-0.04721 -0.796737,-0.300012 z m 26.104944,0.04603 C 43.587372,50.940779 43.49535,50.69613 43.353311,49.756333 42.962968,47.173689 44.309994,42.705337 46.747016,38.498775 l 0.488392,-0.843021 0.08079,0.391463 c 0.381445,1.848349 0.585538,7.743163 0.322319,9.309686 -0.323569,1.925687 -0.911401,3.196614 -1.786184,3.861825 -0.408755,0.31083 -0.585318,0.371512 -1.080985,0.371512 -0.470574,0 -0.640026,-0.05225 -0.823788,-0.254003 z M 19.25539,36.452004 c -1.684143,-1.819077 -2.547836,-5.115093 -2.547836,-9.723033 0,-3.804474 0.946851,-6.90263 2.845428,-9.310448 0.790557,-1.002603 2.623317,-2.391855 2.852753,-2.16242 0.0311,0.03111 -0.166409,0.611719 -0.438942,1.290233 -1.711262,4.260455 -2.101355,8.016819 -1.476314,14.216029 0.155848,1.545754 0.333269,3.117875 0.394257,3.493602 0.18944,1.167015 0.15613,1.34383 -0.40413,2.145289 -0.284202,0.406554 -0.532732,0.739187 -0.552285,0.739187 -0.01954,0 -0.322372,-0.309799 -0.672931,-0.688439 z m 26.050326,0.09577 c -0.5918,-0.626406 -1.266534,-1.736081 -1.564887,-2.573632 -0.286439,-0.8041 -0.699075,-2.562999 -0.859443,-3.663474 -0.200663,-1.37694 -0.200141,-5.514761 10e-4,-6.547557 0.633917,-3.257839 1.582822,-5.247427 3.340385,-7.003843 0.96106,-0.960427 1.984394,-1.666352 2.160425,-1.490321 0.04326,0.04324 -0.180393,0.727516 -0.496952,1.520613 -1.825828,4.574293 -2.080395,8.451071 -1.087995,16.569107 l 0.2622,2.144888 -0.529024,0.816985 c -0.290964,0.449344 -0.559759,0.817643 -0.59732,0.818444 -0.03753,8.71e-4 -0.320256,-0.265241 -0.628218,-0.59121 z M 32.030135,35.668669 c -1.089442,-0.183261 -2.054839,-0.866521 -1.978487,-1.400277 0.08318,-0.581517 1.278524,-0.764608 2.184648,-0.334626 0.458368,0.21751 1.359122,0.991667 1.533974,1.318379 0.255096,0.47665 -0.420847,0.638446 -1.740135,0.416524 z"
       id="path1" /></g></svg>
