<?xml version="1.0" encoding="UTF-8" standalone="no"?>
<!-- Created with Inkscape (http://www.inkscape.org/) -->

<svg
   width="800"
   height="300"
   viewBox="0 0 800 300.00001"
   version="1.1"
   id="svg1"
   xml:space="preserve"
   inkscape:version="1.3 (0e150ed6c4, 2023-07-21)"
   sodipodi:docname="jj-logo-white.svg"
   xmlns:inkscape="http://www.inkscape.org/namespaces/inkscape"
   xmlns:sodipodi="http://sodipodi.sourceforge.net/DTD/sodipodi-0.dtd"
   xmlns="http://www.w3.org/2000/svg"
   xmlns:svg="http://www.w3.org/2000/svg"><sodipodi:namedview
     id="namedview1"
     pagecolor="#ffffff"
     bordercolor="#000000"
     borderopacity="0.25"
     inkscape:showpageshadow="2"
     inkscape:pageopacity="0.0"
     inkscape:pagecheckerboard="0"
     inkscape:deskcolor="#d1d1d1"
     inkscape:document-units="mm"
     inkscape:zoom="0.3657138"
     inkscape:cx="567.38357"
     inkscape:cy="447.07091"
     inkscape:window-width="1920"
     inkscape:window-height="1017"
     inkscape:window-x="-8"
     inkscape:window-y="-8"
     inkscape:window-maximized="1"
     inkscape:current-layer="layer1" /><defs
     id="defs1" /><g
     inkscape:label="Layer 1"
     inkscape:groupmode="layer"
     id="layer1"><path
       style="fill:#000000;stroke-width:0.651363"
       d="m 19.732949,219.59338 c -5.475762,-3.83536 -6.201211,-17.89304 -1.644855,-31.87374 1.963762,-6.02561 5.71945,-14.41318 8.233587,-18.38806 0.958526,-1.51545 1.742774,-3.03688 1.742774,-3.38097 0,-0.34409 -1.989478,-2.77128 -4.421061,-5.39374 C 13.181364,149.27356 9.1588444,139.5764 9.1862414,125.70477 9.2018114,117.82693 10.58322,111.89973 14.012594,104.99654 19.112311,94.731023 26.825322,86.820147 36.36069,82.075147 c 5.362737,-2.6686 10.971617,-3.62552 11.603224,-1.97958 0.209264,0.54533 -0.256011,4.31934 -1.033934,8.3867 -2.01903,10.556446 -2.407458,26.542233 -0.997784,41.064323 0.601957,6.2012 1.224601,11.6651 1.383664,12.14201 0.186531,0.55928 1.965716,-0.67097 5.011724,-3.46542 12.499706,-11.46743 26.175628,-19.19507 28.193128,-15.93067 0.23326,0.37742 -0.62289,2.03008 -1.90255,3.67259 -3.570302,4.58263 -5.113186,9.31428 -5.162937,15.83345 -0.04827,6.32341 1.232672,10.04691 4.622367,13.43661 3.55111,3.5511 9.65565,4.10143 13.99034,1.26122 2.79046,-1.82837 5.041,-7.10518 5.041,-11.81954 v -4.03091 l -3.52501,-0.44043 c -7.42823,-0.92809 -12.1077,-5.03206 -12.1077,-10.61863 0,-2.42949 0.35928,-3.25922 2.21463,-5.11458 1.80533,-1.80532 2.71301,-2.21463 4.91117,-2.21463 5.0354,0 10.55276,4.36556 12.549878,9.92999 0.54001,1.50458 0.91569,1.72759 2.3704,1.40706 3.46824,-0.76417 6.35527,-1.77806 9.38218,-3.29491 l 3.09398,-1.55046 v -10.76397 c 0,-15.42563 1.91982,-23.746093 7.1711,-31.079423 4.12272,-5.75732 9.70581,-7.75639 14.12941,-5.05916 4.06765,2.48018 5.46069,8.33995 4.10581,17.270836 -1.38174,9.107977 -4.68635,16.786537 -10.79648,25.086557 l -2.91588,3.96093 0.17813,11.14074 0.17812,11.14075 3.53754,-6.44096 c 11.05801,-20.13382 15.19658,-24.3713 21.15222,-21.65773 3.21341,1.46413 3.64453,3.71887 3.64453,19.06055 0,7.73779 0.22023,14.06871 0.48939,14.06871 0.50046,0 5.96919,-8.32066 14.97105,-22.77845 6.49484,-10.43127 9.68351,-12.66651 14.76591,-10.35081 3.08889,1.40739 3.64183,3.90873 3.67354,16.61794 0.0337,13.5008 -0.49619,13.43013 6.5878,0.87861 6.30017,-11.16272 8.9609,-15.0214 11.55485,-16.75715 4.28844,-2.86965 9.12845,-1.20576 10.46225,3.59668 0.36859,1.32714 0.68234,8.71491 0.69722,16.41728 l 0.027,14.00431 1.63578,-1.95409 c 4.09668,-4.89386 16.03859,-25.30353 18.17396,-31.06072 1.12657,-3.03736 2.52665,-4.33344 3.31071,-3.06478 0.22623,0.36604 2.16759,4.23699 4.31414,8.60211 2.14655,4.36512 3.99428,8.03036 4.10606,8.14496 0.11178,0.1146 2.93347,-1.86447 6.27043,-4.39794 9.57389,-7.26865 19.48016,-11.76883 25.90683,-11.76883 2.63928,0 2.639,1.31442 -10e-4,4.64769 -4.44958,5.61805 -6.33573,15.58523 -4.19606,22.17375 2.14776,6.61344 5.8687,9.80521 11.43086,9.80521 7.11651,0 11.72454,-5.70043 11.72454,-14.504 v -3.73748 l -4.46795,-0.25246 c -6.42783,-0.3632 -10.03057,-3.00772 -11.20765,-8.22675 -1.70682,-7.56783 6.14817,-11.9658 13.12166,-7.34676 1.65792,1.09816 3.70947,3.30416 4.83405,5.19798 1.07456,1.80958 2.14495,3.29596 2.37864,3.30307 0.23369,0.007 3.01827,-1.90049 6.18795,-4.23912 9.1189,-6.72801 13.54424,-8.23955 17.01194,-5.81067 2.75356,1.92866 3.06594,3.3893 3.40579,15.92498 l 0.32667,12.05022 4.53563,-8.61223 c 8.19721,-15.56479 12.22035,-20.37343 17.04541,-20.37343 1.48019,0 2.85149,0.6057 4.30037,1.89945 l 2.1272,1.89945 0.16724,14.54747 c 0.17521,15.24046 0.37413,17.4786 1.5535,17.4786 0.39538,0 2.56386,-1.92854 4.81885,-4.28566 3.64068,-3.80556 4.25196,-4.20432 5.45667,-3.55958 0.74618,0.39934 1.35669,1.15857 1.35669,1.68717 0,1.40495 -6.74568,12.05705 -8.90233,14.05768 -2.63961,2.44863 -4.32342,3.17356 -7.37128,3.17356 -3.48891,0 -6.22191,-1.45949 -7.64391,-4.08205 -0.95524,-1.76172 -1.19657,-4.44791 -1.47659,-16.43589 l -0.33473,-14.32998 -2.1535,3.25681 c -1.18443,1.79125 -5.0629,9.02038 -8.61883,16.06473 -3.91589,7.75745 -7.14671,13.3439 -8.19331,14.16715 -2.3139,1.82011 -6.1484,1.81499 -7.80213,-0.0104 -1.13433,-1.25209 -1.2688,-2.8309 -1.56652,-18.39294 -0.36287,-18.96685 -0.33535,-18.87232 -4.59235,-15.77643 -1.23583,0.89875 -3.60541,2.44121 -5.26574,3.42767 l -3.01877,1.79357 0.31996,3.5972 c 0.70985,7.98026 -2.80809,17.64776 -7.95732,21.86716 -5.61482,4.60093 -13.90225,6.14204 -20.65536,3.84102 -11.02147,-3.75539 -16.51627,-20.07721 -10.97575,-32.60248 0.73646,-1.66488 1.33901,-3.12909 1.33901,-3.25381 0,-1.25222 -8.76185,4.48735 -14.20659,9.30622 l -2.80774,2.48499 1.06341,2.93114 c 1.34447,3.70579 1.43391,10.6957 0.17503,13.67862 -2.28239,5.40812 -6.48299,8.46772 -11.62557,8.46772 -2.19245,0 -3.10215,-0.41064 -4.90615,-2.21463 -1.94323,-1.94324 -2.21463,-2.62429 -2.21463,-5.55751 0,-3.92437 1.10858,-6.85378 4.24665,-11.22174 l 2.28156,-3.17578 -1.25902,-2.43095 c -2.83807,-5.47979 -2.51418,-5.61032 -8.01612,3.23076 -6.83919,10.98993 -12.47825,18.53507 -15.00331,20.07463 -2.93984,1.79246 -6.48014,1.68098 -8.75648,-0.27573 l -1.82757,-1.57095 -0.19574,-15.69017 c -0.10965,-8.7885 -0.45515,-15.69017 -0.78547,-15.69017 -0.78733,0 -4.44398,6.36133 -11.69786,20.35028 -3.29601,6.35629 -6.74076,12.14528 -7.65501,12.86442 -2.05856,1.61926 -6.17208,1.74772 -7.43193,0.23208 -0.68121,-0.81951 -0.97147,-4.79854 -1.21964,-16.71917 -0.22169,-10.64853 -0.55729,-15.72064 -1.05101,-15.88463 -0.39893,-0.13251 -1.98021,1.89524 -3.51396,4.50611 -5.38324,9.16377 -17.62312,27.09658 -19.19952,28.12948 -0.87606,0.57402 -2.74955,1.04367 -4.1633,1.04367 -2.07069,0 -2.89834,-0.38965 -4.25678,-2.00406 l -1.68631,-2.00407 v -14.89293 c 0,-8.40393 -0.2621,-15.05492 -0.60156,-15.26472 -0.33085,-0.20448 -1.16259,0.43773 -1.84831,1.42713 -1.61229,2.3263 -8.90519,15.71077 -12.82064,23.52934 -1.67951,3.35374 -3.75377,6.79783 -4.60946,7.65352 -1.98276,1.98275 -5.62434,2.106 -7.47728,0.25306 -1.22846,-1.22845 -1.30272,-2.1712 -1.30272,-16.53704 v -15.23431 l -3.74534,1.54977 c -2.05994,0.85238 -4.84451,1.73646 -6.18795,1.96463 l -2.44261,0.41485 v 4.73335 c 0,8.9995 -3.975359,17.20646 -10.267498,21.19681 -3.89724,2.47156 -6.62724,3.20806 -11.87884,3.20468 -10.822648,-0.007 -18.780845,-8.6766 -19.395862,-21.12974 -0.142343,-2.88226 0.0271,-6.47897 0.376592,-7.9927 0.830696,-3.59811 0.349808,-3.33104 -7.792979,4.32799 l -6.294307,5.92036 0.335784,12.53602 c 0.489577,18.27767 -1.656976,30.04947 -7.86829,43.15007 -2.890788,6.09711 -8.103822,12.58928 -11.532577,14.36236 -2.425168,1.2541 -7.733197,1.21228 -9.571636,-0.0754 z m 12.156635,-9.75747 c 3.864856,-3.25206 6.915378,-12.34433 7.659684,-22.83015 0.396335,-5.5836 -0.562413,-18.8589 -1.649446,-22.83909 -0.492333,-1.80267 -0.601202,-1.70363 -4.238941,3.8563 -7.832523,11.97125 -11.057545,21.50713 -11.103498,32.83128 -0.02768,6.81989 0.06874,7.37711 1.549599,8.95624 2.094093,2.23306 5.147122,2.24303 7.782602,0.0254 z M 245.22433,161.61184 c 0.59376,-1.54732 0.4566,-6.98349 -0.20246,-8.02445 -0.43743,-0.69088 -0.90996,-0.26182 -1.94412,1.7653 -1.3373,2.62133 -1.79551,5.9917 -0.93199,6.85523 0.80517,0.80517 2.68017,0.44213 3.07857,-0.59608 z m -210.794782,-4.39683 2.026391,-2.8217 -1.28215,-7.43727 c -1.92141,-11.14535 -2.341708,-26.12748 -0.968648,-34.52874 1.024698,-6.26974 4.051523,-16.269057 7.425017,-24.529033 l 1.39664,-3.41966 h -1.491381 c -4.347542,0 -11.274455,7.12464 -15.515525,15.958393 -4.050873,8.43759 -5.288293,14.15713 -5.355025,24.75179 -0.08465,13.4382 2.003684,21.31409 8.160627,30.7769 1.456839,2.23906 2.857791,4.07102 3.113229,4.07102 0.255439,0 1.376311,-1.26976 2.490825,-2.8217 z M 94.832332,132.6856 c -1.92413,-3.72087 -6.28841,-5.16602 -6.71107,-2.22226 -0.23629,1.64572 1.12512,2.86616 3.94363,3.53526 3.74075,0.88805 3.87316,0.82523 2.76744,-1.313 z m 205.185228,0.1567 c -3.02083,-4.84073 -7.71692,-5.66622 -6.58532,-1.15758 0.41399,1.64949 2.75702,2.81254 5.83698,2.89741 l 1.86616,0.0514 z M 129.75379,116.24504 c 3.49277,-6.84641 4.6435,-11.57129 4.96624,-20.391427 0.26575,-7.262366 0.15896,-8.617506 -0.7377,-9.361666 -2.18311,-1.81182 -4.36116,1.96052 -5.5478,9.608666 -0.69604,4.486017 -1.01694,22.900227 -0.39909,22.900227 0.17184,0 0.9451,-1.24011 1.71835,-2.7558 z m 305.25034,103.0779 c -5.19351,-4.08519 -5.6804,-18.33763 -1.09735,-32.11928 1.82434,-5.48586 5.35785,-13.1582 8.71504,-18.92319 l 1.57656,-2.70717 -4.99087,-5.19066 -4.99087,-5.19065 -5.22459,-0.0203 c -2.87348,-0.0111 -7.01869,0.37817 -9.21157,0.86513 l -3.987,0.88538 -0.34183,3.76952 c -0.45954,5.06797 -1.66892,7.48698 -3.74319,7.48698 -1.328,0 -1.64984,-0.35181 -1.78753,-1.95409 -0.0923,-1.07475 -0.31904,-3.12654 -0.50377,-4.55954 l -0.33591,-2.60545 h -7.96395 c -9.59722,0 -14.25175,-1.1965 -18.06851,-4.64472 -3.1174,-2.81638 -3.91605,-5.85984 -2.38193,-9.07693 2.87592,-6.03084 15.6581,-6.34747 24.33751,-0.60288 l 3.38325,2.23924 -0.89595,-2.97682 c -0.49269,-1.63724 -1.65974,-4.13108 -2.59334,-5.54186 -0.9336,-1.41078 -1.52009,-2.85208 -1.30325,-3.20291 0.67214,-1.08756 5.37922,-3.22469 7.10247,-3.22469 1.169,0 1.93344,0.57209 2.67137,1.99908 1.30943,2.53216 2.90788,10.79821 2.90788,15.03756 0,2.8101 0.1545,3.19437 1.15636,2.8764 2.30563,-0.73178 11.02256,-1.60442 12.40794,-1.24215 1.382,0.36141 1.36819,0.26006 -0.51353,-3.77601 -3.3299,-7.14223 -4.2164,-11.66387 -4.19706,-21.40851 0.0156,-7.75095 0.2229,-9.41277 1.75106,-14.01803 4.10339,-12.366467 14.11452,-24.044243 25.35763,-29.579203 5.05894,-2.49052 10.703,-3.36254 11.32212,-1.74929 0.22759,0.59315 -0.24178,4.66355 -1.04309,9.04534 -2.03479,11.127373 -2.37122,23.995003 -1.01717,38.906643 0.60179,6.62761 1.24365,12.56086 1.42629,13.18498 0.26543,0.90684 1.59929,0.0139 6.64065,-4.44574 10.95989,-9.69509 22.36852,-16.35307 25.77892,-15.04437 1.50042,0.57575 1.35015,1.05225 -1.54829,4.9097 -3.22835,4.29649 -4.56918,8.68475 -4.56918,14.95386 0,6.26803 0.95412,9.31116 4.00654,12.77888 5.03953,5.72523 13.55812,5.09961 17.50434,-1.28555 1.48764,-2.40704 2.64362,-8.19118 2.15158,-10.7654 -0.28347,-1.48266 -0.77955,-1.74285 -4.55694,-2.38988 -7.71044,-1.32075 -11.86151,-5.65056 -11.07076,-11.54751 0.71683,-5.34531 6.36362,-7.78536 11.91773,-5.14977 2.69443,1.2786 6.46061,5.52702 7.53601,8.50101 0.43003,1.18913 0.96284,2.16205 1.18411,2.16205 1.21173,0 7.89511,-2.31056 10.50251,-3.63088 l 3.02448,-1.53151 0.30262,-12.56299 c 0.32914,-13.66408 1.18796,-18.332347 4.64787,-25.264563 6.11297,-12.24784 17.68327,-13.96465 20.65192,-3.06436 0.90604,3.3269 0.4013,11.605396 -1.04075,17.068653 -1.46537,5.55188 -5.63338,13.85877 -9.4561,18.84626 l -3.27284,4.27007 0.17828,11.23954 0.17822,11.23954 3.21369,-5.86227 c 4.8165,-8.78612 10.11912,-17.3559 12.02625,-19.4362 3.26684,-3.56341 6.44641,-4.46377 9.74308,-2.75899 3.05568,1.58016 3.35127,3.19245 3.35127,18.27922 0,7.82381 0.26399,14.09835 0.60192,14.3072 0.52259,0.32301 9.83304,-13.81363 17.23383,-26.16729 1.3349,-2.22833 3.17377,-4.63881 4.08632,-5.35662 2.2461,-1.76677 5.66035,-2.32529 8.08218,-1.32212 3.43047,1.42094 3.86662,3.21113 3.86662,15.87038 0,10.48113 0.49471,13.87804 1.59864,10.97738 0.74217,-1.95018 9.56162,-17.23121 12.23964,-21.20701 3.90765,-5.80143 8.48126,-7.80992 12.0663,-5.29888 2.85447,1.99933 3.06662,3.19394 3.40676,19.1818 l 0.32568,15.30703 2.39962,-3.25375 c 4.24665,-5.75833 10.43734,-16.06553 14.82277,-24.67928 2.34999,-4.61566 4.56573,-8.39475 4.92398,-8.39795 0.35825,-0.003 2.50781,3.77326 4.77684,8.39213 2.26895,4.61888 4.23053,8.50312 4.35898,8.63165 0.12845,0.12853 3.15631,-1.96803 6.72865,-4.65901 9.45336,-7.12114 19.06891,-11.50218 25.29581,-11.52534 2.8161,-0.0105 3.07815,0.73589 1.16972,3.33192 -0.88833,1.20831 -2.55849,4.10217 -3.7116,6.43079 -1.88335,3.80339 -2.09882,4.8299 -2.11927,10.09613 -0.0202,5.13448 0.20459,6.32529 1.8087,9.59188 1.00727,2.0513 2.71508,4.35885 3.79517,5.12791 4.61021,3.28278 10.24848,2.77786 14.30764,-1.28129 2.73963,-2.73964 3.83165,-5.96187 3.83679,-11.32157 l 0.007,-3.74534 h -3.50296 c -6.64429,0 -11.36622,-3.44731 -11.96196,-8.7331 -0.4198,-3.72439 0.75239,-6.66831 3.14843,-7.90738 4.51277,-2.33365 10.62999,-0.0503 14.16565,5.28755 1.09468,1.65269 2.09823,3.32844 2.23007,3.72391 0.29735,0.89215 3.92537,-1.24502 9.37611,-5.52318 6.34376,-4.9791 11.1654,-6.34342 14.40333,-4.07551 2.75624,1.93053 3.06792,3.38763 3.40676,15.92498 l 0.32568,12.05022 5.12102,-9.44476 c 9.89134,-18.2427 13.41195,-21.60451 19.64901,-18.76272 3.50401,1.59653 3.86988,3.37039 4.10509,19.9026 0.14864,10.44381 0.43778,15.14419 0.93158,15.14419 0.39388,0 2.56142,-1.9194 4.81676,-4.26533 3.59071,-3.73485 4.26474,-4.17755 5.41941,-3.55958 0.72529,0.38817 1.31868,1.16768 1.31868,1.73226 0,1.84399 -6.41443,11.69758 -9.41578,14.46413 -2.64095,2.43431 -3.26091,2.70169 -6.26467,2.70169 -1.97292,0 -4.10164,-0.45361 -5.21495,-1.11126 -3.43991,-2.03198 -3.8517,-3.95299 -3.90218,-18.20239 -0.0254,-7.11085 -0.27234,-13.50873 -0.54923,-14.21752 -0.44521,-1.13967 -0.71683,-0.95135 -2.34856,1.62841 -1.01482,1.60441 -4.89206,8.84774 -8.6161,16.09629 -3.88642,7.56467 -7.4824,13.73882 -8.44094,14.49283 -2.25672,1.77514 -6.1107,1.74712 -7.74419,-0.0563 -1.13428,-1.25235 -1.26879,-2.83134 -1.56653,-18.39314 -0.27637,-14.44682 -0.47354,-17.04962 -1.30272,-17.19792 -0.53738,-0.0961 -3.25161,1.37633 -6.03163,3.27209 l -5.05451,3.44684 -0.23423,6.49048 c -0.34906,9.67275 -3.68346,16.51823 -9.99575,20.52138 -4.14039,2.62577 -7.38183,3.40807 -12.86168,3.1041 -7.64942,-0.4243 -13.12438,-4.23343 -16.53212,-11.50204 -1.55226,-3.31092 -1.72481,-4.42821 -1.72481,-11.171 0,-6.75461 0.16656,-7.82862 1.69166,-10.91033 0.9304,-1.88001 1.51663,-3.4147 1.30272,-3.41044 -1.18183,0.0236 -8.46765,4.73268 -12.31558,7.95997 l -4.45193,3.73387 1.14959,4.40817 c 1.44127,5.52664 1.46902,6.93158 0.2197,11.13843 -1.78297,6.00402 -6.30174,9.87949 -11.51929,9.87949 -4.7302,0 -7.66797,-3.23976 -7.66797,-8.45629 0,-3.2901 1.25569,-6.37611 4.25919,-10.46769 l 2.31273,-3.15063 -1.64514,-3.24659 c -0.90488,-1.78562 -1.87059,-3.38364 -2.14611,-3.55116 -0.27547,-0.16753 -2.94547,3.56381 -5.93334,8.29184 -10.28954,16.28236 -14.21732,20.58052 -18.80715,20.58052 -6.02224,0 -6.70018,-2.0409 -6.70018,-20.17133 0,-8.48214 -0.24941,-14.35091 -0.60987,-14.35091 -0.77982,0 -5.68842,8.71007 -11.93004,21.1693 -5.61293,11.20434 -7.36255,13.35294 -10.87347,13.35294 -4.90085,0 -4.88118,0.0657 -5.24659,-17.53554 -0.20017,-9.64303 -0.57666,-15.75048 -0.97705,-15.84914 -0.35825,-0.0883 -1.5307,1.25064 -2.60545,2.97539 -7.49243,12.02383 -18.63478,28.431 -19.91849,29.33015 -2.29345,1.60642 -6.03611,1.38249 -8.21662,-0.49162 l -1.82759,-1.57075 -0.32568,-15.36709 c -0.20049,-9.45972 -0.57607,-15.41719 -0.97705,-15.49741 -0.74242,-0.14855 -5.28275,7.67749 -12.83478,22.12291 -2.85746,5.46565 -5.82032,10.3753 -6.58417,10.91033 -1.9808,1.38739 -5.40625,1.22503 -6.96125,-0.32996 -1.22847,-1.22845 -1.30272,-2.1712 -1.30272,-16.53704 v -15.23431 l -3.74534,1.54977 c -2.05994,0.85238 -4.81169,1.73122 -6.11506,1.95298 l -2.36973,0.40318 -0.26308,6.2792 c -0.20994,5.00958 -0.60466,7.01936 -1.9522,9.93986 -3.69518,8.00844 -9.86222,12.33662 -18.27152,12.82343 -6.24338,0.36142 -9.89687,-0.85448 -14.03843,-4.67205 -5.156,-4.75264 -7.75096,-12.11571 -7.12207,-20.20899 0.19782,-2.54667 0.58382,-5.20145 0.85771,-5.89951 0.47713,-1.21618 0.41811,-1.2122 -1.41261,0.0952 -1.05084,0.7504 -4.42236,3.71661 -7.4923,6.59158 l -5.58173,5.22721 0.29097,12.69773 c 0.30607,13.35517 -0.24179,19.49581 -2.55947,28.68698 -3.1253,12.39372 -9.31084,23.64904 -15.1679,27.59965 -3.86219,2.60508 -8.90413,2.96363 -11.62116,0.8264 z m 13.1662,-10.27116 c 6.0382,-6.07232 8.56132,-21.80422 6.27321,-39.11425 -0.48774,-3.68991 -1.03697,-6.85903 -1.22039,-7.0425 -0.65013,-0.65013 -7.86756,11.01885 -10.25337,16.5774 -3.97266,9.25579 -6.06054,20.38053 -4.943,26.33752 1.13774,6.06488 5.84149,7.56817 10.14355,3.24183 z m 212.7772,-47.19674 c 0.6952,-1.12486 0.51581,-6.65523 -0.26087,-8.04313 -0.57457,-1.02666 -0.82554,-0.83831 -2.03056,1.52367 -1.34474,2.63591 -1.80616,6.00689 -0.9407,6.87234 0.71136,0.71136 2.70922,0.49324 3.23213,-0.35288 z m -210.69141,-4.81133 1.89072,-2.61006 -1.4532,-8.43448 c -1.93936,-11.25645 -2.08273,-28.54551 -0.30496,-36.76878 1.17701,-5.44442 4.10808,-14.604097 6.82615,-21.332123 l 1.38154,-3.41966 h -1.50719 c -3.81327,0 -11.25151,7.41927 -15.14881,15.110176 -7.07674,13.965257 -7.74047,34.504907 -1.58503,49.049077 1.69797,4.01207 6.64351,11.47141 7.4314,11.20878 0.31826,-0.10608 1.42948,-1.3674 2.46938,-2.80293 z m -43.74977,-3.44484 c 0,-0.83068 -4.79064,-5.03591 -7.09373,-6.22689 -2.92241,-1.51125 -7.01629,-1.33918 -7.91098,0.33251 -0.94802,1.77138 0.6379,4.27797 3.49219,5.51953 2.27802,0.9909 11.51252,1.29158 11.51252,0.37485 z M 511.3758,133.91705 c 0,-0.39407 -1.01802,-1.7345 -2.26225,-2.97873 -2.55764,-2.5577 -5.09386,-2.78296 -5.42267,-0.48163 -0.23605,1.65219 1.12224,2.87212 3.94362,3.54191 3.08394,0.73213 3.7413,0.7178 3.7413,-0.0816 z m 204.22278,-1.19804 c -1.78897,-3.45946 -5.77459,-5.18473 -6.65817,-2.88215 -0.83394,2.17318 2.33234,4.76846 5.84025,4.78709 1.79138,0.01 1.79887,-0.008 0.81792,-1.90494 z M 547.01363,112.81289 c 2.53842,-6.00177 3.61304,-11.45803 3.69283,-18.750243 0.0612,-5.59673 -0.12193,-7.15125 -0.90025,-7.64292 -1.38584,-0.87548 -2.09973,-0.49589 -3.46557,1.84271 -1.88472,3.22715 -3.00083,11.329506 -3.02291,21.945003 -0.0202,9.68633 -0.0104,9.75362 1.14907,7.81636 0.64315,-1.07475 1.78923,-3.41966 2.54683,-5.21091 z"
       id="path1" /></g></svg>
