<?xml version="1.0" encoding="UTF-8" standalone="no"?>
<!-- Created with Inkscape (http://www.inkscape.org/) -->

<svg
   width="800"
   height="300"
   viewBox="0 0 800 300.00001"
   version="1.1"
   id="svg1"
   xml:space="preserve"
   inkscape:version="1.3 (0e150ed6c4, 2023-07-21)"
   sodipodi:docname="kino-logo-white.svg"
   xmlns:inkscape="http://www.inkscape.org/namespaces/inkscape"
   xmlns:sodipodi="http://sodipodi.sourceforge.net/DTD/sodipodi-0.dtd"
   xmlns="http://www.w3.org/2000/svg"
   xmlns:svg="http://www.w3.org/2000/svg"><sodipodi:namedview
     id="namedview1"
     pagecolor="#ffffff"
     bordercolor="#000000"
     borderopacity="0.25"
     inkscape:showpageshadow="2"
     inkscape:pageopacity="0.0"
     inkscape:pagecheckerboard="0"
     inkscape:deskcolor="#d1d1d1"
     inkscape:document-units="mm"
     inkscape:zoom="0.3657138"
     inkscape:cx="567.38357"
     inkscape:cy="447.07091"
     inkscape:window-width="1920"
     inkscape:window-height="1017"
     inkscape:window-x="-8"
     inkscape:window-y="-8"
     inkscape:window-maximized="1"
     inkscape:current-layer="layer1" /><defs
     id="defs1" /><g
     inkscape:label="Layer 1"
     inkscape:groupmode="layer"
     id="layer1"><path
       style="fill:#ffffff;stroke-width:0.779273"
       d="m 38.217284,283.30531 c -4.72878,-2.05977 -5.38934,-4.15492 -5.676513,-18.00458 -0.1727,-8.32889 0.153633,-15.64564 0.981692,-22.01058 5.63764,-43.33426 29.576315,-87.18054 64.930736,-118.9277 6.437621,-5.78077 9.546091,-9.1032 9.546091,-10.20311 0,-2.5037 -2.19623,-5.09493 -4.31827,-5.09493 -1.04064,0 -8.423057,2.63867 -16.405363,5.86369 -28.851611,11.65667 -52.901388,19.36916 -63.458153,20.35032 -3.980827,0.36997 -5.699756,0.18418 -7.656235,-0.82757 -3.1912,-1.65023 -5.565249,-5.49875 -5.565249,-9.0217 0,-5.02229 2.160369,-7.18421 12.391409,-12.4003 l 9.422401,-4.80383 V 66.149327 c 0,-46.425118 -0.04056,-46.01254 4.823562,-49.06541 3.194167,-2.00475 9.14625,-1.750388 11.633048,0.497144 0.899051,0.812548 11.307307,14.715249 23.129464,30.894899 11.82215,16.17965 21.716988,29.417546 21.988539,29.417546 0.271541,0 28.872087,-13.892376 63.556747,-30.87195 34.68466,-16.979573 64.32097,-31.045002 65.85846,-31.256504 7.18495,-0.988391 13.34544,7.679413 9.9574,14.010037 -0.48644,0.908913 -20.31609,28.27002 -44.06589,60.802458 -28.77092,39.410373 -42.95103,59.451463 -42.49097,60.053563 0.37976,0.49703 5.3711,7.39111 11.09184,15.32021 5.72075,7.92911 24.56943,33.83387 41.88596,57.56616 17.31652,23.73229 32.15354,44.24664 32.97113,45.58746 0.84697,1.389 1.48778,3.86768 1.48943,5.7612 0.004,4.60822 -3.65047,8.66204 -8.38078,9.29651 -3.02467,0.40569 -8.69908,-1.7367 -64.28952,-24.27275 -33.53463,-13.59474 -63.916647,-25.92173 -67.515594,-27.3933 -3.598948,-1.47157 -6.60632,-2.58101 -6.683051,-2.46543 -0.07674,0.11559 -8.528997,11.74579 -18.782822,25.8449 -10.7717,14.8112 -19.630393,26.24362 -20.981135,27.07682 -2.727954,1.68273 -6.048156,1.80735 -9.388364,0.35242 z M 709.93452,240.46322 c -22.78094,-6.04103 -38.21968,-23.27636 -43.72042,-48.80812 -1.09564,-5.08545 -1.40812,-9.75945 -1.35373,-20.24886 0.0633,-12.21265 0.28763,-14.43365 2.14707,-21.26057 5.64947,-20.74192 18.26488,-35.67774 36.27685,-42.94938 18.62879,-7.520666 43.22889,-5.06783 59.04675,5.88746 12.84225,8.89441 20.97171,20.99918 25.30018,37.67176 1.60366,6.1771 1.81438,8.73263 1.76692,21.43 -0.0483,13.00988 -0.25521,15.17691 -2.11743,22.20927 -5.22074,19.7156 -16.30325,34.13478 -32.09545,41.75835 -9.28172,4.48072 -14.02713,5.51719 -26.88487,5.87207 -10.06191,0.27772 -12.07338,0.10664 -18.36587,-1.56198 z m 26.33738,-25.09434 c 13.384,-9.37962 18.26626,-47.31661 9.19179,-71.4236 -5.19418,-13.79869 -14.73741,-19.72067 -24.80229,-15.39088 -9.94679,4.279 -15.3809,16.10474 -16.28922,35.44874 -1.19705,25.49276 5.30098,46.79898 16.05782,52.65155 4.31669,2.34863 11.48619,1.76672 15.8419,-1.28581 z m -431.61217,23.70193 c -0.91545,-0.44328 -2.05513,-1.66339 -2.53263,-2.71138 -0.62136,-1.36375 -0.86817,-26.45566 -0.86817,-88.26295 V 61.738964 l 1.69068,-2.149359 c 1.60527,-2.040775 1.94307,-2.129098 6.68667,-1.748322 12.89209,1.034851 25.72252,12.647495 30.76498,27.84495 1.49336,4.500819 1.72901,7.36652 2.1147,25.715997 l 0.43406,20.65073 22.08181,-29.02095 c 12.14498,-15.961539 23.65139,-30.402585 25.56979,-32.091223 4.85733,-4.275588 15.82412,-9.753627 23.39206,-11.684586 8.78444,-2.241352 19.87056,-2.274113 22.07943,-0.06522 1.82429,1.8243 1.91771,2.800152 0.52373,5.471086 -0.56387,1.0804 -13.46374,17.91269 -28.66639,37.405093 -15.20263,19.49242 -27.90233,35.8666 -28.22156,36.3871 -0.34608,0.56431 0.95119,3.08106 3.21344,6.23418 11.88643,16.56728 58.72252,87.11114 59.10489,89.02298 0.3538,1.76902 0.012,2.71332 -1.54561,4.271 l -1.99984,1.99983 h -17.28382 c -10.99367,0 -18.39703,-0.33351 -20.34263,-0.91642 -6.04794,-1.81201 -8.70199,-5.29348 -33.3582,-43.75772 -13.0723,-20.39309 -24.03083,-37.09435 -24.35228,-37.11392 -0.32145,-0.0195 -0.58446,17.64795 -0.58446,39.26114 v 39.29672 l -2.05328,1.6151 c -1.93195,1.51968 -3.00244,1.612 -18.11808,1.56236 -9.35612,-0.0307 -16.75989,-0.38929 -17.72929,-0.85868 z m 154.7419,-1.35617 -2.357,-2.357 0.25583,-46.58707 c 0.28218,-51.38459 0.17546,-50.18298 5.41781,-61.00361 3.30543,-6.82265 11.04645,-14.54662 17.77339,-17.73424 8.64395,-4.09601 13.75652,-4.28153 15.45185,-0.56068 0.67374,1.47867 0.90834,18.27432 0.89555,64.11387 -0.0168,60.02464 -0.0676,62.17575 -1.51268,64.05851 l -1.49534,1.94818 -16.0362,0.23952 -16.03621,0.23952 z m 68.90938,1.35617 c -0.91545,-0.44328 -2.05513,-1.66339 -2.53263,-2.71138 -0.61218,-1.34361 -0.86817,-18.33266 -0.86817,-57.61782 0,-53.61087 0.057,-55.82421 1.51263,-58.67737 1.88716,-3.69915 6.26054,-7.5957 10.6249,-9.46648 5.20169,-2.22971 20.70966,-5.46884 32.28101,-6.74251 18.30154,-2.01447 35.08587,-0.41076 47.53563,4.54193 11.16868,4.44304 17.44999,9.68523 21.34187,17.81124 l 2.42595,5.06527 0.2157,52.72276 0.21569,52.72274 -2.07415,1.63153 c -1.94733,1.53177 -3.02277,1.63152 -17.58992,1.63152 -15.43453,0 -15.52581,-0.01 -17.42855,-1.91277 l -1.91277,-1.91276 -0.004,-48.54515 c -0.003,-31.773 -0.28956,-49.57225 -0.82988,-51.51802 -1.15785,-4.16967 -5.82171,-8.57634 -10.51939,-9.93929 -8.93512,-2.59236 -20.05873,-0.71405 -24.08113,4.06632 l -1.97035,2.34162 v 50.9459 c 0,35.6775 -0.2593,51.51501 -0.86521,52.84482 -0.47586,1.04441 -1.7197,2.28826 -2.76411,2.76412 -2.44397,1.11355 -30.39917,1.07405 -32.71277,-0.0462 z m -70.93744,-131.2319 c -0.76829,-2.00212 0.34265,-15.837158 1.68497,-20.983768 2.67602,-10.26017 8.44328,-18.325712 17.11476,-23.935105 5.44218,-3.520426 13.82684,-6.273542 18.04123,-5.923852 2.77832,0.230532 3.04136,0.475013 4.03841,3.75332 0.58658,1.928701 1.11008,6.838119 1.16334,10.909819 0.078,5.962605 -0.21547,8.085429 -1.50804,10.909818 -2.2661,4.951584 -3.75428,5.974481 -10.80493,7.42671 -9.54336,1.965651 -15.3114,5.168751 -22.7981,12.660198 -5.00423,5.00741 -6.55424,6.16637 -6.93164,5.18286 z"
       id="path1" /></g></svg>
