<?xml version="1.0" encoding="UTF-8" standalone="no"?>
<svg
   height="20"
   width="100"
   viewBox="-61.48365 -22.04525 44.404858 3.3067875"
   version="1.1"
   id="svg1"
   sodipodi:docname="lazada-logo-white.svg"
   inkscape:version="1.3 (0e150ed6c4, 2023-07-21)"
   xml:space="preserve"
   xmlns:inkscape="http://www.inkscape.org/namespaces/inkscape"
   xmlns:sodipodi="http://sodipodi.sourceforge.net/DTD/sodipodi-0.dtd"
   xmlns="http://www.w3.org/2000/svg"
   xmlns:svg="http://www.w3.org/2000/svg"><defs
     id="defs1" /><sodipodi:namedview
     id="namedview1"
     pagecolor="#ffffff"
     bordercolor="#000000"
     borderopacity="0.25"
     inkscape:showpageshadow="2"
     inkscape:pageopacity="0.0"
     inkscape:pagecheckerboard="0"
     inkscape:deskcolor="#d1d1d1"
     inkscape:zoom="10.286047"
     inkscape:cx="52.449692"
     inkscape:cy="7.2428213"
     inkscape:window-width="1920"
     inkscape:window-height="1017"
     inkscape:window-x="-8"
     inkscape:window-y="-8"
     inkscape:window-maximized="1"
     inkscape:current-layer="svg1" /><g
     id="g18"
     transform="translate(2.605584)"
     style="fill:#ffffff"><g
       id="g16"
       transform="matrix(0.72255801,0,0,0.72255801,-12.333578,-6.3874644)"
       style="fill:#ffffff"><path
         style="fill:#ffffff;stroke-width:0.0601412"
         d="m -37.324721,-17.772608 c -0.01937,-0.03137 -0.03028,-0.209062 -0.02417,-0.394866 l 0.011,-0.337827 0.865802,-1.033489 c 0.4762,-0.56842 0.982992,-1.168808 1.126201,-1.334196 l 0.260388,-0.300706 -1.105529,-0.01637 -1.10554,-0.01636 v -0.45064 -0.450642 l 1.749578,0.01594 1.749579,0.01594 0.0126,0.383181 0.0126,0.383181 -1.100658,1.313125 c -0.605359,0.722221 -1.100659,1.327866 -1.100659,1.345881 0,0.018 0.500679,0.03276 1.112622,0.03276 h 1.112611 v 0.451058 0.45106 h -1.770616 c -1.051314,0 -1.784939,-0.02318 -1.805873,-0.05704 z"
         id="path16" /><path
         style="fill:#ffffff;stroke-width:0.0601412"
         d="m -45.535914,-20.692562 v -2.976992 h 0.511202 0.511203 v 2.465791 2.46579 h 0.902113 0.902123 v 0.511201 0.511201 h -1.413326 -1.413315 z"
         id="path15" /><path
         style="fill:#ffffff;stroke-width:0.0601412"
         d="m -21.780126,-17.71167 c -1.012136,-0.308993 -1.684143,-1.450221 -1.50437,-2.554791 0.175937,-1.080993 0.926368,-1.822276 1.910046,-1.886773 0.538089,-0.03528 0.907567,0.06109 1.2571,0.327899 l 0.261741,0.199789 v -0.240167 -0.240168 h 0.511194 0.511203 v 2.195155 2.195155 h -0.511203 -0.511194 v -0.243626 -0.243626 l -0.197171,0.150389 c -0.369525,0.281851 -0.703437,0.394651 -1.156012,0.390513 -0.231536,-0.0022 -0.488641,-0.0245 -0.571334,-0.04975 z m 1.435501,-1.044017 c 0.358588,-0.237301 0.549158,-0.644584 0.549158,-1.173651 0,-0.511907 -0.16674,-0.86396 -0.530547,-1.120211 -0.505259,-0.355888 -1.291191,-0.248904 -1.650654,0.224697 -0.508259,0.669622 -0.315103,1.762048 0.376964,2.132002 0.372319,0.19903 0.899236,0.172649 1.255079,-0.06284 z"
         id="path14" /><path
         style="fill:#ffffff;stroke-width:0.0601412"
         d="m -26.83199,-17.71167 c -0.32968,-0.100647 -0.648234,-0.307959 -0.920547,-0.599082 -1.032006,-1.103301 -0.729581,-2.980079 0.589767,-3.659881 0.220006,-0.11336 0.423666,-0.16232 0.758904,-0.182436 0.53397,-0.03204 0.772813,0.03258 1.195745,0.323505 l 0.300649,0.206807 v -1.206254 -1.206254 l 0.496165,0.01747 0.496165,0.01747 0.01561,3.14238 0.01561,3.142378 h -0.511728 -0.511739 v -0.243625 -0.243626 l -0.197171,0.150388 c -0.369527,0.281852 -0.703438,0.394652 -1.156004,0.390514 -0.231544,-0.0022 -0.48865,-0.0245 -0.571343,-0.04975 z m 1.361535,-1.024273 c 0.408479,-0.234279 0.623397,-0.638734 0.622532,-1.171557 -9.41e-4,-0.761726 -0.438611,-1.288024 -1.117201,-1.344297 -0.814992,-0.06759 -1.362373,0.475305 -1.362833,1.351659 -1.61e-4,0.387727 0.154598,0.814012 0.362162,0.997302 0.436964,0.385852 1.003361,0.449067 1.49534,0.166893 z"
         id="path13" /><path
         style="fill:#ffffff;stroke-width:0.0601412"
         d="m -31.941155,-17.725875 c -0.292635,-0.08398 -0.782772,-0.424981 -0.991662,-0.689911 -0.425613,-0.539772 -0.60392,-1.384366 -0.433071,-2.051264 0.130683,-0.51011 0.284285,-0.792436 0.606337,-1.114488 0.383839,-0.383841 0.737866,-0.539738 1.299532,-0.572251 0.538447,-0.03116 0.77713,0.03332 1.200035,0.324225 l 0.300648,0.206807 v -0.243994 -0.243994 l 0.496165,0.01747 0.496164,0.01747 0.0158,2.18012 0.0158,2.180119 h -0.511955 -0.511945 v -0.236498 -0.236497 l -0.303837,0.204463 c -0.167106,0.112455 -0.403907,0.232259 -0.52623,0.266233 -0.274146,0.07614 -0.873073,0.07198 -1.151752,-0.008 z m 1.290711,-0.943836 c 0.924101,-0.419812 1.021803,-1.845298 0.164963,-2.406969 -0.256251,-0.167975 -0.758096,-0.229226 -1.060475,-0.129434 -0.812762,0.268236 -1.12668,1.33268 -0.61764,2.09434 0.338933,0.507139 0.966392,0.690451 1.513152,0.442063 z"
         id="path12" /><path
         style="fill:#ffffff;stroke-width:0.0601412"
         d="m -41.095334,-17.767794 c -0.555243,-0.222992 -0.853239,-0.502387 -1.13585,-1.064916 -0.761443,-1.51568 0.237554,-3.333312 1.832036,-3.333312 0.45488,0 0.826042,0.119924 1.132954,0.366067 l 0.225535,0.180872 v -0.243399 -0.243399 h 0.511202 0.511193 v 2.195155 2.195155 h -0.511193 -0.511202 v -0.25105 -0.251047 l -0.13532,0.125196 c -0.443829,0.410633 -1.331459,0.560784 -1.919355,0.324678 z m 1.429444,-0.913065 c 0.448269,-0.217003 0.685371,-0.642471 0.685371,-1.229867 0,-0.867917 -0.545029,-1.40766 -1.35373,-1.340596 -0.663806,0.05504 -1.112065,0.571378 -1.112065,1.280939 0,0.427928 0.07814,0.702103 0.276159,0.969149 0.310278,0.418408 0.998828,0.565053 1.504265,0.320375 z"
         id="path11" /></g><g
       id="g17"
       transform="translate(1.8972862)"
       style="fill:#ffffff"><path
         style="fill:#ffffff;stroke-width:0.0601412"
         d="m -54.714808,-16.197006 c -0.102244,-0.05788 -0.406211,-0.240565 -0.675477,-0.405952 -0.940427,-0.577636 -3.168425,-1.955785 -3.436834,-2.125892 -0.148852,-0.09433 -0.384319,-0.236296 -0.523269,-0.315475 -0.13894,-0.07917 -0.28103,-0.206295 -0.315742,-0.282481 -0.03978,-0.08728 -0.0631,-0.835737 -0.0631,-2.023477 0,-1.709793 0.0098,-1.896008 0.105244,-2.003891 0.158181,-0.178747 2.108901,-1.33778 2.251564,-1.33778 0.06818,0 0.546855,0.267509 1.0637,0.594463 1.136367,0.718852 1.371532,0.840345 1.718713,0.887932 0.386924,0.05304 0.736578,-0.05627 1.305833,-0.408223 1.556488,-0.962318 1.76693,-1.078984 1.89041,-1.047993 0.135394,0.03398 1.967373,1.131548 2.144147,1.284593 0.09631,0.08338 0.105244,0.261384 0.105244,2.095774 v 2.004656 l -0.255601,0.162515 c -0.140577,0.08938 -0.688616,0.431903 -1.217856,0.761155 -0.529249,0.329252 -1.192303,0.741848 -1.473466,0.91688 -1.522698,0.947939 -2.211238,1.348443 -2.318213,1.348443 -0.06564,0 -0.20304,-0.04736 -0.305284,-0.105247 z"
         id="path4" /></g></g></svg>
