<?xml version="1.0" encoding="UTF-8" standalone="no"?>
<!-- Created with Inkscape (http://www.inkscape.org/) -->

<svg
   width="512"
   height="512"
   viewBox="0 0 512 512"
   version="1.1"
   id="svg1"
   xml:space="preserve"
   inkscape:version="1.3 (0e150ed6c4, 2023-07-21)"
   sodipodi:docname="lumiwhite-logo.svg"
   xmlns:inkscape="http://www.inkscape.org/namespaces/inkscape"
   xmlns:sodipodi="http://sodipodi.sourceforge.net/DTD/sodipodi-0.dtd"
   xmlns="http://www.w3.org/2000/svg"
   xmlns:svg="http://www.w3.org/2000/svg"><sodipodi:namedview
     id="namedview1"
     pagecolor="#ffffff"
     bordercolor="#000000"
     borderopacity="0.25"
     inkscape:showpageshadow="2"
     inkscape:pageopacity="0.0"
     inkscape:pagecheckerboard="0"
     inkscape:deskcolor="#d1d1d1"
     inkscape:document-units="px"
     inkscape:zoom="0.80175781"
     inkscape:cx="121.6078"
     inkscape:cy="176.48721"
     inkscape:window-width="1920"
     inkscape:window-height="1017"
     inkscape:window-x="-8"
     inkscape:window-y="-8"
     inkscape:window-maximized="1"
     inkscape:current-layer="layer1" /><defs
     id="defs1" /><g
     inkscape:label="Layer 1"
     inkscape:groupmode="layer"
     id="layer1"><path
       style="fill:#020202;stroke:none;stroke-width:0.159467"
       d="m 8.5872159,228.41766 v 0.95682 c 3.7969001,0.0104 7.0677981,2.03103 7.8672071,5.90028 1.535688,7.43313 0.425061,16.02926 0.425061,23.60107 0,5.50963 0.826328,11.85177 -0.554653,17.22244 -0.563743,2.19247 -2.144177,3.86961 -4.229315,4.71176 -1.092936,0.44143 -3.4013237,0.13465 -3.5083001,1.50744 H 55.78942 l 0.47841,-16.10619 -0.956821,-0.15943 c -1.142054,4.41247 -2.158191,8.62298 -5.740791,11.77116 -5.32572,4.67984 -18.020464,5.27168 -22.157162,-1.2464 -2.012365,-3.17078 -1.922316,-7.37589 -1.922316,-11.00317 v -18.33869 c 0,-6.89345 -1.56212,-17.77868 8.292269,-17.86027 v -0.95682 H 8.5872159 m 48.7968601,0 v 0.95682 c 10.814262,0.0895 8.292269,14.06747 8.292269,21.36857 v 12.75732 c 0,7.1419 0.169761,13.88121 7.335517,17.64973 1.873683,0.9854 3.993231,1.56045 6.059708,1.96457 2.880801,0.56332 5.843539,0.67224 8.770677,0.63741 2.416755,-0.0292 5.002225,-0.38295 7.335447,-1.02404 4.028548,-1.10681 8.383916,-3.3008 10.474876,-7.10818 1.69559,-3.08746 1.48519,-6.95887 1.48519,-10.36533 V 248.351 c 0,-6.95686 -1.80195,-18.893 8.29227,-18.97652 v -0.95682 H 97.250837 v 0.95682 c 10.224143,0.0846 8.292253,11.93474 8.292253,18.97652 v 16.74404 c 0,3.23308 0.26391,6.93189 -1.29495,9.88692 -1.89338,3.58919 -6.076702,5.67773 -9.867773,6.63795 -2.049479,0.51913 -4.26088,0.87128 -6.378623,0.8563 -5.9886,-0.0423 -11.316956,-3.25488 -13.007974,-9.24833 -0.983878,-3.48707 -0.70617,-7.41613 -0.70617,-11.00324 v -17.54136 c 0,-5.05218 -1.044789,-13.10024 5.262381,-14.8709 0.976107,-0.27403 2.017428,-0.42951 3.029888,-0.4379 v -0.95682 H 57.384076 m 61.394754,0 v 0.95682 c 3.64171,0.0298 7.06072,1.81118 7.9055,5.5813 0.73635,3.28615 0.38677,6.85849 0.38677,10.20591 v 17.86028 c 0,4.22584 0.83846,9.51903 -0.5899,13.55464 -1.2611,3.56318 -4.29896,4.51341 -7.70237,4.94354 v 0.79732 h 18.33868 v -0.79732 c -3.33992,-0.42215 -6.52473,-1.37759 -7.69439,-4.94354 -1.36808,-4.17089 -0.59787,-9.3775 -0.59787,-13.71414 v -27.10929 h 0.15942 c 1.12603,4.11713 3.44156,8.19271 5.12696,12.11941 3.37794,7.87033 6.7799,15.73074 10.15791,23.60114 l 3.57704,8.29227 c 0.27265,0.63194 0.69882,2.50423 1.5579,2.50423 0.88446,0 1.31056,-1.85516 1.5866,-2.50423 l 3.60057,-8.45176 10.2492,-24.07949 c 1.67944,-3.94258 4.1365,-8.1096 5.12682,-12.27897 h 0.15943 v 27.58778 c 0,4.42918 0.79906,9.77432 -0.59787,14.03305 -1.16322,3.54639 -4.37182,4.52361 -7.6944,4.94354 v 0.79732 h 25.19579 v -0.79732 c -2.96918,-0.55161 -5.975,-1.22024 -7.32858,-4.30563 -1.7033,-3.88251 -0.96369,-9.24916 -0.96369,-13.39523 0,-9.19553 -1.04575,-19.13427 0.38892,-28.22561 0.62757,-3.97686 4.03264,-6.18715 7.90335,-6.2192 v -0.95682 H 170.765 c -2.13793,7.47863 -6.16973,14.82921 -9.18138,22.00641 -2.7578,6.57225 -4.99598,13.90159 -8.51947,20.09284 -4.01904,-10.36166 -8.2299,-20.6885 -12.53018,-30.93659 -1.10841,-2.6416 -2.16118,-5.31357 -3.22512,-7.97335 -0.32072,-0.80163 -0.65455,-2.52074 -1.38722,-3.02537 -0.94718,-0.65241 -3.56956,-0.16394 -4.7044,-0.16394 h -12.4384 m 72.23843,0 v 0.95682 c 3.59183,0.0298 7.0277,1.85398 7.86728,5.5813 0.76354,3.38967 0.42499,7.07265 0.42499,10.52482 v 17.86029 c 0,4.31783 0.78422,9.61316 -0.80829,13.71414 -1.25936,3.24322 -4.39123,4.07426 -7.48398,4.46512 v 0.79732 h 25.1958 v -0.79732 c -2.87727,-0.53447 -5.78228,-1.00747 -7.19351,-3.98671 -1.83497,-3.87377 -1.09876,-9.22405 -1.09876,-13.39523 0,-9.29612 -1.06762,-19.35322 0.36616,-28.54453 0.62327,-3.99545 4.08328,-6.18743 7.92611,-6.2192 v -0.95682 h -25.1958 m 28.5446,0 v 0.95682 c 6.65606,0.52531 8.73981,5.28847 11.07089,10.84375 3.98345,9.49308 8.00214,18.98721 11.82859,28.54453 1.28268,3.20367 2.67198,6.36433 3.95466,9.568 0.39245,0.98021 0.88037,3.21284 1.76989,3.82278 0.55126,0.37802 1.67069,0.16393 2.31248,0.16393 2.60893,-9.53949 8.40404,-18.28506 10.68433,-27.90669 h 0.15942 c 1.98774,7.26801 5.6241,14.29717 8.24149,21.36851 0.53932,1.45708 1.37987,5.51782 2.66907,6.37425 0.56458,0.37504 1.67339,0.16393 2.32524,0.16393 1.46541,-5.35839 4.31999,-10.6624 6.47048,-15.7872 3.56033,-8.48486 6.91337,-17.06142 10.54766,-25.51472 2.43291,-5.65878 4.4656,-11.33797 11.5264,-11.64107 v -0.95682 H 277.1294 v 0.95682 c 3.2195,0.13819 7.49758,1.6231 7.3188,5.5813 -0.18378,4.0685 -2.91598,8.56873 -4.44674,12.27897 -3.40756,8.25925 -6.81686,16.54583 -10.04808,24.87681 -2.10859,-4.50903 -3.59349,-9.3904 -5.39176,-14.03306 -0.65858,-1.70038 -2.32691,-4.38562 -2.19413,-6.2192 0.1459,-2.015 1.60957,-4.3322 2.31546,-6.2192 2.13329,-5.70339 5.10247,-11.34859 6.70559,-17.22244 h -2.07307 l -7.97335,21.04966 c -2.6264,-4.93181 -4.14183,-10.74135 -6.1868,-15.94671 -0.96736,-2.46226 -1.03494,-5.10295 -4.01904,-5.10295 1.87764,5.54952 4.26637,10.98534 6.44239,16.42511 0.78088,1.95208 2.71644,5.07736 2.66198,7.17595 -0.0437,1.69165 -1.39201,3.83568 -1.97919,5.42188 -1.77699,4.80097 -4.35073,9.69267 -5.53052,14.67096 h -0.1595 c -0.96154,-3.3631 -2.65484,-6.63718 -3.95479,-9.88692 -2.81129,-7.02819 -5.68432,-14.028 -8.51559,-21.04959 -1.72057,-4.26713 -3.6671,-9.89858 2.58346,-11.37731 0.93726,-0.22173 1.90663,-0.40335 2.8704,-0.42326 v -0.95682 h -25.99306 m 85.63367,0 v 0.95682 c 3.59286,0.0298 7.02658,1.84885 7.86727,5.5813 0.76444,3.39396 0.42499,7.06898 0.42499,10.52482 v 17.70086 c 0,4.23507 0.80426,9.50842 -0.65226,13.55465 -1.2353,3.43171 -4.38472,4.37264 -7.64,4.78404 v 0.79732 h 25.19578 v -0.79732 c -2.34731,-0.43582 -4.48593,-0.63672 -6.18985,-2.5521 -1.80827,-2.03277 -1.72939,-4.48705 -1.97005,-7.01591 -0.51885,-5.45226 -0.13236,-11.10432 -0.13236,-16.5846 h 28.06612 v 15.14937 c 0,2.81468 0.0806,5.99519 -1.82874,8.28998 -1.66784,2.00445 -4.03104,2.40578 -6.46353,2.71326 v 0.79732 h 25.19579 v -0.79732 c -2.98737,-0.55493 -5.80198,-1.07649 -7.25692,-4.14614 -1.76809,-3.7305 -1.03542,-9.05421 -1.03542,-13.07631 0,-8.94917 -0.66156,-18.20368 0.18655,-27.10936 0.44157,-4.63648 3.27409,-7.7739 8.10579,-7.81386 v -0.95682 H 341.8729 v 0.95682 c 3.05853,0.025 6.23363,1.29482 7.48009,4.30563 1.01371,2.44852 0.81218,5.22214 0.81218,7.81386 v 12.11948 h -20.73067 -5.10297 c -0.5586,0 -1.54081,0.18024 -1.97684,-0.25572 -0.43595,-0.43594 -0.25564,-1.41823 -0.25564,-1.97684 v -5.26238 c 0,-6.63788 -1.03598,-16.66682 8.29226,-16.74403 v -0.95682 h -25.19578 m 65.8598,0 v 0.95682 c 3.58489,0.0298 7.02853,1.85766 7.86728,5.5813 0.77457,3.43878 0.42499,7.18192 0.42499,10.68432 v 17.86027 c 0,4.26803 0.76555,9.50155 -0.80829,13.55466 -1.2559,3.23433 -4.40983,4.07654 -7.48398,4.46512 v 0.79732 h 25.19572 v -0.79732 c -2.98306,-0.55417 -5.84686,-1.05631 -7.28376,-4.14614 -1.76851,-3.80307 -1.0085,-9.15342 -1.0085,-13.2358 0,-9.00107 -0.66962,-18.31163 0.18654,-27.26879 0.43443,-4.54553 3.49984,-7.45686 8.10572,-7.49494 v -0.95682 h -25.19572 m 28.22561,0 c -0.0125,4.48961 0.2399,10.15472 -0.79733,14.51147 1.28581,0.34674 1.29239,-1.12838 1.53562,-2.07306 0.69861,-2.71341 1.94716,-5.54419 4.04804,-7.46727 4.41254,-4.03888 11.79113,-3.6954 17.37958,-3.6954 v 37.79362 c 0,4.65042 0.8239,10.85075 -4.30563,13.18592 -1.25583,0.57172 -2.63452,0.67627 -3.98664,0.84721 v 0.79732 h 25.35522 v -0.79732 c -1.36503,-0.17254 -2.71528,-0.26994 -3.98671,-0.84721 -4.89511,-2.2225 -4.46506,-8.33153 -4.46506,-12.86694 v -38.1126 c 7.12254,0 16.22296,-0.24115 20.27259,6.8571 1.13706,1.99295 1.75158,4.30646 2.21223,6.53812 1.39222,-0.1085 0.83861,-2.42202 0.79109,-3.5083 -0.16262,-3.71614 -0.33883,-7.4547 -0.63159,-11.16266 h -53.42141 m 56.4513,0 v 0.95682 c 3.60084,0.0298 7.02457,1.83997 7.86727,5.5813 0.77631,3.44676 0.42499,7.17484 0.42499,10.68432 v 17.86027 c 0,4.28108 0.77028,9.48934 -0.80836,13.55466 -1.26352,3.25411 -4.37631,4.07231 -7.4839,4.46512 v 0.79732 h 47.20213 l 0.47841,-15.62778 h -0.95682 c -0.83396,4.29952 -2.326,8.35179 -5.74079,11.27429 -4.88484,4.18061 -16.62311,5.05668 -21.16122,-0.11392 -2.7725,-3.15892 -2.71242,-7.36902 -2.75939,-11.31979 -0.0472,-3.97797 -0.15887,-7.97002 -0.15887,-11.96007 3.71338,0 8.02844,-0.14131 10.60968,3.02989 1.26818,1.55796 1.90136,3.47118 2.26558,5.42188 0.17163,0.91956 0.0201,1.98232 1.1578,2.07307 l 0.15949,-21.20909 c -1.33609,0.10656 -1.13802,2.13502 -1.37959,3.18932 -0.52114,2.27404 -1.69476,4.35106 -3.88286,5.4005 -2.00029,0.95939 -4.11089,0.60959 -6.2192,0.8864 -0.64172,0.0843 -1.9391,0.35222 -2.45518,-0.16393 -0.88773,-0.88772 -0.25572,-4.73229 -0.25572,-5.96349 V 229.6934 c 8.01463,0 19.11729,-1.87361 23.71075,6.53812 0.89473,1.63857 1.29239,3.44711 1.64447,5.26245 h 0.95682 l -0.6379,-13.07631 z"
       id="path1" /></g></svg>
