<svg width="32" height="24" viewBox="0 0 32 24" fill="none" xmlns="http://www.w3.org/2000/svg">
<g id="Mastercard-logo 1" clip-path="url(#clip0_114_10289)">
<path id="XMLID_1775_" d="M6.14945 23.9473V22.3545C6.14945 21.7453 5.77831 21.3463 5.1412 21.3463C4.82264 21.3463 4.47625 21.4514 4.23811 21.7978C4.05254 21.5071 3.78656 21.3463 3.38759 21.3463C3.12161 21.3463 2.85563 21.4267 2.64532 21.7174V21.3989H2.08862V23.9473H2.64532V22.5401C2.64532 22.0886 2.88347 21.8752 3.2546 21.8752C3.62574 21.8752 3.8113 22.1133 3.8113 22.5401V23.9473H4.368V22.5401C4.368 22.0886 4.63398 21.8752 4.97728 21.8752C5.34842 21.8752 5.53398 22.1133 5.53398 22.5401V23.9473H6.14945ZM14.4072 21.3989H13.5041V20.6288H12.9474V21.3989H12.4433V21.903H12.9474V23.0721C12.9474 23.6566 13.1855 23.9999 13.8226 23.9999C14.0608 23.9999 14.3268 23.9195 14.5123 23.8143L14.3515 23.335C14.1907 23.4401 14.0051 23.4679 13.8721 23.4679C13.6061 23.4679 13.501 23.3071 13.501 23.0442V21.903H14.4041V21.3989H14.4072ZM19.133 21.3432C18.8144 21.3432 18.601 21.504 18.468 21.7143V21.3958H17.9113V23.9442H18.468V22.5092C18.468 22.0855 18.6536 21.8442 19 21.8442C19.1051 21.8442 19.2381 21.8721 19.3464 21.8968L19.5072 21.3649C19.3958 21.3432 19.2381 21.3432 19.133 21.3432ZM11.9917 21.6092C11.7257 21.4236 11.3546 21.3432 10.9556 21.3432C10.3185 21.3432 9.89481 21.6618 9.89481 22.1659C9.89481 22.5896 10.2134 22.8308 10.7701 22.9082L11.036 22.936C11.3268 22.9886 11.4876 23.069 11.4876 23.202C11.4876 23.3875 11.2742 23.5205 10.9031 23.5205C10.5319 23.5205 10.2381 23.3875 10.0525 23.2545L9.78656 23.6783C10.0773 23.8917 10.4763 23.9968 10.8752 23.9968C11.6175 23.9968 12.0443 23.6504 12.0443 23.1741C12.0443 22.7226 11.6979 22.4844 11.169 22.404L10.9031 22.3762C10.6649 22.3484 10.4793 22.2958 10.4793 22.138C10.4793 21.9525 10.6649 21.8473 10.9587 21.8473C11.2773 21.8473 11.5958 21.9803 11.7567 22.0607L11.9917 21.6092ZM26.8031 21.3432C26.4845 21.3432 26.2711 21.504 26.1381 21.7143V21.3958H25.5814V23.9442H26.1381V22.5092C26.1381 22.0855 26.3237 21.8442 26.6701 21.8442C26.7752 21.8442 26.9082 21.8721 27.0165 21.8968L27.1773 21.371C27.069 21.3432 26.9113 21.3432 26.8031 21.3432ZM19.6897 22.6731C19.6897 23.4432 20.2216 23.9999 21.0443 23.9999C21.4154 23.9999 21.6814 23.9195 21.9474 23.7092L21.6814 23.2576C21.468 23.4185 21.2577 23.4958 21.0165 23.4958C20.5649 23.4958 20.2464 23.1772 20.2464 22.6731C20.2464 22.1937 20.5649 21.8752 21.0165 21.8504C21.2546 21.8504 21.468 21.9308 21.6814 22.0886L21.9474 21.637C21.6814 21.4236 21.4154 21.3463 21.0443 21.3463C20.2216 21.3432 19.6897 21.903 19.6897 22.6731ZM24.8391 22.6731V21.3989H24.2824V21.7174C24.0969 21.4793 23.8309 21.3463 23.4845 21.3463C22.767 21.3463 22.2103 21.903 22.2103 22.6731C22.2103 23.4432 22.767 23.9999 23.4845 23.9999C23.8556 23.9999 24.1216 23.8669 24.2824 23.6288V23.9473H24.8391V22.6731ZM22.7948 22.6731C22.7948 22.2216 23.0855 21.8504 23.5649 21.8504C24.0165 21.8504 24.335 22.1968 24.335 22.6731C24.335 23.1246 24.0165 23.4958 23.5649 23.4958C23.0886 23.4679 22.7948 23.1216 22.7948 22.6731ZM16.133 21.3432C15.3907 21.3432 14.8587 21.8752 14.8587 22.67C14.8587 23.4679 15.3907 23.9968 16.1608 23.9968C16.5319 23.9968 16.9031 23.8917 17.1969 23.6504L16.9309 23.2514C16.7175 23.4123 16.4515 23.5174 16.1886 23.5174C15.8422 23.5174 15.4989 23.3566 15.4185 22.9082H17.302C17.302 22.8277 17.302 22.7752 17.302 22.6947C17.3268 21.8752 16.8474 21.3432 16.133 21.3432ZM16.133 21.8226C16.4793 21.8226 16.7175 22.036 16.7701 22.4319H15.4433C15.4958 22.0886 15.734 21.8226 16.133 21.8226ZM29.9639 22.6731V20.3906H29.4072V21.7174C29.2216 21.4793 28.9556 21.3463 28.6092 21.3463C27.8917 21.3463 27.335 21.903 27.335 22.6731C27.335 23.4432 27.8917 23.9999 28.6092 23.9999C28.9804 23.9999 29.2464 23.8669 29.4072 23.6288V23.9473H29.9639V22.6731ZM27.9196 22.6731C27.9196 22.2216 28.2103 21.8504 28.6897 21.8504C29.1412 21.8504 29.4598 22.1968 29.4598 22.6731C29.4598 23.1246 29.1412 23.4958 28.6897 23.4958C28.2103 23.4679 27.9196 23.1216 27.9196 22.6731ZM9.28244 22.6731V21.3989H8.72574V21.7174C8.54017 21.4793 8.27419 21.3463 7.9278 21.3463C7.21027 21.3463 6.65357 21.903 6.65357 22.6731C6.65357 23.4432 7.21027 23.9999 7.9278 23.9999C8.29893 23.9999 8.56491 23.8669 8.72574 23.6288V23.9473H9.28244V22.6731ZM7.21337 22.6731C7.21337 22.2216 7.50409 21.8504 7.98347 21.8504C8.43501 21.8504 8.75357 22.1968 8.75357 22.6731C8.75357 23.1246 8.43501 23.4958 7.98347 23.4958C7.50409 23.4679 7.21337 23.1216 7.21337 22.6731Z" fill="black"/>
<g id="Group">
<path id="rect19" d="M20.169 2.04443H11.8062V17.0692H20.169V2.04443Z" fill="#FF5A00"/>
<path id="XMLID_330_" d="M12.3628 9.5567C12.3628 6.50412 13.7978 3.79485 15.9999 2.04433C14.3793 0.770103 12.3349 0 10.105 0C4.82257 0 0.54834 4.27423 0.54834 9.5567C0.54834 14.8392 4.82257 19.1134 10.105 19.1134C12.3349 19.1134 14.3793 18.3433 15.9999 17.0691C13.7947 15.3433 12.3628 12.6093 12.3628 9.5567Z" fill="#EB001B"/>
<path id="path22" d="M31.4515 9.5567C31.4515 14.8392 27.1773 19.1134 21.8948 19.1134C19.6649 19.1134 17.6206 18.3433 16 17.0691C18.2299 15.3155 19.6371 12.6093 19.6371 9.5567C19.6371 6.50412 18.2021 3.79485 16 2.04433C17.6175 0.770103 19.6619 0 21.8918 0C27.1773 0 31.4515 4.30206 31.4515 9.5567Z" fill="#F79E1B"/>
</g>
</g>
<defs>
<clipPath id="clip0_114_10289">
<rect width="30.9031" height="24" fill="white" transform="translate(0.54834)"/>
</clipPath>
</defs>
</svg>
