<?xml version="1.0" encoding="UTF-8" standalone="no"?>
<!-- Created with Inkscape (http://www.inkscape.org/) -->

<svg
   width="800"
   height="300"
   viewBox="0 0 800 300.00001"
   version="1.1"
   id="svg1"
   xml:space="preserve"
   inkscape:version="1.3 (0e150ed6c4, 2023-07-21)"
   sodipodi:docname="pilot-logo-white.svg"
   xmlns:inkscape="http://www.inkscape.org/namespaces/inkscape"
   xmlns:sodipodi="http://sodipodi.sourceforge.net/DTD/sodipodi-0.dtd"
   xmlns="http://www.w3.org/2000/svg"
   xmlns:svg="http://www.w3.org/2000/svg"><sodipodi:namedview
     id="namedview1"
     pagecolor="#ffffff"
     bordercolor="#000000"
     borderopacity="0.25"
     inkscape:showpageshadow="2"
     inkscape:pageopacity="0.0"
     inkscape:pagecheckerboard="0"
     inkscape:deskcolor="#d1d1d1"
     inkscape:document-units="mm"
     inkscape:zoom="0.51719742"
     inkscape:cx="474.67368"
     inkscape:cy="93.774637"
     inkscape:window-width="1920"
     inkscape:window-height="1017"
     inkscape:window-x="-8"
     inkscape:window-y="-8"
     inkscape:window-maximized="1"
     inkscape:current-layer="layer1" /><defs
     id="defs1" /><g
     inkscape:label="Layer 1"
     inkscape:groupmode="layer"
     id="layer1"><path
       style="fill:#ffffff;stroke-width:1.05756"
       d="m 596.70619,252.96289 c -23.52323,-4.1477 -42.9318,-21.49026 -48.6593,-43.47961 -0.86614,-3.32534 -1.5748,-10.60512 -1.5748,-16.17729 0,-18.02174 5.10103,-30.80421 16.94289,-42.4565 30.19068,-29.70737 86.65326,-23.23421 106.16941,12.17181 5.44064,9.87035 7.26776,17.48397 7.26776,30.28469 0,26.75923 -12.97115,46.15861 -37.40526,55.9425 -13.57896,5.43729 -26.56771,6.56608 -42.7407,3.7144 z m 25.09565,-34.9626 c 8.95585,-3.45996 14.39477,-11.11057 15.34448,-21.58421 0.79679,-8.7871 -1.24562,-15.88626 -6.18473,-21.49739 -5.6214,-6.38624 -11.31294,-8.48033 -21.28997,-7.8332 -11.18277,0.72535 -17.93982,5.02707 -22.08282,14.05856 -2.18841,4.77058 -2.63101,15.61728 -0.89266,21.87615 1.47071,5.29522 9.00983,13.31544 14.24029,15.14901 5.76291,2.02023 15.40093,1.9422 20.86541,-0.16892 z M 64.4188,249.69657 c 0.292563,-2.47661 1.597836,-3.38168 10.381455,-7.19845 36.925635,-16.04537 61.609385,-32.37989 87.513105,-57.91197 l 9.78243,-9.64209 v 38.79265 38.79265 H 118.08998 64.084167 Z m 210.26033,-56.39058 v -59.22336 h 35.28392 c 19.57706,0 37.81772,0.48052 40.97587,1.07945 7.57387,1.43635 17.68387,6.26919 22.81805,10.90762 15.56359,14.06077 15.88301,43.37492 0.63873,58.61919 -9.47849,9.47849 -21.60842,12.88207 -46.0454,12.92004 l -13.48389,0.0209 v 15.7769 c 0,8.67729 -0.28886,16.52968 -0.64193,17.44974 -0.55315,1.44151 -3.33181,1.67284 -20.09364,1.67284 h -19.45171 z m 68.83066,-9.27034 c 2.40419,-2.69292 3.08343,-4.46702 3.08343,-8.05346 0,-9.25469 -5.36317,-12.27194 -21.83123,-12.28199 -7.8452,-0.005 -9.79038,0.30968 -10.31121,1.66694 -0.91887,2.39453 -0.79517,21.08773 0.14576,22.02867 0.43324,0.43323 6.42219,0.63152 13.30876,0.44064 l 12.52107,-0.34704 z m 56.66648,67.78867 c -0.38778,-0.38778 -0.70505,-27.03829 -0.70505,-59.22337 v -58.51832 h 20.62243 20.62242 v 59.22336 59.22337 h -19.91738 c -10.95457,0 -20.23466,-0.31727 -20.62242,-0.70504 z m 64.51117,0 c -0.38778,-0.38778 -0.70505,-27.03829 -0.70505,-59.22337 v -58.51832 h 20.62243 20.62242 v 43.35996 43.35997 h 19.03608 19.03608 v 15.8634 15.8634 h -38.95346 c -21.42441,0 -39.27074,-0.31727 -39.6585,-0.70504 z M 715.68171,209.1694 v -43.35997 h -17.44974 -17.44975 v -15.8634 -15.8634 h 54.99313 54.99313 v 15.8634 15.8634 h -16.92096 -16.92097 v 43.35997 43.35996 H 736.30413 715.68171 Z M 64.224653,199.30688 v -42.64689 l 10.982984,-6.54238 c 22.00211,-13.10631 36.639413,-18.25574 52.470633,-18.45928 12.74458,-0.16385 20.43339,3.5632 23.76802,11.52127 7.79782,18.60941 -7.5162,47.21309 -38.29448,71.52679 -13.14738,10.38595 -42.412576,27.24737 -47.291376,27.24737 -1.448963,0 -1.635781,-4.87068 -1.635781,-42.64688 z m -54.9931168,-8.5475 c 0,-0.23732 1.7399508,-3.68761 3.8665558,-7.66731 16.77062,-31.38425 53.315954,-73.91235 86.554825,-100.72456 33.040203,-26.651943 66.570643,-40.209081 89.370413,-36.134535 8.90708,1.591787 13.95931,4.067049 19.76632,9.684184 6.7537,6.532888 9.23037,12.490885 9.66742,23.256372 0.58773,14.476962 -4.14751,27.807539 -15.68509,44.156459 -3.0099,4.26508 -5.70353,7.52368 -5.98587,7.24135 -0.28233,-0.28233 0.0599,-3.4267 0.76039,-6.98748 1.61771,-8.2227 0.7787,-18.93021 -1.88803,-24.095075 -4.60573,-8.920266 -13.98592,-12.996377 -29.90804,-12.996377 -40.27247,0 -97.857397,37.091882 -145.714733,93.858472 -7.913775,9.38703 -10.8041608,12.17157 -10.8041608,10.4085 z"
       id="path1" /></g></svg>
