<?xml version="1.0" encoding="UTF-8" standalone="no"?>
<svg
   height="20"
   width="100"
   viewBox="-61.48365 -22.04525 44.404858 3.3067875"
   version="1.1"
   id="svg1"
   sodipodi:docname="shopee-logo-white.svg"
   inkscape:version="1.3 (0e150ed6c4, 2023-07-21)"
   xml:space="preserve"
   xmlns:inkscape="http://www.inkscape.org/namespaces/inkscape"
   xmlns:sodipodi="http://sodipodi.sourceforge.net/DTD/sodipodi-0.dtd"
   xmlns="http://www.w3.org/2000/svg"
   xmlns:svg="http://www.w3.org/2000/svg"><defs
     id="defs1" /><sodipodi:namedview
     id="namedview1"
     pagecolor="#ffffff"
     bordercolor="#000000"
     borderopacity="0.25"
     inkscape:showpageshadow="2"
     inkscape:pageopacity="0.0"
     inkscape:pagecheckerboard="0"
     inkscape:deskcolor="#d1d1d1"
     inkscape:zoom="10.286047"
     inkscape:cx="52.546911"
     inkscape:cy="7.1456022"
     inkscape:window-width="1920"
     inkscape:window-height="1017"
     inkscape:window-x="-8"
     inkscape:window-y="-8"
     inkscape:window-maximized="1"
     inkscape:current-layer="svg1" /><path
     style="fill:#ffffff;stroke-width:0.0177707"
     d="m -34.659722,-18.189942 c 0,-1.52849 0.0049,-2.000657 0.02131,-2.01699 0.02941,-0.02941 0.425527,-0.02941 0.454934,0 0.01241,0.0124 0.02134,0.07187 0.02134,0.142167 0,0.06647 0.0033,0.120841 0.0073,0.120841 0.0041,0 0.04988,-0.02802 0.101869,-0.06226 0.143544,-0.09453 0.331311,-0.1655 0.524817,-0.198354 0.617669,-0.104871 1.234649,0.242166 1.472882,0.828464 0.02376,0.05843 0.05611,0.18047 0.07193,0.271213 0.149468,0.857482 -0.534566,1.622741 -1.405469,1.57236 -0.250384,-0.01449 -0.491238,-0.09675 -0.715602,-0.244403 l -0.05776,-0.03801 v 0.810319 0.810318 h -0.248791 -0.248791 z m 1.588444,0.111297 c 0.236357,-0.07301 0.453869,-0.275829 0.545785,-0.508933 0.03341,-0.08472 0.04081,-0.137361 0.04081,-0.290095 0,-0.220035 -0.03418,-0.327403 -0.15756,-0.495011 -0.292951,-0.397944 -0.876614,-0.452122 -1.237194,-0.114839 -0.363773,0.340266 -0.359709,0.891071 0.009,1.227169 0.21954,0.200094 0.519067,0.268202 0.799102,0.181709 z m -18.790187,1.46509 c -0.05352,-0.01448 -0.12995,-0.04544 -0.169844,-0.06882 -0.148309,-0.08692 -0.287894,-0.282921 -0.327576,-0.459983 -0.01734,-0.0774 -0.249386,-5.010988 -0.249386,-5.302419 0,-0.235025 -0.07338,-0.218079 0.944251,-0.218079 0.677962,0 0.850605,-0.0047 0.850605,-0.02268 0,-0.08424 0.04409,-0.350994 0.08142,-0.492675 0.05333,-0.202381 0.184386,-0.483692 0.309952,-0.665331 0.105766,-0.152996 0.335446,-0.379512 0.484866,-0.478188 0.141782,-0.09363 0.343035,-0.18414 0.506361,-0.227723 0.198894,-0.05307 0.542614,-0.05335 0.755258,-5.97e-4 0.498685,0.1237 0.922228,0.482167 1.168059,0.98859 0.122572,0.252503 0.178262,0.456494 0.222273,0.814196 l 0.01039,0.08441 h 0.852719 0.852721 l 0.04362,0.04362 c 0.03627,0.03627 0.04362,0.06098 0.04366,0.14661 6.1e-5,0.220476 -0.247987,5.15643 -0.264531,5.26361 -0.03787,0.245291 -0.192182,0.448202 -0.424598,0.558302 l -0.11948,0.0566 -2.73671,0.0035 c -2.368837,0.003 -2.749789,-8.9e-5 -2.834017,-0.02287 z m 3.176856,-1.066154 c 0.401678,-0.08277 0.696327,-0.293925 0.840925,-0.60264 0.139303,-0.297413 0.140001,-0.630144 0.0019,-0.886703 -0.06096,-0.11321 -0.227997,-0.283936 -0.374375,-0.38264 -0.168065,-0.113325 -0.510583,-0.271645 -0.811245,-0.374975 -0.472857,-0.162509 -0.708539,-0.31523 -0.808223,-0.523725 -0.06208,-0.129861 -0.06065,-0.318391 0.0036,-0.457072 0.08394,-0.18148 0.262446,-0.318365 0.493737,-0.378611 0.08996,-0.02344 0.16268,-0.02806 0.328761,-0.02096 0.279411,0.01197 0.446991,0.05672 0.709238,0.189398 0.148504,0.07513 0.218036,0.101785 0.233039,0.08933 0.04236,-0.03517 0.153591,-0.232842 0.144434,-0.256708 -0.01325,-0.03456 -0.232911,-0.15952 -0.393238,-0.223719 -0.803006,-0.321539 -1.585978,-0.123779 -1.868322,0.471892 -0.166792,0.351886 -0.09352,0.727539 0.197509,1.0126 0.07004,0.06861 0.172932,0.151871 0.228652,0.18504 0.118366,0.07046 0.45321,0.209629 0.793108,0.329631 0.393216,0.138827 0.61404,0.276205 0.740586,0.46073 0.222745,0.324801 0.0938,0.742423 -0.283461,0.918002 -0.466602,0.217163 -1.058661,0.128016 -1.555526,-0.234217 -0.06498,-0.04737 -0.130307,-0.08583 -0.145177,-0.08547 -0.04215,9.9e-4 -0.202996,0.250443 -0.18278,0.283417 0.0296,0.04828 0.294584,0.22921 0.440076,0.300479 0.379956,0.18612 0.899064,0.262702 1.266922,0.186903 z m 0.897497,-5.085335 c -0.02953,-0.303469 -0.173204,-0.663657 -0.350435,-0.878524 -0.249281,-0.302213 -0.558976,-0.458732 -0.90767,-0.458732 -0.191327,0 -0.332586,0.03529 -0.509965,0.127419 -0.403574,0.209599 -0.689867,0.670485 -0.751526,1.209837 l -0.01168,0.102182 h 1.270609 1.270611 z m 5.022789,5.236747 c -0.325241,-0.03067 -0.677278,-0.143596 -0.944821,-0.303087 -0.173457,-0.103404 -0.333582,-0.236248 -0.333582,-0.276752 0,-0.03976 0.195264,-0.341671 0.234587,-0.362717 0.04624,-0.02475 0.08378,-0.0094 0.24138,0.09883 0.262796,0.180439 0.529384,0.287961 0.818929,0.330299 0.331144,0.04842 0.718065,-0.05766 0.920055,-0.25225 0.03069,-0.02957 0.07866,-0.09502 0.106624,-0.145461 0.04475,-0.08073 0.05084,-0.109789 0.05084,-0.242764 0,-0.189152 -0.04133,-0.282053 -0.190994,-0.429422 -0.13022,-0.128214 -0.369736,-0.25207 -0.665483,-0.344131 -0.341435,-0.106283 -0.739321,-0.269764 -0.879714,-0.361452 -0.236089,-0.154187 -0.399139,-0.345505 -0.479053,-0.56211 -0.05811,-0.157505 -0.05838,-0.48439 -5.49e-4,-0.65202 0.145529,-0.421698 0.561837,-0.721318 1.080984,-0.777992 0.392943,-0.0429 0.847764,0.04932 1.234189,0.250241 0.165639,0.08612 0.211582,0.127358 0.211582,0.189896 0,0.06755 -0.182835,0.337388 -0.237976,0.351228 -0.03058,0.0076 -0.09333,-0.01643 -0.226478,-0.087 -0.341918,-0.181211 -0.698554,-0.255813 -0.964074,-0.201665 -0.185708,0.03787 -0.312686,0.09961 -0.426752,0.207487 -0.120667,0.114121 -0.176448,0.235031 -0.176317,0.382178 2.86e-4,0.292912 0.251886,0.50474 0.814294,0.685504 1.045176,0.335931 1.447947,0.69894 1.447752,1.30483 -1.86e-4,0.591308 -0.393092,1.045472 -1.012367,1.170222 -0.181691,0.03659 -0.419294,0.04731 -0.623077,0.0281 z m 2.052584,-0.02401 c -0.0338,-0.02473 -0.0345,-0.06696 -0.0345,-2.125048 0,-2.058087 6.92e-4,-2.100326 0.0345,-2.125048 0.04153,-0.03037 0.401299,-0.03576 0.45537,-0.0068 0.03329,0.01782 0.03438,0.04675 0.03438,0.915199 0,0.493241 0.0034,0.896801 0.0075,0.896801 0.0042,0 0.06681,-0.03199 0.139288,-0.07108 0.187601,-0.101192 0.368341,-0.143813 0.608452,-0.143483 0.357393,4.78e-4 0.642497,0.117723 0.888543,0.365354 0.159004,0.16003 0.239494,0.284257 0.303594,0.468581 0.07052,0.202794 0.0806,0.352006 0.0749,1.109496 -0.0046,0.605193 -0.0091,0.709475 -0.03197,0.723888 -0.04094,0.02586 -0.431588,0.02182 -0.46696,-0.0049 -0.02654,-0.02 -0.02998,-0.100198 -0.03449,-0.804131 l -0.0049,-0.781916 -0.05624,-0.118703 c -0.140913,-0.297437 -0.402186,-0.454587 -0.727406,-0.437518 -0.32644,0.01713 -0.58925,0.235376 -0.673651,0.559412 -0.02148,0.08245 -0.02657,0.240772 -0.02657,0.825616 0,0.634126 -0.0035,0.727055 -0.02792,0.751528 -0.03836,0.03836 -0.41007,0.04054 -0.461818,0.0027 z m 3.963942,-9.45e-4 c -0.459459,-0.100712 -0.846393,-0.442703 -0.994904,-0.879345 -0.168411,-0.495152 -0.04372,-1.021312 0.328692,-1.386894 0.274006,-0.268989 0.575575,-0.38998 0.973695,-0.390651 0.239085,-4.06e-4 0.39804,0.03614 0.617978,0.142085 0.551869,0.265829 0.849792,0.869761 0.725618,1.470933 -0.0581,0.281263 -0.18683,0.505491 -0.409717,0.713642 -0.157272,0.146875 -0.378777,0.265401 -0.600011,0.321062 -0.165479,0.04163 -0.473173,0.04604 -0.641351,0.0092 z m 0.435386,-0.489667 c 0.261872,-0.04083 0.527292,-0.234781 0.637593,-0.465896 0.155522,-0.325863 0.09603,-0.679534 -0.157948,-0.939099 -0.337707,-0.345128 -0.88686,-0.34131 -1.222766,0.0085 -0.157072,0.163573 -0.220164,0.305708 -0.230475,0.519222 -0.01222,0.253071 0.05152,0.433686 0.213514,0.604967 0.14601,0.154384 0.299855,0.237528 0.502406,0.271519 0.124444,0.02089 0.128706,0.02089 0.257676,7.87e-4 z m 5.837721,0.490678 c -0.440139,-0.101385 -0.763981,-0.355423 -0.953333,-0.747845 -0.09833,-0.203771 -0.127092,-0.35944 -0.116588,-0.630864 0.01265,-0.327021 0.101153,-0.57104 0.293827,-0.810202 0.245743,-0.305036 0.595138,-0.469299 0.99823,-0.469299 0.515797,0 0.936696,0.266719 1.163805,0.73749 0.0921,0.190924 0.133466,0.364364 0.133466,0.559655 0,0.129097 -0.0045,0.148399 -0.04362,0.187528 l -0.04362,0.04362 h -0.98709 c -0.822404,0 -0.987089,0.0041 -0.987089,0.02427 0,0.01334 0.02817,0.08057 0.06259,0.149383 0.159916,0.319652 0.504187,0.501366 0.905919,0.478165 0.264266,-0.01527 0.487057,-0.103906 0.704842,-0.280441 0.07674,-0.0622 0.118539,-0.0373 0.233069,0.138912 0.05581,0.08586 0.10152,0.17009 0.101577,0.187167 2.08e-4,0.04685 -0.115774,0.165575 -0.228478,0.233991 -0.118943,0.07221 -0.250048,0.126522 -0.420051,0.174034 -0.165089,0.04614 -0.65913,0.0609 -0.817459,0.02444 z m 0.968344,-1.64083 c 0,-0.0073 -0.0232,-0.05331 -0.05134,-0.102181 -0.168027,-0.291744 -0.513797,-0.459448 -0.828149,-0.401665 -0.142239,0.02615 -0.308914,0.110098 -0.406086,0.20454 -0.07749,0.07532 -0.188737,0.246192 -0.189069,0.290422 -1.86e-4,0.01741 0.159089,0.02221 0.737321,0.02221 0.405619,0 0.737415,-0.006 0.737324,-0.01332 z m 2.018236,1.637788 c -0.480522,-0.107276 -0.854242,-0.440452 -1.003277,-0.894436 -0.118455,-0.360832 -0.06998,-0.79442 0.126301,-1.129867 0.106197,-0.18148 0.325062,-0.391151 0.5065,-0.485225 0.201324,-0.104384 0.374046,-0.145703 0.607704,-0.145377 0.219849,3.1e-4 0.363956,0.03035 0.540617,0.112693 0.339616,0.1583 0.61553,0.489449 0.712844,0.855555 0.03334,0.1254 0.05532,0.375699 0.03879,0.441562 -0.0063,0.02538 -0.02899,0.06237 -0.05026,0.08219 -0.03789,0.0353 -0.05877,0.03603 -1.02161,0.03603 -1.119845,0 -1.019122,-0.01872 -0.92788,0.17246 0.07096,0.148688 0.22403,0.302851 0.373701,0.376373 0.334966,0.164545 0.77382,0.134344 1.097463,-0.07552 0.06467,-0.04194 0.128564,-0.08962 0.141978,-0.105957 0.06297,-0.0767 0.138032,-0.02091 0.269409,0.200215 0.05965,0.100402 0.06874,0.127813 0.05469,0.164783 -0.04161,0.109436 -0.322837,0.279501 -0.598157,0.361718 -0.138172,0.04127 -0.197564,0.04834 -0.45228,0.05391 -0.219442,0.0049 -0.324244,-5.02e-4 -0.416535,-0.0211 z m 0.966922,-1.670231 c -0.08277,-0.21769 -0.352931,-0.423857 -0.620677,-0.473651 -0.323707,-0.0602 -0.695112,0.143992 -0.824302,0.453182 l -0.02767,0.06624 h 0.745031 0.745028 z"
     id="path4" /></svg>
