<svg width="120" height="35" viewBox="0 0 120 35" fill="none" xmlns="http://www.w3.org/2000/svg">
<g id="Shopify_logo_2018 1" clip-path="url(#clip0_84_752)">
<path id="Vector" d="M25.8842 7.18376C25.8609 7.01465 25.7132 6.92082 25.5906 6.91061C25.4689 6.90039 23.0849 6.86417 23.0849 6.86417C23.0849 6.86417 21.091 4.92796 20.8941 4.73099C20.6972 4.53403 20.3125 4.59349 20.1629 4.63808C20.1611 4.63901 19.7885 4.75422 19.1614 4.9484C19.0564 4.60835 18.9021 4.19026 18.6819 3.77032C17.9721 2.41572 16.9325 1.6994 15.6764 1.69755C15.6745 1.69755 15.6736 1.69755 15.6717 1.69755C15.5844 1.69755 15.498 1.70591 15.4107 1.71333C15.3735 1.66874 15.3363 1.62508 15.2973 1.58233C14.7501 0.997016 14.0486 0.711788 13.2078 0.736873C11.5856 0.783327 9.96999 1.9549 8.65998 4.03604C7.73833 5.50027 7.03686 7.33987 6.83805 8.76413C4.97523 9.34108 3.67265 9.74428 3.64385 9.7536C2.70362 10.049 2.6739 10.0778 2.55126 10.9642C2.46021 11.634 0 30.6579 0 30.6579L20.6172 34.2237L29.5531 32.0023C29.5531 32.0023 25.9074 7.35288 25.8842 7.18376ZM18.1292 5.268C17.6544 5.41479 17.1146 5.58203 16.5292 5.7632C16.5172 4.94189 16.4196 3.79912 16.0369 2.81151C17.2679 3.04471 17.8736 4.4374 18.1292 5.268ZM15.4506 6.09767C14.3701 6.43211 13.1911 6.79725 12.0084 7.16333C12.341 5.88955 12.9718 4.62136 13.7467 3.78983C14.0347 3.48045 14.4379 3.13576 14.9154 2.93879C15.3642 3.87531 15.4617 5.2011 15.4506 6.09767ZM13.2403 1.81646C13.6212 1.8081 13.9418 1.89172 14.2159 2.07196C13.7773 2.29959 13.3537 2.62662 12.956 3.05307C11.9257 4.15868 11.1359 5.87469 10.821 7.53031C9.83894 7.83411 8.87827 8.13238 7.99379 8.40553C8.5522 5.79944 10.7364 1.88893 13.2403 1.81646Z" fill="#95BF47"/>
<path id="Vector_2" d="M25.5915 6.91164C25.4698 6.90142 23.0858 6.8652 23.0858 6.8652C23.0858 6.8652 21.092 4.92898 20.8951 4.73202C20.8217 4.65862 20.7223 4.62053 20.6182 4.60474L20.6191 34.2229L29.5541 32.0024C29.5541 32.0024 25.9084 7.35391 25.8852 7.18479C25.8619 7.01568 25.7133 6.92185 25.5915 6.91164Z" fill="#5E8E3E"/>
<path id="Vector_3" d="M15.6652 11.5058L14.6274 15.3884C14.6274 15.3884 13.4698 14.8616 12.0975 14.948C10.0851 15.0753 10.0637 16.3444 10.0842 16.6631C10.1938 18.3995 14.7621 18.7786 15.0186 22.8461C15.2202 26.0459 13.3211 28.2348 10.585 28.4076C7.30066 28.6147 5.49268 26.6776 5.49268 26.6776L6.18857 23.7176C6.18857 23.7176 8.00861 25.0908 9.46541 24.9988C10.4168 24.9384 10.7568 24.1645 10.7224 23.6172C10.5794 21.3521 6.85934 21.4859 6.62431 17.764C6.42639 14.6321 8.48342 11.4584 13.0219 11.1722C14.7705 11.0598 15.6652 11.5058 15.6652 11.5058Z" fill="white"/>
<path id="Vector_4" d="M41.3203 19.636C40.2928 19.0785 39.7648 18.6086 39.7648 17.9626C39.7648 17.1406 40.4983 16.6125 41.6437 16.6125C42.9771 16.6125 44.1677 17.1701 44.1677 17.1701L45.1067 14.2931C45.1067 14.2931 44.2433 13.6177 41.7018 13.6177C38.165 13.6177 35.7138 15.6431 35.7138 18.4906C35.7138 20.105 36.8584 21.338 38.3853 22.218C39.6183 22.9221 40.0587 23.4216 40.0587 24.1551C40.0587 24.9181 39.4423 25.5346 38.2978 25.5346C36.592 25.5346 34.9812 24.6536 34.9812 24.6536L33.9833 27.5305C33.9833 27.5305 35.4715 28.5285 37.9752 28.5285C41.6152 28.5285 44.2277 26.738 44.2277 23.5091C44.2267 21.7785 42.9062 20.5455 41.3203 19.636Z" fill="black"/>
<path id="Vector_5" d="M55.8212 13.5892C54.0306 13.5892 52.6217 14.4407 51.5361 15.7317L51.4771 15.7022L53.0326 7.57178H48.9817L45.0487 28.2651H49.0996L50.4497 21.1916C50.9777 18.5202 52.3572 16.8771 53.6491 16.8771C54.5586 16.8771 54.9116 17.4936 54.9116 18.3746C54.9116 18.9321 54.8526 19.6076 54.7356 20.1651L53.2095 28.266H57.2607L58.8452 19.9006C59.0216 19.0196 59.1394 17.9636 59.1394 17.2586C59.1377 14.9687 57.9344 13.5892 55.8212 13.5892Z" fill="black"/>
<path id="Vector_6" d="M68.2957 13.5891C63.4225 13.5891 60.1948 17.9921 60.1948 22.8936C60.1948 26.0341 62.1316 28.5581 65.7718 28.5581C70.5561 28.5581 73.785 24.2731 73.785 19.2536C73.785 16.3481 72.0821 13.5891 68.2957 13.5891ZM66.2998 25.448C64.92 25.448 64.3329 24.274 64.3329 22.806C64.3329 20.4875 65.5368 16.7011 67.7381 16.7011C69.1764 16.7011 69.6452 17.934 69.6452 19.1375C69.6452 21.632 68.443 25.448 66.2998 25.448Z" fill="black"/>
<path id="Vector_7" d="M84.1462 13.5891C81.4119 13.5891 79.8602 15.9961 79.8602 15.9961H79.8022L80.0372 13.8241H76.4562C76.2803 15.2921 75.9566 17.5221 75.6346 19.1956L72.8165 34.018H76.8675L77.9821 28.03H78.0709C78.0709 28.03 78.9019 28.5581 80.4485 28.5581C85.2033 28.5581 88.3144 23.6861 88.3144 18.7542C88.3144 16.0256 87.1105 13.5891 84.1462 13.5891ZM80.2716 25.506C79.2201 25.506 78.5977 24.919 78.5977 24.919L79.2731 21.1326C79.743 18.6086 81.0636 16.9351 82.4729 16.9351C83.7058 16.9351 84.087 18.0796 84.087 19.1661C84.087 21.7785 82.5315 25.506 80.2716 25.506Z" fill="black"/>
<path id="Vector_8" d="M94.0967 7.7771C92.8057 7.7771 91.7782 8.80458 91.7782 10.1251C91.7782 11.3286 92.5412 12.1506 93.6859 12.1506H93.7445C95.007 12.1506 96.0926 11.2991 96.1222 9.80259C96.1222 8.62854 95.3296 7.7771 94.0967 7.7771Z" fill="black"/>
<path id="Vector_9" d="M88.4321 28.265H92.482L95.242 13.9126H91.1614L88.4321 28.265Z" fill="black"/>
<path id="Vector_10" d="M105.545 13.883H102.727L102.873 13.2075C103.108 11.828 103.93 10.595 105.28 10.595C106.001 10.595 106.571 10.8005 106.571 10.8005L107.364 7.63058C107.364 7.63058 106.659 7.27856 105.162 7.27856C103.724 7.27856 102.286 7.68952 101.2 8.62854C99.8199 9.80258 99.1741 11.5046 98.8515 13.2075L98.7349 13.883H96.8556L96.2684 16.9359H98.1477L96.005 28.2658H100.056L102.199 16.9359H104.987L105.545 13.883Z" fill="black"/>
<path id="Vector_11" d="M115.289 13.9126C115.289 13.9126 112.757 20.2921 111.62 23.7745H111.561C111.484 22.653 110.563 13.9126 110.563 13.9126H106.307L108.744 27.091C108.803 27.3841 108.774 27.561 108.656 27.7664C108.185 28.676 107.393 29.5569 106.454 30.2029C105.691 30.7604 104.84 31.1124 104.165 31.3474L105.28 34.7819C106.102 34.6059 107.804 33.9304 109.242 32.5804C111.092 30.8489 112.794 28.1774 114.555 24.5375L119.516 13.9116H115.289V13.9126Z" fill="black"/>
</g>
<defs>
<clipPath id="clip0_84_752">
<rect width="120" height="34.0465" fill="white" transform="translate(0 0.735352)"/>
</clipPath>
</defs>
</svg>
