<svg xmlns="http://www.w3.org/2000/svg" width="1512" height="200" viewBox="0 0 1512 200" fill="none">
  <path d="M1082.22 95.262C1088.49 99.8044 1093.99 103.182 1098.74 105.395C1101.24 106.562 1104.99 105.975 1107.38 106.284C1115.29 107.293 1122.91 106.681 1130.87 106.658C1131.15 106.658 1131.27 106.79 1131.23 107.055L1131 108.929C1130.99 109.004 1131 109.08 1131.05 109.142C1131.09 109.205 1131.15 109.25 1131.23 109.268C1131.3 109.287 1131.38 109.278 1131.45 109.243C1131.52 109.208 1131.57 109.15 1131.6 109.08L1132.35 107.174C1132.46 106.888 1132.67 106.74 1132.98 106.729L1139.03 106.546L1142.06 106.689C1142.34 106.7 1142.48 106.843 1142.49 107.118C1142.61 109.85 1142.61 111.999 1142.49 113.566C1142.46 113.926 1142.15 114.101 1141.54 114.091L1124.18 113.956C1123.96 113.956 1123.88 114.059 1123.95 114.265C1123.98 114.366 1124.03 114.451 1124.1 114.519C1124.2 114.609 1124.36 114.652 1124.59 114.646C1130.44 114.498 1136.29 114.453 1142.14 114.511L1145.46 114.361C1145.71 114.35 1145.86 114.223 1145.9 113.979C1148.15 103.476 1150.59 93.0147 1153.22 82.5958C1153.84 80.1261 1155.01 80.5629 1157.43 80.6185C1169.61 80.9255 1181.78 80.9652 1193.96 80.7376C1194.97 80.7217 1195.65 80.7879 1196 80.9361C1196.89 81.3226 1197.22 81.9897 1197 82.9373C1194.62 92.9538 1192.5 102.719 1190.63 112.232C1190.37 113.511 1189.87 114.527 1189.21 115.591C1189.1 115.771 1189.15 115.859 1189.36 115.853L1204.55 115.528C1205.06 115.512 1205.32 115.761 1205.33 116.274L1205.53 126.987C1205.53 127.342 1205.36 127.519 1205 127.519H1203.09C1202.82 127.519 1202.69 127.651 1202.69 127.916V190.056C1202.69 190.326 1202.82 190.463 1203.09 190.469L1218.57 190.675C1218.83 190.681 1218.96 190.551 1218.96 190.286C1218.76 168.583 1219.85 146.086 1217.83 124.541C1217.61 122.212 1217.54 119.416 1217.61 116.155C1217.62 115.838 1217.78 115.676 1218.1 115.671L1240.73 115.433C1240.96 115.433 1241.1 115.321 1241.15 115.099C1242.25 110.438 1243.38 105.84 1243.42 101.138C1243.46 96.6014 1243.19 90.77 1242.59 83.6441C1242.21 79.0276 1242.98 73.8605 1244.92 68.1429C1244.94 68.0924 1244.94 68.0384 1244.93 67.9861C1244.92 67.9338 1244.9 67.8849 1244.87 67.8442C1244.83 67.8035 1244.79 67.7723 1244.74 67.7537C1244.69 67.7351 1244.63 67.7296 1244.58 67.7379L1242.85 68C1242.56 68.0423 1242.41 67.9205 1242.4 67.6347C1242.21 64.2041 1243.98 62.33 1244.69 59.487C1246.08 53.952 1248.27 48.5044 1249.66 43.2235C1251.41 36.5847 1254.01 29.9697 1259.1 25.2447C1263.89 20.8055 1271.65 18.4391 1277.98 20.9167C1282.25 22.5923 1283.91 21.5758 1287.24 25.5226C1291.67 30.7479 1294.44 35.592 1291.58 42.6835C1291.03 44.0229 1289.91 45.0129 1288.22 45.6535C1287.93 45.7647 1287.83 45.9658 1287.93 46.257L1289.21 49.8385C1289.25 49.9431 1289.25 50.057 1289.22 50.165C1289.19 50.273 1289.12 50.3697 1289.04 50.442C1287.59 51.6173 1286.67 52.2447 1285.94 54.095C1285.21 55.9373 1284.23 57.65 1283 59.2329C1282.92 59.3392 1282.81 59.4223 1282.69 59.4738C1282.56 59.5253 1282.43 59.5436 1282.29 59.5267C1279.49 59.2038 1276.91 58.272 1274.54 56.7314C1274.44 56.6644 1274.32 56.6378 1274.2 56.6569C1274.07 56.676 1273.97 56.7394 1273.89 56.8347L1271.45 59.8364C1271.24 60.0863 1271.12 60.3939 1271.1 60.7159C1271.08 61.0379 1271.16 61.358 1271.33 61.6311C1272.17 62.9653 1272.82 64.4026 1273.29 65.9432C1273.84 67.7855 1274.75 68.4923 1276.04 69.7311C1276.17 69.865 1276.26 70.0413 1276.29 70.2314C1276.43 71.1288 1276.39 72.3835 1276.8 73.1538C1279.14 77.5214 1281.1 82.0638 1282.67 86.7808C1282.75 87.0293 1282.9 87.2476 1283.11 87.4082C1294.51 96.3023 1302.38 103.878 1313.12 108.341C1318.31 110.493 1323.86 108.818 1328.87 111.271C1330.37 112.013 1331.8 112.886 1333.16 113.892C1333.26 113.968 1333.38 114.018 1333.51 114.037C1333.63 114.056 1333.77 114.045 1333.89 114.003C1338.06 112.558 1342.85 111.581 1346.46 108.968C1346.62 108.85 1346.74 108.685 1346.81 108.496C1346.87 108.307 1346.88 108.104 1346.82 107.912C1344.09 98.2611 1340.88 88.7767 1337.18 79.4591C1337.08 79.205 1336.9 79.0303 1336.65 78.935C1333.63 77.7676 1327.4 86.5267 1325.03 89.6873C1324.95 89.7855 1324.91 89.9054 1324.91 90.0288C1324.91 90.1521 1324.95 90.2721 1325.03 90.3702L1326.76 92.6176C1326.86 92.7517 1326.91 92.918 1326.9 93.0848C1326.89 93.2517 1326.82 93.4075 1326.7 93.5229L1316.53 103.64C1316.44 103.73 1316.33 103.795 1316.2 103.83C1316.08 103.865 1315.95 103.868 1315.83 103.838C1314.37 103.521 1313.39 102.682 1312.9 101.321C1312.86 101.213 1312.85 101.099 1312.85 100.984C1312.86 100.87 1312.89 100.758 1312.94 100.654C1314.84 96.7311 1318.41 94.1344 1320.59 90.5529C1323.37 86.0026 1326.85 82.2544 1330.28 78.2203C1333.03 74.9961 1331.18 73.9241 1328.71 71.3988C1326.54 69.1911 1324.33 67.0338 1322.09 64.9267C1321.26 64.1432 1320.04 63.312 1318.44 62.4332C1315.39 60.755 1312.63 58.2985 1310.14 55.0638C1309.57 54.3173 1309.73 53.8011 1310.63 53.5152C1313.63 52.5782 1322.41 55.8261 1323.1 58.9708C1323.15 59.2197 1323.29 59.397 1323.52 59.5029C1327.79 61.377 1332.89 67.5553 1335.55 71.0494C1335.61 71.1381 1335.7 71.2102 1335.8 71.2598C1335.9 71.3094 1336.01 71.3353 1336.12 71.3353H1341.92C1342.19 71.3355 1342.45 71.4219 1342.66 71.5814C1344.12 72.6826 1345.12 74.12 1345.66 75.8935C1345.69 75.9852 1345.68 76.0831 1345.64 76.1686C1345.6 76.2542 1345.53 76.3214 1345.44 76.3576C1345.35 76.3938 1345.25 76.3965 1345.16 76.3651C1345.07 76.3337 1345 76.2705 1344.95 76.1873C1344.16 74.7103 1343.24 73.3788 1342.19 72.1929C1342.07 72.0658 1341.93 72.0658 1341.77 72.1929C1341.59 72.3411 1341.57 72.5079 1341.72 72.6932C1343.07 74.3661 1343.06 76.01 1341.69 77.6247C1341.5 77.8466 1341.38 78.1144 1341.32 78.4014C1341.27 78.6884 1341.3 78.9846 1341.39 79.2605C1344.62 88.5623 1347.79 97.7211 1350.91 106.737C1351.05 107.166 1351.31 107.412 1351.68 107.476C1351.79 107.493 1351.91 107.489 1352.01 107.462C1352.12 107.435 1352.22 107.386 1352.31 107.318C1352.4 107.251 1352.48 107.166 1352.53 107.069C1352.59 106.972 1352.62 106.864 1352.64 106.753C1353.54 98.915 1346.75 86.5585 1342.54 80.1261C1342.28 79.7185 1342.14 79.3055 1342.13 78.8873C1342.13 78.833 1342.15 78.78 1342.18 78.7352C1342.21 78.6903 1342.25 78.6558 1342.3 78.6361C1342.35 78.6164 1342.41 78.6124 1342.46 78.6246C1342.51 78.6368 1342.56 78.6647 1342.6 78.7047C1348.98 86.1297 1353.67 98.4861 1354 108.667C1354.01 108.816 1354.05 108.961 1354.13 109.087C1354.21 109.213 1354.32 109.314 1354.45 109.381L1359.89 112.216C1359.95 112.243 1359.99 112.284 1360.02 112.336C1361.29 114.548 1363.24 115.668 1365.89 115.695C1365.95 115.696 1366.02 115.683 1366.08 115.656C1366.13 115.63 1366.18 115.59 1366.23 115.541C1366.27 115.491 1366.3 115.433 1366.31 115.37C1366.33 115.308 1366.33 115.242 1366.32 115.178L1366.03 113.614C1365.98 113.365 1365.83 113.265 1365.58 113.312L1364.48 113.519C1364.19 113.572 1363.99 113.466 1363.87 113.201C1361.91 108.849 1360.83 103.497 1359.59 99.8679C1356.02 89.3538 1352.34 78.8714 1348.55 68.4208C1348.52 68.3472 1348.51 68.268 1348.52 68.1903C1348.53 68.1125 1348.56 68.0384 1348.61 67.9743C1348.65 67.9102 1348.71 67.8582 1348.78 67.8225C1348.85 67.7869 1348.93 67.7687 1349.01 67.7697L1367.88 68.0873C1368.4 68.0971 1368.91 68.2627 1369.33 68.5627C1369.76 68.8627 1370.09 69.2835 1370.27 69.7708L1379.74 94.7697C1379.8 94.9248 1379.91 95.0547 1380.05 95.1361C1380.2 95.2175 1380.36 95.2453 1380.53 95.2144C1384.77 94.4282 1391.15 92.6494 1395.43 93.4911C1395.76 93.56 1395.91 93.4223 1395.88 93.0782C1395.71 91.7441 1395.82 90.9738 1396.93 90.1241C1399.01 88.5279 1402.83 85.9391 1405.36 87.0588C1414.33 91.0452 1421.12 90.7991 1432.14 90.5211C1432.38 90.5158 1432.51 90.3888 1432.5 90.14C1432.45 84.777 1431.8 79.5041 1430.55 74.3211C1428.57 66.1338 1435.88 49.9576 1426.18 45.447C1426.07 45.3944 1425.95 45.3739 1425.83 45.3879C1425.7 45.402 1425.59 45.4499 1425.49 45.5264C1422.41 47.9008 1419.6 50.6564 1416.04 46.805C1408.03 38.1173 1406.14 28.4847 1407.53 16.8667C1407.57 16.6126 1407.66 16.385 1407.83 16.1838C1412.23 10.7044 1418.42 6.7576 1425.43 5.91583C1427.54 5.66172 1429 5.43142 1429.81 5.22495C1433.35 4.3276 1434.77 5.76495 1437.97 8.02819C1451.11 17.3035 1455.59 33.9561 1459.99 49.1C1460.56 51.08 1460.71 52.8879 1460.45 54.5238C1460.39 54.8312 1460.46 55.148 1460.63 55.4132C1461.32 56.4826 1461.71 57.6553 1461.82 58.9311C1461.83 59.0465 1461.8 59.1611 1461.73 59.2543C1461.66 59.3475 1461.56 59.4132 1461.45 59.4394L1460.29 59.7014C1460.16 59.732 1460.05 59.8099 1459.98 59.9184C1459.92 60.0268 1459.89 60.1571 1459.92 60.2811C1461.86 68.8814 1463.53 75.6791 1463.96 85.9152C1464.27 93.3323 1465.12 98.7085 1467.31 105.085C1467.34 105.149 1467.38 105.204 1467.44 105.241C1467.49 105.279 1467.56 105.296 1467.63 105.292C1467.7 105.287 1467.76 105.261 1467.81 105.216C1467.86 105.172 1467.9 105.112 1467.91 105.046C1468.39 102.901 1468.86 100.726 1469.09 98.4623C1470.1 88.4617 1471.49 79.1547 1473.27 70.5411C1473.86 67.7088 1475.46 65.8347 1478.08 64.9188C1480.22 64.1723 1482.03 65.4508 1482.19 67.6108C1482.67 74.1702 1482.45 80.6847 1481.55 87.1541C1480.01 98.1764 1474.38 109.008 1473.47 120.11C1472.88 127.225 1475.18 133.769 1475.99 139.272C1477.19 147.308 1471.49 149.492 1464.89 149.572C1460.73 149.619 1456.57 149.879 1452.41 150.35C1452.32 150.36 1452.23 150.394 1452.15 150.447C1452.08 150.5 1452.02 150.572 1451.98 150.655C1451.94 150.738 1451.92 150.831 1451.92 150.923C1451.93 151.015 1451.96 151.105 1452 151.184C1453.47 153.574 1456.81 155.027 1459.12 156.608C1459.25 156.692 1459.36 156.791 1459.46 156.901C1461.47 159.077 1461.23 160.403 1458.75 160.88C1455.68 161.476 1454.1 159.379 1454.82 156.552C1454.86 156.415 1454.85 156.269 1454.79 156.142C1454.73 156.014 1454.63 155.912 1454.5 155.853C1453.04 155.181 1452.01 154.077 1451.43 152.542C1451.39 152.416 1451.3 152.311 1451.18 152.243C1451.07 152.175 1450.93 152.149 1450.8 152.168C1448.65 152.476 1447.1 153.569 1446.14 155.448C1446.01 155.713 1445.79 155.885 1445.5 155.964L1442.56 156.774C1442.31 156.843 1442.18 157.01 1442.17 157.275L1441.81 168.885C1441.8 169.091 1441.87 169.266 1442.02 169.409L1442.43 169.814C1442.61 169.999 1442.7 170.221 1442.71 170.481C1442.71 173.308 1442.71 176.135 1442.7 178.962C1442.69 181.241 1444.12 181.122 1445.84 181.416C1458.14 183.481 1470.47 185.283 1482.84 186.824C1485.23 187.126 1486.83 187.888 1487.35 190.215C1487.41 190.501 1487.59 190.643 1487.88 190.643L1512 190.683V344.313H0V190.612L33.1782 190.62C33.4535 190.62 33.6018 190.485 33.6229 190.215C33.7871 187.906 35.0894 186.601 37.53 186.3C50.1565 184.748 62.9576 182.787 75.9335 180.415C76.0746 180.388 76.2016 180.313 76.2929 180.204C76.3842 180.096 76.434 179.96 76.4338 179.82C76.4338 177.141 76.4365 174.391 76.4418 171.569C76.4497 170.235 77.1962 169.234 77.2279 168.019C77.2809 166.219 77.2676 162.529 77.1882 156.949C77.1882 156.663 77.0532 156.47 76.7832 156.369L73.1859 154.988C72.9159 154.882 72.7147 154.702 72.5824 154.448C70.2397 149.921 67.1665 153.717 65.5147 155.917C65.3569 156.126 65.2858 156.387 65.3162 156.647C65.7132 159.673 62.2906 161.944 59.9003 159.736C58.59 158.529 59.2174 157.457 60.5118 156.631C63.0424 155.043 65.3479 153.14 67.4285 150.922C67.494 150.852 67.5395 150.765 67.5606 150.672C67.5816 150.578 67.5774 150.481 67.5483 150.389C67.5192 150.298 67.4662 150.216 67.395 150.152C67.3237 150.088 67.2366 150.044 67.1426 150.024C58.6138 148.309 39.5391 153.518 42.5885 137.398C43.5097 132.546 44.5659 127.519 44.5024 122.778C44.3912 114.472 42.1756 106.705 39.9044 98.7879C37.0059 88.6867 36.0053 79.2685 36.5215 68.9847C36.8788 61.782 41.1353 62.9335 46.1303 65.0776C46.4056 65.1941 46.5538 65.1041 46.575 64.8076C46.8503 60.6041 47.7529 56.5673 49.2829 52.6973C51.1941 47.8585 52.6606 44.7561 53.6824 43.3902C55.0747 41.5214 56.0303 39.9729 56.5491 38.7447C57.0971 37.4741 57.7879 36.5847 59.1776 36.6958C59.4757 36.7197 59.7715 36.6305 60.0057 36.4464C60.24 36.2622 60.3952 35.9967 60.4403 35.7032L61.1471 31.0179C61.1894 30.7373 61.1285 30.4858 60.9644 30.2635C60.4297 29.5435 60.0882 28.7441 59.94 27.8652C55.3897 1.27819 89.6241 2.3423 87.4879 25.3002C87.3053 27.3173 89.3223 29.1597 88.8618 30.5414C88.7029 31.0232 88.3588 31.3647 87.8294 31.5658C87.5541 31.6664 87.3582 31.8491 87.2418 32.1138C86.5853 33.5485 85.7303 34.8482 84.6768 36.0129C84.5021 36.2035 84.3776 36.4232 84.3035 36.672C83.1282 40.7458 78.6018 41.54 79.8088 46.1697C79.8311 46.2571 79.8348 46.3477 79.8198 46.4353C79.8047 46.523 79.7712 46.6057 79.7215 46.6779L79.1418 47.5117C78.9724 47.7552 78.9671 48.0041 79.1259 48.2582C87.4165 61.377 90.855 77.5929 94.77 92.4905C94.8005 92.6096 94.8562 92.7208 94.9334 92.8165C95.0105 92.9122 95.1074 92.9901 95.2173 93.0451C95.3273 93.1001 95.4478 93.1308 95.5706 93.1351C95.6935 93.1395 95.8159 93.1173 95.9294 93.0703C99.7253 91.5403 103.529 89.8408 107.341 87.972C112.074 85.6611 117.204 87.027 121.77 88.8932C121.944 88.9632 122.092 89.0839 122.196 89.2396C122.3 89.3954 122.355 89.5791 122.353 89.7671C122.352 89.9551 122.294 90.1387 122.187 90.2944C122.08 90.45 121.929 90.5705 121.754 90.6402L118.697 91.8394C118.635 91.8631 118.584 91.9086 118.555 91.9671C118.525 92.0257 118.519 92.0934 118.536 92.1576C118.554 92.2218 118.594 92.2781 118.65 92.316C118.706 92.3539 118.773 92.3708 118.84 92.3635C125.801 91.3258 132.776 90.5555 139.765 90.0526C140.363 90.0102 141.3 89.4094 142.576 88.25C148.172 83.1729 153.752 78.0852 159.316 72.987C160.618 71.7958 161.659 70.4776 163.588 71.105C163.779 71.1668 163.951 71.2779 164.085 71.427C164.22 71.5762 164.312 71.7581 164.354 71.9545C164.396 72.1509 164.386 72.3549 164.324 72.5459C164.262 72.7369 164.15 72.9082 164.001 73.0426C155.901 80.3088 148.309 88.2658 139.423 94.4361C137.152 96.0164 132.094 97.1917 129.719 94.8729C129.539 94.6982 129.325 94.6267 129.076 94.6585L116.727 96.2864C116.473 96.3227 116.234 96.4241 116.036 96.5802C113.535 98.5894 110.366 102.02 107.261 102.782C103.63 103.672 99.9344 104.106 96.1756 104.085C94.8494 104.085 93.3168 102.989 91.9429 104.593C91.7523 104.815 91.7603 105.03 91.9668 105.236C93.2638 106.523 93.8435 108.092 93.7059 109.945C93.6847 110.199 93.8012 110.334 94.0553 110.35C100.504 110.779 106.054 111.653 112.328 114.186C122.768 118.411 129.976 121.423 133.952 123.223C137.885 125.007 140.704 126.751 142.409 128.456C143.974 130.013 144.871 134.007 145.459 135.698C150.366 149.934 154.768 164.324 158.665 178.867C160.039 183.997 162.27 186.784 167.13 188.468C168.186 188.825 168.591 189.293 169.052 190.238C169.112 190.362 169.205 190.467 169.322 190.54C169.438 190.613 169.573 190.652 169.711 190.651H177.684C177.949 190.651 178.081 190.519 178.081 190.254V127.916C178.081 127.651 177.949 127.519 177.684 127.519H174.706C174.309 127.519 174.11 127.321 174.11 126.923V116.481C174.11 116.137 174.282 115.97 174.626 115.981L180.304 116.068C180.537 116.073 180.619 115.965 180.551 115.742C180.116 114.35 179.899 113.164 179.899 112.185C179.857 101.676 179.849 91.1802 179.876 80.6979C179.876 80.5918 179.916 80.49 179.989 80.4143C180.062 80.3386 180.161 80.295 180.265 80.2929L190.461 80.0467L220.804 80.0626L221.797 80.1341L243.858 80.1976C244.742 80.1976 245.184 80.6397 245.184 81.5238L245.128 115.853C245.128 116.044 245.224 116.142 245.414 116.147C252.312 116.38 259.174 115.97 265.998 114.916C266.12 114.899 266.235 114.846 266.327 114.764C266.42 114.682 266.486 114.574 266.517 114.454C266.549 114.335 266.544 114.208 266.504 114.091C266.464 113.974 266.39 113.872 266.291 113.797C264.481 112.394 264.219 110.782 265.505 108.961C265.669 108.728 265.759 108.471 265.775 108.19L266.244 99.5344C266.258 99.2798 266.19 99.0275 266.05 98.8145C265.91 98.6015 265.705 98.4391 265.466 98.3511L261.987 97.0647C261.643 96.9376 261.482 96.6914 261.503 96.3261C262.159 85.7855 264.719 75.7532 269.182 66.2291C271.541 62.0917 273.748 62.0282 278.06 61.0594C281.56 60.3923 285.181 60.1117 288.924 60.2176C289.104 60.2226 289.282 60.2864 289.432 60.4002C289.591 60.522 289.768 60.5935 289.964 60.6147C290.129 60.6371 290.297 60.6003 290.439 60.5104C290.581 60.4206 290.688 60.2833 290.742 60.1223L291.87 56.7552C291.955 56.4958 291.907 56.2629 291.727 56.0564C290.194 54.2697 288.138 49.7988 289.932 47.5832C290.01 47.4854 290.066 47.372 290.098 47.2503C290.129 47.1287 290.135 47.0013 290.115 46.8764C288.948 39.8247 291.29 31.3752 299.382 29.8029C304.793 28.76 309.2 30.1814 312.604 34.0673C314.621 36.3623 314.733 38.6573 314.486 42.0323C314.328 44.1976 314.41 46.8844 314.733 50.0926C315.066 53.4358 311.048 56.3264 310.675 59.7888C310.548 60.9323 311.045 61.6285 312.168 61.8773C319.251 63.4735 327.145 65.0776 330.567 71.9864C332.171 75.2344 331.917 80.2611 332.378 84.0808C333.069 89.8064 332.545 94.8491 335.586 100.591C335.713 100.829 335.753 101.083 335.705 101.353C335.181 104.378 335.626 107.753 334.832 110.231C333.672 113.836 330.922 115.356 326.581 114.789C326.311 114.758 326.104 114.858 325.961 115.091L325.779 115.401C325.742 115.459 325.722 115.527 325.72 115.596C325.718 115.665 325.734 115.733 325.767 115.794C325.8 115.855 325.849 115.905 325.908 115.941C325.968 115.977 326.035 115.996 326.104 115.996C337.27 116.219 348.443 116.282 359.624 116.187C362.769 116.155 364.826 114.416 367.923 114.106C369.839 113.916 371.742 113.63 373.632 113.249C373.928 113.193 374.19 113.022 374.363 112.772C375.348 111.322 376.748 110.612 378.564 110.644C378.685 110.646 378.805 110.622 378.917 110.574C379.028 110.526 379.129 110.455 379.211 110.366C379.293 110.277 379.356 110.172 379.395 110.057C379.434 109.942 379.448 109.82 379.437 109.699C378.611 100.424 377.399 91.1988 375.8 82.0241C375.754 81.7667 375.622 81.5341 375.427 81.365C372.544 78.8714 365.183 80.277 362.07 81.1982C361.705 81.3044 361.384 81.5247 361.153 81.8268C360.922 82.129 360.795 82.497 360.788 82.8771C360.782 83.2571 360.898 83.6292 361.118 83.9387C361.339 84.2482 361.653 84.4789 362.014 84.597C362.787 84.8511 363.227 85.3991 363.333 86.2408C363.349 86.3787 363.317 86.5176 363.241 86.6316C363.165 86.7456 363.051 86.8269 362.92 86.8603L343.67 91.617C343.513 91.6541 343.349 91.6344 343.206 91.5616C343.063 91.4888 342.952 91.3676 342.892 91.22C340.454 85.1767 350.619 80.2611 355.121 79.7132C355.238 79.6994 355.348 79.6504 355.438 79.5725C355.527 79.4947 355.591 79.3915 355.622 79.2764L356.257 76.8385C356.336 76.5314 356.535 76.3647 356.853 76.3382C364.762 75.687 371.822 73.122 379.541 72.1055C379.857 72.0623 380.178 72.1035 380.473 72.2249C380.767 72.3463 381.024 72.5435 381.216 72.7964C382.18 74.067 383.371 75.0517 384.79 75.7505C385.049 75.8829 385.205 76.0894 385.258 76.37C386.727 83.5964 388.752 91.5455 388.895 98.8991C388.959 102.298 388.093 114.305 392.707 115.361C395.105 115.912 397.525 116.399 399.965 116.822C400.07 116.841 400.166 116.894 400.235 116.974C400.305 117.053 400.344 117.154 400.346 117.259L400.474 127.098C400.479 127.379 400.341 127.519 400.061 127.519H397.234C397.017 127.519 396.809 127.605 396.655 127.759C396.502 127.912 396.416 128.12 396.416 128.337L396.694 190.294C396.699 190.532 396.818 190.651 397.051 190.651H417.293C417.542 190.651 417.666 190.53 417.666 190.286C417.857 170.936 417.698 151.589 417.19 132.244C417.078 127.956 415.84 122.905 416.459 117.839C416.491 117.563 416.631 117.36 416.88 117.227L419.366 115.933C419.6 115.811 419.777 115.603 419.858 115.353C420.271 114.104 420.927 113 421.827 112.042C421.872 111.994 421.905 111.937 421.925 111.875C421.946 111.813 421.952 111.747 421.945 111.682C421.937 111.617 421.916 111.555 421.882 111.499C421.848 111.443 421.802 111.395 421.748 111.359L419.771 110.041C419.659 109.968 419.571 109.864 419.519 109.741C419.467 109.619 419.453 109.483 419.479 109.353C419.505 109.222 419.569 109.102 419.663 109.008C419.758 108.914 419.878 108.85 420.009 108.826L421.097 108.603C421.377 108.55 421.507 108.381 421.486 108.095C421.454 107.645 421.248 107.277 420.866 106.991C420.727 106.888 420.624 106.745 420.569 106.581C420.514 106.417 420.511 106.24 420.561 106.074C420.61 105.908 420.71 105.762 420.845 105.655C420.981 105.547 421.146 105.484 421.319 105.474L435.232 104.648C435.359 104.64 435.48 104.594 435.581 104.517C435.683 104.44 435.759 104.335 435.801 104.215C435.843 104.095 435.85 103.966 435.819 103.842C435.788 103.719 435.722 103.607 435.629 103.521C434.351 102.361 429.499 102.639 427.712 102.655C427.5 102.655 427.378 102.549 427.346 102.338L426.862 99.32C426.848 99.237 426.853 99.1521 426.876 99.071C426.898 98.9899 426.939 98.9147 426.994 98.8505C427.049 98.7863 427.118 98.7346 427.195 98.6991C427.272 98.6636 427.357 98.6451 427.442 98.645L463.614 98.7164C463.921 98.7164 464.074 98.8699 464.074 99.177L463.916 115.448C463.914 115.565 463.937 115.68 463.982 115.786C464.027 115.893 464.093 115.99 464.176 116.07C464.26 116.149 464.359 116.211 464.467 116.25C464.575 116.29 464.69 116.306 464.805 116.298L472.381 115.83C472.433 115.826 472.483 115.812 472.529 115.787C472.574 115.762 472.614 115.728 472.645 115.687C472.676 115.645 472.697 115.597 472.708 115.547C472.719 115.496 472.718 115.443 472.706 115.393C470.478 105.832 469.58 96.3791 470.014 87.035C470.168 83.6785 471.859 82.3417 475.089 83.0247C480.195 84.0967 481.751 92.7923 483.697 93.3323C483.972 93.4117 484.211 93.3297 484.412 93.0861C484.576 92.8797 484.621 92.6494 484.547 92.3952C483.348 88.2976 486.651 85.7564 488.128 82.1591C488.234 81.905 488.266 81.6429 488.224 81.3729C487.879 78.9641 488.47 76.8888 489.994 75.147C492.853 71.87 495.013 69.2838 496.474 67.3885C497.226 67.0285 497.684 66.2608 497.848 65.0855C497.865 64.9531 497.914 64.8264 497.99 64.716C498.065 64.6055 498.167 64.5144 498.285 64.4502L499.667 63.6879C499.916 63.5502 499.971 63.357 499.833 63.1082C497.443 58.812 501.708 56.5488 502.581 52.7132C503.656 48.0491 505.781 43.5147 508.958 39.11C511.743 35.2505 514.771 33.3791 518.043 33.4955C525.126 33.1567 530.471 35.7191 534.076 41.1826C536.569 44.9467 535.402 49.3461 536.164 53.5391C536.617 56.0564 536.982 56.8426 536.061 59.63C535.132 62.4729 539.253 64.6567 536.355 67.5394C536.116 67.776 535.96 68.0837 535.91 68.417C535.86 68.7502 535.919 69.0913 536.077 69.3897C538.714 74.3529 533.282 75.4488 535.918 79.2605C535.978 79.3447 536.013 79.4441 536.02 79.5477C536.027 79.6513 536.006 79.7552 535.958 79.8482L533.79 84.1364C533.732 84.2582 533.639 84.2979 533.512 84.2555C533.438 84.2344 533.369 84.2105 533.306 84.1841C533.259 84.1657 533.216 84.1374 533.182 84.1011C533.147 84.0649 533.12 84.0215 533.103 83.974C533.087 83.9265 533.081 83.876 533.085 83.8259C533.09 83.7758 533.106 83.7273 533.131 83.6838C534.624 81.1982 534.616 77.4817 530.82 77.577C530.555 77.5823 530.441 77.7173 530.479 77.982C530.542 78.4479 530.791 78.7417 531.225 78.8635C531.527 78.9429 531.709 79.1335 531.773 79.4352C532.032 80.6211 532.125 81.8203 532.051 83.0326C531.979 84.2 530.963 85.2482 531.225 86.4394C532.869 94.0311 532.075 100.154 531.836 107.73C531.831 107.963 531.934 108.129 532.146 108.23C533.523 108.881 534.563 108.955 535.267 108.452C539.264 105.593 543.356 105.488 547.544 108.135C547.756 108.267 547.886 108.455 547.933 108.698C549.212 114.988 542.176 115.822 537.761 115.655C535.799 115.583 533.758 114.472 531.05 114.948C528.567 115.388 525.865 115.433 522.942 115.083C522.736 115.057 522.604 115.141 522.545 115.337C522.503 115.491 522.511 115.647 522.569 115.806C522.68 116.113 522.895 116.266 523.212 116.266L564.054 116.425C564.329 116.425 564.525 116.301 564.641 116.052L575.886 92.3555L580.119 84.1285C580.242 83.8926 580.425 83.6939 580.65 83.5529C580.875 83.4119 581.133 83.3337 581.397 83.3264L587.036 83.2073C587.459 83.202 587.578 83.39 587.393 83.7711L573.242 113.066C573.177 113.201 573.146 113.349 573.151 113.499C573.156 113.648 573.198 113.794 573.272 113.924C573.346 114.054 573.451 114.163 573.577 114.244C573.703 114.324 573.847 114.372 573.996 114.384L577.84 114.718C578.067 114.734 578.242 114.837 578.364 115.028C578.708 115.562 579.221 115.763 579.904 115.631L602.942 116.505C603.048 116.51 603.154 116.486 603.248 116.436C603.342 116.386 603.422 116.312 603.478 116.221C603.535 116.13 603.566 116.025 603.57 115.917C603.573 115.809 603.548 115.703 603.498 115.607C602.314 113.392 603.807 112.558 605.586 111.105C610.43 107.15 618.427 101.424 621.715 96.2705C621.785 96.1613 621.882 96.0718 621.996 96.0107C622.11 95.9495 622.237 95.9187 622.366 95.9211C623.197 95.9476 623.602 95.5691 623.581 94.7855C623.576 94.6161 623.499 94.4944 623.351 94.4202L622.493 93.9994C622.106 93.8141 622.067 93.5732 622.374 93.2767L623.795 91.887C623.97 91.7229 624.031 91.5217 623.978 91.2835C622.284 84.0305 620.553 76.7882 618.784 69.5564C618.663 69.0535 618.427 68.6247 618.078 68.27C615.971 66.1047 614.936 63.455 614.973 60.3208C614.978 60.0879 615.078 59.9079 615.274 59.7808C616.757 58.8544 618.377 58.4838 620.134 58.6691C620.257 58.6815 620.375 58.7241 620.479 58.7932C620.582 58.8623 620.668 58.9559 620.73 59.0661C621.873 61.1997 622.612 63.4629 622.946 65.8558C622.993 66.1894 622.853 66.4064 622.525 66.507L621.222 66.8882C620.873 66.9941 620.743 67.2244 620.833 67.5791L626.94 90.7673C627.025 91.0797 627.226 91.2597 627.544 91.3073L628.711 91.4661C628.804 91.478 628.894 91.5094 628.974 91.5583C629.055 91.6073 629.124 91.6728 629.178 91.7505C629.232 91.8283 629.269 91.9166 629.287 92.0098C629.305 92.1031 629.303 92.1992 629.283 92.292C628.875 94.1185 629.036 95.3944 629.767 96.1197C636.025 102.369 640.202 109.707 644.045 116.203C644.11 116.313 644.203 116.405 644.315 116.468C644.426 116.53 644.552 116.562 644.681 116.56L660.356 116.338C660.653 116.338 660.767 116.19 660.698 115.893C659.883 112.5 658.94 109.17 657.871 105.903C654.901 96.8105 654.694 88.2182 654.869 77.847C654.949 73.0188 658.077 71.637 662.199 73.4555C665.963 75.1073 668.75 77.9079 670.561 81.8573C670.607 81.9501 670.682 82.0247 670.776 82.0692C670.869 82.1137 670.975 82.1254 671.076 82.1025C671.177 82.0796 671.267 82.0233 671.332 81.9428C671.397 81.8623 671.433 81.7623 671.434 81.6588C671.36 77.7094 671.524 73.6541 671.927 69.4929C672.181 66.8247 671.442 63.7514 672.34 61.3214C672.747 60.2097 673.187 59.1085 673.658 58.0179C674.952 55.0638 674.817 51.26 674.809 48.0994C674.801 40.8491 684.768 42.882 684.513 36.0844C684.503 35.7773 684.349 35.6582 684.053 35.727L681.901 36.2273C681.792 36.2513 681.677 36.2366 681.579 36.1857C681.48 36.1349 681.403 36.0512 681.361 35.9494C680.63 34.197 679.32 33.3447 677.43 33.3923C677.23 33.3971 677.032 33.3483 676.857 33.2512C676.682 33.1541 676.536 33.0122 676.434 32.8402C676.333 32.6682 676.28 32.4726 676.28 32.2735C676.281 32.0745 676.335 31.8795 676.437 31.7088L677.271 30.3032C677.419 30.0597 677.414 29.8161 677.255 29.5726L675.619 27.0711C675.542 26.9474 675.506 26.8028 675.516 26.6582L675.969 20.202C675.99 19.9585 676.106 19.7758 676.318 19.6541C679.765 17.6847 684.402 13.6982 688.341 16.1361C688.59 16.2897 688.828 16.2711 689.056 16.0805C692.201 13.3594 695.856 11.9088 700.023 11.7288C705.851 11.697 710.997 16.1361 715.111 19.4714C715.217 19.5574 715.29 19.6772 715.319 19.8113C715.347 19.9454 715.33 20.0859 715.27 20.21C713.038 24.7205 719.161 28.3735 714.992 33.71C714.828 33.9217 714.844 34.115 715.039 34.2897C716.104 35.2214 716.662 36.402 716.715 37.8314C716.726 38.1226 716.638 38.382 716.453 38.6097C715.786 39.4355 715.177 40.3011 714.626 41.2064C714.484 41.4447 714.383 41.6988 714.325 41.9688L713.491 46.0267C713.422 46.3602 713.218 46.5455 712.879 46.5826C709.465 47.0008 706.283 46.3153 703.334 44.5258C703.156 44.4167 702.949 44.3654 702.74 44.3791C702.532 44.3929 702.333 44.4709 702.171 44.6025C702.009 44.7341 701.892 44.9127 701.836 45.1138C701.779 45.3148 701.787 45.5284 701.857 45.725C703.064 49.1555 704.965 51.6994 707.559 53.3564C710.966 55.5244 712.8 60.98 713.459 64.6329C714.523 70.5623 715.614 75.7108 716.731 80.0785C716.794 80.3273 716.908 80.5497 717.072 80.7455L720.797 85.2164L732.971 93.8167C733.068 93.8851 733.181 93.929 733.3 93.9447C733.418 93.9604 733.538 93.9474 733.65 93.9068C733.761 93.8662 733.861 93.7992 733.941 93.7116C734.02 93.624 734.077 93.5184 734.106 93.4038L737.275 81.1505C737.308 81.0214 737.384 80.907 737.49 80.8251C737.596 80.7432 737.727 80.6985 737.862 80.6979C750.971 80.6661 764.042 80.5761 777.076 80.4279C777.632 80.42 778.767 80.8567 779.196 80.7932C779.399 80.7621 779.604 80.786 779.795 80.8629C779.986 80.9398 780.156 81.0674 780.291 81.2343C780.426 81.4013 780.521 81.6026 780.568 81.8206C780.616 82.0386 780.613 82.2666 780.562 82.4847L774.026 110.811C773.983 110.996 774.01 111.19 774.102 111.357C774.195 111.525 774.346 111.652 774.527 111.716C779.032 113.294 783.659 113.948 788.408 113.678C788.816 113.656 789.064 113.844 789.154 114.241C789.202 114.437 789.438 114.583 789.861 114.678C790.136 114.742 790.412 114.758 790.687 114.726C794.313 114.323 796.235 112.148 796.452 108.198C796.696 103.751 796.741 98.997 796.587 93.9358C796.413 88.0117 797.786 82.6117 799.2 77.045C799.279 76.7485 799.459 76.5473 799.74 76.4414L802.694 75.3376C802.792 75.3002 802.881 75.2436 802.956 75.1713C803.031 75.0989 803.09 75.0124 803.131 74.9167C804.253 72.3279 806.151 71.3935 808.825 72.1135C817.131 74.3423 824.201 75.7003 830.036 76.1873C830.096 76.1913 830.155 76.2074 830.21 76.2347C830.264 76.262 830.313 76.3 830.352 76.3465C830.392 76.393 830.423 76.4471 830.442 76.5056C830.461 76.5641 830.469 76.626 830.464 76.6876C830.329 78.927 831.401 79.4511 833.466 79.8561C838.215 80.772 841.728 83.5011 844.004 88.0435C844.154 88.3465 844.215 88.6859 844.179 89.022C844.144 89.3582 844.014 89.6775 843.804 89.9427C843.595 90.208 843.314 90.4084 842.995 90.5206C842.677 90.6328 842.332 90.6523 842.003 90.5767L824.326 86.4552C823.717 86.3123 823.59 85.9867 823.945 85.4785L825.986 82.5641C826.069 82.4452 826.125 82.3085 826.146 82.1646C826.168 82.0207 826.157 81.8735 826.112 81.7344C826.068 81.5953 825.991 81.4681 825.89 81.3627C825.788 81.2573 825.663 81.1765 825.525 81.1267C822.349 79.9832 819.003 79.2579 815.487 78.9508C812.819 78.7126 810.699 80.3723 810.206 82.9214C808.671 90.7885 807.173 98.6555 805.712 106.523C805.516 107.581 805.553 108.606 805.823 109.596C805.892 109.839 806.043 110.011 806.276 110.112L809.222 111.335C809.335 111.383 809.438 111.453 809.524 111.542C809.61 111.631 809.677 111.736 809.722 111.851C810.119 112.907 810.715 113.408 811.898 113.535C816.79 114.067 820.744 114.194 823.5 116.052C823.717 116.2 823.961 116.274 824.231 116.274L838.406 116.171C838.67 116.171 838.813 116.041 838.834 115.782C839.255 111.089 841.773 103.243 846.045 100.44C846.251 100.307 846.368 100.117 846.394 99.8679C846.707 96.7602 847.877 93.9914 849.904 91.5614C850.06 91.3753 850.154 91.148 850.174 90.9102C850.468 87.845 853.303 76.1238 857.877 75.5044C861.919 74.9564 869.344 74.7817 872.648 72.7329C872.719 72.6867 872.809 72.6671 872.902 72.6773L874.84 72.9711C875.284 73.04 875.38 72.8891 875.126 72.5185C870.814 66.1814 870.321 61.2261 869.98 53.5232C869.895 51.6597 870.112 50.082 870.631 48.7902C874.046 40.3408 882.161 40.325 890.023 42.5802C892.077 43.9302 893.695 45.7223 894.875 47.9564C896.281 50.6088 895.479 56.2073 895.733 59.3441C895.939 61.8614 895.074 63.5291 894.431 65.8717C894.362 66.1205 894.38 66.3588 894.486 66.5864C894.767 67.1953 894.846 67.8279 894.724 68.4844C894.699 68.6271 894.645 68.7629 894.564 68.8833C894.483 69.0036 894.378 69.1058 894.256 69.1832C893.038 69.9508 892.321 70.512 892.104 70.8667C891.032 72.59 892.302 73.4714 893.922 73.6064C896.998 73.8658 900.421 74.075 904.19 74.2338L909.297 74.4879C909.379 74.4878 909.459 74.5098 909.527 74.5514L914.855 77.7279C915.03 77.8338 915.136 77.9873 915.173 78.1885C916.131 84.0491 916.732 91.0955 916.976 99.3279C917.071 102.449 919.636 102.409 920.716 104.402C921.979 106.737 921.383 112.78 921.359 115.576C921.359 115.967 921.555 116.158 921.947 116.147L923.583 116.108C923.649 116.106 923.715 116.09 923.776 116.063C923.837 116.035 923.892 115.996 923.937 115.948C923.983 115.899 924.019 115.842 924.042 115.779C924.066 115.717 924.077 115.65 924.075 115.583L923.741 103.854C923.74 103.801 923.75 103.748 923.77 103.698C923.79 103.648 923.82 103.603 923.858 103.566C923.896 103.528 923.941 103.498 923.99 103.478C924.04 103.458 924.093 103.448 924.146 103.449L939.997 103.767C940.288 103.778 940.434 103.635 940.434 103.338V93.6023C940.435 93.4818 940.463 93.3632 940.518 93.2559C940.573 93.1486 940.653 93.0557 940.75 92.9847C940.847 92.9136 940.96 92.8664 941.079 92.8468C941.198 92.8271 941.319 92.8357 941.434 92.8717C942.165 93.1047 942.856 93.0755 943.507 92.7844C943.623 92.7322 943.715 92.6363 943.761 92.5173C943.807 92.3984 943.804 92.266 943.753 92.1491L942.729 89.7905C942.687 89.6941 942.669 89.5886 942.678 89.4837C942.687 89.3788 942.721 89.2777 942.779 89.1895C942.836 89.1013 942.915 89.0288 943.007 88.9785C943.1 88.9281 943.203 88.9016 943.309 88.9011L957.817 88.8376C958.14 88.8376 958.301 88.9964 958.301 89.3141V91.3232C958.301 91.6726 958.127 91.8473 957.777 91.8473L946.517 91.752C946.067 91.752 946.035 91.8711 946.422 92.1094C946.787 92.337 947.306 92.4376 947.978 92.4111C952.192 92.2576 956.303 92.3555 960.311 92.705C960.545 92.7247 960.763 92.8316 960.923 93.0048C961.083 93.1781 961.173 93.4052 961.176 93.642L961.327 115.631C961.327 115.783 961.387 115.928 961.495 116.035C961.602 116.143 961.747 116.203 961.899 116.203H1015.48C1015.76 116.203 1015.86 116.068 1015.8 115.798L1012.4 101.718C1008.97 92.1491 1008.48 83.5408 1008.08 73.527C1007.95 70.0091 1007.56 63.807 1011.01 62.5523C1013.94 61.4882 1017.92 63.9897 1020.14 65.832C1020.4 66.0544 1020.57 65.9961 1020.64 65.6573C1022.16 57.5494 1022.59 47.8452 1026.26 40.4202C1028.18 36.5529 1031.91 33.3685 1034.57 29.8744C1036.76 26.9838 1034.71 24.2044 1036.09 21.4805C1037.18 19.2941 1038.97 16.3797 1041.44 12.7373C1047.38 3.97025 1053.45 -1.85858 1064.94 0.881129C1069.45 1.95319 1074.21 5.44731 1078.96 7.24201C1079.99 7.62848 1080.53 8.70848 1080.58 10.482C1080.58 10.669 1080.54 10.8557 1080.44 11.022C1078.61 14.1985 1077.97 17.6264 1078.52 21.3058C1078.54 21.4838 1078.53 21.6656 1078.49 21.8404C1078.44 22.0151 1078.36 22.1791 1078.25 22.3223C1076.83 24.17 1076.48 26.2135 1077.18 28.4529C1077.28 28.7441 1077.26 29.03 1077.13 29.3105C1075.95 31.7935 1074.61 34.1573 1073.11 36.402C1071.94 38.1411 1071.64 41.0952 1068.9 41.3255C1066.6 41.5214 1064.39 41.3388 1062.27 40.7776C1062.18 40.7531 1062.09 40.7565 1062.01 40.7873C1061.92 40.818 1061.85 40.8746 1061.8 40.9488C1061.75 41.0231 1061.73 41.1111 1061.73 41.2002C1061.73 41.2893 1061.77 41.3749 1061.82 41.4447C1063.23 43.2473 1065.59 43.6841 1066.25 46.3047C1066.72 48.1364 1067.54 49.7723 1068.71 51.2123C1072.71 56.1676 1069.78 59.3441 1071.26 64.3629C1073.04 70.3585 1073.43 76.4176 1074.37 82.5482C1075.05 87.0667 1077.02 89.7111 1080.55 92.2364C1080.64 92.3043 1080.72 92.3966 1080.76 92.504C1080.81 92.6113 1080.83 92.73 1080.82 92.8479C1080.62 95.0397 1081.09 95.8444 1082.22 95.262ZM1323.08 60.2097L1322.17 61.1785C1322.09 61.2565 1322.05 61.3605 1322.06 61.4677C1322.06 61.5748 1322.1 61.6765 1322.18 61.7503L1324.87 64.2914C1326.92 66.2217 1328.96 67.9994 1330.53 69.2338C1332.1 70.4683 1333.08 71.0584 1333.26 70.8747L1333.41 70.7158C1333.5 70.6243 1333.38 70.3452 1333.08 69.8945C1332.77 69.4438 1332.27 68.8304 1331.61 68.0893C1330.96 67.3482 1330.15 66.4939 1329.25 65.5752C1328.35 64.6564 1327.36 63.6913 1326.34 62.735L1323.65 60.1938C1323.57 60.1202 1323.47 60.0806 1323.36 60.0835C1323.25 60.0865 1323.15 60.1319 1323.08 60.2097ZM529.811 73.4714C529.547 73.7997 529.626 74.0935 530.05 74.3529C530.092 74.3782 530.14 74.3918 530.189 74.3924C530.238 74.3931 530.287 74.3806 530.33 74.3564C530.372 74.3322 530.408 74.2971 530.433 74.2546C530.458 74.2121 530.471 74.1638 530.471 74.1147V73.7017C530.469 73.6243 530.445 73.5488 530.399 73.4857C530.354 73.4226 530.291 73.375 530.218 73.3497C530.146 73.3243 530.067 73.3224 529.994 73.3443C529.922 73.3661 529.858 73.4105 529.811 73.4714ZM382.86 78.1964L380.16 79.602C380.042 79.6637 379.939 79.7518 379.86 79.8592C379.782 79.9667 379.729 80.0907 379.707 80.2214C379.48 81.5185 379.451 82.7123 379.62 83.8029C380.636 90.267 381.566 96.747 382.407 103.243C382.638 105.022 383.487 107.793 383.36 110.295C383.355 110.406 383.379 110.516 383.429 110.615C383.479 110.714 383.554 110.798 383.646 110.858L389.539 114.623C389.612 114.67 389.699 114.691 389.786 114.681C389.872 114.671 389.953 114.631 390.014 114.568C390.075 114.505 390.113 114.423 390.122 114.334C390.131 114.246 390.11 114.157 390.063 114.083C386.751 109.088 388.149 99.2961 387.434 93.5944C386.719 87.8714 385.735 82.1803 384.48 76.5208C384.462 76.4462 384.421 76.3794 384.362 76.3302C384.303 76.281 384.23 76.252 384.153 76.2475C384.077 76.2431 384.001 76.2634 383.937 76.3055C383.872 76.3475 383.823 76.4091 383.797 76.4811L383.416 77.5532C383.315 77.8391 383.13 78.0535 382.86 78.1964ZM805.124 79.4035C804.071 77.7782 802.578 76.9047 800.645 76.7829C800.467 76.7698 800.291 76.8224 800.149 76.9307C800.007 77.0389 799.909 77.1954 799.875 77.3705C798.843 82.4608 797.516 87.3447 797.739 92.5779C798.049 100.074 798.787 108.27 795.42 113.543C795.102 114.046 795.208 114.162 795.738 113.892C797.236 113.13 798.681 112.267 800.073 111.303C800.084 111.298 800.095 111.293 800.105 111.287L802.051 110.795C802.713 110.631 802.718 110.44 802.067 110.223L801.36 109.993C801.064 109.898 800.952 109.699 801.026 109.397C803.218 100.355 805.148 91.2411 806.816 82.0558C806.943 81.357 806.898 80.817 806.681 80.4358C806.442 80.0176 806.051 79.7582 805.505 79.6576C805.427 79.6425 805.353 79.6122 805.288 79.5685C805.222 79.5249 805.167 79.4687 805.124 79.4035ZM825.745 79.6322C825.776 79.4773 825.199 79.2076 824.142 78.8824C823.084 78.5572 821.633 78.2032 820.107 77.8982C819.351 77.7472 818.599 77.6128 817.895 77.5026C817.191 77.3924 816.548 77.3087 816.003 77.2562C815.458 77.2036 815.021 77.1833 814.718 77.1964C814.414 77.2095 814.25 77.2557 814.235 77.3324C814.22 77.4091 814.354 77.5148 814.629 77.6435C814.904 77.7721 815.315 77.9212 815.838 78.0822C816.362 78.2432 816.988 78.413 817.68 78.5819C818.372 78.7507 819.117 78.9154 819.873 79.0664C820.629 79.2174 821.38 79.3518 822.084 79.462C822.789 79.5722 823.432 79.6559 823.977 79.7085C824.522 79.761 824.959 79.7813 825.262 79.7682C825.566 79.7551 825.729 79.7089 825.745 79.6322ZM371.766 78.5776L371.623 77.6485C371.615 77.6034 371.59 77.5632 371.553 77.5365C371.516 77.5097 371.47 77.4986 371.425 77.5055L371.314 77.5214C368.692 77.9274 366.186 78.3735 364.346 78.762C362.506 79.1506 361.482 79.4498 361.498 79.5941L361.522 79.7847C361.547 79.9278 362.613 79.9036 364.487 79.7175C366.36 79.5313 368.887 79.1985 371.512 78.792L371.623 78.7761C371.668 78.7683 371.709 78.7432 371.735 78.7061C371.762 78.6689 371.773 78.6228 371.766 78.5776ZM757.89 93.9914L758.819 92.9908C758.859 92.946 758.884 92.8893 758.89 92.8291C758.896 92.7689 758.883 92.7087 758.852 92.6575C758.822 92.6063 758.776 92.5669 758.721 92.5454C758.666 92.5239 758.606 92.5213 758.549 92.5382C757.469 92.8347 756.966 93.5308 757.04 94.6267C757.061 94.9285 756.921 95.1085 756.619 95.1667L754.817 95.5002C754.717 95.5203 754.622 95.5612 754.54 95.6201C754.458 95.679 754.39 95.7546 754.34 95.8417C753.34 97.5888 752.998 99.4655 753.316 101.472C753.34 101.628 753.419 101.77 753.538 101.873C753.657 101.976 753.809 102.034 753.967 102.036L756.77 102.076C756.913 102.076 757.053 102.03 757.168 101.946C757.284 101.862 757.37 101.743 757.414 101.607L759.335 95.6829C759.357 95.6178 759.361 95.5481 759.348 95.4808C759.335 95.4135 759.304 95.3508 759.259 95.2988C759.214 95.2468 759.157 95.2073 759.092 95.1841C759.028 95.161 758.958 95.155 758.891 95.1667C758.494 95.2302 758.16 95.1138 757.89 94.8173C757.636 94.542 757.636 94.2667 757.89 93.9914ZM213.744 94.4392C213.878 94.5454 214.072 94.5641 214.284 94.4912C214.496 94.4182 214.709 94.2597 214.875 94.0503C215.042 93.841 215.149 93.5981 215.172 93.375C215.195 93.1519 215.133 92.9669 215 92.8607C214.866 92.7545 214.672 92.7358 214.46 92.8087C214.248 92.8817 214.035 93.0402 213.869 93.2496C213.702 93.4589 213.596 93.7018 213.572 93.9249C213.549 94.148 213.611 94.333 213.744 94.4392ZM1174.91 95.7226L1175.9 94.4679C1175.94 94.4062 1175.97 94.3332 1175.98 94.2563C1175.99 94.1794 1175.98 94.1014 1175.95 94.0303C1175.92 93.9592 1175.87 93.8975 1175.81 93.8516C1175.75 93.8057 1175.67 93.7772 1175.6 93.7691C1174.67 93.6658 1174.27 94.3647 1174.06 95.27C1173.9 95.9105 1173.52 96.2811 1172.9 96.3817C1169.39 96.9614 1169.92 100.241 1170.31 102.838C1170.33 103.009 1170.42 103.163 1170.56 103.267C1170.7 103.371 1170.87 103.417 1171.05 103.394L1174.34 102.957C1174.46 102.94 1174.57 102.889 1174.66 102.808C1174.75 102.727 1174.82 102.622 1174.85 102.504L1176.13 97.4458C1176.19 97.1917 1176.11 96.9985 1175.87 96.8661L1175.05 96.3897C1174.99 96.3576 1174.94 96.314 1174.91 96.2618C1174.87 96.2095 1174.84 96.1499 1174.83 96.0867C1174.82 96.0236 1174.82 95.9584 1174.83 95.8956C1174.85 95.8328 1174.87 95.7738 1174.91 95.7226ZM1401.59 94.0391L1401.38 95.4844C1401.37 95.5443 1401.39 95.6055 1401.42 95.6546C1401.46 95.7037 1401.51 95.7367 1401.57 95.7464L1402.06 95.8179C1403.19 95.9883 1404.31 96.1327 1405.36 96.2429C1406.4 96.3531 1407.36 96.4269 1408.17 96.4601C1408.98 96.4933 1409.62 96.4852 1410.07 96.4363C1410.51 96.3875 1410.75 96.2987 1410.77 96.1752L1410.77 96.1435C1410.8 95.8945 1409.92 95.5209 1408.34 95.1044C1406.77 94.6878 1404.61 94.262 1402.35 93.92L1401.86 93.8405C1401.83 93.8361 1401.79 93.8377 1401.77 93.8453C1401.74 93.8529 1401.71 93.8663 1401.68 93.8848C1401.66 93.9033 1401.64 93.9265 1401.62 93.9529C1401.61 93.9794 1401.6 94.0087 1401.59 94.0391ZM211.323 102.909C213.459 102.703 215.921 103.465 216.572 101.003C216.611 100.856 216.619 100.703 216.592 100.553C216.566 100.404 216.508 100.262 216.421 100.138C215.616 99.005 215.635 97.8852 216.476 96.7788C216.517 96.7272 216.544 96.6666 216.555 96.6022C216.567 96.5378 216.563 96.4716 216.543 96.4092C216.524 96.3467 216.49 96.29 216.443 96.2437C216.397 96.1974 216.34 96.163 216.278 96.1435C214.88 95.7067 211.902 94.7935 210.584 95.5638C207.551 97.3426 208.726 100.63 210.624 102.655C210.814 102.851 211.047 102.936 211.323 102.909ZM952.838 96.7152L942.737 96.5564C942.68 96.5564 942.625 96.579 942.585 96.6192C942.545 96.6594 942.522 96.714 942.522 96.7708L942.403 104.275C942.399 104.615 942.534 104.943 942.778 105.187C943.022 105.431 943.355 105.571 943.706 105.578L951.583 105.705C951.758 105.708 951.932 105.678 952.095 105.615C952.257 105.553 952.406 105.46 952.531 105.342C952.656 105.224 952.757 105.083 952.826 104.927C952.895 104.771 952.931 104.604 952.933 104.434L953.044 96.9297C953.044 96.8741 953.023 96.8208 952.984 96.7808C952.946 96.7408 952.893 96.7173 952.838 96.7152ZM959.21 96.6484C959.21 96.6213 959.204 96.5945 959.193 96.5695C959.183 96.5445 959.167 96.5219 959.148 96.5029C959.129 96.4839 959.106 96.4688 959.081 96.4587C959.055 96.4485 959.029 96.4434 959.001 96.4437L954.92 96.4793C954.893 96.4796 954.866 96.4851 954.841 96.4957C954.816 96.5063 954.793 96.5217 954.774 96.5411C954.755 96.5604 954.74 96.5833 954.73 96.6085C954.72 96.6336 954.715 96.6605 954.715 96.6876L954.884 116C954.884 116.027 954.889 116.054 954.9 116.079C954.911 116.104 954.926 116.126 954.945 116.145C954.965 116.164 954.988 116.179 955.013 116.189C955.038 116.2 955.065 116.205 955.092 116.204L959.174 116.169C959.201 116.169 959.228 116.163 959.253 116.152C959.277 116.142 959.3 116.126 959.319 116.107C959.338 116.088 959.353 116.065 959.363 116.04C959.373 116.015 959.378 115.988 959.378 115.961L959.21 96.6484ZM623.184 100.749C621.934 101.136 621.154 101.467 620.841 101.742C616.235 105.829 611.375 110.144 606.261 114.686C606.114 114.819 606.01 114.993 605.964 115.186C605.918 115.379 605.93 115.581 606.001 115.766C606.071 115.952 606.196 116.111 606.358 116.225C606.521 116.338 606.714 116.4 606.912 116.401H633.293C633.526 116.401 633.642 116.285 633.642 116.052C633.626 109.612 630.109 103.862 626.424 98.8197C626.127 98.4173 625.804 98.3935 625.455 98.7482L623.851 100.352C623.66 100.538 623.438 100.67 623.184 100.749ZM728.897 108.309C729.015 108.45 729.169 108.555 729.343 108.616C729.516 108.676 729.702 108.688 729.881 108.652C730.06 108.615 730.226 108.531 730.36 108.408C730.494 108.284 730.592 108.127 730.644 107.952L731.724 104.291C731.809 104 731.713 103.793 731.438 103.672L723.854 100.336C721.112 99.1294 720.794 99.59 722.901 101.718C724.976 103.82 726.975 106.017 728.897 108.309ZM1397.11 100.821C1396.29 100.646 1395.82 100.996 1395.7 101.869C1395.66 102.181 1395.48 102.348 1395.17 102.369C1392.62 102.56 1388.63 103.767 1387.77 100.265C1387.7 100.021 1387.55 99.9102 1387.29 99.9314L1382.5 100.321C1382.22 100.342 1382.13 100.485 1382.22 100.749L1387.11 114.996C1387.15 115.118 1387.24 115.178 1387.36 115.178L1396.38 115.282C1396.77 115.286 1397.14 115.443 1397.41 115.72C1397.68 115.996 1397.84 116.37 1397.84 116.759L1397.85 122.191C1397.85 122.24 1397.86 122.288 1397.88 122.331C1397.91 122.374 1397.94 122.412 1397.98 122.44C1398.02 122.469 1398.06 122.487 1398.11 122.495C1398.16 122.503 1398.21 122.499 1398.26 122.484L1435.86 110.136C1435.95 110.104 1436.04 110.051 1436.1 109.98C1436.17 109.91 1436.22 109.824 1436.25 109.731L1437.68 104.434C1437.79 104.037 1437.64 103.825 1437.23 103.799C1430.44 103.306 1423.81 102.036 1417.33 99.987C1417.03 99.8917 1416.77 99.9526 1416.56 100.17L1415.88 100.853C1415.69 101.043 1415.46 101.125 1415.19 101.099C1410.13 100.665 1405.07 100.344 1400.02 100.138C1399.2 100.098 1398.58 100.463 1397.85 100.757C1397.61 100.853 1397.36 100.874 1397.11 100.821ZM435.553 100.962C435.556 100.834 435.509 100.709 435.421 100.616C435.332 100.523 435.211 100.468 435.082 100.465L428.192 100.272C428.128 100.27 428.065 100.281 428.005 100.304C427.946 100.327 427.892 100.361 427.846 100.404C427.799 100.448 427.762 100.501 427.736 100.559C427.71 100.617 427.696 100.679 427.694 100.743L427.685 101.076C427.681 101.205 427.729 101.329 427.817 101.423C427.905 101.516 428.027 101.57 428.156 101.574L435.046 101.767C435.109 101.768 435.173 101.758 435.232 101.735C435.292 101.712 435.346 101.678 435.392 101.634C435.438 101.591 435.476 101.538 435.501 101.48C435.527 101.422 435.542 101.359 435.544 101.296L435.553 100.962ZM1307.27 114.392C1298.52 111.232 1290.17 109.048 1282.02 103.886C1281.71 103.68 1281.53 103.764 1281.48 104.14L1280.31 114.821C1280.27 115.139 1280.41 115.298 1280.74 115.298L1307.14 115.155C1307.23 115.155 1307.32 115.123 1307.39 115.064C1307.46 115.005 1307.51 114.923 1307.52 114.833C1307.54 114.742 1307.52 114.649 1307.47 114.568C1307.43 114.488 1307.35 114.425 1307.27 114.392ZM917.762 115.965L919.088 116.028C919.156 116.031 919.223 116.021 919.287 115.998C919.351 115.975 919.41 115.94 919.46 115.894C919.51 115.848 919.551 115.793 919.58 115.732C919.609 115.67 919.625 115.604 919.628 115.536L919.636 115.417C919.781 112.446 919.841 109.592 919.802 107.478C919.764 105.364 919.63 104.161 919.429 104.132L918.588 104.093C918.488 104.075 918.374 104.352 918.254 104.907C918.133 105.462 918.008 106.285 917.885 107.327C917.763 108.37 917.645 109.611 917.54 110.981C917.434 112.35 917.342 113.82 917.269 115.306V115.425C917.266 115.492 917.276 115.56 917.299 115.624C917.322 115.688 917.358 115.747 917.404 115.797C917.449 115.847 917.504 115.888 917.566 115.916C917.627 115.945 917.694 115.962 917.762 115.965ZM939.814 106.438C939.816 106.309 939.766 106.186 939.676 106.094C939.586 106.002 939.464 105.95 939.335 105.948L926.154 105.81C926.09 105.81 926.027 105.822 925.968 105.845C925.909 105.869 925.855 105.904 925.81 105.949C925.764 105.993 925.728 106.046 925.703 106.105C925.678 106.163 925.665 106.226 925.664 106.29L925.663 106.369C925.662 106.498 925.712 106.621 925.801 106.713C925.891 106.805 926.014 106.857 926.143 106.859L939.324 106.997C939.388 106.997 939.451 106.985 939.51 106.962C939.569 106.938 939.623 106.903 939.668 106.858C939.714 106.814 939.75 106.761 939.775 106.702C939.8 106.644 939.813 106.581 939.814 106.517L939.814 106.438ZM856.257 111.931C856.327 111.918 856.399 111.926 856.464 111.954C856.529 111.983 856.584 112.03 856.623 112.089L858.37 114.877C858.412 114.946 858.478 114.999 858.554 115.026C858.631 115.053 858.715 115.054 858.792 115.027C858.869 115 858.934 114.948 858.977 114.878C859.021 114.809 859.039 114.727 859.029 114.646L858.155 106.308C858.146 106.236 858.114 106.169 858.065 106.115C858.016 106.062 857.953 106.024 857.882 106.008C857.811 105.991 857.737 105.997 857.67 106.024C857.602 106.05 857.544 106.097 857.504 106.157L853.954 111.716C853.919 111.774 853.901 111.841 853.902 111.909C853.903 111.977 853.924 112.043 853.961 112.1C853.999 112.157 854.052 112.201 854.114 112.229C854.176 112.257 854.245 112.266 854.312 112.256L856.257 111.931ZM940.489 109.437C940.489 109.382 940.468 109.33 940.429 109.291C940.39 109.252 940.338 109.231 940.283 109.231H925.385C925.331 109.231 925.278 109.252 925.239 109.291C925.201 109.33 925.179 109.382 925.179 109.437V109.612C925.179 109.666 925.201 109.719 925.239 109.758C925.278 109.796 925.331 109.818 925.385 109.818H940.283C940.338 109.818 940.39 109.796 940.429 109.758C940.468 109.719 940.489 109.666 940.489 109.612V109.437ZM1086.68 110.882L1083.46 109.064C1083.4 109.027 1083.32 109.007 1083.25 109.004C1083.17 109 1083.1 109.015 1083.03 109.046C1082.96 109.077 1082.9 109.123 1082.86 109.182C1082.81 109.24 1082.78 109.308 1082.76 109.381L1081.54 115.25C1081.46 115.658 1081.62 115.853 1082.04 115.838L1084.67 115.734C1084.78 115.73 1084.9 115.698 1085 115.641C1085.1 115.584 1085.18 115.503 1085.24 115.406C1085.31 115.309 1085.35 115.198 1085.36 115.083C1085.37 114.967 1085.35 114.85 1085.31 114.742C1084.69 113.111 1085.08 112.185 1086.48 111.962C1086.6 111.945 1086.71 111.89 1086.8 111.806C1086.89 111.722 1086.94 111.613 1086.97 111.493C1086.99 111.374 1086.97 111.251 1086.92 111.142C1086.87 111.032 1086.78 110.941 1086.68 110.882ZM953.076 110.036C953.076 109.948 953.06 109.861 953.027 109.78C952.994 109.699 952.946 109.625 952.884 109.562C952.823 109.5 952.75 109.45 952.669 109.416C952.589 109.381 952.502 109.363 952.414 109.363L943.981 109.289C943.894 109.288 943.807 109.305 943.725 109.338C943.644 109.37 943.57 109.419 943.508 109.48C943.445 109.542 943.395 109.615 943.361 109.696C943.327 109.776 943.309 109.863 943.308 109.95L943.293 111.681C943.292 111.769 943.309 111.856 943.342 111.937C943.375 112.018 943.423 112.092 943.484 112.155C943.546 112.217 943.619 112.267 943.7 112.301C943.78 112.336 943.867 112.354 943.954 112.354L952.388 112.428C952.475 112.429 952.562 112.412 952.643 112.379C952.725 112.347 952.799 112.298 952.861 112.237C952.924 112.175 952.973 112.102 953.008 112.021C953.042 111.941 953.06 111.854 953.06 111.767L953.076 110.036ZM637.422 116.004C637.433 116.064 637.463 116.118 637.507 116.158C637.552 116.198 637.609 116.222 637.669 116.227L640.122 116.457C640.173 116.462 640.223 116.452 640.268 116.43C640.314 116.407 640.352 116.373 640.378 116.33C640.405 116.287 640.418 116.237 640.418 116.187C640.418 116.136 640.403 116.087 640.376 116.044L637.073 111.041C637.037 110.993 636.986 110.958 636.929 110.942C636.871 110.925 636.809 110.929 636.753 110.952C636.698 110.975 636.651 111.015 636.622 111.067C636.592 111.12 636.58 111.18 636.589 111.24L637.422 116.004ZM787.185 114.972L774.209 112.995C773.881 112.942 773.629 113.058 773.455 113.344L772.041 115.726C772.008 115.781 771.991 115.844 771.991 115.908C771.991 115.972 772.008 116.035 772.04 116.09C772.073 116.146 772.119 116.191 772.175 116.222C772.232 116.253 772.295 116.268 772.359 116.266C776.901 116.166 781.438 116.01 785.97 115.798C786.446 115.777 786.878 115.671 787.264 115.48C787.316 115.455 787.357 115.413 787.384 115.362C787.41 115.312 787.419 115.254 787.41 115.197C787.401 115.141 787.375 115.088 787.334 115.048C787.294 115.007 787.242 114.981 787.185 114.972ZM47.2341 140.225C46.6385 143.6 49.14 145.736 52.3085 145.077C52.4246 145.052 52.5337 145.001 52.6273 144.927C52.721 144.852 52.7967 144.757 52.8485 144.648C55.3103 139.542 65.0382 139.764 69.9141 139.375C69.9638 139.369 70.0096 139.345 70.0437 139.309C70.0778 139.272 70.098 139.225 70.1009 139.175C70.1037 139.125 70.0889 139.075 70.0592 139.035C70.0294 138.995 69.9865 138.966 69.9379 138.954C66.5126 138.287 63.0715 137.71 59.6144 137.223C54.7226 136.532 51.8718 135.206 49.8547 130.886C49.7435 130.653 49.7065 130.41 49.7435 130.156C50.4847 124.867 50.2544 119.607 49.0526 114.376C48.4015 111.544 48.2109 111.573 48.4809 114.464C49.2326 122.596 48.8171 131.183 47.2341 140.225ZM1314.55 115.941L1315.26 116.203C1315.33 116.226 1315.41 116.225 1315.48 116.2C1315.55 116.175 1315.61 116.127 1315.65 116.063C1315.69 115.999 1315.71 115.924 1315.7 115.849C1315.7 115.774 1315.67 115.703 1315.61 115.647C1315.34 115.377 1314.99 115.311 1314.56 115.448C1314.51 115.466 1314.46 115.499 1314.43 115.542C1314.4 115.586 1314.38 115.638 1314.38 115.692C1314.38 115.746 1314.4 115.798 1314.43 115.843C1314.46 115.887 1314.5 115.922 1314.55 115.941ZM472.746 117.529C472.803 117.457 472.838 117.369 472.846 117.278C472.855 117.186 472.836 117.094 472.794 117.013C472.751 116.931 472.685 116.864 472.605 116.819C472.525 116.774 472.433 116.753 472.341 116.759L471.674 116.814C471.604 116.821 471.536 116.847 471.48 116.891C471.424 116.934 471.381 116.992 471.357 117.059C471.333 117.125 471.328 117.198 471.344 117.267C471.359 117.336 471.394 117.399 471.444 117.45C471.947 117.947 472.381 117.974 472.746 117.529ZM505.448 179.851C506.766 176.723 506.059 170.243 506.044 166.693C506.044 166.412 505.916 166.214 505.662 166.097C503.465 165.054 501.496 163.659 499.754 161.912C499.6 161.759 499.411 161.643 499.204 161.575C498.997 161.507 498.778 161.489 498.563 161.521C498.348 161.554 498.144 161.636 497.967 161.762C497.791 161.888 497.647 162.054 497.546 162.246L494.076 168.829C493.711 169.523 493.134 169.851 492.345 169.814C490.979 169.745 490.058 169.086 489.581 167.836C489.53 167.704 489.521 167.558 489.555 167.419C489.589 167.28 489.665 167.154 489.772 167.058C491.71 165.327 495.498 162.857 496.435 160.483C496.546 160.197 496.466 159.98 496.196 159.832C495.487 159.445 494.717 159.228 493.886 159.181C482.569 158.521 470.801 162.365 474.033 144.998C475.089 139.32 475.129 134.118 474.477 128.543C474.455 128.344 474.365 128.157 474.222 128.016C474.078 127.874 473.891 127.786 473.691 127.765C471.664 127.575 469.601 127.485 467.505 127.495C465.21 127.519 463.336 129.044 461.581 129.091C452.703 129.33 443.774 129.388 434.795 129.266C434.68 129.265 434.566 129.287 434.46 129.33C434.353 129.373 434.257 129.437 434.175 129.517C434.094 129.598 434.03 129.694 433.986 129.799C433.943 129.905 433.921 130.018 433.922 130.132L434.2 190.286C434.2 190.567 434.337 190.704 434.613 190.699L467.14 190.453C467.441 190.453 467.704 190.35 467.926 190.143C468.768 189.365 469.387 188.857 470.61 188.73C480.859 187.692 491.098 186.593 501.326 185.434C504.312 185.101 506.679 184.076 505.424 180.566C505.342 180.336 505.351 180.081 505.448 179.851ZM664.486 141.472C664.16 144.116 664.136 149.866 668.909 147.848C669.027 147.801 669.134 147.729 669.224 147.638C669.314 147.546 669.385 147.437 669.433 147.316C670.01 145.834 670.934 144.987 672.205 144.775C676.228 144.103 680.371 143.632 684.633 143.362C684.698 143.36 684.76 143.334 684.807 143.29C684.855 143.245 684.884 143.185 684.889 143.119C684.895 143.054 684.877 142.987 684.839 142.933C684.8 142.878 684.744 142.839 684.68 142.822C680.133 141.662 675.519 141.075 670.839 141.059C670.526 141.059 670.357 140.903 670.331 140.59C670.14 138.181 668.996 136.321 666.9 135.008C666.791 134.939 666.7 134.844 666.636 134.732C666.572 134.62 666.537 134.493 666.535 134.364L666.424 128.933C666.423 128.882 666.408 128.833 666.379 128.791C666.351 128.75 666.311 128.717 666.264 128.699C666.217 128.68 666.166 128.676 666.116 128.686C666.067 128.697 666.022 128.722 665.987 128.758C665.69 129.07 665.531 129.586 665.51 130.306C665.447 132.694 665.105 136.416 664.486 141.472ZM286.97 165.938L286.557 161.341C286.548 161.228 286.497 161.123 286.415 161.046C286.333 160.968 286.225 160.923 286.113 160.92C283.826 160.816 281.229 159.689 279.148 160.904C279.062 160.955 278.991 161.027 278.943 161.115C278.894 161.202 278.87 161.3 278.873 161.399C278.875 161.499 278.904 161.595 278.957 161.678C279.01 161.761 279.084 161.829 279.172 161.873L281.745 163.183C282.005 163.312 282.212 163.528 282.331 163.793C282.449 164.058 282.473 164.356 282.396 164.636C280.324 172.379 269.682 167.63 275.456 162.063C276.324 161.227 277.142 160.343 277.909 159.411C278.079 159.21 278.293 159.08 278.553 159.022C279.929 158.72 281.306 158.437 282.682 158.172C283.084 158.093 283.304 157.889 283.341 157.561C283.348 157.494 283.341 157.428 283.32 157.365C283.299 157.302 283.264 157.244 283.219 157.195C283.174 157.146 283.119 157.107 283.058 157.082C282.997 157.056 282.931 157.043 282.865 157.044L269.619 157.251C269.42 157.253 269.223 157.215 269.04 157.138C268.857 157.061 268.691 156.947 268.554 156.803C268.417 156.659 268.311 156.489 268.243 156.302C268.175 156.115 268.146 155.917 268.158 155.718C268.274 153.775 269.071 152.187 270.548 150.953C270.624 150.891 270.684 150.812 270.724 150.723C270.765 150.633 270.784 150.536 270.781 150.437C270.778 150.339 270.753 150.243 270.707 150.156C270.661 150.07 270.596 149.995 270.516 149.937C265.966 146.681 268.968 143.957 267.586 140.146C266.379 136.81 265.778 133.366 265.783 129.814C265.783 129.713 265.763 129.614 265.724 129.52C265.686 129.427 265.629 129.343 265.557 129.272C265.486 129.201 265.401 129.145 265.307 129.107C265.214 129.07 265.114 129.051 265.013 129.052L193.558 129.258C193.262 129.258 193.114 129.406 193.114 129.703L193.193 190.294C193.193 190.538 193.315 190.659 193.558 190.659L257.501 190.651C257.621 190.651 257.737 190.61 257.831 190.535C257.924 190.46 257.99 190.355 258.017 190.238C258.39 188.618 258.072 186.768 260.479 186.498C271.294 185.291 282.113 183.92 292.934 182.385C293.268 182.337 293.434 182.144 293.434 181.805C293.44 179.973 293.969 178.316 295.023 176.834C295.213 176.564 295.197 176.304 294.975 176.056L294.403 175.42C294.286 175.293 294.22 175.123 294.221 174.944V169.472C294.221 169.213 294.096 169.038 293.847 168.948L287.518 166.645C287.185 166.523 287.002 166.288 286.97 165.938ZM333.704 188.229L338.667 188.825C338.785 188.839 338.898 188.885 338.993 188.957C339.088 189.03 339.162 189.127 339.207 189.238C339.583 190.18 340.205 190.651 341.074 190.651C354.251 190.657 367.224 190.657 379.993 190.651C380.401 190.651 380.605 190.448 380.605 190.04L380.565 129.671C380.565 129.428 380.443 129.306 380.2 129.306L334.49 129.298C334.402 129.298 334.315 129.323 334.24 129.369C334.165 129.416 334.104 129.482 334.064 129.561C334.025 129.64 334.008 129.729 334.016 129.817C334.024 129.905 334.056 129.989 334.109 130.06C335.47 131.85 336.494 133.808 337.182 135.937C337.256 136.175 337.262 136.418 337.198 136.667C336.875 137.922 336.963 139.455 337.46 141.265C338.111 143.637 338.442 147.841 338.453 153.876C338.461 158.45 336.412 165.938 334.506 172.879C333.151 177.813 332.799 182.845 333.45 187.975C333.457 188.04 333.486 188.101 333.532 188.147C333.578 188.193 333.639 188.222 333.704 188.229ZM560.282 178.74L558.868 178.081C558.794 178.046 558.711 178.033 558.63 178.042C558.548 178.051 558.47 178.082 558.405 178.132C558.34 178.182 558.289 178.248 558.259 178.325C558.229 178.401 558.22 178.484 558.233 178.565L558.503 180.137C558.556 180.466 558.746 180.608 559.075 180.566L560.591 180.391C560.941 180.349 561.121 180.505 561.131 180.86L561.29 190.485C561.293 190.546 561.314 190.606 561.35 190.656C561.386 190.706 561.436 190.745 561.494 190.766C561.551 190.787 561.613 190.791 561.672 190.776C561.73 190.761 561.783 190.729 561.822 190.683C561.965 190.519 562.042 190.305 562.053 190.04C562.312 183.158 562.444 176.246 562.45 169.306C562.45 169.192 562.494 169.082 562.574 168.999C562.654 168.916 562.763 168.867 562.879 168.861L565.277 168.734C565.523 168.722 565.755 168.616 565.926 168.439C566.097 168.262 566.194 168.027 566.198 167.781L566.222 166.224C566.227 165.833 566.426 165.631 566.817 165.621C572.67 165.494 578.888 167.646 584.542 169.107C584.749 169.16 584.854 169.292 584.86 169.504L585.114 190.183C585.114 190.495 585.273 190.651 585.59 190.651H654.345C654.469 190.651 654.59 190.611 654.69 190.539C654.79 190.466 654.864 190.364 654.901 190.246L655.806 187.538C655.928 187.184 656.174 186.98 656.545 186.927L690.771 182.528C690.97 182.501 691.152 182.404 691.285 182.256C691.417 182.107 691.492 181.916 691.494 181.718L691.653 171.871C691.658 171.611 691.758 171.397 691.954 171.227L692.439 170.806C692.64 170.637 692.735 170.42 692.725 170.155L692.455 160.38C692.452 160.254 692.416 160.132 692.35 160.026C692.285 159.92 692.192 159.833 692.081 159.776C690.16 158.752 688.119 159.308 687.468 156.647C687.404 156.388 687.251 156.203 687.007 156.091C681.575 153.685 680.321 159.943 678.875 163.334C678.83 163.435 678.756 163.52 678.663 163.579C678.57 163.639 678.462 163.669 678.351 163.667C676.816 163.609 675.543 163.024 674.531 161.912C674.446 161.818 674.399 161.694 674.402 161.566C674.405 161.438 674.457 161.314 674.547 161.221C676.453 159.278 678.476 157.46 680.614 155.766C681.366 155.173 681.673 154.437 681.536 153.558C681.516 153.431 681.463 153.311 681.382 153.21C681.301 153.11 681.195 153.033 681.075 152.986C680.313 152.674 679.677 152.515 679.169 152.51C672.885 152.468 668.583 152.272 666.265 151.922C659.3 150.882 659.348 145.387 660.372 139.415C660.928 136.191 661.333 132.956 661.587 129.711C661.614 129.404 661.474 129.25 661.166 129.25L537.816 129.33C537.774 129.325 537.732 129.338 537.699 129.365C537.666 129.392 537.646 129.43 537.641 129.473C537.637 129.515 537.65 129.557 537.677 129.59C537.704 129.622 537.742 129.643 537.784 129.647C542.099 130.521 546.181 131.662 550.03 133.07C561.513 137.263 544.638 154.09 543.955 162.603C543.462 168.742 542.517 181.313 547.56 185.871C547.646 185.949 547.753 186.001 547.868 186.021C547.982 186.04 548.1 186.028 548.208 185.984C548.316 185.94 548.409 185.867 548.477 185.772C548.545 185.678 548.585 185.566 548.592 185.45L548.807 182.377C548.822 182.166 548.883 181.961 548.987 181.776C549.09 181.592 549.233 181.432 549.405 181.309C549.578 181.187 549.775 181.103 549.983 181.065C550.191 181.027 550.405 181.036 550.609 181.09L552.452 181.591C552.526 181.61 552.604 181.612 552.68 181.597C552.755 181.581 552.826 181.549 552.887 181.503C552.948 181.456 552.998 181.396 553.033 181.327C553.067 181.259 553.086 181.183 553.087 181.106L553.111 179.018C553.111 178.952 553.096 178.887 553.068 178.827C553.041 178.768 553 178.715 552.95 178.673C552.9 178.631 552.841 178.601 552.779 178.585C552.716 178.569 552.65 178.568 552.587 178.581L551.57 178.779C551.094 178.869 550.85 178.673 550.84 178.192L550.673 172.045C550.662 171.643 550.858 171.436 551.261 171.426L560.353 171.132C560.745 171.121 560.941 171.312 560.941 171.704L560.877 178.366C560.876 178.436 560.857 178.504 560.822 178.565C560.788 178.625 560.739 178.676 560.68 178.713C560.621 178.75 560.554 178.772 560.484 178.777C560.415 178.781 560.345 178.769 560.282 178.74ZM889.888 178.517C890.455 180.031 890.603 181.614 890.333 183.266C890.291 183.557 890.415 183.721 890.706 183.758L926.156 188.023C926.264 188.035 926.368 188.075 926.458 188.141C926.547 188.206 926.618 188.294 926.664 188.396L927.537 190.366C927.576 190.45 927.638 190.522 927.717 190.573C927.795 190.624 927.888 190.651 927.982 190.651H1009.11C1009.17 190.651 1009.23 190.638 1009.28 190.612C1009.34 190.587 1009.38 190.549 1009.42 190.503C1009.46 190.457 1009.49 190.403 1009.5 190.345C1009.52 190.286 1009.52 190.226 1009.51 190.167C1008.97 187.388 1010.26 186.252 1012.98 185.903C1023.28 184.59 1033.6 183.25 1043.93 181.884C1044.2 181.847 1044.39 181.712 1044.51 181.479C1048.16 174.61 1044.19 170.211 1043.98 163.389C1043.98 163.248 1044.01 163.108 1044.06 162.98C1044.12 162.852 1044.21 162.74 1044.31 162.651C1045.76 161.433 1047.46 160.996 1049.39 161.341C1049.56 161.368 1049.73 161.333 1049.86 161.243C1050 161.153 1050.1 161.014 1050.13 160.856L1050.45 159.506C1050.48 159.362 1050.46 159.21 1050.39 159.083C1050.31 158.957 1050.19 158.866 1050.05 158.831L1047.79 158.259C1047.65 158.223 1047.53 158.152 1047.43 158.053C1047.33 157.954 1047.26 157.831 1047.22 157.696C1046.54 155.133 1044.87 153.619 1042.19 153.153C1041.24 152.989 1040.59 153.352 1040.23 154.241L1037.91 159.967C1037.82 160.198 1037.65 160.389 1037.43 160.507C1035.84 161.354 1034.43 161.126 1033.2 159.824C1033.03 159.645 1032.91 159.433 1032.83 159.201C1032.75 158.969 1032.73 158.723 1032.75 158.48C1032.78 158.237 1032.86 158.004 1032.99 157.796C1033.11 157.587 1033.29 157.41 1033.49 157.275C1035.52 155.917 1039.09 153.9 1039.63 151.247C1039.68 150.998 1039.6 150.808 1039.37 150.676C1037.06 149.31 1028.87 149.897 1024.64 149.707C1011.09 149.087 1015.05 138.295 1016.27 129.774C1016.28 129.686 1016.28 129.595 1016.25 129.509C1016.23 129.423 1016.18 129.344 1016.12 129.276C1016.07 129.208 1015.99 129.154 1015.91 129.117C1015.83 129.079 1015.74 129.06 1015.65 129.06L916.213 129.361C916.096 129.363 915.982 129.393 915.88 129.45C915.778 129.507 915.692 129.588 915.629 129.687C915.567 129.786 915.53 129.898 915.523 130.015C915.515 130.132 915.537 130.248 915.586 130.354C917.873 135.23 919.517 138.557 918.826 144.656C918.469 147.761 916.65 149.389 914.109 150.787C913.882 150.911 913.683 151.082 913.525 151.286C913.367 151.491 913.252 151.726 913.189 151.976C913.126 152.227 913.115 152.487 913.157 152.742C913.199 152.996 913.293 153.239 913.434 153.455C914.397 154.953 914.638 156.547 914.156 158.236C914.082 158.5 913.908 158.643 913.632 158.664C911.981 158.797 910.353 158.664 908.748 158.267C908.525 158.21 908.292 158.216 908.073 158.283C906.506 158.749 904.905 158.974 903.269 158.958C902.925 158.953 902.628 159.072 902.38 159.316L900.958 160.745C900.773 160.925 900.553 160.988 900.299 160.936C898.732 160.581 897.393 160.93 896.281 161.984C896.085 162.169 895.954 162.412 895.908 162.675C895.122 166.86 895.931 168.003 890.96 168.829C890.304 168.94 889.976 169.329 889.976 169.996C889.97 172.612 889.732 175.195 889.261 177.747C889.254 177.784 889.255 177.823 889.264 177.86C889.274 177.897 889.292 177.932 889.316 177.961C889.385 178.03 889.457 178.083 889.531 178.12C889.7 178.205 889.819 178.337 889.888 178.517ZM1176.33 129.322L1139 129.314L1116.98 129.33C1116.92 129.329 1116.86 129.343 1116.8 129.37C1116.74 129.397 1116.69 129.436 1116.66 129.485C1116.62 129.534 1116.59 129.591 1116.58 129.652C1116.56 129.714 1116.56 129.777 1116.58 129.838L1117.41 133.403C1117.44 133.526 1117.45 133.653 1117.42 133.776C1117.4 133.899 1117.35 134.016 1117.28 134.118L1112.64 141.098C1112.49 141.326 1112.44 141.57 1112.5 141.829C1114.6 151.454 1118.01 164.104 1124.06 172.013C1128.75 178.152 1132.63 185.76 1140.89 188.523C1141.13 188.604 1141.34 188.777 1141.46 189.008C1142.07 190.098 1142.83 190.643 1143.72 190.643C1158.14 190.67 1172.57 190.667 1187.02 190.636C1187.28 190.636 1187.41 190.503 1187.41 190.238L1187.39 129.862C1187.39 129.486 1187.2 129.301 1186.83 129.306L1176.33 129.322ZM1347.75 188.515L1347.18 190.159C1347.06 190.487 1347.18 190.651 1347.53 190.651H1378.39C1378.46 190.651 1378.53 190.621 1378.59 190.568C1378.64 190.514 1378.67 190.441 1378.67 190.366C1378.56 171.264 1378.55 152.145 1378.64 133.006C1378.64 131.521 1378.59 130.291 1380.18 129.901C1380.27 129.876 1380.35 129.82 1380.4 129.743C1380.45 129.667 1380.47 129.575 1380.46 129.483C1380.45 129.392 1380.41 129.307 1380.34 129.244C1380.28 129.181 1380.19 129.144 1380.1 129.139L1323.81 129.091C1323.54 129.091 1323.41 129.224 1323.41 129.488L1323.64 163.604C1323.64 163.634 1323.64 163.663 1323.66 163.688C1323.67 163.714 1323.69 163.735 1323.72 163.75C1323.75 163.765 1323.78 163.772 1323.81 163.771C1323.83 163.771 1323.86 163.762 1323.89 163.747L1333.21 158.204C1333.29 158.155 1333.38 158.125 1333.48 158.114C1333.57 158.103 1333.67 158.112 1333.76 158.141C1333.85 158.169 1333.93 158.216 1334 158.279C1334.07 158.342 1334.13 158.419 1334.17 158.506L1347.72 187.785C1347.83 188.023 1347.84 188.266 1347.75 188.515ZM752.768 178.621C753.626 178.597 754.483 179.288 754.825 180.137C756.127 183.398 757.8 186.445 759.844 189.278C761.138 191.072 767.276 190.532 769.524 190.651C769.757 190.662 769.873 190.553 769.873 190.326L769.984 129.647C769.985 129.603 769.977 129.559 769.961 129.517C769.944 129.476 769.919 129.438 769.887 129.406C769.855 129.375 769.817 129.349 769.775 129.332C769.734 129.315 769.688 129.306 769.643 129.306H755.436C755.316 129.306 755.197 129.332 755.086 129.382C754.975 129.433 754.875 129.507 754.793 129.6L746.772 138.692C746.581 138.909 746.436 139.161 746.344 139.434C746.253 139.706 746.218 139.994 746.24 140.281C746.865 148.333 747.471 156.322 748.059 164.247C748.414 169.107 749.642 173.692 751.744 178.001C751.838 178.193 751.985 178.353 752.167 178.463C752.348 178.573 752.557 178.628 752.768 178.621ZM879.247 166.995L878.636 162.833C878.604 162.601 878.469 162.476 878.231 162.46L872.632 162.158C872.401 162.143 872.173 162.215 871.992 162.359C871.812 162.503 871.691 162.71 871.654 162.938C871.618 163.166 871.667 163.4 871.794 163.594C871.92 163.787 872.114 163.927 872.338 163.985L874.125 164.461C874.421 164.541 874.559 164.734 874.538 165.041C873.855 173.673 860.307 168.289 870.059 161.468C871.703 160.324 873.95 160.538 875.936 160.237C876.056 160.221 876.167 160.163 876.248 160.071C876.329 159.98 876.373 159.862 876.373 159.74C876.373 159.619 876.329 159.501 876.248 159.41C876.167 159.318 876.056 159.259 875.936 159.244C871.115 158.529 866.025 159.268 861.3 158.41C861.062 158.368 860.895 158.238 860.8 158.021C859.608 155.432 861.499 153.518 862.936 151.708C862.971 151.663 862.994 151.61 863.002 151.554C863.011 151.497 863.005 151.44 862.985 151.386C862.965 151.333 862.932 151.286 862.889 151.249C862.845 151.212 862.793 151.187 862.737 151.176C860.265 150.715 857.938 149.85 855.757 148.579C855.645 148.514 855.519 148.473 855.39 148.46C855.26 148.446 855.128 148.46 855.003 148.5C852.041 149.484 850.754 146.268 850.087 144.156C849.983 143.825 849.952 143.477 849.998 143.135C850.043 142.793 850.163 142.467 850.349 142.178C853.002 138.049 855.924 134.229 857.909 129.711C858.026 129.441 857.938 129.306 857.647 129.306H785.374C785.11 129.306 784.977 129.441 784.977 129.711L785.041 190.302C785.041 190.561 785.171 190.691 785.43 190.691L851.207 190.548C851.434 190.543 851.572 190.429 851.62 190.207L851.945 188.658C851.994 188.429 852.114 188.22 852.287 188.061C852.461 187.901 852.68 187.799 852.914 187.769L884.425 183.909C884.554 183.895 884.675 183.842 884.774 183.757C884.873 183.672 884.945 183.559 884.981 183.433C886.219 178.848 886.402 174.211 885.529 169.52C885.486 169.282 885.346 169.131 885.108 169.067L879.811 167.622C879.488 167.532 879.3 167.323 879.247 166.995ZM1026.87 137.541L1020.85 130.441C1020.83 130.411 1020.79 130.389 1020.76 130.379C1020.72 130.368 1020.68 130.369 1020.64 130.382C1020.6 130.395 1020.57 130.419 1020.54 130.451C1020.52 130.483 1020.51 130.521 1020.5 130.561C1020.24 133.986 1019.86 137.403 1019.38 140.813C1018.89 144.172 1021.68 145.951 1024.68 145.522C1024.85 145.498 1025 145.427 1025.13 145.319C1025.26 145.21 1025.35 145.069 1025.4 144.91L1026 142.949C1026.09 142.64 1026.27 142.364 1026.51 142.151C1026.75 141.938 1027.04 141.796 1027.36 141.742L1039.5 139.574C1039.55 139.572 1039.59 139.55 1039.63 139.515C1039.66 139.479 1039.68 139.432 1039.67 139.383C1039.67 139.335 1039.65 139.289 1039.62 139.256C1039.58 139.224 1039.53 139.206 1039.48 139.208L1027.45 137.851C1027.21 137.824 1027.02 137.721 1026.87 137.541ZM1466.21 141.408L1466.63 145.029C1466.66 145.225 1466.77 145.321 1466.96 145.315C1470.18 145.257 1471.57 143.563 1471.11 140.233C1470.73 137.438 1470.23 134.637 1469.61 131.831C1469.54 131.487 1469.44 131.479 1469.31 131.807C1467.52 136.429 1464.11 138.933 1459.06 139.32C1458.98 139.325 1458.92 139.365 1458.87 139.439C1458.82 139.523 1458.84 139.574 1458.94 139.59L1465.57 140.725C1465.95 140.789 1466.17 141.016 1466.21 141.408ZM478.924 154.718C481.688 155.951 483.546 155.186 484.499 152.423C484.573 152.216 484.716 152.084 484.928 152.026L489.939 150.66C489.999 150.645 490.053 150.611 490.094 150.564C490.135 150.517 490.16 150.459 490.167 150.396C490.174 150.334 490.162 150.27 490.132 150.214C490.103 150.157 490.058 150.111 490.002 150.08C488.12 149.056 485.77 149.127 483.816 147.578C481.958 146.093 480.687 143.457 479.417 141.297C479.078 140.715 478.874 140.757 478.805 141.424L477.686 152.589C477.641 153.029 477.737 153.471 477.96 153.853C478.182 154.235 478.52 154.538 478.924 154.718ZM83.0885 180.407L115.417 186.395C115.708 186.448 115.899 186.334 115.989 186.053C116.87 183.258 119.3 174.618 116.394 172.069C116.193 171.889 116.071 171.664 116.029 171.394C114.694 161.904 115.155 152.192 115.131 142.615C115.131 142.345 114.996 142.21 114.726 142.21H110.263C110.223 142.21 110.183 142.218 110.146 142.234C110.109 142.251 110.075 142.274 110.047 142.304C110.019 142.333 109.997 142.368 109.982 142.407C109.967 142.445 109.96 142.487 109.961 142.528L110.192 148.317C110.195 148.4 110.181 148.483 110.152 148.561C110.122 148.639 110.077 148.71 110.019 148.77C109.961 148.831 109.892 148.878 109.815 148.911C109.738 148.944 109.656 148.96 109.572 148.96H98.0815C97.8719 148.96 97.6681 149.039 97.5097 149.183C94.1824 152.28 90.0529 151.049 86.4953 154.352C85.4047 155.363 84.1262 156.121 82.6597 156.623C82.5436 156.661 82.4406 156.733 82.3632 156.83C82.2857 156.927 82.2371 157.046 82.2229 157.171C81.4526 164.882 82.9138 173.173 82.7788 180.026C82.7772 180.117 82.8075 180.206 82.8643 180.276C82.9212 180.345 83.0007 180.392 83.0885 180.407ZM1428.37 165.549C1431.33 166.767 1433.88 168.556 1436.04 170.918C1436.11 170.993 1436.21 171.046 1436.31 171.069C1436.41 171.092 1436.51 171.085 1436.61 171.049C1436.71 171.012 1436.79 170.948 1436.85 170.864C1436.91 170.78 1436.94 170.68 1436.95 170.576L1437.24 157.688C1437.25 157.206 1437.02 156.991 1436.53 157.044L1434.46 157.291C1434.05 157.342 1433.63 157.241 1433.29 157.006C1432.95 156.772 1432.71 156.421 1432.61 156.02C1432.34 154.945 1431.82 154.029 1431.03 153.272C1430.82 153.066 1430.55 152.935 1430.25 152.899C1427.47 152.605 1425.54 150.985 1423.07 150.628C1421.71 150.432 1420.34 150.273 1418.98 150.151C1418.92 150.146 1418.86 150.158 1418.81 150.184C1418.76 150.211 1418.72 150.251 1418.69 150.301C1418.67 150.35 1418.65 150.407 1418.66 150.463C1418.66 150.52 1418.68 150.574 1418.71 150.62C1422.17 155.067 1426.81 159.895 1428.28 165.446C1428.29 165.468 1428.3 165.489 1428.31 165.507C1428.33 165.525 1428.35 165.539 1428.37 165.549ZM717.668 153.328C713.65 153.487 711.283 151.978 707.996 154.741C707.817 154.889 707.587 154.963 707.352 154.948C704.435 154.715 702.373 155.888 701.166 158.466C701.044 158.725 700.843 158.876 700.563 158.918L697.918 159.331C697.667 159.371 697.437 159.498 697.27 159.691C697.103 159.885 697.009 160.131 697.005 160.388L696.775 172.569C696.774 172.682 696.809 172.793 696.876 172.884C696.943 172.975 697.037 173.042 697.146 173.075C697.254 173.108 697.369 173.105 697.476 173.067C697.582 173.029 697.673 172.957 697.736 172.863C699.03 170.846 700.293 169.742 702.754 168.885C709.369 166.574 714.444 159.244 717.954 153.836C718.187 153.481 718.091 153.312 717.668 153.328ZM724.18 188.15C726.673 188.539 732.423 188.118 733.526 190.477C733.58 190.594 733.667 190.694 733.775 190.763C733.884 190.832 734.01 190.868 734.138 190.866L740.959 190.771C741.027 190.769 741.093 190.749 741.15 190.713C741.208 190.677 741.254 190.627 741.286 190.567C741.318 190.507 741.333 190.44 741.33 190.373C741.327 190.305 741.306 190.24 741.269 190.183C738.99 186.697 740.594 183.862 742.135 180.503C742.267 180.217 742.272 179.928 742.151 179.637L732.184 155.432C732.052 155.104 731.854 155.059 731.589 155.297C726.655 159.718 722.308 164.655 718.549 170.108C718.381 170.352 718.316 170.652 718.367 170.941C719.471 177.588 719.661 182.162 723.679 187.832C723.737 187.917 723.811 187.99 723.897 188.044C723.984 188.099 724.08 188.135 724.18 188.15ZM1078.14 175.706C1079.19 180.844 1084.73 184.505 1088.99 187.022C1090.87 188.142 1094.07 187.316 1094.56 190.127C1094.59 190.256 1094.65 190.373 1094.75 190.458C1094.85 190.542 1094.98 190.588 1095.11 190.588L1112.38 190.691C1112.66 190.691 1112.78 190.553 1112.76 190.278L1112.35 186.355C1112.34 186.226 1112.28 186.107 1112.18 186.02C1112.09 185.934 1111.96 185.886 1111.84 185.887H1110.62C1110.44 185.886 1110.27 185.821 1110.13 185.702C1110 185.584 1109.91 185.421 1109.89 185.243C1109.4 181.262 1110.28 177.697 1112.53 174.547C1112.72 174.287 1112.75 174.009 1112.62 173.713C1109.99 167.551 1104.08 160.832 1100.02 155.416C1099.96 155.344 1099.89 155.284 1099.81 155.241C1099.73 155.198 1099.65 155.173 1099.56 155.167C1099.46 155.161 1099.37 155.174 1099.29 155.206C1099.21 155.238 1099.13 155.288 1099.07 155.353C1093.57 160.986 1088.24 166.791 1083.1 172.768C1081.67 174.428 1081.49 175.841 1078.62 175.23C1078.55 175.217 1078.49 175.22 1078.42 175.239C1078.36 175.259 1078.3 175.293 1078.25 175.34C1078.21 175.388 1078.17 175.446 1078.15 175.509C1078.13 175.573 1078.13 175.641 1078.14 175.706ZM299.541 179.534L299.343 181.765C299.33 181.917 299.374 182.069 299.467 182.191C299.559 182.312 299.693 182.396 299.843 182.424L321.459 186.427C321.75 186.48 321.89 186.358 321.88 186.061C321.806 183.504 322.372 181.125 323.579 178.922C323.711 178.684 323.77 178.427 323.754 178.152C323.336 171.095 322.256 164.136 320.514 157.275C320.456 157.031 320.299 156.909 320.045 156.909L314.193 156.965C313.891 156.97 313.676 157.108 313.549 157.378C313.158 158.246 312.604 158.302 311.89 157.545C311.797 157.442 311.668 157.377 311.53 157.364C311.392 157.351 311.254 157.39 311.143 157.473C309.296 158.866 307.252 159.826 305.013 160.356C304.865 160.39 304.729 160.459 304.616 160.556C304.502 160.653 304.415 160.775 304.361 160.912C303.48 163.088 304.616 165.692 302.305 167.384C301.423 168.027 300.224 168.106 299.104 168.4C298.834 168.469 298.689 168.644 298.668 168.924C298.424 171.831 298.271 174.713 298.207 177.572C298.191 178.104 298.668 178.621 299.12 178.819C299.255 178.879 299.368 178.98 299.443 179.108C299.519 179.236 299.553 179.385 299.541 179.534ZM1398.99 157.87L1399.01 190.191C1399.01 190.262 1399.03 190.333 1399.06 190.398C1399.08 190.463 1399.13 190.522 1399.18 190.571C1399.23 190.619 1399.29 190.656 1399.36 190.68C1399.43 190.703 1399.5 190.712 1399.57 190.707L1403.59 190.421C1403.85 190.405 1404.07 190.31 1404.27 190.135C1413.73 181.932 1404.79 166.153 1399.31 157.775C1399.29 157.745 1399.26 157.722 1399.22 157.71C1399.19 157.698 1399.15 157.697 1399.11 157.708C1399.08 157.719 1399.05 157.74 1399.03 157.769C1399 157.798 1398.99 157.834 1398.99 157.87ZM513.214 165.819L510.467 166.375C510.343 166.4 510.231 166.468 510.153 166.569C510.074 166.669 510.033 166.795 510.038 166.923L510.824 184.314C510.84 184.69 511.036 184.905 511.412 184.958L519.639 186.046C519.706 186.055 519.775 186.049 519.841 186.029C519.906 186.009 519.966 185.976 520.018 185.931C520.069 185.885 520.11 185.83 520.138 185.767C520.165 185.705 520.179 185.637 520.179 185.569C520.179 181.718 515.041 179.907 519.663 176.063C522.077 174.062 522.99 172.728 523.609 169.409C524.165 166.444 525.137 163.575 526.524 160.801C526.551 160.744 526.564 160.682 526.561 160.619C526.558 160.557 526.539 160.496 526.506 160.444C526.474 160.391 526.428 160.348 526.374 160.319C526.32 160.29 526.26 160.275 526.198 160.276C524.779 160.292 523.369 160.343 521.966 160.427C519.409 160.586 517.161 162.54 514.707 163.485C514.578 163.534 514.462 163.612 514.367 163.712C514.273 163.812 514.201 163.933 514.159 164.064L513.731 165.367C513.646 165.616 513.474 165.766 513.214 165.819ZM577.827 171.34C577.83 171.228 577.811 171.115 577.771 171.01C577.731 170.905 577.67 170.809 577.593 170.727C577.515 170.645 577.422 170.579 577.32 170.533C577.217 170.487 577.106 170.462 576.993 170.459L568.928 170.234C568.816 170.23 568.704 170.25 568.598 170.29C568.493 170.33 568.397 170.39 568.315 170.468C568.233 170.545 568.167 170.638 568.121 170.741C568.076 170.844 568.05 170.954 568.047 171.067L568.037 171.416C568.034 171.529 568.053 171.641 568.093 171.746C568.134 171.851 568.194 171.948 568.271 172.029C568.349 172.111 568.442 172.177 568.544 172.223C568.647 172.269 568.758 172.294 568.871 172.298L576.936 172.523C577.048 172.526 577.16 172.507 577.266 172.467C577.371 172.426 577.467 172.366 577.549 172.289C577.631 172.211 577.697 172.118 577.743 172.016C577.789 171.913 577.814 171.802 577.817 171.689L577.827 171.34ZM565.766 171.764C565.769 171.557 565.691 171.358 565.547 171.21C565.404 171.061 565.207 170.976 565.001 170.972L564.318 170.96C564.112 170.957 563.913 171.035 563.764 171.178C563.616 171.322 563.53 171.518 563.526 171.725L563.359 181.348C563.355 181.554 563.433 181.754 563.577 181.902C563.72 182.051 563.917 182.136 564.123 182.14L564.806 182.152C565.012 182.155 565.212 182.077 565.36 181.933C565.509 181.79 565.594 181.593 565.598 181.387L565.766 171.764ZM582.947 171.613C582.943 171.447 582.873 171.289 582.753 171.174C582.632 171.06 582.471 170.998 582.305 171.002L580.606 171.043C580.439 171.047 580.282 171.117 580.167 171.238C580.052 171.358 579.99 171.519 579.994 171.686L580.213 180.641C580.217 180.807 580.287 180.965 580.407 181.08C580.528 181.194 580.689 181.256 580.855 181.252L582.554 181.211C582.721 181.207 582.878 181.137 582.993 181.016C583.108 180.896 583.17 180.735 583.166 180.568L582.947 171.613ZM533.02 174.237C532.956 174.184 532.89 174.163 532.821 174.173C532.71 174.189 532.654 174.256 532.654 174.372V174.944C532.654 175.048 532.693 175.148 532.764 175.225C532.835 175.302 532.932 175.349 533.036 175.357C533.396 175.383 533.557 175.206 533.52 174.825C533.494 174.586 533.393 174.43 533.218 174.356C533.155 174.33 533.089 174.29 533.02 174.237ZM555.382 178.303L555.501 180.248C555.505 180.289 555.522 180.327 555.549 180.358C555.577 180.388 555.613 180.409 555.653 180.416C555.692 180.423 555.732 180.417 555.767 180.398C555.801 180.379 555.828 180.349 555.843 180.312C556.139 179.613 556.123 178.909 555.795 178.2C555.776 178.151 555.74 178.11 555.694 178.086C555.647 178.062 555.594 178.056 555.543 178.069C555.492 178.081 555.448 178.112 555.418 178.155C555.388 178.198 555.376 178.251 555.382 178.303ZM1054.63 180.427C1054.68 180.366 1054.71 180.284 1054.72 180.188C1054.72 180.091 1054.7 179.982 1054.66 179.866C1054.62 179.749 1054.55 179.628 1054.46 179.51C1054.37 179.391 1054.27 179.277 1054.15 179.174C1053.92 178.967 1053.65 178.817 1053.4 178.759C1053.16 178.7 1052.96 178.738 1052.85 178.862C1052.8 178.924 1052.77 179.006 1052.76 179.102C1052.75 179.199 1052.77 179.308 1052.82 179.424C1052.86 179.541 1052.93 179.662 1053.02 179.78C1053.1 179.899 1053.21 180.013 1053.32 180.116C1053.56 180.323 1053.83 180.473 1054.07 180.531C1054.32 180.59 1054.52 180.552 1054.63 180.427ZM700.102 182.885C700.247 182.877 700.388 182.833 700.513 182.756C700.637 182.68 700.74 182.574 700.813 182.447C700.886 182.321 700.927 182.177 700.932 182.031C700.937 181.884 700.905 181.738 700.841 181.606C700.454 180.823 699.787 180.389 698.839 180.304C698.527 180.272 698.336 180.41 698.268 180.717C697.939 182.252 698.551 182.975 700.102 182.885ZM527.62 186.466C527.528 186.477 527.442 186.514 527.372 186.573C527.302 186.632 527.25 186.71 527.224 186.798C527.198 186.886 527.198 186.98 527.224 187.068C527.251 187.156 527.303 187.234 527.373 187.292C527.585 187.467 527.813 187.528 528.056 187.475C528.411 187.406 528.504 187.21 528.334 186.887C528.17 186.58 527.932 186.44 527.62 186.466ZM76.3306 190.024L76.1162 187.681C76.1132 187.655 76.1051 187.63 76.0923 187.607C76.0795 187.584 76.0622 187.564 76.0415 187.548C76.0209 187.531 75.9971 187.519 75.9718 187.512C75.9464 187.505 75.9199 187.503 75.8938 187.507L75.7509 187.515C74.1547 187.666 72.5772 187.848 71.1087 188.051C69.6401 188.255 68.3092 188.475 67.192 188.7C66.0747 188.925 65.1931 189.15 64.5973 189.362C64.0016 189.574 63.7035 189.77 63.72 189.937L63.7438 190.127C63.7564 190.295 64.0839 190.431 64.7076 190.528C65.3312 190.626 66.2388 190.682 67.3784 190.693C68.518 190.705 69.8672 190.673 71.3488 190.597C72.8304 190.522 74.4154 190.405 76.0129 190.254L76.1559 190.238C76.2072 190.232 76.2541 190.207 76.2867 190.167C76.3193 190.127 76.3351 190.076 76.3306 190.024ZM93.3644 189.579C90.0344 188.902 86.6832 188.243 83.3109 187.602C82.9615 187.538 82.7868 187.684 82.7868 188.039V190.151C82.7868 190.485 82.9535 190.651 83.2871 190.651H93.4994C93.5681 190.651 93.6358 190.634 93.6969 190.603C93.758 190.572 93.8108 190.526 93.8511 190.47C93.8913 190.415 93.9178 190.35 93.9285 190.282C93.9391 190.214 93.9336 190.145 93.9124 190.08C93.8223 189.799 93.6397 189.632 93.3644 189.579ZM1454.29 189.73C1450.57 189.09 1446.85 188.507 1443.12 187.983C1442.92 187.951 1442.8 188.039 1442.77 188.245L1442.51 190.119C1442.51 190.185 1442.51 190.252 1442.53 190.316C1442.55 190.38 1442.58 190.439 1442.62 190.49C1442.67 190.54 1442.72 190.58 1442.78 190.608C1442.84 190.636 1442.91 190.651 1442.98 190.651H1454.82C1454.87 190.65 1454.92 190.633 1454.97 190.603C1455.01 190.574 1455.05 190.531 1455.07 190.482C1455.1 190.432 1455.11 190.378 1455.1 190.323C1455.09 190.269 1455.07 190.218 1455.04 190.175C1454.83 189.926 1454.58 189.778 1454.29 189.73ZM308.189 189.913C305.436 189.214 302.638 188.719 299.795 188.428C299.456 188.396 299.274 188.55 299.247 188.888L299.168 189.929C299.141 190.278 299.303 190.453 299.652 190.453H308.38C308.421 190.453 308.46 190.44 308.493 190.416C308.526 190.391 308.55 190.357 308.562 190.318C308.615 190.127 308.491 189.992 308.189 189.913ZM1040.05 190.723L1044.89 190.89C1045.25 190.906 1045.43 190.733 1045.44 190.373L1045.46 188.706C1045.46 188.643 1045.45 188.58 1045.43 188.523C1045.4 188.465 1045.36 188.414 1045.31 188.372C1045.27 188.331 1045.21 188.3 1045.15 188.282C1045.09 188.264 1045.03 188.26 1044.96 188.269C1043.4 188.476 1041.85 188.783 1040.33 189.19C1039.91 189.301 1039.63 189.542 1039.5 189.913C1039.47 190.003 1039.46 190.099 1039.47 190.193C1039.48 190.288 1039.51 190.379 1039.57 190.458C1039.62 190.537 1039.69 190.602 1039.78 190.648C1039.86 190.694 1039.95 190.72 1040.05 190.723ZM288.042 190.651L293.411 190.119C293.436 190.117 293.46 190.11 293.482 190.099C293.505 190.087 293.525 190.072 293.541 190.052C293.557 190.033 293.569 190.011 293.577 189.987C293.585 189.963 293.587 189.938 293.585 189.913V189.881C293.565 189.675 293.509 189.475 293.422 189.292C293.334 189.108 293.216 188.946 293.074 188.813C292.933 188.68 292.77 188.58 292.596 188.518C292.422 188.456 292.24 188.433 292.061 188.452L289.043 188.746C288.863 188.763 288.689 188.821 288.531 188.916C288.373 189.011 288.233 189.141 288.12 189.298C288.007 189.456 287.923 189.639 287.873 189.835C287.823 190.032 287.808 190.239 287.828 190.445V190.477C287.83 190.503 287.837 190.528 287.849 190.551C287.861 190.574 287.878 190.594 287.898 190.61C287.918 190.626 287.941 190.639 287.966 190.646C287.991 190.653 288.017 190.655 288.042 190.651ZM536.101 188.849L535.982 189.953C535.973 190.042 536 190.131 536.056 190.201C536.112 190.271 536.194 190.316 536.284 190.326L536.538 190.35C537.473 190.45 538.38 190.462 539.06 190.385C539.74 190.308 540.138 190.146 540.167 189.937L540.191 189.746C540.212 189.535 539.859 189.292 539.21 189.072C538.56 188.851 537.668 188.671 536.728 188.571L536.474 188.539C536.429 188.535 536.384 188.539 536.341 188.552C536.298 188.566 536.258 188.587 536.223 188.616C536.188 188.645 536.16 188.68 536.139 188.72C536.118 188.76 536.105 188.804 536.101 188.849ZM691.486 190.238L691.383 188.777C691.377 188.699 691.34 188.626 691.28 188.574C691.221 188.522 691.144 188.495 691.065 188.499L690.962 188.507C688.945 188.652 687.017 188.891 685.6 189.172C684.183 189.454 683.393 189.754 683.402 190.008L683.41 190.151C683.418 190.277 683.623 190.388 684.014 190.477C684.405 190.566 684.974 190.631 685.689 190.67C686.403 190.708 687.249 190.718 688.179 190.7C689.108 190.682 690.102 190.636 691.105 190.564L691.208 190.556C691.287 190.55 691.36 190.513 691.412 190.454C691.464 190.395 691.49 190.317 691.486 190.238ZM708.79 190.334C708.796 190.316 708.798 190.297 708.796 190.279C708.794 190.26 708.787 190.242 708.777 190.226C708.768 190.21 708.754 190.197 708.739 190.186C708.723 190.176 708.705 190.17 708.686 190.167L697.362 188.436C697.344 188.432 697.325 188.433 697.306 188.438C697.288 188.442 697.271 188.451 697.257 188.463C697.242 188.476 697.231 188.491 697.223 188.508C697.215 188.525 697.211 188.544 697.211 188.563L697.267 190.524C697.267 190.558 697.28 190.59 697.304 190.614C697.328 190.638 697.36 190.651 697.394 190.651H708.591C708.619 190.653 708.647 190.645 708.669 190.629C708.692 190.613 708.71 190.591 708.718 190.564L708.79 190.334ZM1435.52 188.682C1433.5 189.074 1431.51 189.593 1429.56 190.238C1428.74 190.514 1428.76 190.651 1429.63 190.651H1435.46C1435.8 190.651 1435.96 190.487 1435.96 190.159V189.047C1435.96 188.751 1435.81 188.629 1435.52 188.682ZM890.238 189.389L890.19 190.302C890.188 190.33 890.191 190.359 890.2 190.385C890.209 190.412 890.223 190.437 890.241 190.458C890.26 190.48 890.282 190.497 890.308 190.51C890.333 190.523 890.36 190.53 890.388 190.532L890.516 190.54C892.57 190.652 894.544 190.696 896.004 190.663C897.463 190.63 898.288 190.523 898.298 190.366L898.306 190.207C898.313 190.129 898.12 190.04 897.736 189.947C897.351 189.853 896.784 189.757 896.067 189.662C895.35 189.568 894.497 189.478 893.556 189.397C892.616 189.316 891.607 189.245 890.587 189.19L890.46 189.182C890.432 189.181 890.404 189.186 890.377 189.196C890.351 189.205 890.327 189.22 890.306 189.239C890.285 189.259 890.269 189.282 890.257 189.307C890.245 189.333 890.239 189.361 890.238 189.389ZM139.05 190.236C139.049 190.027 138.673 189.829 138.005 189.685C137.337 189.541 136.432 189.463 135.488 189.468C135.021 189.471 134.559 189.493 134.127 189.535C133.696 189.577 133.304 189.637 132.974 189.712C132.644 189.786 132.382 189.874 132.204 189.971C132.026 190.067 131.934 190.17 131.935 190.273C131.936 190.482 132.312 190.68 132.98 190.823C133.648 190.967 134.553 191.045 135.496 191.041C135.964 191.038 136.426 191.015 136.858 190.974C137.289 190.932 137.681 190.872 138.011 190.797C138.341 190.722 138.602 190.634 138.781 190.538C138.959 190.442 139.05 190.339 139.05 190.236ZM884.663 190.254L884.576 189.452C884.574 189.429 884.567 189.406 884.556 189.384C884.545 189.363 884.529 189.345 884.511 189.33C884.492 189.315 884.471 189.304 884.448 189.298C884.425 189.292 884.401 189.29 884.377 189.293L884.306 189.301C883.82 189.356 883.341 189.422 882.896 189.495C882.45 189.568 882.047 189.648 881.71 189.729C881.372 189.81 881.107 189.892 880.93 189.968C880.753 190.045 880.667 190.115 880.676 190.175L880.7 190.413C880.725 190.533 881.13 190.604 881.829 190.611C882.528 190.619 883.464 190.562 884.433 190.453L884.512 190.445C884.557 190.439 884.598 190.416 884.626 190.38C884.654 190.345 884.667 190.3 884.663 190.254ZM1028.74 189.988C1028.73 189.847 1028.67 189.713 1028.57 189.616C1028.47 189.518 1028.33 189.465 1028.19 189.469L1018.49 189.706C1018.42 189.708 1018.35 189.723 1018.29 189.752C1018.22 189.78 1018.17 189.82 1018.12 189.871C1018.07 189.922 1018.03 189.981 1018.01 190.046C1017.98 190.112 1017.97 190.181 1017.97 190.251V190.299C1017.98 190.44 1018.04 190.574 1018.14 190.671C1018.24 190.768 1018.38 190.821 1018.52 190.817L1028.22 190.58C1028.29 190.579 1028.36 190.563 1028.42 190.535C1028.48 190.507 1028.54 190.466 1028.59 190.415C1028.64 190.365 1028.68 190.305 1028.7 190.24C1028.73 190.175 1028.74 190.105 1028.74 190.035V189.988ZM276.947 190.269C276.945 190.174 276.814 190.083 276.562 190.001C276.31 189.919 275.942 189.847 275.478 189.791C275.014 189.734 274.464 189.693 273.859 189.671C273.255 189.648 272.607 189.644 271.953 189.659C270.633 189.689 269.368 189.794 268.438 189.95C267.508 190.107 266.987 190.303 266.992 190.494C266.994 190.589 267.124 190.68 267.377 190.762C267.629 190.844 267.997 190.916 268.461 190.972C268.925 191.029 269.475 191.07 270.079 191.092C270.684 191.115 271.332 191.119 271.986 191.104C273.306 191.074 274.57 190.969 275.501 190.812C276.431 190.656 276.952 190.46 276.947 190.269ZM53.761 190.29C53.7602 190.231 53.7478 190.173 53.7247 190.12C53.7016 190.066 53.6682 190.018 53.6263 189.977C53.5844 189.936 53.535 189.904 53.4807 189.883C53.4264 189.861 53.3685 189.85 53.3101 189.851L42.1777 190.007C42.1193 190.007 42.0616 190.02 42.008 190.043C41.9543 190.066 41.9058 190.099 41.865 190.141C41.8243 190.183 41.7923 190.233 41.7707 190.287C41.7491 190.341 41.7384 190.399 41.7392 190.457L41.7396 190.489C41.7404 190.548 41.7527 190.605 41.7758 190.659C41.799 190.713 41.8324 190.761 41.8743 190.802C41.9161 190.843 41.9656 190.875 42.0199 190.896C42.0741 190.918 42.1321 190.928 42.1905 190.928L53.3229 190.772C53.3813 190.771 53.439 190.759 53.4926 190.736C53.5463 190.713 53.5948 190.679 53.6355 190.638C53.6762 190.596 53.7083 190.546 53.7299 190.492C53.7515 190.438 53.7622 190.38 53.7614 190.321L53.761 190.29ZM110.901 190.493C110.901 190.464 110.896 190.435 110.886 190.407C110.876 190.38 110.86 190.355 110.84 190.334C110.82 190.313 110.796 190.296 110.769 190.284C110.742 190.272 110.714 190.265 110.684 190.264L104.286 190.086C104.257 190.085 104.228 190.09 104.201 190.1C104.174 190.111 104.149 190.126 104.127 190.146C104.106 190.166 104.089 190.191 104.077 190.217C104.065 190.244 104.059 190.273 104.058 190.302L104.052 190.54C104.051 190.569 104.056 190.598 104.066 190.625C104.077 190.653 104.092 190.678 104.112 190.699C104.132 190.72 104.156 190.737 104.183 190.749C104.21 190.761 104.238 190.768 104.268 190.768L110.666 190.947C110.695 190.948 110.724 190.943 110.751 190.933C110.779 190.922 110.803 190.907 110.825 190.886C110.846 190.866 110.863 190.842 110.875 190.816C110.887 190.789 110.893 190.76 110.894 190.731L110.901 190.493ZM671.903 190.524C671.902 190.465 671.89 190.406 671.867 190.351C671.844 190.296 671.811 190.247 671.768 190.205C671.726 190.163 671.676 190.13 671.621 190.107C671.566 190.085 671.507 190.074 671.448 190.074L663.173 190.117C663.114 190.118 663.055 190.13 663 190.153C662.945 190.176 662.896 190.209 662.854 190.251C662.812 190.294 662.779 190.344 662.756 190.399C662.734 190.454 662.723 190.513 662.723 190.572L662.723 190.604C662.723 190.663 662.735 190.722 662.758 190.777C662.781 190.832 662.815 190.882 662.857 190.923C662.9 190.965 662.95 190.998 663.005 191.021C663.06 191.043 663.119 191.055 663.178 191.054L671.453 191.011C671.512 191.011 671.571 190.999 671.626 190.976C671.68 190.953 671.73 190.919 671.772 190.877C671.814 190.834 671.847 190.784 671.869 190.729C671.892 190.674 671.903 190.615 671.903 190.556L671.903 190.524ZM749.099 191.199C749.29 191.284 749.483 191.276 749.679 191.176C749.731 191.148 749.775 191.11 749.81 191.062C749.844 191.015 749.867 190.961 749.877 190.903C749.887 190.846 749.884 190.787 749.867 190.73C749.851 190.674 749.822 190.623 749.782 190.58C749.274 190.035 748.824 189.9 748.432 190.175C748.382 190.209 748.339 190.254 748.306 190.305C748.273 190.357 748.252 190.415 748.242 190.476C748.232 190.537 748.235 190.599 748.25 190.659C748.265 190.72 748.292 190.776 748.329 190.826C748.445 190.98 748.617 191.067 748.845 191.088L749.099 191.199ZM915.046 190.486C915.047 190.429 915.016 190.372 914.956 190.317C914.896 190.263 914.807 190.213 914.694 190.17C914.581 190.127 914.447 190.092 914.299 190.067C914.151 190.042 913.993 190.028 913.832 190.024C913.508 190.017 913.196 190.057 912.965 190.134C912.734 190.211 912.603 190.319 912.6 190.435C912.599 190.493 912.629 190.55 912.69 190.604C912.75 190.659 912.839 190.709 912.952 190.751C913.065 190.794 913.199 190.829 913.347 190.854C913.494 190.88 913.653 190.894 913.814 190.898C914.138 190.904 914.45 190.865 914.681 190.788C914.912 190.711 915.043 190.602 915.046 190.486ZM503.153 190.659C503.428 190.861 503.746 190.924 504.106 190.85C504.177 190.834 504.24 190.792 504.283 190.733C504.326 190.673 504.345 190.601 504.339 190.528C504.332 190.455 504.299 190.387 504.246 190.337C504.193 190.287 504.123 190.257 504.05 190.254H503.28C502.819 190.254 502.777 190.389 503.153 190.659ZM512.849 190.405C512.351 190.172 511.833 190.148 511.293 190.334C510.843 190.487 510.835 190.659 511.269 190.85C511.968 191.157 512.68 191.173 513.405 190.898C513.447 190.882 513.483 190.855 513.509 190.818C513.535 190.781 513.548 190.738 513.548 190.692C513.548 190.647 513.535 190.602 513.509 190.564C513.483 190.525 513.447 190.495 513.405 190.477C513.209 190.403 513.024 190.379 512.849 190.405ZM1478.84 190.469L1472.75 190.405C1472.75 190.405 1472.75 190.406 1472.75 190.408C1472.75 190.409 1472.75 190.411 1472.75 190.413V190.62C1472.75 190.671 1472.82 190.722 1472.97 190.771C1473.12 190.82 1473.33 190.865 1473.61 190.905C1473.88 190.944 1474.2 190.976 1474.56 190.999C1474.92 191.022 1475.31 191.037 1475.69 191.041H1475.9C1476.68 191.049 1477.43 191.015 1477.98 190.948C1478.53 190.882 1478.84 190.786 1478.85 190.683V190.477C1478.85 190.475 1478.84 190.473 1478.84 190.471C1478.84 190.47 1478.84 190.469 1478.84 190.469Z" fill="#9D0534"/>
</svg>