<?xml version="1.0" encoding="UTF-8" standalone="no"?>
<svg
   height="20"
   width="100"
   viewBox="-61.48365 -22.04525 44.404858 3.3067875"
   version="1.1"
   id="svg1"
   sodipodi:docname="tiktok-logo-white.svg"
   inkscape:version="1.3 (0e150ed6c4, 2023-07-21)"
   xml:space="preserve"
   xmlns:inkscape="http://www.inkscape.org/namespaces/inkscape"
   xmlns:sodipodi="http://sodipodi.sourceforge.net/DTD/sodipodi-0.dtd"
   xmlns="http://www.w3.org/2000/svg"
   xmlns:svg="http://www.w3.org/2000/svg"><defs
     id="defs1" /><sodipodi:namedview
     id="namedview1"
     pagecolor="#ffffff"
     bordercolor="#000000"
     borderopacity="0.25"
     inkscape:showpageshadow="2"
     inkscape:pageopacity="0.0"
     inkscape:pagecheckerboard="0"
     inkscape:deskcolor="#d1d1d1"
     inkscape:zoom="10.286047"
     inkscape:cx="52.546911"
     inkscape:cy="7.1456022"
     inkscape:window-width="1920"
     inkscape:window-height="1017"
     inkscape:window-x="-8"
     inkscape:window-y="-8"
     inkscape:window-maximized="1"
     inkscape:current-layer="svg1" /><path
     style="fill:#ffffff;stroke-width:0.023875"
     d="m -51.974147,-16.137065 c -0.535752,-0.06901 -1.022265,-0.28857 -1.4506,-0.654641 -0.796661,-0.680854 -1.116078,-1.79946 -0.804862,-2.818625 0.06943,-0.227314 0.26201,-0.613827 0.392606,-0.787875 0.509277,-0.67877 1.241736,-1.071693 2.057763,-1.103882 0.172852,-0.0068 0.352811,-0.0052 0.399911,0.0037 l 0.08563,0.01606 v 0.729205 0.729205 l -0.101471,-0.01735 c -0.796739,-0.13619 -1.498155,0.443836 -1.498155,1.238871 0,0.325382 0.129943,0.618328 0.382376,0.862036 0.515079,0.497262 1.269775,0.479719 1.770269,-0.04115 0.127097,-0.13227 0.266043,-0.399578 0.304305,-0.585439 0.01801,-0.08743 0.02603,-1.048301 0.02603,-3.109723 v -2.983203 h 0.724754 0.724753 l 0.01549,0.186032 c 0.05072,0.608521 0.387857,1.166102 0.922476,1.525779 0.256639,0.172662 0.635092,0.30769 0.931722,0.332427 l 0.190402,0.01588 v 0.72575 0.725752 l -0.185031,-0.01482 c -0.63098,-0.05055 -1.139368,-0.209173 -1.640404,-0.51181 -0.109248,-0.06599 -0.2052,-0.119983 -0.213228,-0.119983 -0.008,0 -0.01463,0.723311 -0.01463,1.607357 0,1.372144 -0.0055,1.640291 -0.03861,1.832409 -0.187689,1.093557 -1.018529,1.947963 -2.122365,2.18257 -0.213605,0.0454 -0.644221,0.06319 -0.859202,0.03549 z m 14.522991,-1.593107 c -0.01997,-0.02298 -0.264887,-0.369466 -0.544345,-0.76997 -0.279466,-0.400503 -0.510912,-0.731645 -0.514325,-0.735872 -0.0031,-0.0042 -0.08243,0.06423 -0.175604,0.152111 l -0.169384,0.159794 v 0.605922 0.605921 h -0.561062 -0.56107 v -2.339753 -2.339752 h 0.560826 0.560819 l 0.0063,1.080345 0.0063,1.080345 0.551037,-0.543158 0.551036,-0.543156 0.666592,0.0013 0.666591,0.0013 -0.695739,0.680974 -0.69574,0.680973 0.773331,1.118683 c 0.425332,0.615275 0.773331,1.124802 0.773331,1.132282 0,0.0075 -0.261554,0.0136 -0.581238,0.0136 -0.523839,0 -0.584817,-0.0041 -0.617479,-0.04178 z m 6.582541,0.02648 c -0.327037,-0.05326 -0.703909,-0.221765 -0.947056,-0.423448 -1.258956,-1.044274 -0.746487,-3.045128 0.863331,-3.370789 0.275723,-0.05578 0.878325,-0.03694 1.158097,0.03619 0.599041,0.156602 1.089383,0.583932 1.317189,1.147932 0.170996,0.423339 0.170996,0.983602 0,1.406941 -0.178206,0.4412 -0.554607,0.834988 -0.984381,1.029856 -0.283719,0.128646 -0.480317,0.165843 -0.929686,0.175896 -0.22323,0.005 -0.438101,0.0039 -0.477494,-0.0026 z m 0.455203,-0.989505 c 0.299311,-0.05478 0.570128,-0.262319 0.695063,-0.532637 0.06039,-0.13075 0.06731,-0.17154 0.06715,-0.396434 -2.43e-4,-0.234907 -0.0047,-0.259827 -0.07588,-0.395882 -0.302772,-0.580686 -1.045052,-0.703461 -1.506545,-0.249189 -0.06605,0.06504 -0.150639,0.180381 -0.187925,0.256318 -0.06204,0.126265 -0.06778,0.160512 -0.06778,0.40069 0,0.237959 0.0063,0.275127 0.06542,0.395725 0.07517,0.152899 0.241189,0.331127 0.389445,0.418008 0.08906,0.05219 0.33041,0.121766 0.44204,0.127433 0.0206,0.001 0.10115,-0.0098 0.179064,-0.02403 z m 4.472779,0.246774 c -0.291912,-0.416918 -0.53756,-0.766035 -0.545879,-0.775817 -0.0083,-0.0098 -0.09253,0.05286 -0.187146,0.139216 l -0.172018,0.157 v 0.606879 0.606879 h -0.561062 -0.561063 v -2.339752 -2.339753 h 0.561063 0.561062 v 1.092092 1.092092 l 0.55566,-0.555285 0.55566,-0.555285 0.669595,0.0064 0.669595,0.0064 -0.688041,0.668501 c -0.378421,0.367676 -0.688057,0.676463 -0.688065,0.686194 -2.4e-5,0.01495 1.121291,1.648718 1.450325,2.113153 l 0.105717,0.149219 h -0.597326 -0.597326 z m -18.220262,-1.122126 -0.0063,-1.856283 -0.567031,-0.0064 -0.567038,-0.0064 v -0.477069 -0.477067 h 1.754819 c 0.965148,0 1.754692,0.0081 1.754543,0.0179 -1.18e-4,0.0098 -0.06849,0.232781 -0.151929,0.495406 l -0.151661,0.477501 -0.468821,0.0064 -0.468822,0.0064 v 1.837873 1.837872 h -0.560913 -0.56092 z m 2.608202,0.256656 v -1.599626 h 0.549126 0.549127 v 1.599626 1.599627 h -0.549127 -0.549126 z m 6.726936,-0.256656 -0.0063,-1.856283 -0.56703,-0.0064 -0.56703,-0.0064 v -0.477069 -0.477067 h 1.754811 c 0.965148,0 1.754786,0.0081 1.754747,0.0179 0,0.0098 -0.06809,0.232781 -0.151173,0.495406 l -0.151103,0.477501 -0.469577,0.0064 -0.469576,0.0064 v 1.837873 1.837872 h -0.560921 -0.560921 z m -6.321215,-1.747279 c -0.179645,-0.05464 -0.330472,-0.192096 -0.381951,-0.348068 -0.04694,-0.142305 -0.02115,-0.371085 0.05481,-0.485876 0.09512,-0.143728 0.278459,-0.241491 0.45341,-0.241775 0.423956,-6.86e-4 0.685462,0.399347 0.508915,0.778508 -0.110034,0.236314 -0.395798,0.370029 -0.635179,0.297211 z"
     id="path4" /></svg>
