<?xml version="1.0" encoding="UTF-8" standalone="no"?>
<svg
   height="20"
   width="100"
   viewBox="-61.48365 -22.04525 44.404858 3.3067875"
   version="1.1"
   id="svg1"
   sodipodi:docname="tokopedia-logo-white.svg"
   inkscape:version="1.3 (0e150ed6c4, 2023-07-21)"
   xmlns:inkscape="http://www.inkscape.org/namespaces/inkscape"
   xmlns:sodipodi="http://sodipodi.sourceforge.net/DTD/sodipodi-0.dtd"
   xmlns="http://www.w3.org/2000/svg"
   xmlns:svg="http://www.w3.org/2000/svg">
  <defs
     id="defs1" />
  <sodipodi:namedview
     id="namedview1"
     pagecolor="#ffffff"
     bordercolor="#000000"
     borderopacity="0.25"
     inkscape:showpageshadow="2"
     inkscape:pageopacity="0.0"
     inkscape:pagecheckerboard="0"
     inkscape:deskcolor="#d1d1d1"
     inkscape:zoom="10.286047"
     inkscape:cx="52.546913"
     inkscape:cy="7.0483834"
     inkscape:window-width="1920"
     inkscape:window-height="1017"
     inkscape:window-x="-8"
     inkscape:window-y="-8"
     inkscape:window-maximized="1"
     inkscape:current-layer="svg1" />
  <path
     d="m -37.907686,-18.658414 c -0.431047,0.43734 -0.946892,0.657656 -1.544628,0.657656 -0.48332,0 -0.89433,-0.09883 -1.313665,-0.342381 v -1.003036 c 0.337443,0.228641 0.76094,0.446537 1.179211,0.446537 0.871776,0 1.391105,-0.60006 1.391105,-1.450541 0,-0.851351 -0.537237,-1.469317 -1.409207,-1.469317 -0.390006,0 -0.705474,0.140066 -0.952313,0.42069 -0.264553,0.304336 -0.401137,0.739063 -0.401137,1.313762 v 3.961129 h -0.06573 c -0.480415,0 -0.870129,-0.389617 -0.870129,-0.870033 v -3.239586 c 0,-1.374649 0.840606,-2.484552 2.285144,-2.484552 0.712831,0 1.292176,0.243741 1.731356,0.733642 0.412945,0.457571 0.617773,1.037981 0.617773,1.735809 0,0.621259 -0.215766,1.1523 -0.647783,1.590221 z m 10.132095,-0.03331 c -0.429596,0.460958 -0.982224,0.690955 -1.652753,0.690955 -0.707024,0 -1.283658,-0.24413 -1.722256,-0.733934 -0.412559,-0.463282 -0.617774,-1.043886 -0.617774,-1.735809 0,-1.224513 0.945537,-2.247585 2.188731,-2.247585 0.480029,0 0.896557,0.100858 1.317538,0.331925 v 1.0132 c -0.337733,-0.22864 -0.761327,-0.446536 -1.179211,-0.446536 -0.871776,0 -1.391104,0.599962 -1.391104,1.450636 0,0.839736 0.549336,1.469223 1.408916,1.469223 0.389133,0 0.709927,-0.14616 0.966348,-0.439761 0.254679,-0.29214 0.387197,-0.721058 0.387197,-1.2975 v -3.152757 c 0,-0.480416 0.389522,-0.87013 0.870422,-0.87013 h 0.06534 v 4.1707 c 0,0.734708 -0.212379,1.335833 -0.641393,1.797373 z m 2.642432,-4.471748 c -0.09834,0.109967 -0.239095,0.160686 -0.411108,0.160686 -0.320987,0 -0.550692,-0.237158 -0.550692,-0.555628 0,-0.326311 0.225639,-0.54653 0.550692,-0.54653 0.31334,0 0.551272,0.232125 0.551272,0.54653 0,0.155462 -0.0454,0.288656 -0.140163,0.394941 z m 4.754593,2.526562 c 0,-0.368806 -0.139486,-0.660752 -0.420302,-0.882229 -0.25255,-0.19902 -0.568407,-0.300369 -0.951732,-0.300369 -0.846898,0 -1.390427,0.662012 -1.390427,1.478224 0,0.786109 0.57586,1.441635 1.381812,1.441635 0.559888,0 0.859773,-0.327473 1.179307,-0.734901 v 1.175531 c -0.163011,0.121865 -0.350221,0.254776 -0.541496,0.332796 -0.201633,0.08432 -0.442083,0.12546 -0.720381,0.12546 -1.346868,0 -2.235196,-1.115711 -2.235196,-2.404982 0,-0.662012 0.205602,-1.209122 0.619516,-1.636008 0.43947,-0.452053 1.01533,-0.676338 1.720707,-0.676338 1.33738,0 2.294147,0.767716 2.294147,2.155047 v 2.46974 h -0.06583 c -0.480512,0 -0.870131,-0.38952 -0.870131,-0.870033 z m -12.809856,-0.264842 c -0.118576,-0.365903 -0.266585,-0.545756 -0.6079,-0.736063 -0.810598,-0.453313 -1.608614,-0.06766 -1.980033,0.732384 z m -0.713993,2.887139 c -0.597834,0.126814 -1.184341,0.02904 -1.756426,-0.290494 -0.558049,-0.311985 -0.932275,-0.775751 -1.119388,-1.388008 -0.37868,-1.238838 0.397361,-2.619393 1.645105,-2.953932 0.618549,-0.165624 1.21193,-0.09051 1.775399,0.224576 0.936149,0.523007 1.277172,1.332347 1.217737,2.375263 l -3.770144,-0.0079 c 0.05536,0.425433 0.319244,0.758326 0.689696,0.965284 0.375679,0.210054 0.72135,0.260196 1.042143,0.160686 0.355641,-0.111805 0.644297,-0.402106 0.879229,-0.672564 l 0.768491,0.559792 c -0.31363,0.560758 -0.74042,0.892684 -1.371842,1.027235 z m 7.89051,-4.611137 h 0.935567 v 4.53244 h -0.06554 c -0.480222,0 -0.870033,-0.389521 -0.870033,-0.870033 z m -31.738697,4.53244 c -0.914852,0 -1.369229,-0.622615 -1.369229,-1.491874 v -3.298441 c 0,-0.480512 0.389424,-0.870033 0.870226,-0.870033 h 0.06554 v 1.127908 h 1.581026 v 0.898878 h -1.581026 v 2.245651 c 0,0.381971 0.17056,0.489321 0.5353,0.489321 h 1.045726 v 0.89859 z m 5.4349,-0.573053 c -0.462701,0.443438 -1.018233,0.665594 -1.663692,0.665594 -0.639457,0 -1.192181,-0.222349 -1.654108,-0.665594 -0.46396,-0.444793 -0.695408,-1.010876 -0.695408,-1.693119 0,-1.33109 1.016782,-2.358615 2.349516,-2.358615 0.639747,0 1.193635,0.223993 1.658852,0.670045 0.466864,0.447698 0.699861,1.012136 0.699861,1.68857 0,0.682243 -0.231448,1.248326 -0.695021,1.693119 z m 4.374657,-2.868844 c -0.137261,0.230188 -0.243547,0.395424 -0.31847,0.495128 -0.08267,0.108322 -0.164075,0.195051 -0.244708,0.254776 0.650297,0.210346 0.89249,0.660851 0.89249,1.332057 v 1.359936 h -0.06582 c -0.480609,0 -0.870226,-0.389521 -0.870226,-0.870033 v -0.397749 c 0,-0.43434 -0.194568,-0.729482 -0.655236,-0.729482 h -0.8499 v 1.997264 h -0.06553 c -0.480611,0 -0.870228,-0.389521 -0.870228,-0.870033 v -4.826324 c 0,-0.480416 0.389617,-0.87013 0.870228,-0.87013 h 0.06553 v 3.661148 h 0.276557 c 0.303852,0 0.50384,-0.103664 0.618257,-0.300369 l 0.786206,-1.326538 1.066342,-9.69e-4 z m 4.830584,2.868844 c -0.462314,0.443438 -1.018041,0.665594 -1.663595,0.665594 -0.639264,0 -1.191796,-0.222349 -1.654303,-0.665594 -0.46367,-0.444793 -0.694828,-1.010876 -0.694828,-1.693119 0,-1.33109 1.016298,-2.358615 2.349131,-2.358615 0.63994,0 1.193923,0.223993 1.659045,0.670045 0.46667,0.447698 0.69986,1.012136 0.69986,1.68857 0,0.682243 -0.231448,1.248326 -0.69531,1.693119 z m -0.67537,-2.747749 c -0.257873,-0.270071 -0.58583,-0.405396 -0.988225,-0.405396 -0.861129,0 -1.376586,0.627939 -1.376586,1.460026 0,0.820569 0.527848,1.459833 1.376586,1.459833 0.849414,0 1.376488,-0.639264 1.376488,-1.459833 0,-0.435694 -0.130587,-0.785237 -0.388263,-1.05463 z m -9.205628,0 c -0.257873,-0.270071 -0.585443,-0.405396 -0.987935,-0.405396 -0.861321,0 -1.376584,0.627939 -1.376584,1.460026 0,0.820569 0.527749,1.459833 1.376584,1.459833 0.849028,0 1.376779,-0.639264 1.376779,-1.459833 0,-0.435694 -0.130781,-0.785237 -0.388844,-1.05463 z"
     fill="#ffffff"
     fill-rule="evenodd"
     id="path1"
     style="stroke-width:0.0967994" />
</svg>
