<svg width="50" height="16" viewBox="0 0 50 16" fill="none" xmlns="http://www.w3.org/2000/svg">
<g id="Visa_Inc._logo 1" clip-path="url(#clip0_114_10282)">
<g id="g4158">
<path id="polygon9" d="M21.704 15.7692H17.6992L20.2041 0.280762H24.2087L21.704 15.7692Z" fill="#00579F"/>
<path id="path11" d="M36.2219 0.659404C35.4319 0.346017 34.179 0 32.6299 0C28.675 0 25.89 2.10895 25.8729 5.12412C25.84 7.3487 27.8669 8.58429 29.3828 9.32603C30.9322 10.084 31.4589 10.5787 31.4589 11.2543C31.4431 12.2919 30.2069 12.7702 29.0538 12.7702C27.4549 12.7702 26.5982 12.5236 25.2963 11.9463L24.7689 11.6989L24.2085 15.1757C25.1478 15.6036 26.8783 15.9834 28.675 16C32.8771 16 35.6128 13.9237 35.6452 10.7105C35.6612 8.94739 34.591 7.59639 32.2836 6.49242C30.8829 5.78374 30.0251 5.30589 30.0251 4.58078C30.0415 3.9216 30.7506 3.24643 32.3318 3.24643C33.6337 3.21336 34.5903 3.52631 35.315 3.83947L35.6772 4.00394L36.2219 0.659404Z" fill="#00579F"/>
<path id="path13" d="M41.5447 10.2822C41.8746 9.3924 43.1437 5.94865 43.1437 5.94865C43.127 5.98172 43.4728 5.04244 43.6706 4.46582L43.9504 5.80039C43.9504 5.80039 44.7088 9.50781 44.8735 10.2822C44.2476 10.2822 42.3358 10.2822 41.5447 10.2822ZM46.4882 0.280762H43.3905C42.4352 0.280762 41.7094 0.560641 41.2973 1.56584L35.3486 15.769H39.5508C39.5508 15.769 40.2426 13.8573 40.3913 13.4456C40.8523 13.4456 44.9401 13.4456 45.5331 13.4456C45.6481 13.9894 46.011 15.769 46.011 15.769H49.7191L46.4882 0.280762Z" fill="#00579F"/>
<path id="path15" d="M14.3543 0.280762L10.4323 10.8424L10.0037 8.70036C9.27862 6.22875 7.00455 3.5434 4.4668 2.20816L8.05924 15.7528H12.2942L18.5891 0.280762H14.3543Z" fill="#00579F"/>
<path id="path17" d="M6.79029 0.280762H0.346924L0.281006 0.59371C5.30723 1.87901 8.636 4.97718 10.0036 8.70102L8.60294 1.58271C8.37233 0.593491 7.66365 0.313392 6.79029 0.280762Z" fill="#FAA61A"/>
</g>
</g>
<defs>
<clipPath id="clip0_114_10282">
<rect width="49.4379" height="16" fill="white" transform="translate(0.281006)"/>
</clipPath>
</defs>
</svg>
