<svg width="84" height="51" viewBox="0 0 84 51" fill="none" xmlns="http://www.w3.org/2000/svg">
<g id="WooCommerce_logo 1" clip-path="url(#clip0_84_777)">
<path id="Vector" d="M7.93451 0.758545H76.0326C80.342 0.758545 83.8309 4.24711 83.8309 8.55691V34.551C83.8309 38.8605 80.3424 42.3494 76.0326 42.3494H51.612L54.9639 50.5579L40.2224 42.3494H7.96915C3.65967 42.3494 0.170782 38.8608 0.170782 34.551V8.55691C0.136579 4.28142 3.62503 0.758545 7.93451 0.758545Z" fill="#7F54B3"/>
<path id="Vector_2" d="M4.93397 7.86649C5.41008 7.22035 6.12427 6.88025 7.07649 6.81224C8.8109 6.67621 9.79714 7.49241 10.0352 9.26084C11.0895 16.3687 12.2457 22.388 13.4702 27.3193L20.9179 13.138C21.5981 11.8456 22.4483 11.1655 23.4685 11.0975C24.9649 10.9954 25.8831 11.9477 26.2572 13.9542C27.1074 18.4774 28.1956 22.3202 29.488 25.5849C30.3722 16.9467 31.8685 10.7235 33.9772 6.88031C34.4873 5.92809 35.2355 5.45198 36.2217 5.38394C37.0039 5.31593 37.7181 5.55398 38.3642 6.0641C39.0104 6.57424 39.3505 7.22038 39.4185 8.00257C39.4525 8.61473 39.3505 9.12482 39.0784 9.63495C37.7521 12.0835 36.6638 16.1987 35.7797 21.9118C34.9295 27.4552 34.6234 31.7742 34.8275 34.8689C34.8955 35.7191 34.7595 36.4673 34.4194 37.1135C34.0113 37.8617 33.3991 38.2698 32.6169 38.3378C31.7327 38.4058 30.8145 37.9977 29.9303 37.0795C26.7676 33.8487 24.2509 29.0197 22.4146 22.5919C20.2041 26.9448 18.5718 30.2099 17.5176 32.3863C15.5111 36.2291 13.8107 38.2017 12.3823 38.3036C11.464 38.3717 10.6818 37.5895 10.0017 35.9571C8.26727 31.5019 6.39678 22.8979 4.39025 10.145C4.25422 9.26077 4.45826 8.47858 4.93437 7.86643L4.93397 7.86649ZM78.0189 13.2057C76.7947 11.0632 74.9922 9.77074 72.5778 9.26061C71.9316 9.12458 71.3195 9.05656 70.7413 9.05656C67.4766 9.05656 64.824 10.757 62.7495 14.1579C60.9811 17.0486 60.0969 20.2454 60.0969 23.7481C60.0969 26.3667 60.641 28.6111 61.7292 30.4817C62.9535 32.6242 64.756 33.9167 67.1704 34.4268C67.8166 34.5629 68.4287 34.6309 69.0069 34.6309C72.3055 34.6309 74.9582 32.9304 76.9987 29.5296C78.7671 26.6049 79.6513 23.408 79.6513 19.9054C79.6853 17.2527 79.1072 15.0423 78.0189 13.2057ZM73.734 22.626C73.2579 24.8705 72.4077 26.5368 71.1494 27.6593C70.1631 28.5435 69.2449 28.9176 68.3947 28.7476C67.5785 28.5775 66.8983 27.8634 66.3882 26.537C65.9801 25.4828 65.7761 24.4286 65.7761 23.4423C65.7761 22.5921 65.8441 21.7419 66.0141 20.9597C66.3202 19.5654 66.8983 18.2051 67.8165 16.9127C68.9388 15.2463 70.1291 14.5661 71.3535 14.8042C72.1697 14.9742 72.8498 15.6884 73.3599 17.0147C73.7681 18.0689 73.9721 19.1232 73.9721 20.1094C73.9721 20.9936 73.904 21.8438 73.734 22.626ZM56.7297 13.2057C55.5054 11.0632 53.669 9.77074 51.2886 9.26061C50.6424 9.12458 50.0303 9.05656 49.4521 9.05656C46.1873 9.05656 43.5348 10.757 41.4603 14.1579C39.6919 17.0486 38.8076 20.2454 38.8076 23.7481C38.8076 26.3667 39.3518 28.6111 40.44 30.4817C41.6643 32.6242 43.4668 33.9167 45.8812 34.4268C46.5273 34.5629 47.1395 34.6309 47.7176 34.6309C51.0163 34.6309 53.6689 32.9304 55.7095 29.5296C57.4779 26.6049 58.3621 23.408 58.3621 19.9054C58.3621 17.2527 57.818 15.0423 56.7297 13.2057ZM52.4108 22.626C51.9347 24.8705 51.0845 26.5368 49.8262 27.6593C48.8399 28.5435 47.9217 28.9176 47.0715 28.7476C46.2553 28.5775 45.5751 27.8634 45.065 26.537C44.6569 25.4828 44.4529 24.4286 44.4529 23.4423C44.4529 22.5921 44.5209 21.7419 44.6909 20.9597C44.997 19.5654 45.5751 18.2051 46.4933 16.9127C47.6156 15.2463 48.8059 14.5661 50.0303 14.8042C50.8465 14.9742 51.5266 15.6884 52.0367 17.0147C52.4448 18.0689 52.6489 19.1232 52.6489 20.1094C52.6829 20.9936 52.5808 21.8438 52.4108 22.626Z" fill="white"/>
</g>
<defs>
<clipPath id="clip0_84_777">
<rect width="83.6601" height="50" fill="white" transform="translate(0.169922 0.758545)"/>
</clipPath>
</defs>
</svg>
